<svg viewBox="0 0 300 300" xmlns="http://www.w3.org/2000/svg">
    <path
        d="m135.76 101.61a8.93 8.93 0 0 0 -.6-1.49c-.07-.14-.14-.28-.22-.42a14.26 14.26 0 0 0 -4.26-4.48 22.86 22.86 0 0 0 -4.51-2.49 31 31 0 0 0 -6.17-1.86.5.5 0 0 0 -.13 0c-8.18-1.58-12.51 6.73-14 10.4a2.81 2.81 0 0 0 -1.81-1.31 2.08 2.08 0 0 0 -1.78.63 3.55 3.55 0 0 0 -.57.63 2.85 2.85 0 0 0 -.34.57 2.42 2.42 0 0 0 -.14 1.87c.63 1.87 3.5 2.95 4.47 3.27-.61 2.62-2.51 12 1.13 14 2.48 1.37 15.13 6.41 21.51 6.41a4.58 4.58 0 0 0 3.16-.86c1.31-1.27 1.79-3.76 2.09-6.81 0-.49.1-1 .14-1.5s.07-.92.11-1.39c.27-3.42.58-7.29 1.68-10.25a.57.57 0 0 0 0-.12 7.77 7.77 0 0 0 .24-4.8zm-3.36 15c-.31 3.85-.6 7.49-1.89 8.75-2.16 2.1-18.3-3.25-22.91-5.79-2.26-1.25-1.36-8.58-.26-12.91a.74.74 0 0 0 -.52-.9.76.76 0 0 0 -.37-.26c-.85-.24-3.35-1.21-3.75-2.39a1.07 1.07 0 0 1 .27-1.06c.34-.47.68-.71.92-.68.51.08 1.14 1.13 1.43 1.9v.05a.77.77 0 0 0 .72.5.75.75 0 0 0 .7-.54s.09-.3.25-.75c.87-2.38 4-9.64 9.95-10.37a8.23 8.23 0 0 1 1.58 0 7.56 7.56 0 0 1 1 .14h.08a30.43 30.43 0 0 1 6.06 1.85 17 17 0 0 1 7.61 5.74 5.83 5.83 0 0 1 .33.53 8.34 8.34 0 0 1 .5 1 6.24 6.24 0 0 1 .16 4.09c0 .14-.09.28-.14.42-.14.37-.26.76-.38 1.15a49 49 0 0 0 -1.34 9.57z"
        fill="#231f20" />
    <path
        d="m133.31 99.9c-6.5-1.11-14.06-5-15.52-5.82l.7-1.63a.74.74 0 0 0 0-.29 7.56 7.56 0 0 1 1 .14 53.29 53.29 0 0 0 6.12 1.86 17 17 0 0 1 7.7 5.74z"
        fill="#231f20" />
    <path
        d="m117 92.2a25.91 25.91 0 0 1 -3.89 7 9 9 0 0 1 -6.06 3.32c.83-2.33 3.95-9.59 9.95-10.32z"
        fill="#231f20" />
    <path
        d="m129 103.83a.74.74 0 0 1 1 .41l.72 1.79 3.6-.45a6.24 6.24 0 0 0 -.16-4.09c-7-.83-15.11-5-17-6a20.5 20.5 0 0 1 -3 4.78 10.29 10.29 0 0 1 -7.56 3.85h-.64a.75.75 0 0 1 -.68-.74c-.29-.77-.92-1.82-1.43-1.9-.24 0-.58.21-.92.68a1.07 1.07 0 0 0 -.27 1.06c.4 1.18 2.9 2.15 3.75 2.39a.76.76 0 0 1 .37.26.74.74 0 0 1 .52.9c-1.1 4.33-2 11.66.26 12.91 4.61 2.54 20.75 7.89 22.91 5.79 1.29-1.26 1.58-4.9 1.89-8.75a49 49 0 0 1 1.38-9.5l-3.46.44h-.09a.75.75 0 0 1 -.7-.47l-.94-2.31a.75.75 0 0 1 .45-1.05zm.34 7.31c.37-1.41 1.16-2.41 1.76-2.25s.78 1.42.41 2.82-1.16 2.41-1.76 2.25-.75-1.42-.4-2.82zm-12.81-11.87a.75.75 0 0 1 1.06-.1l5.34 4.45 1.07-1.33a.75.75 0 0 1 1-.11.74.74 0 0 1 .12 1l-1.55 1.92a.73.73 0 0 1 -.51.28h-.06a.78.78 0 0 1 -.48-.17l-5.93-4.94a.74.74 0 0 1 -.06-1zm5 9c-.37 1.4-1.15 2.41-1.76 2.25s-.78-1.43-.41-2.83 1.16-2.41 1.76-2.25.82 1.46.44 2.86zm3.06 12.33h-.43a7.92 7.92 0 0 1 -5.89-2.72 5.76 5.76 0 0 1 -2.14.4c-.28 0-.59 0-1 .07a4.94 4.94 0 0 1 -4.27-1.42 3.87 3.87 0 0 1 5.54-5.4 6.9 6.9 0 0 1 1.58 2.82 11 11 0 0 0 .47 1.17 6.45 6.45 0 0 0 6 3.57.75.75 0 1 1 .09 1.49zm1.93-6.75a4.21 4.21 0 0 1 -.49 2.14c-.86 1.37-2.73 1.45-3.62 1.49a.75.75 0 0 1 -.75-.72.74.74 0 0 1 .72-.78c1 0 2-.17 2.41-.79a2.84 2.84 0 0 0 .26-1.39l.27-7.73a.79.79 0 0 1 .77-.72.75.75 0 0 1 .73.77z"
        fill="#ffe3e4" />
    <path
        d="m126.82 106.15-.27 7.73a4.21 4.21 0 0 1 -.49 2.14c-.86 1.37-2.73 1.45-3.62 1.49a.75.75 0 0 1 -.75-.72.74.74 0 0 1 .72-.78c1 0 2-.17 2.41-.79a2.84 2.84 0 0 0 .26-1.39l.27-7.73a.79.79 0 0 1 .77-.72.75.75 0 0 1 .7.77z"
        fill="#231f20" />
    <path
        d="m118.54 92.16a.74.74 0 0 1 0 .29l-.7 1.63c-.19.46-.4.92-.62 1.37a20.5 20.5 0 0 1 -3 4.78 10.29 10.29 0 0 1 -7.56 3.85h-.64a.75.75 0 0 1 -.68-.74v-.07a.74.74 0 0 1 .81-.68 6.46 6.46 0 0 0 .88 0 9 9 0 0 0 6.06-3.32 25.91 25.91 0 0 0 3.89-7l.14-.33a.73.73 0 0 1 1-.4.73.73 0 0 1 .42.62z"
        fill="#231f20" />
    <path
        d="m143.55 98.36c-1.47 2.4-4.09 3.27-7.14 3.27-.21 0-.43 0-.65 0a8.93 8.93 0 0 0 -.6-1.49c-.07-.14-.14-.28-.22-.42a14.26 14.26 0 0 0 -4.26-4.48 22.86 22.86 0 0 0 -4.51-2.49c2.62.64 5.09 1.07 7.25 1.45l1 .17a34.51 34.51 0 0 0 4.66.43c2.55.13 4.23.21 4.82 1.33a2.37 2.37 0 0 1 -.35 2.23z"
        fill="#231f20" />
    <path
        d="m119.08 91.31a.76.76 0 0 1 .84-.47.5.5 0 0 1 .13 0 53.49 53.49 0 0 0 6.12 1.86 22.86 22.86 0 0 1 4.51 2.49c-1.56-.29-3.23-.63-5-1.06a53.29 53.29 0 0 1 -6.12-1.86.77.77 0 0 1 -.48-.96z"
        fill="#231f20" />
    <path
        d="m134.14 101.49c-7-.83-15.11-5-17-6l-.36-.2a.75.75 0 0 1 -.29-1 .74.74 0 0 1 1-.29l.25.14c1.46.78 9 4.71 15.52 5.82.63.1 1.25.18 1.85.22a8.93 8.93 0 0 1 .6 1.49c-.48-.07-1.02-.12-1.57-.18z"
        fill="#231f20" />
    <path
        d="m125.17 103.23-1.55 1.92a.73.73 0 0 1 -.51.28h-.11a.78.78 0 0 1 -.48-.17l-5.93-4.94a.74.74 0 0 1 -.1-1 .75.75 0 0 1 1.06-.1l5.34 4.45 1.07-1.33a.75.75 0 0 1 1-.11.74.74 0 0 1 .21 1z"
        fill="#231f20" />
    <path
        d="m135.61 106.17a.88.88 0 0 1 0 .23.57.57 0 0 1 0 .12.78.78 0 0 1 -.61.48l-1.18.15-3.46.44h-.09a.75.75 0 0 1 -.7-.47l-.94-2.31a.75.75 0 0 1 .42-1 .74.74 0 0 1 1 .41l.72 1.79 3.6-.45.47-.06a.75.75 0 0 1 .77.67z"
        fill="#231f20" />
    <path
        d="m121.56 108.3c-.37 1.4-1.15 2.41-1.76 2.25s-.78-1.43-.41-2.83 1.16-2.41 1.76-2.25.79 1.43.41 2.83z"
        fill="#231f20" />
    <path
        d="m131.52 111.71c-.37 1.4-1.16 2.41-1.76 2.25s-.78-1.42-.41-2.82 1.16-2.41 1.76-2.25.78 1.42.41 2.82z"
        fill="#231f20" />
    <path
        d="m124.53 119.14a6.45 6.45 0 0 1 -6-3.57 11 11 0 0 1 -.47-1.17 6.9 6.9 0 0 0 -1.58-2.82 3.87 3.87 0 0 0 -5.54 5.4 4.94 4.94 0 0 0 4.27 1.42c.36 0 .67-.06 1-.07a5.76 5.76 0 0 0 2.14-.4 7.92 7.92 0 0 0 5.89 2.72h.43a.75.75 0 1 0 -.09-1.49zm-8.43-2.31c-.31 0-.65 0-1.06.08a3.49 3.49 0 0 1 -3-.93 2.48 2.48 0 0 1 .11-3.27 2.35 2.35 0 0 1 1.66-.64 2.32 2.32 0 0 1 1.62.61 5.65 5.65 0 0 1 1.2 2.24 13.38 13.38 0 0 0 .52 1.29c.07.15.15.3.23.45a5 5 0 0 1 -1.28.17z"
        fill="#231f20" />
    <path
        d="m117.4 116.66a5 5 0 0 1 -1.3.17c-.31 0-.65 0-1.06.08a3.49 3.49 0 0 1 -3-.93 2.48 2.48 0 0 1 .11-3.27 2.35 2.35 0 0 1 1.66-.64 2.32 2.32 0 0 1 1.62.61 5.65 5.65 0 0 1 1.2 2.24 13.38 13.38 0 0 0 .52 1.29c.09.15.17.3.25.45z"
        fill="#fff" />
    <path
        d="m135.42 39a.72.72 0 0 1 -.43.39c-.29.1-28.64 10.13-37.4 29.6-7.78 17.29 2.22 29 4.74 31.61.29.29.48.47.54.52a.76.76 0 0 1 0 1.06.73.73 0 0 1 -.56.25.77.77 0 0 1 -.5-.19l-.44-.44c-2.37-2.51-13.37-15.24-5.15-33.47 6.63-14.73 23.52-24 32.5-28l1.65-.73c2.33-1 3.86-1.53 4.12-1.62a.41.41 0 0 1 .16 0 .74.74 0 0 1 .8.49.79.79 0 0 1 -.03.53z"
        fill="#231f20" />
    <path
        d="m141 38.41a11.5 11.5 0 0 0 -.52-1.53 25 25 0 0 0 -1.72-3.35c-1-1.63-3.54-5.3-5.36-4.39a1.85 1.85 0 0 0 -1 1.15 5.3 5.3 0 0 0 .13 2.82 12.37 12.37 0 0 0 .47 1.53 21 21 0 0 0 1 2.34s0 0 0 0 .26.44.56.88.47.68.77 1.06c.92 1.2 2.21 2.55 3.46 2.8a2.29 2.29 0 0 0 .44 0 2 2 0 0 0 1.2-.4c.88-.5.89-1.65.57-2.91zm-1.39 1.8a.52.52 0 0 1 -.44.08c-1.17-.23-2.93-2.57-3.78-4s-1.9-4.39-1.53-5.53a.46.46 0 0 1 .17-.26c.9 0 4 3.9 5.24 7.43.61 1.63.43 2.22.35 2.28z"
        fill="#231f20" />
    <path
        d="m139.62 40.21a.52.52 0 0 1 -.44.08c-1.17-.23-2.93-2.57-3.78-4s-1.9-4.39-1.53-5.53a.46.46 0 0 1 .17-.26c.9 0 4 3.9 5.24 7.43.6 1.63.42 2.22.34 2.28z"
        fill="#ffe3e4" />
    <path
        d="m210.49 122.42a.75.75 0 0 1 -.75.72h-.22l-6.83-.31-1.5-.07-67.55-3.09h-.43a.75.75 0 0 1 .06-1.5h.51l75.7 3.47h.29a.75.75 0 0 1 .72.78z"
        fill="#231f20" />
    <path
        d="m213 116.52c-1-.21-2.37.07-3.49 2.57a.67.67 0 0 0 -.06.28v2.26 1.5c.15 3.35.7 6.81 2.29 7.42a1.06 1.06 0 0 0 .35.09h.16a1.57 1.57 0 0 0 1.08-.43 6 6 0 0 0 1.33-2.8c.09-.33.17-.67.25-1 .1-.51.19-1 .27-1.55.12-.77.21-1.54.28-2.24s.1-1.1.13-1.56c.06-1 .08-1.62.08-1.65a3.83 3.83 0 0 0 -2.67-2.89zm-2 3c.32-.68.89-1.67 1.64-1.59s1.54 1.15 1.61 1.42a38.51 38.51 0 0 1 -.46 5.16c0 .33-.11.67-.17 1-.35 1.91-.81 3.47-1.29 3.6-.72-.11-1.45-4.32-1.33-9.55z"
        fill="#231f20" />
    <path
        d="m213.58 124.78a.74.74 0 0 0 0 .76c-.35 1.91-.81 3.47-1.29 3.6-.71-.15-1.44-4.35-1.33-9.58.32-.68.89-1.67 1.64-1.59s1.54 1.15 1.61 1.42a38.51 38.51 0 0 1 -.46 5.16.74.74 0 0 0 -.17.23z"
        fill="#ffe3e4" />
    <path
        d="m224.4 131.55a2.31 2.31 0 0 1 .84 1.84c0 1.38 0 3.69-46.59 5.66-21 .88-42.23 1.28-45.47 1.33l-27.55 47.47c2.74 3.8 22.47 31.36 25.79 38.47s5.26 40.68 5.58 45.68c5.23 1 19.3 4.27 18.77 8.46-.14 1.12-.39 3.2-19.85 2-9.29-.55-18.63-1.61-18.72-1.62a.76.76 0 0 1 -.67-.74c0-.28-.56-28.52-6-42.24-5-12.79-26.51-33.57-29.48-36.4-21.46 8.15-43.72 17.96-44.05 20.54.47 1.19 4.83 7.61 9.88 15 17 25 24.88 37.4 23.58 40-1.59 3.18-19.15 6-29.82 6a26.63 26.63 0 0 1 -6.4-.57c-1.69-.46-2.52-1.23-2.45-2.29.25-3.68 11.72-6.82 16.12-7.9-5-5.82-30.34-36.09-35.84-55.34-5.99-20.83 44.28-37.2 49.58-38.9l18.08-55.88c-2.09-2.4-13.34-17-10.4-51.08 2.91-33.95 46.83-45.78 60.22-48.6l.37-.07c5.79-1.25 8.86-1 10 .84a1.91 1.91 0 0 1 .19 1.61 2.72 2.72 0 0 1 -.61 1c1.41 0 2.83.24 3.39 1 .68 1 0 2.3-.73 3.39a3.31 3.31 0 0 1 3.1 1.33c1.2 2-2.52 5.42-4.17 6.79a.73.73 0 0 1 -1-.12.76.76 0 0 1 .09-1.06c.14-.11.27-.23.4-.35 2.13-1.85 3.76-4 3.44-4.52-.57-1-2.76-.55-3.48-.33a.75.75 0 0 1 -.74-1.25c1.36-1.37 2.1-2.78 1.92-3s-2.63-.5-4.78-.19a.75.75 0 0 1 -.41-1.43c.8-.34 2-1.11 2.21-1.73a.39.39 0 0 0 0-.36c-.4-.66-1.76-1.24-5.8-.63-.74.11-1.57.26-2.51.46h-.06l-.38.08c-2.2.47-5.24 1.18-8.8 2.19l-1.45.43c-17.8 5.32-46.49 18-48.78 44.63-3.09 36 10.16 50.11 10.29 50.25a.77.77 0 0 1 .18.75l-18.31 56.19-.17.53a.75.75 0 0 1 -.49.49h-.12c-2.88.89-54.48 17.44-48.88 37 5.89 20.6 36 55.37 36.35 55.72a.82.82 0 0 1 .12.2.69.69 0 0 1 0 .51.76.76 0 0 1 -.54.5l-.71.17c-7.47 1.77-15.32 4.74-15.45 6.65 0 .15.34.47 1.35.74 7.58 2.06 33.14-2 34.48-4.62.23-.7-.7-2.83-2.35-5.81-.23-.42-.48-.86-.74-1.31-4.9-8.56-14.44-22.6-20.4-31.36-6.07-8.94-9.53-14.06-10-15.43-.42-1.1-1.19-3.17 22.34-13.2 11.32-4.83 23-9.22 23.1-9.26a.75.75 0 0 1 .77.15c1 .95 24.69 23.28 30.19 37.28 3.74 9.52 5.18 25.38 5.73 34.89 0 .54.06 1.07.08 1.57.14 2.65.2 4.65.23 5.64 16.77 1.88 35.23 2.72 36.27.8.25-2-9.23-5.15-18.15-6.89a.77.77 0 0 1 -.25-.1.74.74 0 0 1 -.36-.6s0-.31 0-.79c-.31-5.52-2.26-38.24-5.39-44.93s-22-33.14-25.41-37.9l-.52-.73a.76.76 0 0 1 -.13-.41.67.67 0 0 1 .09-.41l28-48.25a.75.75 0 0 1 .64-.37c21.66-.35 51.81-1.31 71.4-2.77l1.74-.13c3-.23 5.73-.48 8.1-.74 1.83-.2 3.44-.41 4.81-.62 2.72-.43 4.46-.88 5-1.36a.8.8 0 0 0 -.3-.56c-.79-.65-2.91-.55-4.06-.33a.75.75 0 0 1 -.27-1.48c2.19-.42 4.63-1.45 4.63-2.26s-2.43-1.69-4.61-2a.75.75 0 0 1 -.16-1.44c.68-.26 2.57-1.27 2.29-2.37-.17-.66-2.93-.77-5.73-.22h-.14a.77.77 0 0 1 -.89-.59.77.77 0 0 1 .59-.89l.57-.11c2-.35 6.49-.84 7.06 1.42a3 3 0 0 1 -1.39 3.1c1.74.48 3.91 1.4 3.91 3.08a3 3 0 0 1 -1.95 2.46 3.19 3.19 0 0 1 1 .55z"
        fill="#231f20" />
    <path
        d="m140.49 36.88a25 25 0 0 0 -1.72-3.35c-1-1.63-3.54-5.3-5.36-4.39a1.85 1.85 0 0 0 -1 1.15 5.3 5.3 0 0 0 .13 2.82c-1.31-.08-2.5-.4-2.64-.73-.08-.49 1.26-2.25 2.81-3.69a.76.76 0 0 0 .16-.89.75.75 0 0 0 -.81-.4c-1.72.32-3.56.27-3.93-.09.26-.76 3.24-2.54 4.09-2.67a.74.74 0 0 0 .73-.75.71.71 0 0 0 -.19-.49c4-.61 5.4 0 5.8.63a.39.39 0 0 1 0 .36c-.2.62-1.41 1.39-2.21 1.73a.75.75 0 0 0 .41 1.43c2.15-.31 4.48-.22 4.78.19s-.56 1.67-1.92 3a.75.75 0 0 0 .74 1.25c.72-.22 2.91-.62 3.48.33.41.58-1.22 2.68-3.35 4.56z"
        fill="#ffe3e4" />
    <path
        d="m134 33.89a.76.76 0 0 1 -.75.75h-.25c-1.11 0-3.91-.22-4.51-1.72-.41-1 .57-2.53 1.69-3.8-1.34 0-2.82-.15-3.38-1.09a1.41 1.41 0 0 1 0-1.51 9 9 0 0 1 3.38-2.66 5.62 5.62 0 0 1 2-.72.73.73 0 0 1 .56.26.71.71 0 0 1 .19.49.74.74 0 0 1 -.73.75c-.85.13-3.83 1.91-4.09 2.67.37.36 2.21.41 3.93.09a.75.75 0 0 1 .81.4.76.76 0 0 1 -.16.89c-1.55 1.44-2.89 3.2-2.81 3.69.14.33 1.33.65 2.64.73q.33 0 .66 0a.76.76 0 0 1 .82.78z"
        fill="#231f20" />
    <path
        d="m223.44 132.71a.8.8 0 0 1 .3.56c-.49.48-2.23.93-5 1.36a.79.79 0 0 0 -.51-.24 21.63 21.63 0 0 1 -3.72-.5 14.51 14.51 0 0 1 2.42-1 .76.76 0 0 0 .5-.86.78.78 0 0 0 -.79-.6 8.19 8.19 0 0 1 -3.47-.35 18.44 18.44 0 0 1 4.21-3.79.75.75 0 0 0 -.08-1.27l-2.1-1.14c.12-.77.21-1.54.28-2.24 2.8-.55 5.56-.44 5.73.22.28 1.1-1.61 2.11-2.29 2.37a.75.75 0 0 0 .16 1.44c2.18.32 4.61 1.22 4.61 2s-2.44 1.84-4.63 2.26a.75.75 0 0 0 .27 1.48c1.2-.25 3.32-.35 4.11.3z"
        fill="#ffe3e4" />
    <path d="m215.6 126.73-.87.68c.09-.33.17-.67.25-1z" fill="#ffe3e4" />
    <path
        d="m219 135.18a.75.75 0 0 1 -.75.71 17.13 17.13 0 0 1 -4.22-.64 2 2 0 0 1 -1.1-.69 1 1 0 0 1 -.12-.91 2.13 2.13 0 0 1 .85-.92 2.9 2.9 0 0 1 -1.71-.89 1.17 1.17 0 0 1 -.21-.89 1.33 1.33 0 0 1 .13-.4 11.1 11.1 0 0 1 2.92-3.14l.87-.68-.62-.34-1.1-.59a.62.62 0 0 1 -.27-.26.75.75 0 0 1 1-1.06l.65.36 2.1 1.14a.75.75 0 0 1 .08 1.27 18.44 18.44 0 0 0 -4.21 3.79 8.19 8.19 0 0 0 3.47.35.78.78 0 0 1 .79.6.76.76 0 0 1 -.5.86 14.51 14.51 0 0 0 -2.42 1 21.63 21.63 0 0 0 3.72.5.79.79 0 0 1 .51.24.76.76 0 0 1 .14.59z"
        fill="#231f20" />
    <path
        d="m104.77 188.59a.69.69 0 0 1 -.12.47.74.74 0 0 1 -.55.36 64.12 64.12 0 0 1 -41.48-9.7.79.79 0 0 1 -.28-.32.77.77 0 0 1 .05-.72.76.76 0 0 1 .73-.34.72.72 0 0 1 .31.11 62.83 62.83 0 0 0 40.51 9.48h.06a.76.76 0 0 1 .77.66z"
        fill="#231f20" />
    <path
        d="m69.07 276.31c-1.34 2.67-26.9 6.68-34.48 4.62-1-.27-1.36-.59-1.35-.74.13-1.91 8-4.88 15.45-6.65a.74.74 0 0 0 .38.2 24.77 24.77 0 0 0 17.64-3.24c1.66 2.98 2.59 5.11 2.36 5.81z"
        fill="#231f20" />
    <path
        d="m67.13 270.24-.41.26a24.77 24.77 0 0 1 -17.64 3.24.74.74 0 0 1 -.38-.2.77.77 0 0 1 -.21-.68.76.76 0 0 1 .88-.6l.57.09a23.18 23.18 0 0 0 16-3.17l.33-.21a.76.76 0 0 1 1 .23.74.74 0 0 1 -.14 1.04z"
        fill="#231f20" />
    <path
        d="m135.45 271.89-.22.05c-5.63 2.1-10.9 2.2-17.56.32-.55-9.51-2-25.37-5.73-34.89-5.5-14-29.18-36.33-30.19-37.28a.75.75 0 0 0 -.77-.15c-.12 0-11.78 4.43-23.1 9.26-23.53 10-22.76 12.1-22.34 13.2.51 1.37 4 6.49 10 15.43 6 8.76 15.5 22.8 20.4 31.36a23.18 23.18 0 0 1 -16 3.17.82.82 0 0 0 -.12-.2c-.31-.35-30.46-35.12-36.35-55.72-5.6-19.59 46-36.14 48.88-37a.79.79 0 0 0 .28.32 64.12 64.12 0 0 0 41.48 9.7.74.74 0 0 0 .55-.36c3.42 4.76 22.28 31.19 25.41 37.9s5.07 39.37 5.38 44.89z"
        fill="#e6bd66" />
    <path
        d="m154.25 280.27c-1 1.92-19.5 1.08-36.27-.8 0-1-.09-3-.23-5.64a32.55 32.55 0 0 0 8.64 1.27 26.3 26.3 0 0 0 9.36-1.76.27.27 0 0 0 .1-.06.77.77 0 0 0 .25.1c8.9 1.74 18.4 4.88 18.15 6.89z"
        fill="#231f20" />
    <path
        d="m135.85 273.28a.27.27 0 0 1 -.1.06 26.3 26.3 0 0 1 -9.36 1.76 32.55 32.55 0 0 1 -8.64-1.27c-.24 0-.48-.12-.72-.19a.76.76 0 0 1 -.52-.93.75.75 0 0 1 .93-.51l.23.06c6.66 1.88 11.93 1.78 17.56-.32l.22-.05a.73.73 0 0 1 .74.49.71.71 0 0 1 -.34.9z"
        fill="#231f20" />
    <path
        d="m264.29 98.48a13.94 13.94 0 0 0 -1.59-2.95 12.48 12.48 0 0 0 -1.12-1.4 8.2 8.2 0 0 0 -.89-.88 11.5 11.5 0 0 0 -1.28-1 13.89 13.89 0 0 0 -7.2-2.54 14.61 14.61 0 0 0 -3.4.17 13.86 13.86 0 0 0 -1.48.3 17.13 17.13 0 0 0 -2.44.84c-.47.19-.93.41-1.39.64a48.54 48.54 0 0 0 -6.3 4.05c-1.64 1.17-3.31 2.37-5.08 3.39-.44.25-.88.5-1.33.72s-1.21.59-1.83.84a6.44 6.44 0 0 1 -2.78 0c-1.5-.19-3-.39-3.86.69s-.56 2.75.73 5.79a19.68 19.68 0 0 0 12.21 11.06 22.43 22.43 0 0 0 2.9.74c.49.1 1 .17 1.48.24a24.91 24.91 0 0 0 3 .18 31 31 0 0 0 15.36-4.49c2.64 2.05 4.73 2 5.83 1.29a.39.39 0 0 0 .1-.08 2 2 0 0 0 .82-1.4 1.88 1.88 0 0 0 -.06-.74 2.88 2.88 0 0 0 -2.26-1.84 13.5 13.5 0 0 0 1.19-1.85 13.69 13.69 0 0 0 .64-1.34 10.35 10.35 0 0 0 .36-1 12.89 12.89 0 0 0 .39-1.48c0-.23.08-.46.11-.69a12.19 12.19 0 0 0 .14-1.6 14.11 14.11 0 0 0 -.97-5.66zm-3.18 12.9c-.13.17-.28.35-.43.51a2.87 2.87 0 0 1 -.23.26.74.74 0 0 0 -.17.75.14.14 0 0 0 0 .06.73.73 0 0 0 .67.45c1.41 0 2.17.5 2.3.95a.38.38 0 0 1 0 .26.57.57 0 0 1 -.24.28l-.14.08c-.56.24-1.73.23-3.41-.93-.22-.15-.45-.33-.69-.52a.83.83 0 0 0 -.39-.16.75.75 0 0 0 -.78 0q-.34.21-.69.39c-7.18 4.06-14.68 5.11-21.19 3a18.19 18.19 0 0 1 -11.3-10.21c-1.35-3.2-1.09-4.08-.92-4.3s.49-.25.93-.25a12 12 0 0 1 1.55.14 7.33 7.33 0 0 0 3.53-.11 27.11 27.11 0 0 0 4.19-2.15q.65-.39 1.26-.81c1.06-.7 2.09-1.44 3.11-2.16a59 59 0 0 1 5.08-3.39c.39-.22.78-.43 1.18-.62a14.87 14.87 0 0 1 7.78-1.71 12.52 12.52 0 0 1 9 20.22z"
        fill="#231f20" />
    <path
        d="m263.27 114.62a.7.7 0 0 0 -.38.36c-.56.24-1.73.23-3.41-.93l1.5-.65c1.41 0 2.17.5 2.3.95a.38.38 0 0 1 -.01.27z"
        fill="#ffe3e4" />
    <path
        d="m262.9 99a12.35 12.35 0 0 0 -10.78-7.88 14.87 14.87 0 0 0 -7.78 1.71.69.69 0 0 1 .3.45l.65 3.1 1.49-.64a.75.75 0 0 1 1 .4.74.74 0 0 1 -.39 1l-2.33 1a.8.8 0 0 1 -.3.06.85.85 0 0 1 -.35-.08.73.73 0 0 1 -.38-.51l-.84-4a.66.66 0 0 1 0-.14 59 59 0 0 0 -5.08 3.39c-1 .72-2.05 1.46-3.11 2.16a9.25 9.25 0 0 0 3.56 4 2.45 2.45 0 0 1 1.5-.75 11.57 11.57 0 0 0 5.27-2.68.75.75 0 0 1 1 1.12 13.16 13.16 0 0 1 -5.94 3c-.23 0-.61.13-.67.23s.06.37.36.63l.34.27a5 5 0 0 1 .78.7.74.74 0 0 1 .73.08 31.9 31.9 0 0 0 19.21 5.76 12.35 12.35 0 0 0 1.76-12.38zm-19.45-.73c-.32 1-1.05 1.58-1.61 1.39s-.76-1.13-.44-2.09 1.06-1.57 1.6-1.34.78 1.13.45 2.08zm13.32 2.58-4.19.19a2.3 2.3 0 0 1 0 1.57c-.33 1-1 1.58-1.62 1.38s-.76-1.12-.43-2.08a3.16 3.16 0 0 1 .41-.8l-1.46.07a.76.76 0 0 1 -.75-.66l-.33-2.83a.75.75 0 1 1 1.49-.18l.25 2.14 6.64-.3a.75.75 0 1 1 .06 1.5z"
        fill="#ffe3e4" />
    <path
        d="m241.29 107a.39.39 0 0 1 -.16.1.74.74 0 0 1 -1-.4 2.1 2.1 0 0 0 -.68-.69c-.14-.1-.27-.21-.4-.32a2.54 2.54 0 0 1 -.78-1.13 10.51 10.51 0 0 1 -4.58-4.72 27.11 27.11 0 0 1 -4.19 2.15 7.33 7.33 0 0 1 -3.53.11 12 12 0 0 0 -1.55-.14c-.44 0-.79.06-.93.25s-.43 1.1.92 4.3a18.19 18.19 0 0 0 11.3 10.21c6.51 2.14 14 1.09 21.19-3a.71.71 0 0 1 .39-.41l1.15-.5a33.25 33.25 0 0 1 -17.15-5.81zm3.24 4.55a.76.76 0 0 1 -.62.33.72.72 0 0 1 -.42-.13c-5.42-3.66-7.31-1.51-7.33-1.49a.76.76 0 0 1 -1 .12.75.75 0 0 1 -.13-1c.1-.14 2.67-3.34 9.35 1.17a.75.75 0 0 1 .15 1.01z"
        fill="#ca7375" />
    <g fill="#231f20">
        <path
            d="m239.69 103.94c0 .06.06.37.36.63l.34.27a5 5 0 0 1 .78.7 2.17 2.17 0 0 1 .36.59.73.73 0 0 1 -.24.88.39.39 0 0 1 -.16.1.74.74 0 0 1 -1-.4 2.1 2.1 0 0 0 -.68-.69c-.14-.1-.27-.21-.4-.32a2.54 2.54 0 0 1 -.78-1.13 1.59 1.59 0 0 1 .13-1.43l.11-.15a2.45 2.45 0 0 1 1.5-.75 11.57 11.57 0 0 0 5.27-2.68.75.75 0 0 1 1 1.12 13.16 13.16 0 0 1 -5.94 3c-.21.08-.59.16-.65.26z" />
        <path
            d="m239.53 104.36a.77.77 0 0 1 -.68.42.8.8 0 0 1 -.33-.08 1.71 1.71 0 0 1 -.23-.13 10.51 10.51 0 0 1 -4.58-4.72 3.25 3.25 0 0 1 -.19-.37.75.75 0 0 1 .38-1 .76.76 0 0 1 1 .39 1.18 1.18 0 0 0 .1.13 9.25 9.25 0 0 0 3.56 4c.21.13.44.25.66.36a.76.76 0 0 1 .31 1z" />
        <path
            d="m262.14 112.1a.72.72 0 0 1 -.34.65.81.81 0 0 1 -.38.12h-1.14-.11c-.57 0-1.14 0-1.71-.05a33.25 33.25 0 0 1 -17.17-5.82l-.26-.17a.76.76 0 0 1 -.18-1 .75.75 0 0 1 1-.18 31.9 31.9 0 0 0 19.21 5.76h.25a.73.73 0 0 1 .83.69z" />
        <path
            d="m261.8 112.75a.81.81 0 0 1 -.42.47l-.4.18-1.5.65-1.56.67a.8.8 0 0 1 -.3.06.75.75 0 0 1 -.69-.45.73.73 0 0 1 0-.58.71.71 0 0 1 .39-.41l1.15-.5 2.22-1h.1a.76.76 0 0 1 1 .39.75.75 0 0 1 .01.52z" />
        <path
            d="m243.45 98.31c-.32 1-1.05 1.58-1.61 1.39s-.76-1.13-.44-2.09 1.06-1.61 1.6-1.38.78 1.13.45 2.08z" />
        <path
            d="m252.54 102.65c-.33 1-1 1.58-1.62 1.38s-.76-1.12-.43-2.08a3.16 3.16 0 0 1 .41-.8c.37-.47.82-.72 1.21-.59a.77.77 0 0 1 .47.52 2.3 2.3 0 0 1 -.04 1.57z" />
        <path
            d="m247.37 97.16-2.33 1a.8.8 0 0 1 -.3.06.85.85 0 0 1 -.35-.08.73.73 0 0 1 -.38-.51l-.84-4a.66.66 0 0 1 0-.14.74.74 0 0 1 .59-.75.76.76 0 0 1 .59.13.69.69 0 0 1 .3.45l.65 3.1 1.49-.64a.75.75 0 0 1 1 .4.74.74 0 0 1 -.42.98z" />
        <path
            d="m257.49 100.11a.75.75 0 0 1 -.72.78l-4.19.19-1.68.07-1.46.07a.76.76 0 0 1 -.75-.66l-.33-2.83a.75.75 0 1 1 1.49-.18l.25 2.14 6.64-.3a.75.75 0 0 1 .75.72z" />
        <path
            d="m244.53 111.56a.76.76 0 0 1 -.62.33.72.72 0 0 1 -.42-.13c-5.42-3.66-7.31-1.51-7.33-1.49a.76.76 0 0 1 -1 .12.75.75 0 0 1 -.13-1c.1-.14 2.67-3.34 9.35 1.17a.75.75 0 0 1 .15 1z" />
        <path
            d="m275.36 108.6a.75.75 0 0 1 -.56-.25 9.44 9.44 0 0 0 -9.85-2.57.75.75 0 0 1 -.48-1.42 11 11 0 0 1 11.45 3 .75.75 0 0 1 -.56 1.25z" />
        <path
            d="m270.24 110.89a.75.75 0 0 1 -.59-.29 7.18 7.18 0 0 0 -5.12-2.74.75.75 0 0 1 -.7-.8.76.76 0 0 1 .8-.7 8.7 8.7 0 0 1 6.2 3.32.75.75 0 0 1 -.59 1.21z" />
        <path
            d="m267.38 113.4a.75.75 0 0 1 -.73-.59 3.23 3.23 0 0 0 -2.67-2.44.75.75 0 1 1 .19-1.49 4.72 4.72 0 0 1 3.94 3.6.75.75 0 0 1 -.57.9z" />
        <path
            d="m269.28 96.63a.74.74 0 0 1 -.28-.05 15 15 0 0 0 -7.17-1 .75.75 0 1 1 -.16-1.49 16.47 16.47 0 0 1 7.89 1.07.75.75 0 0 1 -.28 1.45z" />
        <path
            d="m259.83 93.57a.75.75 0 0 1 -.33-1.43 11.67 11.67 0 0 1 9-.43.75.75 0 0 1 -.52 1.41 10.29 10.29 0 0 0 -7.85.37.74.74 0 0 1 -.3.08z" />
        <path
            d="m248.17 91.07a.75.75 0 0 1 -.73-.57 6.25 6.25 0 0 0 -5.44-4.5.75.75 0 0 1 -.7-.8.76.76 0 0 1 .8-.7 7.7 7.7 0 0 1 6.77 5.65.75.75 0 0 1 -.54.91z" />
        <path
            d="m245 92.42a.73.73 0 0 1 -1-.19s-.17-.24-.46-.62a78.52 78.52 0 0 0 -10.33-11.07c-.39-.35-.79-.69-1.19-1-7.07-6-16.86-12.1-28.31-13.12-25.69-2.31-39.5 5-48.66 11.69-1.17.85-1.48 1.58-1.32 1.83.28.43 1.94.66 4.52-.76a.75.75 0 0 1 .81 1.26 9.85 9.85 0 0 0 -3 2.92c.43 0 1.68-.11 4.75-1.54a.75.75 0 0 1 .93.26.73.73 0 0 1 -.1 1 12.71 12.71 0 0 0 -2.77 3.27c.46 0 1.73-.23 5-1.66a.73.73 0 0 1 .63 0 .75.75 0 0 1 .4.49 1.35 1.35 0 0 0 .94.92 2.43 2.43 0 0 0 2.24-.87 3 3 0 0 0 -.26-2.05.75.75 0 0 1 .35-1c.24-.18 29.48-14.28 53.83 5.82.38.31.76.64 1.14 1a57.91 57.91 0 0 1 9 10l.23.32a.76.76 0 0 1 -.61 1.19.74.74 0 0 1 -.61-.32l-.34-.47c-22.96-31.8-56.53-18.72-61.46-16.52a3.51 3.51 0 0 1 -.15 2.86.52.52 0 0 1 -.1.11 3.8 3.8 0 0 1 -3.75 1.32 2.89 2.89 0 0 1 -1.65-1.2c-4.39 1.88-5.69 1.73-6.24.9-.34-.5-.42-1.21.79-2.78-2.56.81-3.31.29-3.63-.26s-.14-1.44.68-2.44a2.89 2.89 0 0 1 -2.87-1c-.27-.42-.93-1.93 1.7-3.84 9.36-6.81 23.47-14.33 49.68-12 22.48 2 38.72 22.89 41.08 26.08l.3.41a.74.74 0 0 1 -.19 1.06z" />
        <path
            d="m234.07 257.47c-7.39-12.11-15.77-25.84-16.44-28 .09-1 4.31-4.51 8-7.63 4.62-3.87 10.37-8.69 14.47-13.38a.77.77 0 0 0 -.07-1.06.75.75 0 0 0 -.91-.06l-.15.13c-4 4.6-9.72 9.38-14.31 13.22-6.81 5.71-9 7.68-8.51 9.16.73 2.39 8.8 15.61 16.59 28.39 3.61 5.91 7.52 12.32 10 16.6l.1.17v.06c1.21 2 2.07 3.58 2.41 4.3-3.43 1.44-28.71 5.09-36.7 3.86a6.47 6.47 0 0 1 -1.4-.34.91.91 0 0 1 -.31-.18.37.37 0 0 1 0-.35c1.25-2.09 11.13-4.34 17.19-5.29h.17a.75.75 0 0 0 .47-1.21l-.15-.19c-9.32-11.85-32.89-43.46-32.36-50.28.23-3 7.7-11.64 14.93-20 3.27-3.76 6.64-7.65 9.45-11.15l.12-.14a.75.75 0 1 0 -1.16-.94l-.19.23c-2.79 3.45-6.12 7.29-9.35 11-8.06 9.3-15 17.32-15.3 20.84-.62 8.2 26.89 43.91 32 50.52-4 .69-15.4 2.87-17.16 5.84a1.87 1.87 0 0 0 -.18 1.62c.47 1.28 3.55 1.73 7.68 1.73 9.88 0 25.73-2.6 26-2.63 7.82-1.38 7.82-2 7.82-2.69.18-.85-2.58-5.49-12.75-22.15z" />
        <path
            d="m239.64 119.13-11 51.32a0 0 0 0 1 0 0 .75.75 0 0 1 -.72.57h-.16a.75.75 0 0 1 -.58-.89l.07-.31 10.92-50.94v-.09a.75.75 0 0 1 1.46.32z" />
        <path
            d="m279.25 192.17c-.73.83-1.49 1.61-2.29 2.37a45.15 45.15 0 0 1 -4.87 4.08 36.42 36.42 0 0 1 -21.51 7.25 39.83 39.83 0 0 1 -18.69-4.87c-3.8-2-4.11-3.5-3.7-4.4a1.93 1.93 0 0 1 1.7-1c-.63-.77-1-1.61-.63-2.32a1.38 1.38 0 0 1 1.23-.68c-.72-.85-.63-1.39-.43-1.76.56-1 2.5-.81 5.78.68a2.55 2.55 0 0 1 1.07-1.42 3 3 0 0 1 3.09-.1c1.11.66 1.3 2.12 1.3 3.09 2.59-.22 10.74-1.23 17.15-5.58.46-.31.9-.63 1.34-1a17.93 17.93 0 0 0 6.39-9.42c4.29-15.57 2.83-33.1 2.81-33.28a.75.75 0 0 1 1.5-.13c0 .09.37 4.42.21 10.66 0 .55 0 1.11-.05 1.68a96.35 96.35 0 0 1 -3 21.46 19.25 19.25 0 0 1 -6.66 10c-.34.28-.7.55-1.06.81-8.14 5.88-19.23 6.32-19.39 6.33a.73.73 0 0 1 -.58-.25.76.76 0 0 1 -.18-.61c.09-.66.09-2.13-.52-2.5a1.49 1.49 0 0 0 -1.5.06 1.17 1.17 0 0 0 -.5 1.21.74.74 0 0 1 -.3.7.76.76 0 0 1 -.77.06 15.86 15.86 0 0 0 -4.43-1.61 13.25 13.25 0 0 0 2.77 2 .75.75 0 0 1 -.69 1.32 8.92 8.92 0 0 0 -3.13-1 6.24 6.24 0 0 0 2.1 2.06.75.75 0 0 1 -.69 1.32c-1.46-.57-2.4-.41-2.55-.25a1.72 1.72 0 0 0 .44.64 10.58 10.58 0 0 0 2.61 1.79c13.22 7 26.93 6.21 38.61-2.22a42.77 42.77 0 0 0 6.65-6s0 0 0 0 .28-.3.4-.45a51.73 51.73 0 0 0 12.52-35.21c0-.49 0-1-.06-1.48a46.75 46.75 0 0 0 -.56-4.85c-5.18-30.42-23.18-33.05-26.18-33.27h-.4a.76.76 0 0 1 -.74-.77.94.94 0 0 1 .06-.3.7.7 0 0 1 .38-.36.73.73 0 0 1 .3-.06 10 10 0 0 1 1.2.12c4.71.68 21.93 5.19 26.87 34.5a52.21 52.21 0 0 1 -12.42 42.96z" />
        <path
            d="m279.32 191.69a3.9 3.9 0 0 1 -.07.48c-.34 2.07-2.57 10.36-16.13 18.37a13 13 0 0 1 -6.66 1.6c-4.67 0-10.27-1.68-16.15-4.27l-1.15-.52a159.43 159.43 0 0 1 -22.46-13.1c-.42-.28-.83-.56-1.23-.85-8.95-6.17-16-11.88-17.91-13.47-2 1.56-10.27 7.84-18.72 13.86-20 14.24-21.67 13.23-22.49 12.74-2.67-1.6-19.12-17.18-18.8-22.85a2.29 2.29 0 0 1 1.38-2.06c2.73-1.24 9.78 4.93 12.83 7.77l.23.21.32-.3c5.24-4.94 32.51-30.08 44.93-30.08 5.74 0 17.87 4.92 30 10.62l1.39.65c14 6.63 27.63 14.09 31.16 16l.82.45a.71.71 0 0 1 .36.52.7.7 0 0 1 -.07.51.75.75 0 0 1 -1 .3l-1.42-.79c-8.19-4.49-49.47-26.79-61.21-26.79s-39 25.11-44 29.74l-.77.72a.72.72 0 0 1 -.42.2.76.76 0 0 1 -.62-.2c-4.63-4.44-10.51-8.83-11.92-8.19a.79.79 0 0 0 -.5.77c-.26 4.49 14.85 19.55 18.08 21.49.71.2 3-.94 6.44-3l1.45-.89c7.92-5 20.44-14 32.1-23a.73.73 0 0 1 .93 0c.49.4 48.46 40.21 64.31 30.84 9.49-5.61 13.17-11.33 14.59-14.68a10.67 10.67 0 0 0 .86-2.95.79.79 0 0 1 0-.15s0 0 0 0a.74.74 0 0 1 .4-.45.86.86 0 0 1 .36-.08.75.75 0 0 1 .76.83z" />
    </g>
    <path
        d="m232 79.51a22.18 22.18 0 0 0 -10 8.49c-24.35-20.1-53.59-6-53.93-5.86a.75.75 0 0 0 -.35 1 3 3 0 0 1 .26 2.05 2.43 2.43 0 0 1 -2.24.87 1.35 1.35 0 0 1 -.94-.92.75.75 0 0 0 -.4-.49.73.73 0 0 0 -.63 0c-3.22 1.43-4.49 1.65-5 1.66a12.71 12.71 0 0 1 2.82-3.31.73.73 0 0 0 .1-1 .75.75 0 0 0 -.93-.26c-3.07 1.43-4.32 1.56-4.75 1.54a9.85 9.85 0 0 1 3-2.92.75.75 0 0 0 -.81-1.26c-2.58 1.42-4.24 1.19-4.52.76-.16-.25.15-1 1.32-1.83 9.16-6.65 23-14 48.66-11.69 11.46 1.07 21.25 7.16 28.34 13.17z"
        fill="#ffe3e4" />
    <path
        d="m243.5 91.61a48.54 48.54 0 0 0 -6.3 4.05c-1.64 1.17-3.31 2.37-5.08 3.39a57.91 57.91 0 0 0 -9-10s0 0 0 0a20.75 20.75 0 0 1 9.75-8.24.74.74 0 0 0 .28-.21 78.52 78.52 0 0 1 10.35 11.01z"
        fill="#edd092" />
    <path
        d="m233.17 80.54a.74.74 0 0 1 -.28.21 20.75 20.75 0 0 0 -9.75 8.25s0 0 0 0a.72.72 0 0 1 -.62.34.79.79 0 0 1 -.39-.11.76.76 0 0 1 -.24-1l.11-.23a22.18 22.18 0 0 1 10-8.52c.11-.06.23-.1.34-.15a.75.75 0 0 1 1 .41.74.74 0 0 1 -.17.8z"
        fill="#231f20" />
    <path
        d="m278.27 191a.74.74 0 0 0 -.4.45s0 0 0 0a42.77 42.77 0 0 1 -6.65 6c-11.68 8.43-25.39 9.22-38.61 2.22a10.58 10.58 0 0 1 -2.61-1.79 1.72 1.72 0 0 1 -.44-.64c.15-.16 1.09-.32 2.55.25a.75.75 0 0 0 .69-1.32 6.24 6.24 0 0 1 -2.1-2.06 8.92 8.92 0 0 1 3.13 1 .75.75 0 0 0 .69-1.32 13.25 13.25 0 0 1 -2.77-2 15.86 15.86 0 0 1 4.43 1.61.76.76 0 0 0 .77-.06.74.74 0 0 0 .3-.7 1.17 1.17 0 0 1 .5-1.21 1.49 1.49 0 0 1 1.5-.06c.61.37.61 1.84.52 2.5a.76.76 0 0 0 .18.61.73.73 0 0 0 .58.25c.16 0 11.25-.45 19.39-6.33a.75.75 0 0 0 1-.3.7.7 0 0 0 .07-.51 19.25 19.25 0 0 0 6.66-10 96.35 96.35 0 0 0 3-21.46 21.29 21.29 0 0 0 20.14-.29 51.73 51.73 0 0 1 -12.52 35.16z"
        fill="#ffe3e4" />
    <path
        d="m290.73 154.28a.77.77 0 0 0 -.51.09 19.78 19.78 0 0 1 -19.52 0c.16-6.24-.21-10.57-.21-10.66a.75.75 0 0 0 -1.5.13c0 .18 1.48 17.71-2.81 33.28a17.93 17.93 0 0 1 -6.39 9.42c-3.53-2-17.19-9.41-31.16-16a0 0 0 0 0 0 0l11-51.32a24.91 24.91 0 0 0 3 .18 31 31 0 0 0 15.37-4.53c2.64 2.05 4.73 2 5.83 1.29a.39.39 0 0 0 .1-.08c3 .22 21.07 2.85 26.21 33.35a46.75 46.75 0 0 1 .59 4.85z"
        fill="#edd092" />
    <path
        d="m291 155.66-.18.1a21.29 21.29 0 0 1 -20.14.29c-.27-.13-.53-.28-.79-.43a.77.77 0 0 1 -.27-1 .75.75 0 0 1 1-.27h.08a19.78 19.78 0 0 0 19.52 0 .76.76 0 0 1 1 .27.75.75 0 0 1 -.22 1.04z"
        fill="#231f20" />
    <path
        d="m163.57 202.24c-3.4 2.07-5.73 3.21-6.44 3-3.23-1.94-18.34-17-18.08-21.49a.79.79 0 0 1 .5-.77c1.41-.64 7.29 3.75 11.92 8.19a.76.76 0 0 0 .62.2 31.88 31.88 0 0 0 11.48 10.87z"
        fill="#ca7375" />
    <path
        d="m277 194.56c-1.42 3.35-5.1 9.07-14.59 14.68-15.85 9.37-63.82-30.44-64.31-30.84a.73.73 0 0 0 -.93 0c-11.66 9-24.18 18-32.1 23l-.09-.06a30.62 30.62 0 0 1 -11.65-10.83c4.92-4.63 32.21-29.74 44-29.74s53 22.3 61.21 26.79c-6.41 4.35-14.56 5.36-17.15 5.58 0-1-.19-2.43-1.3-3.09a3 3 0 0 0 -3.09.08 2.55 2.55 0 0 0 -1.07 1.42c-3.28-1.49-5.22-1.72-5.78-.68-.2.37-.29.91.43 1.76a1.38 1.38 0 0 0 -1.23.68c-.38.71 0 1.55.63 2.32a1.93 1.93 0 0 0 -1.7 1c-.41.9-.1 2.39 3.7 4.4a39.83 39.83 0 0 0 18.68 4.92 36.42 36.42 0 0 0 21.51-7.25 45.15 45.15 0 0 0 4.83-4.14z"
        fill="#231f20" />
    <path
        d="m165.25 202.3a.75.75 0 0 1 -.67.4.71.71 0 0 1 -.34-.08c-.23-.12-.45-.24-.67-.38a31.88 31.88 0 0 1 -11.48-10.86c-.21-.32-.41-.64-.6-1a.76.76 0 0 1 .27-1 0 0 0 0 1 0 0 .75.75 0 0 1 1 .27c.16.27.32.54.49.81a30.62 30.62 0 0 0 11.65 10.83l.09.06a.74.74 0 0 1 .26.95z"
        fill="#231f20" />
    <path
        d="m245.36 279.38c-3.43 1.44-28.71 5.09-36.7 3.86a6.47 6.47 0 0 1 -1.4-.34.91.91 0 0 1 -.31-.18.37.37 0 0 1 0-.35c1.25-2.09 11.13-4.34 17.19-5.29a35.05 35.05 0 0 0 18.3-1 .74.74 0 0 0 .46-1c1.26 2.04 2.1 3.58 2.46 4.3z"
        fill="#ca7375" />
    <path
        d="m242.82 274.85a.73.73 0 0 0 -.82-.24 33.52 33.52 0 0 1 -17.32 1c-9.32-11.85-32.89-43.46-32.36-50.28.23-3 7.7-11.64 14.93-20 3.27-3.76 6.64-7.65 9.45-11.15a159.43 159.43 0 0 0 22.46 13.1l-.15.13c-4 4.6-9.72 9.38-14.31 13.22-6.81 5.71-9 7.68-8.51 9.16.73 2.39 8.8 15.61 16.59 28.39 3.61 5.98 7.52 12.39 10.04 16.67z"
        fill="#231f20" />
    <path
        d="m242.49 276a35.05 35.05 0 0 1 -18.3 1l-.84-.19a.75.75 0 1 1 .36-1.46l1 .22a33.52 33.52 0 0 0 17.32-1 .73.73 0 0 1 .82.24l.1.17v.06a.74.74 0 0 1 -.46.96z"
        fill="#231f20" />
    <path
        d="m214 135.25c-2.37.26-5.09.51-8.1.74a17.48 17.48 0 0 1 -3.18-13.17l6.83.31c.15 3.35.7 6.81 2.29 7.42a1.33 1.33 0 0 0 -.13.4 1.17 1.17 0 0 0 .21.89 2.9 2.9 0 0 0 1.71.89 2.13 2.13 0 0 0 -.85.92 1 1 0 0 0 .12.91 2 2 0 0 0 1.1.69z"
        fill="#ffe3e4" />
    <path
        d="m205.81 137.15a.74.74 0 0 1 -.45.15.76.76 0 0 1 -.6-.29c-.22-.29-.43-.59-.63-.89a18.86 18.86 0 0 1 -2.94-13.37c0-.17 0-.33.08-.5a.76.76 0 0 1 .88-.59.74.74 0 0 1 .59.87 2.93 2.93 0 0 0 0 .29 17.48 17.48 0 0 0 3.13 13.18l.08.11a.74.74 0 0 1 -.14 1.04z"
        fill="#231f20" />
    <path
        d="m204.13 136.12c-19.59 1.46-49.74 2.42-71.4 2.77a.75.75 0 0 0 -.64.37l-28 48.25a.67.67 0 0 0 -.09.41h-.06a62.83 62.83 0 0 1 -40.51-9.48.72.72 0 0 0 -.31-.11l18.17-56.13a.77.77 0 0 0 -.18-.75c-.13-.14-13.38-14.26-10.29-50.25 2.29-26.66 31-39.31 48.78-44.63a21.92 21.92 0 0 0 9.12 13.71c-9 4-25.87 13.32-32.5 28-8.2 18.23 2.8 31 5.2 33.43a2.42 2.42 0 0 0 -.14 1.87c.63 1.87 3.5 2.95 4.47 3.27-.61 2.62-2.51 12 1.13 14 2.48 1.37 15.13 6.41 21.51 6.41a4.58 4.58 0 0 0 3.16-.86c1.31-1.27 1.79-3.76 2.09-6.81l67.55 3.09a18.86 18.86 0 0 0 2.94 13.44z"
        fill="#ca7375" />
    <path
        d="m134.65 37.9a.41.41 0 0 0 -.16 0c-.26.09-1.79.63-4.12 1.62a20.34 20.34 0 0 1 -9.37-13.38c3.56-1 6.6-1.72 8.8-2.19l.38-.08a9 9 0 0 0 -3.38 2.66 1.41 1.41 0 0 0 0 1.51c.56.94 2 1.13 3.38 1.09-1.12 1.27-2.1 2.76-1.69 3.8.6 1.5 3.4 1.7 4.51 1.72a21 21 0 0 0 1 2.34s0 0 0 0 .35.47.65.91z"
        fill="#ffe3e4" />
    <path
        d="m130.9 40.74a.75.75 0 0 1 -1 .27c-.4-.23-.78-.48-1.16-.73a21.92 21.92 0 0 1 -9.12-13.71c0-.18-.08-.37-.11-.55a.75.75 0 0 1 .61-.87.77.77 0 0 1 .87.61c0 .13.05.25.08.38a20.34 20.34 0 0 0 9.32 13.41l.27.17a.75.75 0 0 1 .24 1.02z"
        fill="#231f20" />
    <path d="m237.24 203.75-20.95-11.1c-.85-.45-1.61.84-.76 1.3l20.95 11.05c.85.5 1.61-.8.76-1.25z"
        fill="#fff" />
    <path
        d="m235.12 182.95a204.3 204.3 0 0 0 -36.7-16.63.62.62 0 0 0 -.65.12h-.09a192.33 192.33 0 0 0 -34.93 23.35c-.74.62.33 1.68 1.06 1.06a190.54 190.54 0 0 1 34.46-23 202.3 202.3 0 0 1 36.1 16.39.75.75 0 0 0 .75-1.29z"
        fill="#fff" />
    <path
        d="m228.88 269.14q-12.66-20.72-23.51-42.45l17.17-23.19c.57-.78-.73-1.53-1.3-.76l-17.59 23.77a.67.67 0 0 0 .49 1.06q10.82 21.66 23.45 42.33c.49.82 1.79.1 1.29-.76z"
        fill="#fff" />
    <path
        d="m275.16 163.31a48 48 0 0 1 -5.9 19.62c-.47.85.83 1.6 1.3.76a50 50 0 0 0 6.1-20.38c.07-.97-1.43-.96-1.5 0z"
        fill="#fff" />
    <path d="m277.85 169.11-1.33 5.33a.75.75 0 0 0 1.45.4l1.33-5.33a.75.75 0 0 0 -1.45-.4z"
        fill="#fff" />
    <path
        d="m96.68 59.41a28.18 28.18 0 0 0 -9.5 23.9c.09 1 1.59 1 1.5 0a26.79 26.79 0 0 1 9.06-22.83c.73-.65-.34-1.71-1.06-1.07z"
        fill="#fff" />
    <path
        d="m55.52 190.16a269.85 269.85 0 0 0 -25.06 11.3c-5.92 3.06-10.69 7.06-8.88 14.36 1 3.88 3.26 7.32 5.3 10.68l7.61 12.56 16 26.38a.75.75 0 0 0 1.3-.76c-8.6-14.15-17.51-28.17-25.79-42.52-2-3.53-4.36-8-3-12.2s5.88-6 9.43-7.85q11.47-5.83 23.45-10.51c.92-.35.54-1.8-.36-1.44z"
        fill="#231f20" />
    <path
        d="m96.2 198.37c-.71-.66-1.77.4-1.06 1.06a101.2 101.2 0 0 1 32.12 68.57c.05 1 1.55 1 1.5 0a102.75 102.75 0 0 0 -32.56-69.63z"
        fill="#231f20" />
    <path d="m117.2 148.23-12.7 22.65a.75.75 0 0 0 1.3.76l12.7-22.64a.75.75 0 0 0 -1.3-.77z"
        fill="#231f20" />
    <path d="m111.93 148.26-6 11.33c-.45.85.84 1.61 1.3.76l6-11.33c.44-.85-.85-1.61-1.3-.76z"
        fill="#231f20" />
    <path d="m179.44 125-18.84-.69c-1 0-1.21 1.44-.25 1.48l18.84.69c.96 0 1.22-1.48.25-1.48z"
        fill="#231f20" />
    <path
        d="m208.3 76a37.46 37.46 0 0 0 -16.4-6c-1-.12-.95 1.38 0 1.5a35.87 35.87 0 0 1 15.64 5.84c.81.46 1.56-.84.76-1.34z"
        fill="#231f20" />
    <path
        d="m268.81 116.4a49.34 49.34 0 0 1 -29.38 4.6c-.94-.14-1.35 1.3-.4 1.45a51.08 51.08 0 0 0 30.54-4.73c.86-.46.11-1.72-.76-1.32z"
        fill="#231f20" />
    <path
        d="m278.11 122.74a84.46 84.46 0 0 1 -40.64 7.13c-1-.07-1 1.43 0 1.5a86 86 0 0 0 41.4-7.34c.88-.39.13-1.68-.76-1.29z"
        fill="#231f20" />
    <path
        d="m284.67 132.13a101.23 101.23 0 0 1 -48.67 6.53c-1-.11-1 1.39 0 1.5a102.15 102.15 0 0 0 49.11-6.59c.89-.35.46-1.8-.44-1.44z"
        fill="#231f20" />
    <path
        d="m269.28 146.89a69.16 69.16 0 0 1 -35.83-.51.75.75 0 0 0 -.4 1.45 70.79 70.79 0 0 0 36.63.51.75.75 0 0 0 -.4-1.45z"
        fill="#231f20" />
    <path
        d="m269 159.15a64.31 64.31 0 0 1 -38.21-1.67c-.91-.33-1.3 1.12-.4 1.45a65.73 65.73 0 0 0 39 1.67.75.75 0 0 0 -.39-1.45z"
        fill="#231f20" />
    <path
        d="m267 173.59a60.47 60.47 0 0 1 -38.28-4.59c-.87-.41-1.63.88-.76 1.3a62.18 62.18 0 0 0 39.4 4.71c.95-.17.55-1.61-.36-1.42z"
        fill="#231f20" />
    <path
        d="m289.64 147.31a26.6 26.6 0 0 1 -18.18 1 .75.75 0 0 0 -.4 1.45 28.21 28.21 0 0 0 19.33-1.19c.89-.34.13-1.64-.75-1.26z"
        fill="#231f20" />
    <path
        d="m232.24 102.56-2.67.33a.78.78 0 0 0 -.75.75.75.75 0 0 0 .75.75l2.67-.33a.78.78 0 0 0 .75-.75.75.75 0 0 0 -.75-.75z"
        fill="#231f20" />
    <path
        d="m232.3 106.77a.76.76 0 0 0 -.92-.52l-1.67.67a.77.77 0 0 0 -.52.92.76.76 0 0 0 .92.52l1.67-.67a.77.77 0 0 0 .52-.92z"
        fill="#231f20" />
    <path
        d="m238.1 112.78a.77.77 0 0 0 -1.06 0l-1.67 1.33a.76.76 0 0 0 0 1.06.77.77 0 0 0 1.06 0l1.67-1.33a.76.76 0 0 0 0-1.06z"
        fill="#231f20" />
    <path d="m248 112.44-1.67 2c-.61.74.44 1.8 1.06 1.06l1.67-2c.66-.73-.4-1.8-1.06-1.06z"
        fill="#231f20" />
    <path d="m241.59 113.26-1 1.67a.75.75 0 0 0 1.3.76l1-1.67a.75.75 0 0 0 -1.3-.76z"
        fill="#231f20" />
</svg>