<svg viewBox="0 0 300 300" xmlns="http://www.w3.org/2000/svg"><g fill="#231f20"><path d="m159.41 65.74a.71.71 0 0 1 -.16.28 1.14 1.14 0 0 1 -.11.11.73.73 0 0 1 -.65.12l-.21-.05a2.51 2.51 0 0 0 -1.65.31 4.17 4.17 0 0 0 -1.9 2.46c-.54 2 .09 4.17.71 5.86.13.37.27.74.41 1.1a18.9 18.9 0 0 1 1.4 5.18.41.41 0 0 1 0 .11.74.74 0 0 1 -.7.8.74.74 0 0 1 -.74-.7c0-.13 0-.26 0-.38a18.14 18.14 0 0 0 -1.29-4.48c-.14-.37-.28-.74-.41-1.12-.69-1.9-1.4-4.4-.74-6.77a5.61 5.61 0 0 1 2.61-3.37 3.85 3.85 0 0 1 2.55-.49 3.41 3.41 0 0 1 .46.1.65.65 0 0 1 .34.22.75.75 0 0 1 .08.71z"/><path d="m186.12 59.62a8.37 8.37 0 0 1 -4.1 2.89.72.72 0 0 1 -.81-.17.51.51 0 0 1 -.17-.23.78.78 0 0 1 0-.58.73.73 0 0 1 .4-.41l.82-.35a5.62 5.62 0 0 0 2.6-1.95 2.55 2.55 0 0 0 .23-2.09 1.24 1.24 0 0 0 -.73-.82 3.05 3.05 0 0 0 -1.55.07l-12 2.43a24.83 24.83 0 0 0 -6.81 2.05 9.08 9.08 0 0 0 -3.42 3.07c-.11.18-.22.36-.32.55a6.25 6.25 0 0 0 -.38.93 3.65 3.65 0 0 0 -.14.47.74.74 0 0 1 -.55.54.57.57 0 0 1 -.18 0h-.18a.72.72 0 0 1 -.34-.19.71.71 0 0 1 -.21-.71c0-.14.07-.28.11-.42a9.79 9.79 0 0 1 4.9-5.57 25.81 25.81 0 0 1 7.15-2.2l12-2.44a4.41 4.41 0 0 1 2.34 0 2.74 2.74 0 0 1 1.66 1.74 4.07 4.07 0 0 1 -.32 3.39z"/><path d="m175.43 72.88a.75.75 0 0 0 -1.24.85 30.78 30.78 0 0 1 3.42 5.92 9.26 9.26 0 0 1 -1.78 1.08.75.75 0 0 0 .31 1.43.71.71 0 0 0 .32-.07 9.66 9.66 0 0 0 2.39-1.54c.38-.4 1.09-1.13-3.42-7.67z"/><path d="m161.09 63.54q-.41.25-.78.54a6.25 6.25 0 0 0 -.38.93 3.65 3.65 0 0 0 -.14.47.74.74 0 0 1 -.54.54 1.14 1.14 0 0 1 -.11.11.73.73 0 0 1 -.65.12l-.21-.05a.18.18 0 0 0 -.05.07.7.7 0 0 1 .43.36l.5 1a8.43 8.43 0 0 1 2.34-2.63l.63-.4c.67-.4 1.34-.76 2-1.09-1 .07-2.02.07-3.04.03zm-2.18 16.59a4.79 4.79 0 0 1 -1.15 1.14.75.75 0 0 0 .44 1.37.81.81 0 0 0 .43-.14 5.51 5.51 0 0 0 .86-.74c-.12-.31-.34-.88-.58-1.63zm2.18-16.59q-.41.25-.78.54a6.25 6.25 0 0 0 -.38.93 3.65 3.65 0 0 0 -.14.47.74.74 0 0 1 -.54.54 1.14 1.14 0 0 1 -.11.11.73.73 0 0 1 -.65.12l-.21-.05a.18.18 0 0 0 -.05.07 8.24 8.24 0 0 0 -.76 1.31c.3.58.61 1.17.9 1.77a8.78 8.78 0 0 1 .79-1.74 8.43 8.43 0 0 1 2.34-2.61l.63-.4c.67-.4 1.34-.76 2-1.09-1 .07-2.02.07-3.04.03zm-2.18 16.59a4.79 4.79 0 0 1 -1.15 1.14.75.75 0 0 0 .44 1.37.81.81 0 0 0 .43-.14 5.51 5.51 0 0 0 .86-.74c-.12-.31-.34-.88-.58-1.63zm2.18-16.59q-.41.25-.78.54a6.25 6.25 0 0 0 -.38.93 3.65 3.65 0 0 0 -.14.47.74.74 0 0 1 -.54.54 1.14 1.14 0 0 1 -.11.11.73.73 0 0 1 -.65.12l-.21-.05a.18.18 0 0 0 -.05.07 8.24 8.24 0 0 0 -.76 1.31c.3.58.61 1.17.9 1.77a8.78 8.78 0 0 1 .79-1.74 8.43 8.43 0 0 1 2.34-2.61l.63-.4c.67-.4 1.34-.76 2-1.09-1 .07-2.02.07-3.04.03zm25 8.16c-1-2.42-2-4.71-2.68-6.69a8.13 8.13 0 0 0 -1.44-2.5 2.22 2.22 0 0 0 -.28-.33c-.22-.23-.46-.44-.7-.65a7 7 0 0 0 -.68-.5c-.7.21-1.4.41-2.11.59a6.86 6.86 0 0 1 1.83 1.06 6.36 6.36 0 0 1 2 2.84c.74 2 1.69 4.32 2.7 6.76 2.3 5.53 4.9 11.81 4.68 14.46-.27 3.2-10.51 7.89-18 7.33-3.57-.27-5.09-4.13-5.1-4.17a.75.75 0 0 0 -1.41.53c.08.19 1.86 4.79 6.4 5.14h1.74v.1l3.56 8.49-.45.22c-2.37 1.18-5.07 2.52-7.41 1.61-1.59-.62-3-2.27-4.06-4.88q-.13-.31-.27-.66v-.13a.75.75 0 0 0 -.57-.12c-.32.07-.65.13-1 .21l.17.53c.12.31.24.61.36.89 1.28 3 2.87 4.79 4.83 5.56a6.11 6.11 0 0 0 2.21.4c2.26 0 4.52-1.12 6.42-2.07.36-.18.72-.36 1.07-.52a.76.76 0 0 0 .39-.44.8.8 0 0 0 0-.53l-.55-1.32-3.13-7.44c7.15-.67 15.9-4.61 16.23-8.65.33-2.97-2.23-9.15-4.7-15.12zm-25-8.16q-.41.25-.78.54a6.25 6.25 0 0 0 -.38.93h1.57l.63-.4c.67-.4 1.34-.76 2-1.09-1 .06-2.02.06-3.04.02zm0 0q-.41.25-.78.54a6.25 6.25 0 0 0 -.38.93 3.65 3.65 0 0 0 -.14.47.74.74 0 0 1 -.54.54 1.14 1.14 0 0 1 -.11.11.73.73 0 0 1 -.65.12l-.21-.05a.18.18 0 0 0 -.05.07 8.24 8.24 0 0 0 -.76 1.31c.3.58.61 1.17.9 1.77a8.78 8.78 0 0 1 .79-1.74 8.43 8.43 0 0 1 2.34-2.61l.63-.4c.67-.4 1.34-.76 2-1.09-1 .07-2.02.07-3.04.03zm-2.18 16.59a4.79 4.79 0 0 1 -1.15 1.14.75.75 0 0 0 .44 1.37.81.81 0 0 0 .43-.14 5.51 5.51 0 0 0 .86-.74c-.12-.31-.34-.88-.58-1.63zm2.18-16.59q-.41.25-.78.54a8.94 8.94 0 0 0 -.92.8 2.09 2.09 0 0 0 -.15.15 7.52 7.52 0 0 0 -.7.81 4.22 4.22 0 0 0 -.27.36.18.18 0 0 0 -.05.07 8.24 8.24 0 0 0 -.76 1.31c.3.58.61 1.17.9 1.77a8.78 8.78 0 0 1 .79-1.74 8.43 8.43 0 0 1 2.35-2.61l.63-.4c.67-.4 1.34-.76 2-1.09-1 .07-2.02.07-3.04.03zm-2.18 16.59a4.79 4.79 0 0 1 -1.15 1.14.75.75 0 0 0 .44 1.37.81.81 0 0 0 .43-.14 5.51 5.51 0 0 0 .86-.74c-.12-.31-.34-.88-.58-1.63zm-1.67 1a10.4 10.4 0 0 0 -1.52-.17v.38a.74.74 0 0 0 .74.7.74.74 0 0 0 .7-.8.41.41 0 0 0 .08-.13zm3.85-17.57q-.41.25-.78.54a6.25 6.25 0 0 0 -.38.93 3.65 3.65 0 0 0 -.14.47.74.74 0 0 1 -.54.54 1.14 1.14 0 0 1 -.11.11.73.73 0 0 1 -.65.12l-.21-.05a.18.18 0 0 0 -.05.07.7.7 0 0 1 .43.36l.5 1a8.43 8.43 0 0 1 2.34-2.65l.63-.4c.67-.4 1.34-.76 2-1.09-1 .07-2.02.07-3.04.03z"/><path d="m164.48 100.36a.75.75 0 0 0 -.57-.12c-.32.07-.65.13-1 .21l-4.53-14.09c-1.19.34-3.47.78-4.93-.16a2.84 2.84 0 0 1 -1.29-2.32 2.51 2.51 0 0 1 .92-2.32 4 4 0 0 1 2.61-.62v.38a.74.74 0 0 0 .74.7.74.74 0 0 0 .7-.8.41.41 0 0 0 0-.11 18.9 18.9 0 0 0 -1.4-5.18c-.14-.36-.28-.73-.41-1.1-.62-1.69-1.25-3.89-.71-5.86a4.17 4.17 0 0 1 1.9-2.46 2.51 2.51 0 0 1 1.65-.31.18.18 0 0 0 -.05.07.7.7 0 0 0 -.58 0 .75.75 0 0 0 -.32 1l.14.26c.3.58.61 1.17.9 1.77a17 17 0 0 1 1.76 5.32 7.71 7.71 0 0 1 -1.21 5.45 4.79 4.79 0 0 1 -1.15 1.14.75.75 0 0 0 .44 1.37.81.81 0 0 0 .43-.14 5.51 5.51 0 0 0 .86-.74c.07.17.11.26.11.27a.75.75 0 0 1 -.93 1c-1.33-.47-3.76-1-4.65-.29a1 1 0 0 0 -.33 1 1.35 1.35 0 0 0 .6 1.17c1.11.72 3.57.06 4.34-.23a.78.78 0 0 1 .26 0 .75.75 0 0 1 .33.07.79.79 0 0 1 .39.45z"/><path d="m180.35 61c-.7.21-1.4.41-2.11.59a2.34 2.34 0 0 0 -.33-.14c-3.56-1.27-8.69-.47-13.77 2.08-1 0-2 0-3 0 .09-.07.19-.12.28-.18 6.07-3.61 12.6-4.87 17-3.29a8.56 8.56 0 0 1 1.93.94z"/><path d="m171.56 72.79c0 1.5-.78 2.71-1.75 2.71s-1.75-1.21-1.75-2.71.78-2.72 1.75-2.72 1.75 1.22 1.75 2.72z"/><path d="m181.06 70.46c0 1.5-.78 2.72-1.75 2.72s-1.75-1.22-1.75-2.72.78-2.71 1.75-2.71 1.75 1.25 1.75 2.71z"/><path d="m182.44 86.11a6.56 6.56 0 0 1 -5.68 2.89 8.12 8.12 0 0 1 -3-.59c-2.44-1-4.54-3-6.63-6.31a.75.75 0 0 1 1.27-.8c1.91 3 3.79 4.85 5.93 5.73s5.46.54 6.89-1.7a.75.75 0 0 1 1.27.81z"/><path d="m184.85 58.82a5.62 5.62 0 0 1 -2.6 1.95.74.74 0 0 0 -.68-.11l-1.22.37a8.56 8.56 0 0 0 -1.94-1c-4.44-1.58-11-.32-17 3.29-.09.06-.19.11-.28.18h-.46a9.08 9.08 0 0 1 3.33-3.04 24.83 24.83 0 0 1 6.74-2.05l12-2.43a3.05 3.05 0 0 1 1.55-.07 1.24 1.24 0 0 1 .73.82 2.55 2.55 0 0 1 -.17 2.09z"/><path d="m178.24 61.62a62.21 62.21 0 0 1 -14.1 1.94c5.08-2.55 10.21-3.35 13.77-2.08a2.34 2.34 0 0 1 .33.14z"/><path d="m182 62.09-.3.09-.53.16-1.13.34a63.21 63.21 0 0 1 -10.15 2l-1.25.13q-2.91.27-5.84.27c-.44 0-.89 0-1.33 0s-1 0-1.57 0h-.17a.77.77 0 0 1 -.37-.12.75.75 0 0 1 .44-1.38h.8.46 3a62.21 62.21 0 0 0 14.1-1.94c.71-.18 1.41-.38 2.11-.59l1.22-.37a.74.74 0 0 1 .68.11.79.79 0 0 1 .26.38.75.75 0 0 1 -.43.92z"/><path d="m159.49 81.76a5.51 5.51 0 0 1 -.86.74.81.81 0 0 1 -.43.14.75.75 0 0 1 -.44-1.37 4.79 4.79 0 0 0 1.15-1.14 7.71 7.71 0 0 0 1.21-5.45 17 17 0 0 0 -1.76-5.32c-.29-.6-.6-1.19-.9-1.77l-.14-.26a.75.75 0 0 1 .32-1 .76.76 0 0 1 1 .32l.5 1a20.86 20.86 0 0 1 2.46 6.88 8.92 8.92 0 0 1 -2.11 7.23z"/><path d="m219.78 288.18c-2.06 1.43-20.16 1.17-37.09.08l-1.14-6a37.59 37.59 0 0 0 10.79 1.61 31 31 0 0 0 9.26-1.37s0 0 0 0l1.31.25c5.6 1.01 15.87 2.88 16.87 5.43z"/><path d="m231.34 47.69a107.61 107.61 0 0 1 -2.08 31.31c-4.89 21.69-16.85 36-34.58 41.49-3.9 16.21-1.54 145.4 7.34 160.6l1.18.21c9.46 1.73 17.35 3.43 18.09 6.77a1.18 1.18 0 0 1 -.27 1c-1.05 1.23-7 1.62-14 1.62-9.13 0-20.19-.65-25-1a.78.78 0 0 1 -.69-.61l-20.6-108.5-55.73 108.42a.76.76 0 0 1 -.65.41c-6.58.16-39.5.84-42.16-1.75a1.1 1.1 0 0 1 -.36-.81c0-3 15-5.89 24.21-7.4 18.93-48.25 53.59-136.85 58.28-149.71-24 11-40.76 25.82-46 40.81a17 17 0 0 0 1 3.09c.81 2.14 1.66 4.35-.37 5.51a1.93 1.93 0 0 1 -1.63.15c-1.66-.56-3.26-3.28-4.09-4.94-3.47 5.32-8.86 12.88-11.14 12.09a1.27 1.27 0 0 1 -.8-.81c-.44-1.25.82-4.24 2.35-7.19-4.43 4.77-7.24 6.93-8.36 6.43a1.13 1.13 0 0 1 -.62-.73c-.23-.88.7-2.92 2-5.27-1.83 1.82-3.51 3.22-4.47 3.3a1.12 1.12 0 0 1 -.9-.27c-2.57-2.21 10.12-21.31 14.91-27.16.41-.49.88-1.09 1.43-1.76 8.82-11 35.52-44.17 75.28-52.59.32-.08.65-.14 1-.21a.75.75 0 0 1 .57.12.72.72 0 0 1 .32.47.69.69 0 0 1 0 .32.75.75 0 0 1 -.58.56l-.74.16c-39.35 8.24-65.89 41.22-74.64 52.11l-1.44 1.77c-.44.54-.89 1.1-1.32 1.67s-.74 1-1.1 1.44c-6.22 8.37-12.25 19.28-12.57 21.78 1.63-.79 6.44-6 10.33-10.83a.75.75 0 0 1 1.19.9c-3.53 4.9-7.23 10.75-7.76 12.66 1.82-1 7-6.47 11.33-11.51a.75.75 0 0 1 1.2.89c-3.14 5-6.23 11-6 12.32 1.37-.32 6.24-6.68 10-12.61a.72.72 0 0 1 .69-.34.73.73 0 0 1 .63.45c.8 1.85 2.52 4.94 3.78 5.35a.46.46 0 0 0 .41 0c.82-.47.54-1.48-.3-3.67a17.62 17.62 0 0 1 -1.07-3.59.71.71 0 0 1 0-.35 42.9 42.9 0 0 1 4.06-8.55c.19-.32.39-.63.6-.95 10.38-16.1 30.51-27.1 42.84-32.66l.82-.37a.79.79 0 0 1 .86.05c.51.4.51.4-2.18 7.47-1.59 4.17-3.87 10.12-6.63 17.24-1.28 3.31-2.7 7-4.25 10.95-.18.47-.37.95-.55 1.44-4.25 10.92-9.43 24.24-15.5 39.78-13.77 35.23-27.57 70.44-29.45 75.22l-.21.55a.75.75 0 0 1 -.58.47l-.32.05c-10.18 1.66-21.41 4.27-22.92 5.8 2.71 1.3 22.21 1.64 40.41 1.2l2.46-4.78.86-1.68 53.22-103.56a.74.74 0 0 1 .78-.4.77.77 0 0 1 .63.6l19.43 102.41.32 1.69 1.14 6c16.93 1.09 35 1.35 37.09-.08-1-2.55-11.27-4.42-16.85-5.44l-1.31-.25s0 0 0 0h-.18a.72.72 0 0 1 -.49-.32 8.5 8.5 0 0 1 -.48-.87c-5.83-11.93-8.83-72.87-9-116.72 0-.5 0-1 0-1.48-.06-21.55.57-38.71 1.9-43.42a.76.76 0 0 1 .51-.52c30.39-9.08 35.69-42 36.25-59.85 0-.51 0-1 0-1.5a88.87 88.87 0 0 0 -.33-10.25.81.81 0 0 1 .18-.58c3.26-3.74 6.62-8.36 6.76-9.65-1.36 0-4.55 3.15-6.84 6.2a.75.75 0 0 1 -1.24-.84c2-3.34 4.07-7.4 4.15-8.65-1.2.4-3 3.55-4.29 5.68-.66 1.13-1.28 2.19-1.86 3a.75.75 0 0 1 -.91.25.73.73 0 0 1 -.43-.84c1.08-5.11-.36-7.46-2.07-8a1.78 1.78 0 0 0 -1.11 0 .43.43 0 0 0 -.21.15.25.25 0 0 0 0 .11c1.08 2 1.19 7.14-.59 8.86a2.28 2.28 0 0 1 -3 .16c-2.33-1.38-1.65-4.38-1.22-6.11.07-.27.15-.59.2-.86-2.42 1.46-3.74 3.78-3.38 6a4.24 4.24 0 0 0 3.76 3.49.75.75 0 0 1 .61.63 38.7 38.7 0 0 1 .08 9.47c0 .5-.11 1-.17 1.53-1.57 12.37-7.28 26.47-12 33.74-6.36 9.73-26.17 13.12-27 13.26a.27.27 0 0 0 -.09 0l-.48.2a.57.57 0 0 1 -.22 0 .82.82 0 0 1 -.65-.47.76.76 0 0 1 .08-1.38.61.61 0 0 1 .24 0h1.12.18c2.89-.54 20.06-4.08 25.57-12.52 6-9.25 13.68-29.8 12-43.19a5.65 5.65 0 0 1 -4.45-4.61c-.47-3 1.3-6 4.51-7.79l.14-.06.31-.08a1.26 1.26 0 0 1 1.09.28 1.08 1.08 0 0 1 .21.28 2 2 0 0 1 .09 1.34c0 .3-.13.62-.22 1s-.13.54-.19.8c-.35 1.64-.39 3 .81 3.72.74.43 1 .17 1.15 0a5.43 5.43 0 0 0 .9-3.4 10.25 10.25 0 0 0 -.09-1.85 5.54 5.54 0 0 0 -.5-1.8 1.6 1.6 0 0 1 -.13-1.31 1.46 1.46 0 0 1 .38-.61 2.14 2.14 0 0 1 1-.55 3.63 3.63 0 0 1 2.57.39c.93.51 2.75 2 2.72 5.95a.44.44 0 0 1 0-.07c1.94-3.32 3.77-6.46 5.82-6.46a1.19 1.19 0 0 1 1.07.61c.46.82-.14 2.69-1.1 4.74 1.45-1.27 3-2.22 4.18-2a1.24 1.24 0 0 1 1 .83c.62 2.16-4.45 8.34-6.89 11.17z"/></g><path d="m97.89 174.23c.84 2.19 1.12 3.2.3 3.67a.46.46 0 0 1 -.41 0c-1.26-.41-3-3.5-3.78-5.35a.73.73 0 0 0 -.63-.45.72.72 0 0 0 -.69.34c-3.79 5.93-8.66 12.29-10 12.61-.19-1.35 2.9-7.34 6-12.32a.75.75 0 0 0 -1.2-.89c-4.28 5-9.51 10.51-11.33 11.51.53-1.91 4.23-7.76 7.76-12.66a.75.75 0 0 0 -1.19-.9c-3.89 4.82-8.7 10-10.33 10.83.32-2.5 6.35-13.41 12.57-21.78h.04a52.86 52.86 0 0 1 15.52 2.86h.23a.25.25 0 0 0 .12 0 42.9 42.9 0 0 0 -4.06 8.55.71.71 0 0 0 0 .35 17.62 17.62 0 0 0 1.08 3.63z" fill="#ffe3e4"/><path d="m101.51 161.25a.72.72 0 0 1 -.6.49.25.25 0 0 1 -.12 0h-.23a52.86 52.86 0 0 0 -15.56-2.87.74.74 0 0 1 -.66-.76.75.75 0 0 1 .75-.73h1a54.22 54.22 0 0 1 15 2.88.76.76 0 0 1 .48.48.72.72 0 0 1 -.06.51z" fill="#231f20"/><path d="m231.07 58.48a.74.74 0 0 1 -.7.79h-.27c-.52 0-1 0-1.56 0a31.07 31.07 0 0 1 -10.33-1.77l-.4-.14a.75.75 0 0 1 .52-1.41 29.63 29.63 0 0 0 11.76 1.75h.14a.74.74 0 0 1 .84.78z" fill="#231f20"/><path d="m229.81 47.53a88.87 88.87 0 0 1 .33 10.25 29.63 29.63 0 0 1 -11.76-1.78 38.7 38.7 0 0 0 -.08-9.47.75.75 0 0 0 -.61-.63 4.24 4.24 0 0 1 -3.76-3.49c-.36-2.25 1-4.57 3.38-6 0 .27-.13.59-.2.86-.43 1.73-1.11 4.73 1.32 6.17a2.28 2.28 0 0 0 3-.16c1.78-1.72 1.67-6.85.59-8.86a.25.25 0 0 1 0-.11.43.43 0 0 1 .21-.15s0 0 0 0a1.78 1.78 0 0 1 1.11 0c1.71.5 3.15 2.85 2.07 8a.73.73 0 0 0 .43.84.75.75 0 0 0 .91-.25c.58-.83 1.2-1.89 1.86-3 1.25-2.13 3.09-5.28 4.29-5.68-.08 1.25-2.11 5.31-4.15 8.65a.75.75 0 0 0 1.24.84c2.29-3.05 5.48-6.18 6.84-6.2-.14 1.29-3.5 5.91-6.76 9.65a.81.81 0 0 0 -.26.52z" fill="#ffe3e4"/><path d="m222.41 33.93a.81.81 0 0 1 -.26.23s0 0 0 0a.76.76 0 0 1 -.78-.08 1.29 1.29 0 0 0 -.84-.26 1.67 1.67 0 0 0 -.57.1 1.65 1.65 0 0 0 -1.09 1.08.73.73 0 0 1 -.72.56h-.19a.77.77 0 0 1 -.56-.78.34.34 0 0 1 0-.14 3.08 3.08 0 0 1 1.6-1.96 3 3 0 0 1 .41-.18h.08a3 3 0 0 1 2.36.18s0 0 0 0a2.57 2.57 0 0 1 .35.22.75.75 0 0 1 .21 1.03z" fill="#231f20"/><path d="m244.56 32.42a.75.75 0 0 1 -.75-.75v-.26a.75.75 0 1 1 1.5 0v.26a.75.75 0 0 1 -.75.75z" fill="#231f20"/><path d="m220.12 39h-.12a2.57 2.57 0 0 1 -2.25-1.4.75.75 0 1 1 1.35-.6 1.19 1.19 0 0 0 1.95.09.75.75 0 0 1 1.29.76 2.54 2.54 0 0 1 -2.22 1.15z" fill="#231f20"/><path d="m219 32.68a.75.75 0 0 1 -.75-.72l-.41-12.96a.75.75 0 0 1 .72-.78.77.77 0 0 1 .77.72l.43 12.93a.75.75 0 0 1 -.72.78z" fill="#231f20"/><path d="m219.06 21.64a.75.75 0 0 1 -.06-1.5l3.5-.3a.75.75 0 1 1 .13 1.49l-3.5.3z" fill="#231f20"/><path d="m219.31 24.7a.75.75 0 0 1 -.08-1.5l2.25-.25a.75.75 0 0 1 .16 1.49l-2.25.24z" fill="#231f20"/><path d="m201.79 282.44-.17.05s0 0 0 0a31 31 0 0 1 -9.26 1.37 37.59 37.59 0 0 1 -10.79-1.61l-1-.34a.75.75 0 0 1 .54-1.4l.15.05c1.26.44 10.09 3.29 19.22.71l.88-.26a.75.75 0 0 1 .94.49.74.74 0 0 1 -.51.94z" fill="#231f20"/><path d="m106.31 283.19-2.46 4.81c-18.2.44-37.7.1-40.41-1.2 1.51-1.53 12.74-4.14 22.92-5.8 1 .73 4.74 2.92 12.18 2.92a46.56 46.56 0 0 0 7.77-.73z" fill="#231f20"/><path d="m108 282.11a.75.75 0 0 1 -.6.87l-1.14.21a46.56 46.56 0 0 1 -7.77.7c-7.44 0-11.15-2.19-12.18-2.92l-.29-.22a.75.75 0 0 1 1-1.15l.43.3c1.57 1 7.51 3.92 19.7 1.61a.76.76 0 0 1 .85.6z" fill="#231f20"/><path d="m200.45 281.27c-9.13 2.58-18-.27-19.22-.71l-19.43-102.41a.77.77 0 0 0 -.63-.6.74.74 0 0 0 -.78.4l-53.22 103.56c-12.17 2.31-18.17-.63-19.7-1.61 1.88-4.78 15.68-40 29.45-75.22 6.07-15.54 11.25-28.86 15.5-39.78a208.34 208.34 0 0 0 32.23 2.7c9 0 18.59-.76 26.79-3 .18 43.8 3.18 104.74 9.01 116.67z" fill="#e6bd66"/><path d="m230.1 59.28c-.56 17.87-5.86 50.77-36.25 59.85a.76.76 0 0 0 -.51.52c-1.33 4.71-2 21.87-1.9 43.42a.74.74 0 0 0 -.33 0c-21.61 6.05-52.86 1.26-58.14.37 1.55-4 3-7.64 4.25-10.95 2.76-7.12 5-13.07 6.63-17.24 2.69-7.07 2.69-7.07 2.18-7.47a.79.79 0 0 0 -.86-.05l-.82.37c-12.33 5.56-32.46 16.56-42.84 32.66a.76.76 0 0 0 -.48-.48 54.22 54.22 0 0 0 -15-2.88c.43-.57.88-1.13 1.32-1.67l1.48-1.73c8.75-10.89 35.29-43.87 74.64-52.11 1.28 3 2.87 4.79 4.83 5.56a6.11 6.11 0 0 0 2.21.4c2.26 0 4.52-1.12 6.42-2.07.36-.18.72-.36 1.07-.52a.76.76 0 0 0 .39-.44.57.57 0 0 0 .22 0l.48-.2a.27.27 0 0 1 .09 0c.84-.14 20.65-3.53 27-13.26 4.74-7.27 10.45-21.37 12-33.74a31.07 31.07 0 0 0 10.33 1.77c.55-.06 1.07-.07 1.59-.11z" fill="#ca7375"/><path d="m191.51 164.53h-.07c-8.2 2.29-17.77 3-26.79 3a208.34 208.34 0 0 1 -32.23-2.7l-.5-.09a.77.77 0 0 1 -.6-.88.75.75 0 0 1 .88-.6l.77.13c5.28.89 36.53 5.68 58.14-.37a.74.74 0 0 1 .33 0 .76.76 0 0 1 .59.54.74.74 0 0 1 -.52.97z" fill="#231f20"/><path d="m169.82 65.82a9.85 9.85 0 0 0 -3.41 4.18.74.74 0 0 1 -.68.45.65.65 0 0 1 -.3-.06.74.74 0 0 1 -.39-1 11.3 11.3 0 0 1 3.63-4.59l.3-.22a.76.76 0 0 1 1 .09l.09.11a.74.74 0 0 1 -.24 1.04z" fill="#231f20"/><path d="m184.75 72.28c-1-2.44-2-4.75-2.7-6.76a6.36 6.36 0 0 0 -2-2.84 63.21 63.21 0 0 1 -10.15 2l.09.11a.74.74 0 0 1 -.19 1 9.85 9.85 0 0 0 -3.39 4.21.74.74 0 0 1 -.68.45.65.65 0 0 1 -.3-.06.74.74 0 0 1 -.39-1 11.3 11.3 0 0 1 3.63-4.59q-2.91.27-5.84.27c-.44 0-.89 0-1.33 0a8.43 8.43 0 0 0 -2.35 2.55 20.86 20.86 0 0 1 2.46 6.88 8.92 8.92 0 0 1 -2.12 7.27c.07.17.11.26.11.27a.75.75 0 0 1 -.93 1c-1.33-.47-3.76-1-4.65-.29a1 1 0 0 0 -.33 1 1.35 1.35 0 0 0 .6 1.17c1.11.72 3.57.06 4.34-.23a.78.78 0 0 1 .26 0 .75.75 0 0 1 .33.07.79.79 0 0 1 .39.45l4.87 15.17a.72.72 0 0 1 .32.47.69.69 0 0 1 0 .32c1.1 2.61 2.47 4.26 4.06 4.88 2.34.91 5-.43 7.41-1.61l.45-.22-3.56-8.49v-.1c-.6 0-1.18 0-1.74 0-4.54-.35-6.32-5-6.4-5.14a.75.75 0 0 1 1.41-.53s1.53 3.9 5.1 4.17c7.44.56 17.68-4.13 18-7.33.12-2.71-2.53-8.99-4.78-14.52zm-3.69-1.82c0 1.5-.78 2.72-1.75 2.72s-1.75-1.22-1.75-2.72.78-2.71 1.75-2.71 1.75 1.25 1.75 2.71zm-5.83-4.78 2.33-2.07a.75.75 0 1 1 1 1.12l-2.34 2.07a.77.77 0 0 1 -.49.19.75.75 0 0 1 -.5-1.31zm-.85 7a.75.75 0 0 1 1 .19c4.51 6.54 3.8 7.27 3.42 7.67a9.66 9.66 0 0 1 -2.39 1.54.71.71 0 0 1 -.32.07.75.75 0 0 1 -.31-1.43 9.26 9.26 0 0 0 1.78-1.08 30.78 30.78 0 0 0 -3.42-5.92.75.75 0 0 1 .24-1.03zm-4.57-2.62c1 0 1.75 1.22 1.75 2.72s-.78 2.71-1.75 2.71-1.75-1.21-1.75-2.71.78-2.71 1.75-2.71zm12.63 16a6.56 6.56 0 0 1 -5.68 2.94 8.12 8.12 0 0 1 -3-.59c-2.44-1-4.54-3-6.63-6.31a.75.75 0 0 1 1.27-.8c1.91 3 3.79 4.85 5.93 5.73s5.46.54 6.89-1.7a.75.75 0 0 1 1.27.81z" fill="#ffe3e4"/><path d="m178.56 64.73-2.34 2.07a.77.77 0 0 1 -.49.19.75.75 0 0 1 -.5-1.31l2.33-2.07a.75.75 0 1 1 1 1.12z" fill="#231f20"/><path d="m138.85 186.54q-16 40.52-35.3 79.66c-.42.86.87 1.62 1.3.76q19.33-39.28 35.45-80c.35-.96-1.1-1.31-1.45-.42z" fill="#231f20"/><path d="m180 180c-.09-1-1.59-1-1.5 0q4 44.94 10.5 89.6c.14 1 1.58.55 1.45-.4q-6.45-44.47-10.45-89.2z" fill="#231f20"/><path d="m170.05 109.66a8.19 8.19 0 0 1 -7.18-5.56c-.31-.91-1.75-.52-1.45.4a9.74 9.74 0 0 0 8.62 6.66c.96.07.96-1.43.01-1.5z" fill="#231f20"/><path d="m166 111.78-4-2.7c-.8-.54-1.55.76-.76 1.3l4 2.7c.84.54 1.59-.76.76-1.3z" fill="#231f20"/><path d="m187.74 142a.75.75 0 0 0 -1.5 0l.28 13.33a.75.75 0 0 0 1.5 0z" fill="#231f20"/><path d="m218.07 69.48a36.13 36.13 0 0 1 -4.7 13.12.75.75 0 0 0 1.3.76 37.24 37.24 0 0 0 4.85-13.48c.15-.95-1.3-1.36-1.45-.4z" fill="#231f20"/><path d="m120.35 136a44.78 44.78 0 0 0 -10.79 9.14c-.63.73.43 1.79 1.06 1.06a43.51 43.51 0 0 1 10.49-8.9.75.75 0 0 0 -.76-1.3z" fill="#231f20"/><path d="m136.94 112.57-4.61 3.08c-.8.53 0 1.83.76 1.3l4.61-3.08c.79-.54.04-1.87-.76-1.3z" fill="#fff"/><path d="m119.36 205.26a102.49 102.49 0 0 0 -6.36 17.55.75.75 0 0 0 1.45.4 100.28 100.28 0 0 1 6.2-17.21c.41-.85-.88-1.61-1.29-.74z" fill="#fff"/><path d="m192.53 245.33c-.07-1-1.57-1-1.5 0l.97 13.67c.07 1 1.57 1 1.5 0z" fill="#fff"/><path d="m212.53 102.14-5.67 6c-.66.7.4 1.76 1.06 1.06l5.67-6c.66-.71-.4-1.77-1.06-1.06z" fill="#fff"/></svg>