<svg viewBox="0 0 300 300" xmlns="http://www.w3.org/2000/svg"><g fill="#231f20"><path d="m112.57 66.61-13.83 3.66a.76.76 0 0 0 -.56.73v9a1.93 1.93 0 0 1 -.63 1.58 3.89 3.89 0 0 1 -2.58.63c-.28-2.56-.86-12.88 7-14.89a27.13 27.13 0 0 1 10.6-.71z"/><path d="m127.37 93.06a2.2 2.2 0 0 1 -.23.46c-1 1.72-4.12 3-7.6 3.81h-.06a56.09 56.09 0 0 1 -9.39 1.44c-.57 0-1.09.06-1.55.07s-.94 0-1.28 0c-4.46-.27-8-6.16-8.17-6.41a.75.75 0 1 1 1.29-.77c0 .06 3.31 5.46 7 5.68 4.48.26 17.5-1.83 18.61-4.82.63-1.69-.67-5.1-2-8.71-1.25-3.29-2.68-7-3-10.38a6.39 6.39 0 0 0 -2.86-4.8 10.52 10.52 0 0 0 -2.48-1.27 15.89 15.89 0 0 0 -3-.77 27.13 27.13 0 0 0 -10.62.71c-7.84 2-7.26 12.33-7 14.89 0 .36.07.56.07.58a.76.76 0 0 1 -.34.75.75.75 0 0 1 -.52.11.74.74 0 0 1 -.36-.16c-1.27-.85-3.43-1.86-4.38-1.47-.18.08-.43.24-.55.83a1.28 1.28 0 0 0 .25 1.2c.87 1 3.44 1 4.28 1a.74.74 0 0 1 .55.19.67.67 0 0 1 .25.53l.7 17.28v.45a.75.75 0 0 1 -.42.7.78.78 0 0 1 -.54.05l-.27-.15a.56.56 0 0 1 -.18-.16l-37.44-31.48-1.16-1-8.19-6.89a.74.74 0 0 1 -.15-1c2.72-4.3 4.82-8.59 4.84-9.84-1.35.66-5.22 5.51-8.26 10a.73.73 0 0 1 -.55.33.76.76 0 0 1 -.61-.22c-5.23-5.39-11.68-10.41-13-9.3a.43.43 0 0 0 -.15.39c.1 2 5.42 6.42 8.75 8.77a.75.75 0 0 1 -.65 1.32c-4.5-1.67-11.67-3.44-12.81-1.92a.17.17 0 0 0 0 .19c.51 1.52 6.92 4 11.31 5.3a.75.75 0 0 1 -.17 1.47c-5.84.3-11.33 1.3-11.94 2.16.73.94 7.16 1.85 14.25 2a.74.74 0 0 1 .55.26l6.66 7.66 1 1.14 41.35 47.53a.74.74 0 0 1 .15.7l-7.86 26.79-.49 1.5-13.69 46.76a.74.74 0 0 1 -.72.54.76.76 0 0 1 -.21 0 .75.75 0 0 1 -.51-.93l3.06-10.44.82-2.75 10.06-34.29a25.86 25.86 0 0 1 0-.06 0 0 0 0 1 0 0 .5.5 0 0 1 0-.13l7.88-26.88-48.45-55.86c-5.74-.14-15-.77-15.39-3.3a1.43 1.43 0 0 1 .34-1.13c1.13-1.37 5.74-2.08 9.23-2.43-3.47-1.23-8-3.19-8.69-5.1a1.68 1.68 0 0 1 .27-1.56c1.48-2 6.52-1 10.32 0-2.66-2.19-5.76-5.18-5.87-7.23a1.92 1.92 0 0 1 .66-1.59c2.78-2.43 11 5.34 14.39 8.72 5.06-7.38 8.36-10.68 9.82-9.8a1.26 1.26 0 0 1 .59.84c.49 2.05-3.08 8.1-4.66 10.65l45.13 38-.61-15.29c-1.24 0-3.59-.2-4.74-1.5a2.79 2.79 0 0 1 -.6-2.5 2.45 2.45 0 0 1 1.45-1.92c1.36-.55 3.26.2 4.53.87a25.53 25.53 0 0 1 .19-5.47c.08-.49.17-1 .29-1.48a14.21 14.21 0 0 1 1.58-4.09 8.82 8.82 0 0 1 .78-1.14 9.52 9.52 0 0 1 5.33-3.44 26.22 26.22 0 0 1 13.6-.2 12.46 12.46 0 0 1 2.15.82 10.11 10.11 0 0 1 1.61.93 8 8 0 0 1 3.49 5.9c.28 3.14 1.66 6.77 2.89 10 1.54 4.05 2.87 7.54 2.05 9.76z"/><path d="m115.18 65.67a26.22 26.22 0 0 0 -13.6.2 9.52 9.52 0 0 0 -5.33 3.44.75.75 0 0 0 -.66-.39c-3.81 0-7.51-.49-8.22-1.07 1-1 8.28-2.38 14.64-3.1a.77.77 0 0 0 .67-.73.75.75 0 0 0 -.63-.76 19.31 19.31 0 0 1 -5.5-1.61 3.74 3.74 0 0 1 .63-.28c10.16-3.63 16.01 1.87 18 4.3z"/><path d="m95.47 70.45a14.21 14.21 0 0 0 -1.58 4.09c-3-.31-5.69-1-6.18-1.53.56-.67 4.04-1.82 7.76-2.56z"/><path d="m117.33 66.49a.56.56 0 0 1 0 .12.77.77 0 0 1 -.51.45l-1.19.32-15.91 4.2v8.42a3.39 3.39 0 0 1 -1.16 2.73 5.11 5.11 0 0 1 -3.28 1 6.79 6.79 0 0 1 -1.06-.07.74.74 0 0 1 -.62-.86.75.75 0 0 1 .86-.62 3.66 3.66 0 0 0 .55 0 3.89 3.89 0 0 0 2.58-.63 1.93 1.93 0 0 0 .59-1.55v-9a.76.76 0 0 1 .56-.73l13.83-3.66 2.78-.73-.17-.21c-2-2.43-7.84-7.93-18-4.3a3.74 3.74 0 0 0 -.63.28 19.31 19.31 0 0 0 5.5 1.61.75.75 0 0 1 .63.76.77.77 0 0 1 -.67.73c-6.36.72-13.6 2.09-14.64 3.1.71.58 4.41 1.07 8.22 1.07a.75.75 0 0 1 .66.39.7.7 0 0 1 .09.29.74.74 0 0 1 -.61.8l-.26.05c-3.72.74-7.2 1.89-7.76 2.56.49.54 3.23 1.22 6.18 1.53h.44a.75.75 0 0 1 .68.81.77.77 0 0 1 -.82.68l-.59-.03c-3.51-.36-7.42-1.18-7.42-3 0-1.15 1.87-2.11 4.29-2.86-2-.24-3.82-.69-4.4-1.5a1.31 1.31 0 0 1 -.19-1.21c.56-1.67 6.55-2.89 11.84-3.65-1.8-.59-2.75-1.28-2.81-2.05-.1-1.11 1.3-1.61 1.77-1.77 13.71-4.9 20.49 5.87 20.55 6a.71.71 0 0 1 .1.53z"/><path d="m117.84 80.47a1.54 1.54 0 0 1 -1.25.61c-1.5 0-3-1.61-4.21-3.2a5.93 5.93 0 0 1 -.67 3.35 2 2 0 0 1 -1.34.85h-.31c-2.62 0-5-4.79-5.48-5.78a.75.75 0 0 1 1.36-.64c1 2.08 3 5.09 4.21 4.91a.44.44 0 0 0 .33-.22c.68-1 .39-3.92.05-5.55a.74.74 0 0 1 .47-.8.75.75 0 0 1 .91.36c1.16 2.18 3.38 5.26 4.67 5.26.69-.82.31-4.47-.39-7.41a.75.75 0 0 1 .55-.9.76.76 0 0 1 .91.56c.28 1.13 1.57 6.85.19 8.6z"/><path d="m119.8 85.56a1.22 1.22 0 0 1 -.34 1 15 15 0 0 1 -3.2 2.14.8.8 0 0 1 -.33.08.75.75 0 0 1 -.34-1.42 14.18 14.18 0 0 0 2.68-1.74 16.52 16.52 0 0 0 -4.1-3.64.75.75 0 0 1 -.2-1 .77.77 0 0 1 1.05-.2c1.39.89 4.64 3.28 4.78 4.78z"/><path d="m117.12 91.39a13.27 13.27 0 0 1 -1.44.31 12 12 0 0 1 -2 .18h-.18a13.07 13.07 0 0 1 -6.84-2 15.49 15.49 0 0 1 -1.37-.93 14.76 14.76 0 0 1 -2.61-2.56.75.75 0 0 1 1.22-.88 11.84 11.84 0 0 0 2.07 2.1 12.18 12.18 0 0 0 1.06.78 11.66 11.66 0 0 0 9.73 1.5.75.75 0 0 1 .39 1.45z"/><path d="m115.68 91.7a.8.8 0 0 1 -.17.44 7.39 7.39 0 0 1 -5.32 2.7 5.35 5.35 0 0 1 -2.24-.49 4.47 4.47 0 0 1 -2.69-5.35 5.37 5.37 0 0 1 .32-1 .67.67 0 0 1 .36-.36.74.74 0 0 1 1.06.78.66.66 0 0 1 -.06.2 4.36 4.36 0 0 0 -.31 1.29 2.94 2.94 0 0 0 1.94 3.09 4.74 4.74 0 0 0 5.08-1.1 6.84 6.84 0 0 0 .7-.69.75.75 0 0 1 1-.1.77.77 0 0 1 .33.59z"/><path d="m209.85 73.45c-1.21 2-11 4-14.27 4.59l-66.23 52c.25 6.76 4.35 101.13 43.12 129.54 3.21-.33 7.18-1.82 11-3.27 5.85-2.2 10.91-4.11 13-1.79a1.44 1.44 0 0 1 .34 1.27c-.93 4.62-29.24 18.23-34.91 20.91a.71.71 0 0 1 -.32.07.74.74 0 0 1 -.46-.16c-.1-.08-2.07-1.63-5.25-4.51l-.69-.64c-13.07-12-43.77-44.18-51-87.45-2.41 4.62-4.48 9.35-6.49 13.94-6.8 15.57-12.69 29.05-28.06 29.8h-.51c-19.41 0-29.77-55.11-30.85-61.18-4-1.22-18.61-5.93-19.83-9.46a1.64 1.64 0 0 1 .21-1.55c2.42-3.47 31.3 2.21 40.1 4a.74.74 0 0 1 .57.55l8.43 32.76.57 2.22a.75.75 0 0 1 -1.39.53.44.44 0 0 1 -.06-.16l-7.19-27.94-.46-1.77-1.22-4.75c-17.37-3.57-36.75-6.31-38.11-4.54a.19.19 0 0 0 0 .2c.74 2.14 11.55 6.29 19.09 8.59l.19.06a.74.74 0 0 1 .53.59s.05.28.13.7c1.24 6.8 11.72 60.6 29.76 59.68 14.43-.72 20.15-13.79 26.78-28.92 2.3-5.28 4.69-10.73 7.6-16a.73.73 0 0 1 .79-.38.77.77 0 0 1 .61.63c6.48 44.11 37.95 77 51 88.92l1.37 1.23c2 1.76 3.35 2.91 4 3.41 16.32-7.74 33.73-17.41 33.66-19.67-1.38-1.5-6.44.4-11.33 2.25-3.89 1.46-7.89 3-11.27 3.33a3.31 3.31 0 0 1 -.43 0 .7.7 0 0 1 -.5-.14l-.51-.38c-21-15.65-31.72-50.19-37-76.54-1.5-7.48-2.66-14.74-3.55-21.39-.06-.51-.13-1-.19-1.5-2.35-18.07-2.73-31.26-2.74-31.44a.75.75 0 0 1 .29-.61l58.14-45.64 1.37-1.08 7.16-5.62a.9.9 0 0 1 .33-.15c5.77-1 12.3-2.75 13.33-3.78-.87-.66-5.91-.86-11.13-.4a.72.72 0 0 1 -.78-.52.74.74 0 0 1 .33-.87c4.36-2.52 9.19-5.7 10.48-7.08-2 .13-8 2.25-13.14 4.42a.77.77 0 0 1 -.92-.27.74.74 0 0 1 .1-.95c5.52-5.52 9-10.6 8.33-11.28-1.15-.29-6.75 5-12.23 11.62a.75.75 0 0 1 -.82.23.73.73 0 0 1 -.5-.69c-.13-5.12-.62-11-1.26-12.66-.82 1.49-1.94 7-2.58 11.74a.76.76 0 0 1 -.41.57l-7.73 3.89-1.32.66-63 31.65-.94.47a.79.79 0 0 1 -.62 0 .75.75 0 0 1 -.43-.46l-.09-.26-1.24-3.74s0 0 0 0a.75.75 0 0 1 1.43-.44l.12.37.94 2.81 8.45-4.25h.06l7.6-3.81 55.76-28c1.14-8.28 2.45-12.63 3.88-12.91a1.08 1.08 0 0 1 .89.23c1.31 1.05 1.78 7.84 2 12.19 3-3.44 9.34-10.51 12-10.64a1.56 1.56 0 0 1 1.15.42c1.79 1.79-2.15 6.83-5.86 10.83 4.41-1.73 10.32-3.78 11.72-2.94a1 1 0 0 1 .51.91c0 1.41-4.33 4.39-8.8 7.1 4.2-.2 9 0 9.61 1.73a1.23 1.23 0 0 1 -.21.97z"/><path d="m195.35 255.45c.07 2.26-17.34 11.93-33.66 19.67-.62-.5-2-1.65-4-3.41 10.24-2.45 14.16-8.95 15-10.68 3.38-.37 7.38-1.87 11.27-3.33 4.95-1.85 10.04-3.75 11.39-2.25z"/><path d="m172.95 260.62s-.08.18-.2.41c-.87 1.73-4.79 8.23-15 10.68-.54.14-1.09.25-1.66.36h-.18a.75.75 0 0 1 -.69-.61.73.73 0 0 1 .6-.84 5 5 0 0 0 .56-.12c9.9-2 13.94-8.1 15-9.92.17-.32.25-.51.26-.52a.75.75 0 1 1 1.38.58z"/><path d="m59.22 165.81c-8.87-3.09-18.68-1-20.27-.59-7.54-2.3-18.35-6.45-19.09-8.59a.19.19 0 0 1 0-.2c1.36-1.77 20.74 1 38.11 4.54z"/><path d="m60.95 167.29a.74.74 0 0 1 -1 .4l-.29-.11c-7.94-3.16-17.3-1.55-19.88-1l-.69.16a.75.75 0 0 1 -.91-.54.76.76 0 0 1 .54-.92l.21-.05c1.59-.38 11.4-2.5 20.27.59.44.15.89.32 1.33.5a.75.75 0 0 1 .42.97z"/><path d="m188 83.19a.74.74 0 0 1 -.72.56.63.63 0 0 1 -.19 0 5.46 5.46 0 0 1 -.8-.28c-5.08-2.15-11-11.62-11.31-12a.72.72 0 0 1 .24-1 .73.73 0 0 1 1 .2c.06.11 6.57 10.43 11.22 11.68a.64.64 0 0 1 .19.08.74.74 0 0 1 .37.76z"/><path d="m56.57 71.71-.44.73a40.12 40.12 0 0 1 -10.32 10.87l-.47.32a.78.78 0 0 1 -.41.12.75.75 0 0 1 -.41-1.38l.3-.2a39.4 39.4 0 0 0 10.18-10.71c.11-.17.21-.34.31-.51a.76.76 0 0 1 1-.26.74.74 0 0 1 .26 1.02z"/><path d="m45.61 71.3a.74.74 0 0 1 -.68.43.7.7 0 0 1 -.31-.07 4.52 4.52 0 0 1 -2-6 .75.75 0 0 1 1-.32.76.76 0 0 1 .32 1 2.81 2.81 0 0 0 -.13 2.23 2.85 2.85 0 0 0 1.44 1.71.75.75 0 0 1 .36 1.02z"/></g><path d="m46.78 64.57a.74.74 0 0 1 -.15-1c2.72-4.3 4.82-8.59 4.84-9.84-1.35.66-5.22 5.51-8.26 10a.73.73 0 0 1 -.55.33.76.76 0 0 1 -.61-.22c-5.23-5.39-11.68-10.41-13-9.3a.43.43 0 0 0 -.15.39c.1 2 5.42 6.42 8.75 8.77a.75.75 0 0 1 -.65 1.3c-4.5-1.67-11.67-3.44-12.81-1.92a.17.17 0 0 0 0 .19c.51 1.52 6.92 4 11.31 5.3a.75.75 0 0 1 -.17 1.47c-5.84.3-11.33 1.3-11.94 2.16.73.94 7.16 1.85 14.25 2a.74.74 0 0 1 .55.26l6.66 7.66a39.4 39.4 0 0 0 10.15-10.66zm-4 8.66a.78.78 0 0 1 -.51.2.75.75 0 0 1 -.55-.24 3.27 3.27 0 0 0 -3.24-.86.75.75 0 0 1 -.48-1.44 4.76 4.76 0 0 1 4.78 1.28.76.76 0 0 1 -.02 1.06zm2.85-1.93a.74.74 0 0 1 -.68.43.7.7 0 0 1 -.31-.07 4.52 4.52 0 0 1 -2-6 .75.75 0 0 1 1-.32.76.76 0 0 1 .32 1 2.81 2.81 0 0 0 -.13 2.23 2.85 2.85 0 0 0 1.44 1.71.75.75 0 0 1 .34 1.02z" fill="#ffe3e4"/><path d="m42.76 73.23a.78.78 0 0 1 -.51.2.75.75 0 0 1 -.55-.24 3.27 3.27 0 0 0 -3.24-.86.75.75 0 0 1 -.46-1.44 4.76 4.76 0 0 1 4.78 1.28.76.76 0 0 1 -.02 1.06z" fill="#231f20"/><path d="m187.25 73.4a.75.75 0 0 1 -.64.36.77.77 0 0 1 -.39-.11.74.74 0 0 1 -.25-1 3.35 3.35 0 0 0 -.58-4 .75.75 0 0 1 1-1.11 4.85 4.85 0 0 1 .86 5.86z" fill="#231f20"/><path d="m197.33 72.41a.72.72 0 0 1 -.78-.52.74.74 0 0 1 .33-.87c4.36-2.52 9.19-5.7 10.48-7.08-2 .13-8 2.25-13.14 4.42a.77.77 0 0 1 -.92-.27.74.74 0 0 1 .1-.95c5.52-5.52 9-10.6 8.33-11.28-1.15-.29-6.75 5-12.23 11.62a.75.75 0 0 1 -.82.23.73.73 0 0 1 -.5-.69c-.13-5.12-.62-11-1.26-12.66-.82 1.49-1.94 7-2.58 11.74a.76.76 0 0 1 -.41.57l-7.73 3.89c.06.11 6.57 10.43 11.22 11.68a.64.64 0 0 1 .19.08l7.16-5.62a.9.9 0 0 1 .33-.15c5.77-1 12.3-2.75 13.33-3.78-.84-.62-5.88-.82-11.1-.36zm-10.08 1a.75.75 0 0 1 -.64.36.77.77 0 0 1 -.39-.11.74.74 0 0 1 -.25-1 3.35 3.35 0 0 0 -.58-4 .75.75 0 0 1 1-1.11 4.85 4.85 0 0 1 .86 5.85zm7.35.94a.75.75 0 0 1 -1 .36 3.53 3.53 0 0 0 -3.9.72.71.71 0 0 1 -.54.24.75.75 0 0 1 -.54-1.27 5 5 0 0 1 5.62-1.05.77.77 0 0 1 .36.99z" fill="#ffe3e4"/><path d="m194.6 74.34a.75.75 0 0 1 -1 .36 3.53 3.53 0 0 0 -3.9.72.71.71 0 0 1 -.54.24.75.75 0 0 1 -.54-1.27 5 5 0 0 1 5.62-1.05.77.77 0 0 1 .36 1z" fill="#231f20"/><path d="m123.91 83.83c-1.25-3.29-2.68-7-3-10.38a6.39 6.39 0 0 0 -2.86-4.8 10.52 10.52 0 0 0 -2.48-1.27l-15.91 4.2v8.42a3.39 3.39 0 0 1 -1.16 2.73 5.11 5.11 0 0 1 -3.28 1 6.79 6.79 0 0 1 -1.06-.07.74.74 0 0 1 -.36-.16c-1.27-.85-3.43-1.86-4.38-1.47-.18.08-.43.24-.55.83a1.28 1.28 0 0 0 .25 1.2c.87 1 3.44 1 4.28 1a.74.74 0 0 1 .55.19.67.67 0 0 1 .25.53l.7 17.28a14.81 14.81 0 0 0 14.87-.39l-1.24-3.74s0 0 0 0c-.51 0-.94 0-1.28 0-4.46-.27-8-6.16-8.17-6.41a.75.75 0 1 1 1.29-.77c0 .06 3.31 5.46 7 5.68 4.48.26 17.5-1.83 18.61-4.82.61-1.76-.69-5.17-2.07-8.78zm-19-8.51a.76.76 0 0 1 1 .36c1 2.08 3 5.09 4.21 4.91a.44.44 0 0 0 .33-.22c.68-1 .39-3.92.05-5.55a.74.74 0 0 1 .5-.82.75.75 0 0 1 .91.36c1.16 2.18 3.38 5.26 4.67 5.26.69-.82.31-4.47-.39-7.41a.75.75 0 0 1 .55-.9.76.76 0 0 1 .91.56c.27 1.13 1.56 6.89.18 8.64a1.54 1.54 0 0 1 -1.25.61c-1.5 0-3-1.61-4.21-3.2a5.93 5.93 0 0 1 -.67 3.35 2 2 0 0 1 -1.34.85h-.31c-2.62 0-5-4.79-5.48-5.78a.76.76 0 0 1 .37-1.02zm12.18 16.07a13.27 13.27 0 0 1 -1.44.31.8.8 0 0 1 -.17.44 7.39 7.39 0 0 1 -5.32 2.7 5.35 5.35 0 0 1 -2.24-.49 4.47 4.47 0 0 1 -2.66-5.35 14.76 14.76 0 0 1 -2.61-2.56.75.75 0 0 1 1.22-.88 11.84 11.84 0 0 0 2.07 2.1.74.74 0 0 1 1.06.78 11.66 11.66 0 0 0 9.73 1.5.75.75 0 0 1 .39 1.45zm2.34-4.86a15 15 0 0 1 -3.2 2.14.8.8 0 0 1 -.33.08.75.75 0 0 1 -.34-1.42 14.18 14.18 0 0 0 2.68-1.74 16.52 16.52 0 0 0 -4.1-3.64.75.75 0 0 1 -.2-1 .77.77 0 0 1 1.05-.2c1.39 1 4.64 3.35 4.78 4.85a1.22 1.22 0 0 1 -.31.93z" fill="#ffe3e4"/><path d="m113.65 91.88a4.74 4.74 0 0 1 -5.08 1.1 2.94 2.94 0 0 1 -1.94-3.05 13.07 13.07 0 0 0 6.84 2z" fill="#fff"/><path d="m111.87 102.87a.61.61 0 0 1 -.23.3 16.05 16.05 0 0 1 -9.67 3.17 15.89 15.89 0 0 1 -8-2.11l-.27-.15a.56.56 0 0 1 -.18-.16.73.73 0 0 1 -.07-.88.76.76 0 0 1 1-.25 3.65 3.65 0 0 0 .43.24 14.81 14.81 0 0 0 14.87-.39c.33-.21.64-.43.95-.66a.75.75 0 0 1 1.05.14.73.73 0 0 1 .12.75z" fill="#231f20"/><path d="m127.84 129.69c0 .18.39 13.37 2.74 31.44a93.2 93.2 0 0 1 -21.5 3.23 64.9 64.9 0 0 1 -29.63-6l7.86-26.79a.74.74 0 0 0 -.15-.7l-41.35-47.56a40.12 40.12 0 0 0 10.32-10.87l37.4 31.48a.56.56 0 0 0 .18.16l.27.15a15.89 15.89 0 0 0 8 2.11 16.05 16.05 0 0 0 9.67-3.17.61.61 0 0 0 .23-.3l63-31.65a.75.75 0 0 0 .09.18c.27.42 6.23 9.89 11.31 12l-58.14 45.64a.75.75 0 0 0 -.3.65z" fill="#ca7375"/><path d="m171.31 260.56c-1 1.82-5.06 7.91-15 9.92-13.06-11.95-44.53-44.81-51-88.92a.77.77 0 0 0 -.61-.63.73.73 0 0 0 -.79.38c-2.91 5.29-5.3 10.74-7.6 16-6.63 15.13-12.35 28.2-26.78 28.92-18 .92-28.52-52.88-29.76-59.68 2.58-.54 11.94-2.15 19.88 1l7.19 27.94a.44.44 0 0 0 .06.16l-3.06 10.44a.75.75 0 0 0 .51.93.76.76 0 0 0 .21 0 .74.74 0 0 0 .72-.54l13.72-46.7a65.63 65.63 0 0 0 28.36 6.1h1.73a93.88 93.88 0 0 0 21.65-3.23c.89 6.65 2.05 13.91 3.55 21.39 5.3 26.33 15.98 60.87 37.02 76.52z" fill="#e6bd66"/><path d="m131.6 162.41-.83.22a93.88 93.88 0 0 1 -21.65 3.23h-1.73a65.63 65.63 0 0 1 -28.39-6.08c-.27-.11-.54-.25-.81-.38a.73.73 0 0 1 -.41-.78 25.86 25.86 0 0 1 0-.06 0 0 0 0 1 0 0 .5.5 0 0 1 0-.13.75.75 0 0 1 1-.34l.57.27a64.9 64.9 0 0 0 29.63 6 93.2 93.2 0 0 0 21.5-3.23l.62-.16a.75.75 0 0 1 .92.52.74.74 0 0 1 -.42.92z" fill="#231f20"/><path d="m278.7 161.73a.74.74 0 0 0 -.9 0c-5.81 4.42-14 8.4-22.73 11.05a102.39 102.39 0 0 0 6.93-18.78.76.76 0 0 0 -.48-.9.74.74 0 0 0 -.93.41c-5.22 11.82-19.74 16.15-27.92 17.68-3.4.63-6.92 1.1-10.32 1.55-8.13 1.08-16.54 2.2-24.13 5.7-8.26 3.81-15 10.2-21.53 16.39s-13.42 12.74-21.69 16.4c-13.32 5.86-28.39 3.84-43 1.88-6.14-.82-12.48-1.67-18.65-1.94a97.84 97.84 0 0 0 -66.85 22.93.75.75 0 0 0 .75 1.28 49.69 49.69 0 0 1 17.28-3c-5.46 6.28-10.16 13.2-15.5 22.82a.74.74 0 0 0 .19.95.72.72 0 0 0 .47.16.76.76 0 0 0 .49-.18 95.56 95.56 0 0 1 60.23-23.13c9.59-.17 19.29 1.15 28.68 2.43 6 .81 12.17 1.65 18.29 2.1 19.46 1.45 34.83-2 45.65-10.18 4.81-3.64 8.86-8.32 12.79-12.85 5.88-6.79 11.45-13.21 19.34-16.5 5.38-2.23 11.37-2.71 17.17-3.17a96 96 0 0 0 11-1.31c15.88-3.16 30.19-15.59 35.62-30.93a.74.74 0 0 0 -.25-.86zm-35.64 30.27a94.16 94.16 0 0 1 -10.85 1.29c-5.91.46-12 1-17.62 3.28-8.23 3.42-14.16 10.27-19.91 16.9-3.87 4.47-7.88 9.09-12.55 12.63-10.53 8-25.55 11.31-44.64 9.89-6.08-.45-12.24-1.29-18.2-2.1-9.44-1.28-19.21-2.62-28.91-2.44a97.25 97.25 0 0 0 -58 20.87 116.93 116.93 0 0 1 14.4-20.23.75.75 0 0 0 .13-.81.75.75 0 0 0 -.68-.44 57.46 57.46 0 0 0 -15.6 1.82 96.5 96.5 0 0 1 62.67-20c6.11.26 12.42 1.11 18.52 1.93 14.78 2 30.07 4 43.77-2 8.55-3.76 15.46-10.32 22.15-16.65 6.44-6.1 13.09-12.41 21.13-16.12 7.38-3.4 15.67-4.51 23.7-5.57 3.42-.46 7-.93 10.39-1.57 7.21-1.35 19.16-4.81 26-13.47a89.09 89.09 0 0 1 -6 14.43.75.75 0 0 0 .87 1.08 80.9 80.9 0 0 0 22.84-10.31c-5.84 13.78-19.05 24.73-33.61 27.59z" fill="#231f20"/><path d="m276.65 164.42c-5.82 13.77-19 24.72-33.59 27.62a94.16 94.16 0 0 1 -10.85 1.29c-5.91.46-12 1-17.62 3.28-8.23 3.42-14.16 10.27-19.91 16.9-3.87 4.47-7.88 9.09-12.55 12.63-10.53 8-25.55 11.31-44.64 9.89-6.08-.45-12.24-1.29-18.2-2.1-9.44-1.28-19.21-2.62-28.91-2.44a97.25 97.25 0 0 0 -58 20.87 116.93 116.93 0 0 1 14.4-20.23.75.75 0 0 0 .13-.81.75.75 0 0 0 -.68-.44 57.46 57.46 0 0 0 -15.6 1.82 96.5 96.5 0 0 1 62.67-20c6.11.26 12.42 1.11 18.52 1.93 14.78 2 30.07 4 43.77-2 8.55-3.76 15.46-10.32 22.15-16.65 6.44-6.1 13.09-12.41 21.13-16.12 7.38-3.4 15.67-4.51 23.7-5.57 3.42-.46 7-.93 10.39-1.57 7.21-1.35 19.16-4.81 26-13.47a89.09 89.09 0 0 1 -6 14.43.75.75 0 0 0 .87 1.08 80.9 80.9 0 0 0 22.82-10.34z" fill="#fff"/><path d="m88.68 231a.74.74 0 0 1 -.21 0 .75.75 0 0 1 -.47-1c1.47-4.92 2.71-10 3.69-15a.75.75 0 0 1 1.47.29c-1 5.09-2.25 10.18-3.73 15.15a.75.75 0 0 1 -.75.56z" fill="#231f20"/><path d="m103.51 216.72h-.12a101.52 101.52 0 0 0 -10.92-1.09.75.75 0 0 1 -.71-.78.74.74 0 0 1 .78-.71 103.07 103.07 0 0 1 11.09 1.1.75.75 0 0 1 -.11 1.49z" fill="#231f20"/><path d="m98.51 225.11-8.14-.11a.75.75 0 0 1 0-1.5l8.13.11a.75.75 0 0 1 0 1.5z" fill="#231f20"/><path d="m122 233.37h-.11a.75.75 0 0 1 -.63-.85l2.23-15.13a.75.75 0 0 1 1.48.22l-2.23 15.13a.75.75 0 0 1 -.74.63z" fill="#231f20"/><path d="m146.28 234a.75.75 0 0 1 -.75-.71l-.76-15.62a.75.75 0 0 1 1.37-.46c2.79 4 6 7.88 9 11.59l1 1.22a108 108 0 0 0 -.48-14.15.75.75 0 0 1 1.49-.16 112.25 112.25 0 0 1 .42 16.35.75.75 0 0 1 -1.33.44l-2.24-2.76c-2.57-3.09-5.2-6.28-7.64-9.6l.64 13.07a.75.75 0 0 1 -.71.79z" fill="#231f20"/><path d="m178.77 224.93a.75.75 0 0 1 -.66-.39l-8.62-15.75a.75.75 0 1 1 1.32-.72l8.62 15.75a.75.75 0 0 1 -.66 1.11z" fill="#231f20"/><path d="m190.29 212.81a.75.75 0 0 1 -.34-1.42c1.83-.94 3.66-2.05 4.59-3.77.84-1.53.66-3.87-.83-4.73-1.11-.64-2.52-.35-4 0a8 8 0 0 1 -4.69 0 4.47 4.47 0 0 1 -2.41-2.47 5.73 5.73 0 0 1 0-4.31 8.61 8.61 0 0 1 5.59-4.61.75.75 0 1 1 .45 1.43 7.13 7.13 0 0 0 -4.65 3.75 4.2 4.2 0 0 0 0 3.16 3 3 0 0 0 1.59 1.66 6.82 6.82 0 0 0 3.83-.1c1.7-.35 3.46-.71 5.07.22 2.31 1.33 2.59 4.57 1.39 6.75s-3.18 3.33-5.22 4.38a.75.75 0 0 1 -.37.06z" fill="#231f20"/><path d="m209.54 196.49a.75.75 0 0 1 -.73-.57c-1.27-5.19-2.32-10.51-3.13-15.79a.75.75 0 1 1 1.48-.23c.8 5.24 1.84 10.51 3.1 15.67a.75.75 0 0 1 -.55.91z" fill="#231f20"/><path d="m208.39 188.52a.75.75 0 0 1 -.18-1.48c3.1-.79 6.27-1.44 9.43-1.95a.75.75 0 0 1 .23 1.48c-3.11.5-6.24 1.14-9.29 1.92z" fill="#231f20"/><path d="m219.93 192.06a.75.75 0 0 1 -.72-.53 47.12 47.12 0 0 1 -2.13-14 .75.75 0 0 1 .75-.75.75.75 0 0 1 .75.75 45.65 45.65 0 0 0 2.07 13.59.75.75 0 0 1 -.49.94.74.74 0 0 1 -.23 0z" fill="#231f20"/><path d="m132.92 211.32-11.61-31.46c-.33-.9-1.78-.51-1.45.4l11.61 31.46c.33.9 1.78.51 1.45-.4z" fill="#231f20"/><path d="m157 256.07-10.55-15c-.55-.78-1.85 0-1.3.76l10.55 15c.53.78 1.83.03 1.3-.76z" fill="#231f20"/><path d="m90.91 178.25-11.66 27.43c-.37.88.92 1.64 1.3.76l11.66-27.44c.37-.88-.92-1.64-1.3-.75z" fill="#231f20"/><path d="m90.08 134.31-4.74 16.43a.75.75 0 0 0 1.45.4l4.74-16.43a.75.75 0 0 0 -1.45-.4z" fill="#231f20"/><path d="m93.54 139.3-2.54 8.5a.75.75 0 0 0 1.45.4l2.5-8.5a.75.75 0 0 0 -1.41-.4z" fill="#231f20"/><path d="m163.29 80.19-21.29 11.4c-.85.46-.09 1.75.76 1.3l21.29-11.4c.85-.49.1-1.76-.76-1.3z" fill="#231f20"/><path d="m154.49 101.53-6.57 3.89a.75.75 0 0 0 .76 1.3l6.57-3.89a.75.75 0 0 0 -.76-1.3z" fill="#fff"/><path d="m80.65 97.33a57.5 57.5 0 0 1 -14.78-13.69c-.58-.76-1.88 0-1.3.76a59.59 59.59 0 0 0 15.33 14.22c.81.53 1.56-.77.75-1.29z" fill="#fff"/><path d="m146.44 254.59-7.51-10.49c-.56-.78-1.86 0-1.3.76l7.51 10.49c.56.78 1.86.03 1.3-.76z" fill="#fff"/><path d="m67.76 229.25a32 32 0 0 0 -15.88 6.09c-.77.57 0 1.87.76 1.3a30.61 30.61 0 0 1 15.13-5.89c.94-.1.95-1.6-.01-1.5z" fill="#231f20"/><path d="m64.76 225.76a12 12 0 0 0 -7.38 1.58.75.75 0 0 0 .76 1.3 10.61 10.61 0 0 1 6.63-1.38c.95.1.94-1.4-.01-1.5z" fill="#231f20"/><path d="m238.88 174.35a17.77 17.77 0 0 1 -9.12 1.9c-1-.05-1 1.45 0 1.5a19.35 19.35 0 0 0 9.88-2.1c.86-.44.1-1.74-.76-1.3z" fill="#231f20"/></svg>