<svg viewBox="0 0 300 300" xmlns="http://www.w3.org/2000/svg"><path d="m173.63 106.35v-.38c0-.08 0-.15 0-.23 0-.5 0-1-.08-1.5s0-.8 0-1.2 0-1-.07-1.5a1 1 0 0 1 -.6-.06.72.72 0 0 0 -.88.26v.91c0 1.13.1 2.27.15 3.39v.38c.17 3.51.37 7.48-2.34 10.27s-8.06 4.1-16.25 3.9c-7.87-.19-13.14-2.11-15.66-5.69-2.64-3.76-1.41-8.34-1-9.66a.19.19 0 0 0 0-.07.67.67 0 0 0 0-.14.75.75 0 0 0 -.73-.77h-.57c0 .19-.11.37-.16.53s-.18.57-.28 1c-.54 2.14-1.11 6.38 1.45 10 2.81 4 8.48 6.12 16.86 6.33h1.62c7.71 0 12.87-1.44 15.73-4.38 3.18-3.26 2.99-7.74 2.81-11.39zm-1.76-8.35a.74.74 0 0 0 1 .3.78.78 0 0 1 .39-.13c0-.08 0-.15 0-.22 0-.44 0-.86-.05-1.27a2.16 2.16 0 0 0 -1 .3.76.76 0 0 0 -.34 1.02zm-1-11.08h.13a1.87 1.87 0 0 0 1.25-.59 5.89 5.89 0 0 0 -1.64-.83.73.73 0 0 0 -.41.73.74.74 0 0 0 .72.72zm-29-.39a.76.76 0 0 0 .47-1 1.89 1.89 0 0 0 -.25-.49 12.67 12.67 0 0 0 -1.29.79.52.52 0 0 1 .12.19.75.75 0 0 0 .98.54zm-3.87 10.47a.75.75 0 0 0 .05-1.06 2.9 2.9 0 0 0 -.68-.53c-.09.55-.18 1.11-.28 1.67a.75.75 0 0 0 .91-.08zm-.2 2.18a.75.75 0 0 0 -1.05-.14 0 0 0 0 0 0 0c-.11.58-.21 1.15-.33 1.7a2.77 2.77 0 0 0 1.24-.52.76.76 0 0 0 .18-1z" fill="#231f20"/><path d="m173.4 101.54a1 1 0 0 1 -.6-.06.72.72 0 0 0 -.88.26c-.06-1.25-.11-2.49-.16-3.69-.2-4.87-.4-9.47-.59-10.68-1.51-.91-13.62-4-22.8-2.6-4.15.61-7 2-8.46 4.17-.21 1.56-1.72 12.36-3 16.23a.67.67 0 0 0 0-.14.75.75 0 0 0 -.73-.77h-.57c.27-.91.54-2.1.81-3.44a2.77 2.77 0 0 0 1.24-.52.76.76 0 0 0 .15-1 .75.75 0 0 0 -1.05-.14 0 0 0 0 0 0 0c.12-.65.24-1.31.35-2a.75.75 0 0 0 .89-.16.75.75 0 0 0 .05-1.06 2.9 2.9 0 0 0 -.68-.53 2.43 2.43 0 0 0 -.44-.19.28.28 0 0 0 0-.09 11.1 11.1 0 0 1 1.25-8 3.12 3.12 0 0 1 1.48-1.5 1.27 1.27 0 0 1 .92 0 .77.77 0 0 1 .22.16.52.52 0 0 1 .12.19.75.75 0 0 0 .95.47.76.76 0 0 0 .47-1 1.89 1.89 0 0 0 -.25-.49c6.1-3.27 16.28-2.13 21-1.35a47.87 47.87 0 0 1 7.43 1.76.73.73 0 0 0 -.41.73.74.74 0 0 0 .74.7h.15a1.87 1.87 0 0 0 1.25-.59 1 1 0 0 1 .36.48c.21.87.38 4.17.62 9.88a2.16 2.16 0 0 0 -1 .3.76.76 0 0 0 -.3 1 .74.74 0 0 0 1 .3.78.78 0 0 1 .39-.13c-.01 1.24.04 2.37.08 3.5z" fill="#231f20"/><path d="m172.13 106.42v-.38c0-1.12-.11-2.26-.15-3.39a.73.73 0 0 1 -.13-.75.51.51 0 0 1 .09-.16c-.06-1.25-.11-2.49-.16-3.69-.2-4.87-.4-9.47-.59-10.68-1.51-.91-13.62-4-22.8-2.6-4.15.61-7 2-8.46 4.17-.21 1.56-1.72 12.36-3 16.23a.19.19 0 0 1 0 .07c-.43 1.32-1.66 5.9 1 9.66 2.52 3.58 7.79 5.5 15.66 5.69 8.19.2 13.5-1.08 16.25-3.9s2.46-6.76 2.29-10.27zm-30.3-14.48a.75.75 0 0 1 .42-1l6-2.33a.75.75 0 1 1 .55 1.4l-6 2.33a.65.65 0 0 1 -.27 0 .74.74 0 0 1 -.7-.4zm5.36 6.57c0 1.93-.67 3.5-1.5 3.5s-1.5-1.57-1.5-3.5.67-3.5 1.5-3.5 1.5 1.56 1.5 3.5zm4 12.19a.75.75 0 0 1 -1 .3c-2-1.14-5.34 1.44-6.44 2.54a.75.75 0 0 1 -.53.22.79.79 0 0 1 -.53-.22.75.75 0 0 1 0-1.06c.2-.2 4.78-4.71 8.23-2.8a.76.76 0 0 1 .26 1.02zm6.42-1.61c-.11 0-.48 0-1 0-1.21 0-3.16-.19-4-1.34-1-1.39.31-9.32 1.2-13.93a.76.76 0 0 1 .88-.59.74.74 0 0 1 .59.88c-1.05 5.43-1.91 11.86-1.45 12.76.55.73 2.69.77 3.64.68a.74.74 0 0 1 .82.68.75.75 0 0 1 -.69.86zm5.76-7.08c-.83 0-1.5-1.57-1.5-3.5s.67-3.5 1.5-3.5 1.5 1.56 1.5 3.5-.68 3.49-1.51 3.49zm2.76-8.54a.75.75 0 0 1 -.59.29.81.81 0 0 1 -.47-.16l-6.33-5a.75.75 0 1 1 .93-1.18l6.33 5a.75.75 0 0 1 .12 1.05z" fill="#ffe3e4"/><path d="m158.27 108.27a.75.75 0 0 1 -.67.82c-.11 0-.48 0-1 0-1.21 0-3.16-.19-4-1.34-1-1.39.31-9.32 1.2-13.93a.76.76 0 0 1 .88-.59.74.74 0 0 1 .59.88c-1.05 5.43-1.91 11.86-1.45 12.76.55.73 2.69.77 3.64.68a.74.74 0 0 1 .81.72z" fill="#231f20"/><path d="m151.18 110.7a.75.75 0 0 1 -1 .3c-2-1.14-5.34 1.44-6.44 2.54a.75.75 0 0 1 -.53.22.79.79 0 0 1 -.53-.22.75.75 0 0 1 0-1.06c.2-.2 4.78-4.71 8.23-2.8a.76.76 0 0 1 .27 1.02z" fill="#231f20"/><path d="m148.8 90-6 2.33a.65.65 0 0 1 -.27 0 .74.74 0 0 1 -.7-.48.75.75 0 0 1 .42-1l6-2.33a.75.75 0 1 1 .55 1.4z" fill="#231f20"/><path d="m166.12 93.47a.75.75 0 0 1 -.59.29.81.81 0 0 1 -.47-.16l-6.33-5a.75.75 0 1 1 .93-1.18l6.33 5a.75.75 0 0 1 .13 1.05z" fill="#231f20"/><path d="m147.19 98.51c0 1.93-.67 3.5-1.5 3.5s-1.5-1.57-1.5-3.5.67-3.5 1.5-3.5 1.5 1.56 1.5 3.5z" fill="#231f20"/><path d="m164.86 98.51c0 1.93-.67 3.5-1.5 3.5s-1.5-1.57-1.5-3.5.67-3.5 1.5-3.5 1.5 1.56 1.5 3.5z" fill="#231f20"/><path d="m137.13 97.12c-.11.66-.23 1.32-.35 2a1.51 1.51 0 0 1 -2-.26 1.49 1.49 0 0 1 .18-2 1.51 1.51 0 0 1 2 .12z" fill="#ffe3e4"/><path d="m135 96.87a1.49 1.49 0 0 0 -.18 2 1.51 1.51 0 0 0 2 .26 0 0 0 0 1 0 0 .75.75 0 0 1 1.05.14.76.76 0 0 1 -.15 1 2.77 2.77 0 0 1 -1.24.52 3.86 3.86 0 0 1 -.48 0 3 3 0 0 1 -2.31-1.06.22.22 0 0 1 0-.08 3 3 0 0 1 0-3.5 2.61 2.61 0 0 1 .42-.46 2.67 2.67 0 0 1 1.39-.62 2.92 2.92 0 0 1 1.55.15 2.43 2.43 0 0 1 .44.19 2.9 2.9 0 0 1 .68.53.75.75 0 0 1 -.17 1.06.75.75 0 0 1 -.91.08l-.09-.08a1.51 1.51 0 0 0 -2-.13z" fill="#231f20"/><path d="m174.29 100.83a1.51 1.51 0 0 1 -.89.71c0-1.13-.09-2.26-.13-3.34.22 0 .47.17.9.66a1.67 1.67 0 0 1 .12 1.97z" fill="#ffe3e4"/><g fill="#231f20"><path d="m175.52 101.69a2.91 2.91 0 0 1 -2 1.35 1.06 1.06 0 0 1 -.25 0 2.61 2.61 0 0 1 -1-.19.64.64 0 0 1 -.29-.22.73.73 0 0 1 -.13-.75.51.51 0 0 1 .09-.16.72.72 0 0 1 .88-.26 1 1 0 0 0 .6.06 1.51 1.51 0 0 0 .89-.71 1.67 1.67 0 0 0 -.12-2c-.43-.49-.68-.65-.9-.66a.78.78 0 0 0 -.39.13.74.74 0 0 1 -1-.3.76.76 0 0 1 .3-1 2.16 2.16 0 0 1 1-.3 2.73 2.73 0 0 1 2.08 1.15 3.16 3.16 0 0 1 .24 3.86z"/><path d="m141.9 86.56a.75.75 0 0 1 -.95-.47.52.52 0 0 0 -.12-.19.77.77 0 0 0 -.22-.16 1.27 1.27 0 0 0 -.92 0 3.12 3.12 0 0 0 -1.48 1.5 11.1 11.1 0 0 0 -1.25 8 .28.28 0 0 1 0 .09.75.75 0 0 1 -.57.81h-.17a.75.75 0 0 1 -.73-.58c0-.13-.06-.26-.08-.39a12.62 12.62 0 0 1 1.49-8.67 4.74 4.74 0 0 1 2.26-2.15 2.61 2.61 0 0 1 1.33-.12 2.49 2.49 0 0 1 .75.22 2.06 2.06 0 0 1 .57.39 1.88 1.88 0 0 1 .55.82.76.76 0 0 1 -.46.9z"/><path d="m171.31 85.09a.55.55 0 0 1 -.44.36.89.89 0 0 0 -.28.07 47.87 47.87 0 0 0 -7.43-1.76c-4.76-.78-14.94-1.92-21 1.35a1.9 1.9 0 0 0 -.3-.33c2.49-3.54 7.19-5.65 12.56-5.65 4.71 0 9.29 1.45 14.36 3.2a4.61 4.61 0 0 1 2.52 1.52 1.37 1.37 0 0 1 .01 1.24z"/><path d="m172.65 85.78a2 2 0 0 1 -.42.57 1.87 1.87 0 0 1 -1.25.59h-.06a.74.74 0 0 1 -.74-.7.73.73 0 0 1 .41-.73.89.89 0 0 1 .28-.07.55.55 0 0 0 .44-.36 1.37 1.37 0 0 0 0-1.26 4.61 4.61 0 0 0 -2.52-1.52c-5.07-1.75-9.65-3.2-14.36-3.2-5.37 0-10.07 2.11-12.56 5.65a.77.77 0 0 1 -1 .17.73.73 0 0 1 -.29-.78.54.54 0 0 1 .11-.27c2.78-3.94 7.93-6.29 13.79-6.29 5 0 9.65 1.49 14.85 3.28a6 6 0 0 1 3.24 2.14 2.9 2.9 0 0 1 .08 2.78z"/><path d="m260.86 43.59h-212.5a.76.76 0 0 0 -.75.75v11.5a.76.76 0 0 0 .75.75h212.5a.76.76 0 0 0 .75-.75v-11.5a.76.76 0 0 0 -.75-.75zm-.75 11.5h-211v-10h211z"/><path d="m49.11 45.09h211v10h-211z"/><path d="m182.21 278.5-5.42-.18a.73.73 0 0 1 -.18-.48v-.75h-43v.75a.75.75 0 0 1 -.75.75h52.67zm0 0-5.42-.18a.73.73 0 0 1 -.18-.48v-.75h-43v.75a.75.75 0 0 1 -.75.75h52.67zm0 0-5.42-.18a.73.73 0 0 1 -.18-.48v-.75h-43v.75a.75.75 0 0 1 -.75.75h52.67zm78.65-1.41h-212.5a.76.76 0 0 0 -.75.75v11.5a.76.76 0 0 0 .75.75h212.5a.76.76 0 0 0 .75-.75v-11.5a.76.76 0 0 0 -.75-.75zm-.75 11.5h-211v-10h211zm-77.9-10.09-5.42-.18a.73.73 0 0 1 -.18-.48v-.75h-43v.75a.75.75 0 0 1 -.75.75h52.67zm0 0-5.42-.18a.73.73 0 0 1 -.18-.48v-.75h-43v.75a.75.75 0 0 1 -.75.75h52.67zm39.9-.66v-.75h-103.7c-.11.4-.18.67-.22.82h.07a1.36 1.36 0 0 1 -.61.63h105.21a.75.75 0 0 1 -.75-.7z"/><path d="m201.78 276.81a31.84 31.84 0 0 1 -3.25.28h-13l-3-.08v-2.32c.62.06 1.27.1 1.92.1a11.71 11.71 0 0 0 3.31-.43.72.72 0 0 0 .49-.51c5.75.89 11.53 2.09 13.53 2.96z"/><path d="m260.11 278.59v10h-211v-10h68.08a.77.77 0 0 0 .25 0 .52.52 0 0 0 .21 0h67.88c2.2 0 4.89.1 7.5.1 2 0 3.93 0 5.56-.1z"/><path d="m132.86 156.85a.73.73 0 0 1 -.75-.73.75.75 0 0 1 1.5 0 .77.77 0 0 1 -.75.73z"/><path d="m133.61 164.48v113.36a.75.75 0 0 1 -.75.75h-4.5a.75.75 0 0 1 -.75-.75v-111.92a.76.76 0 0 1 .58-.73h.15a.76.76 0 0 1 .75.75v111.15h3v-112.61a.75.75 0 0 1 .44-.68.67.67 0 0 1 .28-.06.76.76 0 0 1 .8.74z"/><path d="m133.61 160v.19a.76.76 0 0 1 -.75.75h-.15a.75.75 0 0 1 -.6-.73v-.21a.75.75 0 0 1 .6-.73h.15a.76.76 0 0 1 .75.73z"/><path d="m133.61 56.34v95.55a.76.76 0 0 1 -.75.75h-.15-.08-.06a.75.75 0 0 1 -.46-.69v-94.86h-3v94.29a.75.75 0 0 1 -1.5 0v-95a.76.76 0 0 1 .75-.75h4.5a.76.76 0 0 1 .75.71z"/><path d="m181.86 55.59h-4.5a.76.76 0 0 0 -.75.75v95.24a.73.73 0 0 0 .75.75c.55 0 2.16-.12 4.5-.28a.76.76 0 0 0 .69-.75v-95a.76.76 0 0 0 -.69-.71zm-3.5 95.18h-.25v-93.68h3v93.51zm-1-45.06h-.75v45.29l.38-.1h.17.14.81v-45.9a.75.75 0 0 1 -.75.71z"/><path d="m181.11 57.09v93.51l-2.75.17h-.25v-93.68z"/><path d="m181.53 274.59a.69.69 0 0 1 -.42-.2v2.61h1.5v-2.32zm.47-109.18-.4-.06h-.1l-.44-.09c-.6-.14-1.64-.4-2.73-.76l-.68-.23a.76.76 0 0 0 -1 .71v112.86a.76.76 0 0 0 .75.75h4.5a.68.68 0 0 0 .35-.09.73.73 0 0 0 .4-.66v-111.69a.75.75 0 0 0 -.65-.74zm-.85 111.68h-3v-111.09l.31.1.3.09c.49.15 1 .27 1.34.36l.38.09.67.15z"/><path d="m181.11 273.28a.78.78 0 0 0 -.25.48.73.73 0 0 0 .25.63v2.61l-3-.11v-110.89l.61.18c.49.15 1 .27 1.34.36l.38.09.67.15z"/><path d="m227.14 112a.76.76 0 0 1 -.53-.72v52.33a.76.76 0 0 1 .53-.72l1-.31v-50.3zm-3.55-1.81a.76.76 0 0 1 -.73.56h-.19l-.56-.14v53.61l.58-.13a.75.75 0 0 1 .9.56 1 1 0 0 1 0 .16v-54.81a.55.55 0 0 1 0 .16zm3.52 23.8a.75.75 0 0 1 -.5-.71v11.34a.75.75 0 0 1 .51-.71c.35-.12.68-.23 1-.35v-9.2zm-3.53-1.9a.74.74 0 0 1 -.92.52l-.55-.15v12.84l.57-.14a.75.75 0 0 1 .91.55 1.1 1.1 0 0 1 0 .18v-14a.75.75 0 0 1 -.01.17zm3.53 1.9a.75.75 0 0 1 -.5-.71v11.34a.75.75 0 0 1 .51-.71c.35-.12.68-.23 1-.35v-9.2zm-4.45-1.38-.55-.15v12.84l.57-.14a.75.75 0 0 1 .91.55 1.1 1.1 0 0 1 0 .18v-14a.76.76 0 0 1 -1 .72zm4.7-77h-4.5a.76.76 0 0 0 -.75.75v221.5a.75.75 0 0 0 .75.75h4.5a.75.75 0 0 0 .75-.75v-221.52a.76.76 0 0 0 -.75-.75zm-3.75 221.5v-220h3v220zm0-145a.74.74 0 0 1 -.92.52l-.55-.15v12.82l.57-.14a.75.75 0 0 1 .91.55 1.1 1.1 0 0 1 0 .18v-14a.75.75 0 0 1 -.04.17zm3.53 1.9a.75.75 0 0 1 -.5-.71v11.34a.75.75 0 0 1 .51-.71c.35-.12.68-.23 1-.35v-9.2zm-3.52-23.8a.76.76 0 0 1 -.73.56h-.19l-.56-.14v53.61l.58-.13a.75.75 0 0 1 .9.56 1 1 0 0 1 0 .16v-54.83a.55.55 0 0 1 -.03.16zm3.55 1.81a.76.76 0 0 1 -.53-.72v52.33a.76.76 0 0 1 .53-.72l1-.31v-50.32z"/><path d="m223.61 57.09h3v220h-3z"/><path d="m85.06 111a.69.69 0 0 1 -.2 0 .76.76 0 0 1 -.75-.75v54.15a1.1 1.1 0 0 1 0-.18.76.76 0 0 1 .91-.55l.57.14v-53zm-4.46 1.35c-.33.11-.67.22-1 .34v49.39l1 .34a.73.73 0 0 1 .52.7v-51.45a.74.74 0 0 1 -.52.71zm4.47 20.57a.75.75 0 0 1 -.93-.51.76.76 0 0 1 0-.21v13.33a.75.75 0 0 1 0-.2.74.74 0 0 1 .92-.52l.55.14v-12.15zm-4.44 1.48c-.33.13-.68.27-1 .42v8.18c.32.14.66.27 1 .41a.77.77 0 0 1 .48.7v-10.38a.75.75 0 0 1 -.48.7zm4.44-1.48a.75.75 0 0 1 -.93-.51.76.76 0 0 1 0-.21v13.33a.75.75 0 0 1 0-.2.74.74 0 0 1 .92-.52l.55.14v-12.15zm-4.44 1.48c-.33.13-.68.27-1 .42v8.18c.32.14.66.27 1 .41a.77.77 0 0 1 .48.7v-10.38a.75.75 0 0 1 -.48.7zm4.23-78.84h-4.5a.76.76 0 0 0 -.75.75v221.5a.75.75 0 0 0 .75.75h4.5a.75.75 0 0 0 .75-.75v-221.47a.76.76 0 0 0 -.75-.75zm-3.75 221.5v-220h3v220zm-.48-142.66c-.33.13-.68.27-1 .42v8.18c.32.14.66.27 1 .41a.77.77 0 0 1 .48.7v-10.38a.75.75 0 0 1 -.48.7zm4.44-1.48a.75.75 0 0 1 -.93-.51.76.76 0 0 1 0-.21v13.33a.75.75 0 0 1 0-.2.74.74 0 0 1 .92-.52l.55.14v-12.15zm-4.47-20.54c-.33.11-.67.22-1 .34v49.39l1 .34a.73.73 0 0 1 .52.7v-51.48a.74.74 0 0 1 -.52.71zm4.46-1.38a.69.69 0 0 1 -.2 0 .76.76 0 0 1 -.75-.75v54.15a1.1 1.1 0 0 1 0-.18.76.76 0 0 1 .91-.55l.57.14v-53z"/><path d="m81.11 57.09h3v220h-3z"/><path d="m53.36 278.09a.75.75 0 0 1 -.75-.75v-220.5a.75.75 0 0 1 1.5 0v220.5a.75.75 0 0 1 -.75.75z"/><path d="m255.36 278.09a.75.75 0 0 1 -.75-.75v-221a.75.75 0 1 1 1.5 0v221a.75.75 0 0 1 -.75.75z"/><path d="m81.11 144.14a.86.86 0 0 1 0 .27.74.74 0 0 1 -.7.48.86.86 0 0 1 -.27 0l-.48-.19c-3.7-1.46-5.73-3.06-6.22-4.86-.66-2.43 1.38-4.58 6.22-6.56l.48-.2a.75.75 0 0 1 1 .43.86.86 0 0 1 0 .27.75.75 0 0 1 -.48.7c-.33.13-.68.27-1 .42-2.64 1.15-5.26 2.77-4.78 4.54.24.87 1.28 2.17 4.78 3.64.32.14.66.27 1 .41a.77.77 0 0 1 .45.65z"/><path d="m117.91 166.24h-.25a.74.74 0 0 0 -.6.63l-.14.91-15.92 104.17c-14.34 2.81-14.34 4.56-14.34 5.14a.75.75 0 0 0 1.49.14.76.76 0 0 1 .16-.14c1.27-.94 7.42-2.57 13-3.66l.5-.1a.76.76 0 0 0 .6-.63l.08-.54 16-104.47.09-.6a.75.75 0 0 0 -.67-.85z"/><path d="m124.85 125.95-3.7 24.15-.12.79a.75.75 0 0 1 -.74.64h-.11a.75.75 0 0 1 -.63-.85l.11-.7 3.56-23.3c-4.59.43-24.72 2.48-37.61 6.13l-.54.15a.75.75 0 0 1 -.93-.51.76.76 0 0 1 0-.21.75.75 0 0 1 .54-.72l1-.27c14.72-4.08 38.2-6.13 38.44-6.15a.75.75 0 0 1 .8.86z"/></g><path d="m73.39 139.79c.49 1.8 2.52 3.4 6.22 4.86v17.46c-12.89-4.49-20.28-12.36-22-23.39-1.8-11.57 5.59-20.32 22-26v20.51c-4.84 1.98-6.88 4.13-6.22 6.56z" fill="#ca7375"/><path d="m81.11 163.15a.67.67 0 0 1 0 .24.74.74 0 0 1 -.71.52.59.59 0 0 1 -.23 0l-.52-.18c-13.79-4.73-21.65-13.02-23.53-24.73-2-12.53 6-21.89 23.49-27.83l.51-.17a.74.74 0 0 1 1 .47.67.67 0 0 1 0 .24.74.74 0 0 1 -.51.71c-.33.11-.67.22-1 .34-16.42 5.68-23.81 14.43-22 26 1.73 11 9.12 18.9 22 23.39l1 .34a.73.73 0 0 1 .5.66z" fill="#231f20"/><path d="m136.94 105a.67.67 0 0 1 0 .14.19.19 0 0 1 0 .07.74.74 0 0 1 -.71.52h-1-1.59-.75a.75.75 0 0 1 0-1.5h.75 1.73.3.57a.75.75 0 0 1 .7.77z" fill="#231f20"/><path d="m129.11 105a.75.75 0 0 1 -.74.74h-.76c-9.56.17-27 1.09-42 5.13l-.55.14a.69.69 0 0 1 -.2 0 .75.75 0 0 1 -.2-1.47l1-.26c15.14-4 32.46-4.91 42-5.07h.74a.74.74 0 0 1 .71.79z" fill="#231f20"/><path d="m132.11 57.09v93.79h-.08-.14l-2.78-.16v-93.63z" fill="#231f20"/><path d="m132.11 165.59v111.5h-3v-110.58a27.73 27.73 0 0 0 3-.92z" fill="#231f20"/><path d="m127.61 105.76v44.82c-2-.13-4.21-.3-6.46-.48l3.7-24.15a.75.75 0 0 0 -.8-.86c-.24 0-23.72 2.07-38.44 6.15v-20.35c15.05-4.04 32.44-4.96 42-5.13z" fill="#ca7375"/><path d="m136.63 159.2a2.6 2.6 0 0 1 -1.49 1 2.23 2.23 0 0 1 .93 1.43 2.1 2.1 0 0 1 -.2 1.49 4.91 4.91 0 0 1 -2.26 1.81l-.45.2q-.51.23-1 .42a27.73 27.73 0 0 1 -3 .92l-.58.14-.77.17h-.15c-.74.11-4.19.56-9.16.85h-.61-.92c-2.14.1-4.52.17-7 .17a106.91 106.91 0 0 1 -24.27-2.54l-.93-.22a.76.76 0 0 1 -.57-.73 1.1 1.1 0 0 1 0-.18.76.76 0 0 1 .91-.55l.57.14a107.29 107.29 0 0 0 26.32 2.71h1.59c1.44 0 2.81-.1 4.09-.16h.13c5.74-.32 9.58-.86 9.71-.88l.69-.16a26.64 26.64 0 0 0 4.34-1.39c1.87-.83 2-1.42 2-1.53.1-.85-1-1.2-1.87-1.34a6.55 6.55 0 0 0 -.85-.07.75.75 0 0 1 0-1.5s.38 0 .89-.08h.15c1.7-.25 2.38-.65 2.52-.86-.23-.91-1.56-1.37-2.62-1.52h-.23a.76.76 0 0 1 -.67-.79.75.75 0 0 1 .75-.71h.25c1.25-.07 2.5-.43 2.5-1 0-.4-.83-1.11-2.65-1.72h-.08-.06c-.39-.13-.7-.21-.82-.24-.31 0-1.52-.08-3.39-.21-2.35-.15-5.21-.37-8-.6h-.06l-4.53-.4-1.49-.15c-9.37-.92-20.36-2.34-28.6-4.45l-1-.25a.74.74 0 0 1 -.55-.72.75.75 0 0 1 0-.2.74.74 0 0 1 .92-.52l.55.14c9.77 2.56 23.73 4.12 34 5l.69.06.8.07c2.25.18 4.49.35 6.46.48h.8.7l2.78.16h.14.08c.16 0 .53.14 1 .3l.51.17c2.15.79 3.25 1.79 3.25 3a2.1 2.1 0 0 1 -1.34 1.91 2.92 2.92 0 0 1 1.31 1.63 1.53 1.53 0 0 1 -.16 1.3z" fill="#231f20"/><path d="m178.11 105a.75.75 0 0 1 -.75.75h-.75c-1.35 0-2.37 0-3 0h-.74a.75.75 0 0 1 0-1.5h.72 3.09.75a.75.75 0 0 1 .68.75z" fill="#231f20"/><path d="m252.9 139c-1.9 12.13-10.24 20.6-24.79 25.17l-.53.17a.83.83 0 0 1 -.22 0 .76.76 0 0 1 -.72-.53.78.78 0 0 1 0-.22.76.76 0 0 1 .53-.72l1-.31c13.68-4.41 21.52-12.43 23.31-23.83 1.86-11.88-6-20.77-23.31-26.44l-1-.31a.76.76 0 0 1 -.53-.72.78.78 0 0 1 0-.22.76.76 0 0 1 .94-.5l.53.17c18.46 5.91 26.8 15.41 24.79 28.29z" fill="#231f20"/><path d="m223.61 164.76a.76.76 0 0 1 -.58.74l-.92.21a109.3 109.3 0 0 1 -22.92 2.24c-5.14 0-9.68-.28-13-.58l-.83-.08-.67-.07-2-.22-.85-.11-.45-.06h-.2l-.67-.15-.38-.09c-.39-.09-.85-.21-1.34-.36l-.3-.09-.31-.09c-.33-.1-.67-.22-1-.34l-.5-.18a13.44 13.44 0 0 1 -2-.93 3.93 3.93 0 0 1 -1.5-1.39 2.06 2.06 0 0 1 -.24-.75 2.27 2.27 0 0 1 .57-1.81 2.41 2.41 0 0 1 .41-.37 3.18 3.18 0 0 1 -1.47-1 1.57 1.57 0 0 1 -.23-1.38 2.9 2.9 0 0 1 1.29-1.63 2.11 2.11 0 0 1 -1.32-1.91c0-2 3.18-3 4.45-3.38l.38-.1h.17.14.81.25l2.75-.17.7-.05h.8c.57 0 1.18-.08 1.83-.14h.7a.75.75 0 1 1 .12 1.5h-.06c-1.2.1-2.3.18-3.28.24-2.34.16-3.95.25-4.5.28h-.14c-1.72.42-3.6 1.33-3.6 2s1.82 1 2.75 1a.76.76 0 0 1 .75.72.76.76 0 0 1 -.69.78c-.64 0-2.55.44-2.84 1.46.35.56 2.13 1 3.57 1a.75.75 0 0 1 0 1.5 4.27 4.27 0 0 0 -2.57.77.77.77 0 0 0 -.18.65c0 .09.17.91 3.2 2l.68.23c1.09.36 2.13.62 2.73.76l.44.09h.1l.4.06c.6.08 1.81.22 3.49.38 2.67.26 6.19.51 10.23.61h1.69a108.41 108.41 0 0 0 24.74-2.27l.58-.13a.75.75 0 0 1 .9.56 1 1 0 0 1 -.08.05z" fill="#231f20"/><path d="m223.61 110a.55.55 0 0 1 0 .18.76.76 0 0 1 -.73.56h-.19l-.56-.14c-14.33-3.65-30.56-4.57-39.5-4.78h-.77a.75.75 0 0 1 -.73-.74.75.75 0 0 1 .77-.74h.73c8.91.2 25.09 1.11 39.5 4.73l.94.23a.76.76 0 0 1 .54.7z" fill="#231f20"/><path d="m251.42 138.72c-1.79 11.4-9.63 19.42-23.31 23.83v-17.43c4.52-1.57 7-3.32 7.52-5.33.71-2.63-1.75-4.94-7.52-7.06v-20.45c17.32 5.67 25.17 14.56 23.31 26.44z" fill="#ca7375"/><path d="m235.63 139.79c-.54 2-3 3.76-7.52 5.33l-.51.18a.67.67 0 0 1 -.24 0 .75.75 0 0 1 -.71-.51.67.67 0 0 1 0-.24.75.75 0 0 1 .51-.71c.35-.12.68-.23 1-.35 4.52-1.64 5.81-3.14 6.08-4.13.54-2-2.8-3.81-6.08-5.07l-1-.37a.75.75 0 0 1 -.5-.71.73.73 0 0 1 0-.25.76.76 0 0 1 1-.46l.5.19c5.72 2.16 8.18 4.47 7.47 7.1z" fill="#231f20"/><path d="m222.11 110.56v20.33c-14.74-3.84-36.91-5.78-37.14-5.8a.8.8 0 0 0 -.57.2.74.74 0 0 0 -.24.56l.28 24.51c-.65.06-1.26.1-1.83.14v-44.72c8.94.22 25.17 1.13 39.5 4.78z" fill="#ca7375"/><path d="m223.59 145.71a1.1 1.1 0 0 1 0 .18.76.76 0 0 1 -.57.73l-.93.23a217.08 217.08 0 0 1 -27 4.1l-1.54.15c-3.15.3-6 .54-8.35.71h-.06a.74.74 0 0 1 -.51-.2.73.73 0 0 1 -.24-.54v-.71l-.28-24.51a.74.74 0 0 1 .24-.56.8.8 0 0 1 .57-.2c.23 0 22.4 2 37.14 5.8l1 .25a.75.75 0 0 1 -.4 1.44l-.55-.15c-13-3.45-32.25-5.38-36.44-5.77l.27 23.59c9.08-.7 25-2.22 36.17-5l.57-.14a.75.75 0 0 1 .91.6z" fill="#231f20"/><path d="m129.11 238a.75.75 0 0 1 0 .2q-.75 2.63-1.47 5.18c-4.6 16.3-8.24 30-9.2 33.66-.11.4-.18.67-.22.82h.07a1.36 1.36 0 0 1 -.61.63.52.52 0 0 1 -.21 0 .77.77 0 0 1 -.25 0h-.06a.81.81 0 0 1 -.42-1s0-.2.14-.53c.13-.51.36-1.37.67-2.55.12-.44.25-.92.38-1.44 1.81-6.74 5.45-20.24 9.71-35.17v-.1a.75.75 0 0 1 1.47.22z" fill="#231f20"/><path d="m203.87 277.09a.82.82 0 0 1 -.07.3c-.24.55-.77 1-5.21 1.2-1.63.07-3.57.1-5.56.1-2.61 0-5.3 0-7.5-.1l-3.32-.09-5.42-.18-5.22-.23a.76.76 0 0 1 -.7-.62s0-.16-.06-.38c-1.07-6.15-14.76-84.5-22-97.67-2.14 3.33-6.46 13.83-15.2 43.25v.1a.75.75 0 0 1 -.93.51.75.75 0 0 1 -.51-.93q.75-2.54 1.47-4.93c7.06-23.39 12-36.78 14.69-39.83a.71.71 0 0 1 .6-.25.75.75 0 0 1 .57.31c6.58 9.23 18.72 76 22 94.77.11.59.2 1.13.29 1.62.2 1.15.35 2 .45 2.57l4.36.18 1.5.05 3 .11h1.5l3 .08c3.85.09 9.22.16 13 0a31.84 31.84 0 0 0 3.25-.28c-2-.87-7.82-2.07-13.44-3l-1.83-.27a.73.73 0 0 1 -.54-.37.75.75 0 0 1 -.1-.36l-1.22-105.63v-.67a.76.76 0 0 1 .74-.76.74.74 0 0 1 .76.74v.84l1.21 104.82c5.07.75 15.4 2.49 16.39 4.26a1 1 0 0 1 .05.74z" fill="#231f20"/><path d="m131.11 160.11a.75.75 0 0 0 .75.73 6.55 6.55 0 0 1 .85.07c.91.14 2 .49 1.87 1.34 0 .11-.16.7-2 1.53a26.64 26.64 0 0 1 -4.34 1.39l-.69.16c-.13 0-4 .56-9.71.88h-.13c-1.28.06-2.65.12-4.09.16a40.85 40.85 0 0 0 2.13-15.27l4.53.4h.06c2.81.23 5.67.45 8 .6 1.87.13 3.08.19 3.39.21.12 0 .43.11.82.24h.06.08c1.82.61 2.65 1.32 2.65 1.72 0 .56-1.25.92-2.5 1h-.25a.75.75 0 0 0 -.75.71.76.76 0 0 0 .67.79h.23c1.06.15 2.39.61 2.62 1.52-.14.21-.82.61-2.52.86h-.15c-.51.06-.87.08-.89.08a.75.75 0 0 0 -.69.88z" fill="#ffe3e4"/><path d="m112 166.37a.13.13 0 0 0 0 .06 107.29 107.29 0 0 1 -26.36-2.56v-17.34c8.24 2.11 19.23 3.53 28.6 4.45a.81.81 0 0 0 0 .16 39.26 39.26 0 0 1 -2.24 15.23z" fill="#ca7375"/><path d="m113.57 166.4c0 .16-.1.31-.16.47a.75.75 0 0 1 -.71.5.73.73 0 0 1 -.25 0 .77.77 0 0 1 -.48-.9.13.13 0 0 1 0-.06 39.26 39.26 0 0 0 2.21-15.23.81.81 0 0 1 0-.16.75.75 0 0 1 .7-.63.73.73 0 0 1 .79.71v.07a40.85 40.85 0 0 1 -2.1 15.23z" fill="#231f20"/><path d="m195.68 166.4c-4-.1-7.56-.35-10.23-.61-1.68-.16-2.89-.3-3.49-.38l-.4-.06h-.1l-.44-.09c-.6-.14-1.64-.4-2.73-.76l-.68-.23c-3-1.08-3.19-1.9-3.2-2a.77.77 0 0 1 .18-.65 4.27 4.27 0 0 1 2.57-.77.75.75 0 0 0 0-1.5c-1.44-.08-3.22-.48-3.57-1 .29-1 2.2-1.41 2.84-1.46a.76.76 0 0 0 .69-.78.76.76 0 0 0 -.75-.72c-.93 0-2.75-.31-2.75-1s1.88-1.58 3.6-2h.14c.55 0 2.16-.12 4.5-.28 1-.06 2.08-.14 3.28-.24h.06c2.34-.17 5.2-.41 8.35-.71a24.93 24.93 0 0 0 2.13 15.24z" fill="#ffe3e4"/><path d="m222.11 146.85v17.32a108.41 108.41 0 0 1 -24.74 2.27 23.52 23.52 0 0 1 -2.23-15.44.34.34 0 0 0 0-.1 217.08 217.08 0 0 0 26.97-4.05z" fill="#ca7375"/><path d="m197.17 167.66a.73.73 0 0 1 -.35.09.74.74 0 0 1 -.66-.39q-.25-.48-.48-1a24.93 24.93 0 0 1 -2.07-15.3c0-.12 0-.23.06-.35a.75.75 0 0 1 1.48.2.34.34 0 0 1 0 .1 23.52 23.52 0 0 0 2.23 15.39 1.86 1.86 0 0 0 .1.2.75.75 0 0 1 -.31 1.06z" fill="#231f20"/><path d="m117.52 274.54c-.31 1.18-.54 2-.67 2.55h-28.59c1.27-.94 7.42-2.57 13-3.66a.49.49 0 0 0 .17.06 56 56 0 0 0 11.67 1.23c1.47 0 2.9-.06 4.42-.18z" fill="#231f20"/><path d="m127.61 166.84v71.09c-4.26 14.93-7.9 28.43-9.71 35.17a.72.72 0 0 0 -.36-.06 54.36 54.36 0 0 1 -15.11-.88l16-104.47c4.99-.29 8.44-.74 9.18-.85z" fill="#e6bd66"/><path d="m118.35 273.72a.74.74 0 0 1 -.68.81h-.15c-1.48.12-3 .18-4.43.18a56 56 0 0 1 -11.67-1.23.49.49 0 0 1 -.17-.06.75.75 0 0 1 .48-1.41l.7.14a54.36 54.36 0 0 0 15.11.88.72.72 0 0 1 .36.06.71.71 0 0 1 .45.63z" fill="#231f20"/><path d="m176.61 274.39v2.41l-4.36-.18c-.1-.56-.25-1.42-.45-2.57a16.14 16.14 0 0 0 3.54.4c.42 0 .85-.02 1.27-.06z" fill="#231f20"/><path d="m177.85 273.5a.74.74 0 0 1 -.65.83 5.91 5.91 0 0 1 -.59.06c-.42 0-.85.06-1.27.06a16.14 16.14 0 0 1 -3.54-.4 9.12 9.12 0 0 1 -.9-.23.75.75 0 0 1 -.51-.93.76.76 0 0 1 .93-.51h.19a14.13 14.13 0 0 0 5.1.47h.41a.74.74 0 0 1 .83.65z" fill="#231f20"/><path d="m186 273.21a15.63 15.63 0 0 1 -3.35 0v-106.21l2 .22 1.22 105.63a.75.75 0 0 0 .13.36z" fill="#e6bd66"/><path d="m188.34 273.85a.72.72 0 0 1 -.49.51 11.71 11.71 0 0 1 -3.31.43c-.65 0-1.3 0-1.92-.1l-1.08-.1a.69.69 0 0 1 -.42-.2.73.73 0 0 1 -.25-.63.78.78 0 0 1 .25-.48.73.73 0 0 1 .58-.19l.92.09a15.63 15.63 0 0 0 3.35 0 9.08 9.08 0 0 0 1.45-.29.75.75 0 0 1 .93.93z" fill="#231f20"/><path d="m172.16 154.34a2.11 2.11 0 0 0 1.32 1.91 2.9 2.9 0 0 0 -1.29 1.63 1.57 1.57 0 0 0 .23 1.38 3.18 3.18 0 0 0 1.47 1 2.41 2.41 0 0 0 -.41.37 2.27 2.27 0 0 0 -.57 1.81 2.06 2.06 0 0 0 .24.75 217.71 217.71 0 0 1 -37.08-1.5 2.23 2.23 0 0 0 -.93-1.43 2.6 2.6 0 0 0 1.49-1 1.53 1.53 0 0 0 .2-1.32 2.92 2.92 0 0 0 -1.31-1.63 2.1 2.1 0 0 0 1.34-1.91c0-1.2-1.1-2.2-3.25-3v-45.68h1.59c-.54 2.14-1.11 6.38 1.45 10 2.81 4 8.48 6.12 16.86 6.33h1.62c7.71 0 12.87-1.44 15.73-4.38 3.17-3.25 3-7.76 2.77-11.38v-.38c0-.08 0-.15 0-.23h3v45.32c-1.29.3-4.47 1.36-4.47 3.34z" fill="#ca7375"/><path d="m176.61 165.49v107.4a14.13 14.13 0 0 1 -5.1-.47c-3.32-18.79-15.46-85.54-22-94.77a.75.75 0 0 0 -.57-.31.71.71 0 0 0 -.6.25c-2.69 3-7.63 16.44-14.69 39.83v-52.42a4.91 4.91 0 0 0 2.26-1.81 220.8 220.8 0 0 0 27.58 1.73q5.49 0 10.95-.27a.54.54 0 0 0 .25-.06 13.44 13.44 0 0 0 1.92.9z" fill="#e6bd66"/><path d="m175.11 163.83a.74.74 0 0 1 -.46.73.54.54 0 0 1 -.25.06q-5.46.27-10.95.27a220.8 220.8 0 0 1 -27.58-1.73h-.11a.75.75 0 1 1 .19-1.49h.12a217.71 217.71 0 0 0 37.08 1.5h1.17a.76.76 0 0 1 .79.66z" fill="#231f20"/><path d="m168.19 156.57a96.3 96.3 0 0 1 -25.81-1.92c-.94-.2-1.34 1.25-.4 1.45a97.83 97.83 0 0 0 26.21 2c.96-.1.97-1.59 0-1.53z" fill="#231f20"/><path d="m151.53 124.59-8.67-.67c-1-.07-1 1.43 0 1.5l8.67.67c.96.07.96-1.43 0-1.5z" fill="#231f20"/><path d="m108 121.79-15.34 3.28c-.94.2-.54 1.65.4 1.45l15.34-3.28c.9-.24.5-1.66-.4-1.45z" fill="#231f20"/><path d="m107.31 115.89-9.33 2c-.94.2-.54 1.65.4 1.45l9.33-2c.95-.21.55-1.65-.4-1.45z" fill="#231f20"/><path d="m122.57 215.94-13.93 43.81c-.29.92 1.15 1.32 1.45.4l13.91-43.81c.31-.92-1.14-1.34-1.43-.4z" fill="#231f20"/><path d="m165.64 182.46c-.14-1-1.59-.55-1.45.4l6.4 43.37c.14 1 1.59.55 1.45-.4z" fill="#231f20"/><path d="m240 131.55c-.72-.64-1.78.41-1.06 1.06a8.6 8.6 0 0 1 .66 12.13c-.65.71.41 1.78 1.06 1.06a10.12 10.12 0 0 0 -.66-14.25z" fill="#fff"/><path d="m106.19 152.58a18.4 18.4 0 0 1 -9.62-1.88c-.86-.43-1.62.87-.76 1.3a19.92 19.92 0 0 0 10.38 2.08c.96-.08.97-1.57 0-1.5z" fill="#fff"/><path d="m112.86 49.92h-38.67a.75.75 0 0 0 0 1.5h38.67a.75.75 0 0 0 0-1.5z" fill="#fff"/><path d="m104.86 45.26h-8a.75.75 0 0 0 0 1.5h8a.75.75 0 0 0 0-1.5z" fill="#fff"/><path d="m104.86 283.92h-40.67a.75.75 0 0 0 0 1.5h40.67a.75.75 0 0 0 0-1.5z" fill="#fff"/><path d="m190.86 278.59h-11.33a.75.75 0 0 0 0 1.5h11.33a.75.75 0 0 0 0-1.5z" fill="#fff"/><path d="m156.86 282.59h-5.33a.75.75 0 0 0 0 1.5h5.33a.75.75 0 0 0 0-1.5z" fill="#fff"/><path d="m235.53 283.92h-9.33a.75.75 0 0 0 0 1.5h9.33a.75.75 0 0 0 0-1.5z" fill="#fff"/><path d="m172.64 132-.64 14c0 1 1.46 1 1.5 0l.64-14c.05-1-1.45-1-1.5 0z" fill="#fff"/></svg>