<svg viewBox="0 0 300 300" xmlns="http://www.w3.org/2000/svg"><path d="m196.17 63.38a1.53 1.53 0 0 1 0 .18c0 2.12-.81 20-9.82 31.27-3.56 4.46-8.8 5.87-14 5.87-8.84 0-17.63-4-18.21-4.32a.59.59 0 0 1 -.18-.13.72.72 0 0 1 -.23-.39l-.22-1-1.62-7.47a.76.76 0 0 1 .58-.88.75.75 0 0 1 .89.58l.22 1 1.53 7.1c2.77 1.21 21.85 9 30.1-1.28 7.81-9.76 9.21-25.23 9.45-29.44 0-.68 0-1.07 0-1.1a.78.78 0 0 1 .76-.74.75.75 0 0 1 .75.75z" fill="#231f20"/><path d="m172 73a3.94 3.94 0 0 1 -2.77-1.68.75.75 0 0 0 -1.33.69 6.76 6.76 0 0 1 .64 2.56c-1-.62-3.27-3.84-3.21-4.74a.16.16 0 0 1 .1-.05c.18 0 .5.35.67.63a.75.75 0 0 0 1.34-.12l.07-.18a.63.63 0 0 0 .29-.08c.56-.3 1.11-.62 1.64-1a23.49 23.49 0 0 1 2.56 3.97z" fill="#edd092"/><path d="m169.45 69.07c-.53.35-1.08.67-1.64 1a.63.63 0 0 1 -.29.08c.13-.35.45-1.15.85-2.14 0-.06 0-.13.08-.2l.08.1z" fill="#ca7375"/><path d="m175.61 60.23a20.33 20.33 0 0 1 -7.08 7.65l-.08-.1q.22-.57.48-1.17l.18-.42c.27-.63.55-1.27.82-1.84s2.35-2.03 5.68-4.12z" fill="#fff"/><path d="m203.68 56.24c-.43 2.48-21.69 13.59-28.37 16.26a7.78 7.78 0 0 1 -1.69.49c-.2 0-.4.06-.6.07a4.68 4.68 0 0 1 -1-.05 23.49 23.49 0 0 0 -2.56-3.94 21.57 21.57 0 0 0 8.29-9.83.82.82 0 0 0 .06-.37c2.35-1.42 5.12-3 8.19-4.72a2.81 2.81 0 0 0 .85 1.72 1.38 1.38 0 0 0 1.08.28c1.06-.17 2-1.36 2.9-3.62a3.07 3.07 0 0 0 .67 1.85 1.3 1.3 0 0 0 .93.4c.78 0 1.7-.56 3.07-4.21a3.37 3.37 0 0 0 .72 2.17 1.31 1.31 0 0 0 1 .42c1 0 1.87-1.11 2.59-3.56 1.6 1.77 4.19 4.73 3.87 6.64z" fill="#edd092"/><path d="m177.8 58.87a.82.82 0 0 1 -.06.37 21.57 21.57 0 0 1 -8.29 9.83l-.92-1.19a20.33 20.33 0 0 0 7.08-7.65c.68-.43 1.39-.89 2.19-1.36z" fill="#ca7375"/><path d="m169.11 66.19-.18.42q-.25.6-.48 1.17l-.8-1-.27-.34-.51-.65c-2.58-3.21-5-6.25-5.51-8.25a2.51 2.51 0 0 0 -.71-1.21 2.89 2.89 0 0 0 -.32-.28.75.75 0 0 1 -.15-1.05.63.63 0 0 1 .23-.2h.06a.75.75 0 0 1 .72.1 4.75 4.75 0 0 1 .82.79 3.93 3.93 0 0 1 .77 1.54c.42 1.68 2.86 4.73 5.22 7.67l.78 1z" fill="#231f20"/><path d="m173.83 74.45c-.53 5-5.06 9.39-13.45 12.91a11.65 11.65 0 0 1 -4.51 1 8.52 8.52 0 0 1 -2.33-.32 8.07 8.07 0 0 1 -1.4-.57l-.29-.16c-4.17-2.38-5.44-7.91-5.49-8.15a.75.75 0 0 1 1.46-.32c0 .05 1.24 5.35 5 7.3 2 1 4.3.95 7-.16 7.71-3.24 11.91-7.09 12.51-11.45v-.28a.71.71 0 0 0 0-.32 4.53 4.53 0 0 0 -.33-.93 4.68 4.68 0 0 0 1 .05c.2 0 .4 0 .6-.07a5 5 0 0 1 .18.69 2.51 2.51 0 0 1 .05.78z" fill="#231f20"/><path d="m142.83 91.55-.33-16.21a.75.75 0 0 0 -.29-.58.78.78 0 0 0 -.64-.13c-1.07.27-3.58.63-4.47 0a.57.57 0 0 1 -.27-.41.81.81 0 0 1 .18-.65c.56-.7 2.22-1.08 3.14-1.15h.06.12.05a.75.75 0 0 0 .46-.75.77.77 0 0 0 -.81-.69c-.08 0-.34 0-.71.09a5.85 5.85 0 0 0 -3.48 1.62 2.27 2.27 0 0 0 -.49 1.8 2.06 2.06 0 0 0 .91 1.45c1.24.83 3.48.59 4.76.37l.31 15.08c-6.27.72-49.61 6.5-56.3 29.13-3.42 11.53 2.22 21 16.76 28.08h.09q1.08.52 2.13 1c.78.35 1.54.68 2.26 1 1.6.67 3.06 1.23 4.28 1.7a23.6 23.6 0 0 1 3.6 1.54.77.77 0 0 0 .6.3.74.74 0 0 0 .42-.13.75.75 0 0 0 .2-1c-.37-.55-1.39-1-4.28-2.07-1.88-.72-4.33-1.66-7-2.85-.56-.25-1.11-.51-1.68-.79l-.26-.13c-13.79-6.81-18.92-15.38-15.72-26.19 6.63-22.32 52.51-27.84 55.57-28.18h.16a.75.75 0 0 0 .67-.77z" fill="#231f20"/><path d="m162.48 72.21c-.42 1.69-3 2.42-3.55 2.55h-.18a.75.75 0 0 1 -.18-1.48c.94-.23 2.31-.87 2.46-1.45s-1.78-3.68-3.54-6a.75.75 0 1 1 1.2-.9c1.57 2.07 4.16 5.82 3.79 7.28z" fill="#231f20"/><path d="m166.5 74.32-3 2a.69.69 0 0 1 -.41.13.77.77 0 0 1 -.63-.34.76.76 0 0 1 .21-1l2.7-1.8.3-.2a.75.75 0 0 1 1 .21.74.74 0 0 1 -.17 1z" fill="#231f20"/><path d="m166.65 48.87c-.56-1.13-2.23-1.3-5.4-.57-12.58 2.9-18.16 9-18.39 9.23a.74.74 0 0 0 -.17.65 5.61 5.61 0 0 0 -2.61 2.18c-.93 1.85-.83 8.41-.76 10.68v.69a.78.78 0 0 0 .32.59.75.75 0 0 0 .43.13h.12.12.05c.65-.22 4.41-1.62 4.78-4.25a38.16 38.16 0 0 0 -.25-7.2c2.53-.61 11.59-2.84 15.74-4.61l.43-.19a7.85 7.85 0 0 0 1-.5 5.3 5.3 0 0 0 .53-.37c1.89-1.7 4.95-4.7 4.06-6.46zm-5 5.26a4.72 4.72 0 0 1 -1.09.62h-.06c-4.39 2-16.37 4.8-16.49 4.83a.75.75 0 0 0 -.57.82 44 44 0 0 1 .33 7.47c-.17 1.16-1.7 2.13-2.87 2.68-.08-3.45 0-8.36.61-9.57s3.49-2.24 5.16-2.6a.75.75 0 0 0 -.16-1.48.47.47 0 0 0 -.16 0l-.76.18a39.65 39.65 0 0 1 16.09-7.39c3.26-.75 3.72-.22 3.73-.22.07.43-1.02 2.27-3.81 4.66z" fill="#231f20"/><path d="m161.6 54.13a4.72 4.72 0 0 1 -1.09.62h-.06c-4.39 2-16.37 4.8-16.49 4.83a.75.75 0 0 0 -.57.82 44 44 0 0 1 .33 7.47c-.17 1.16-1.7 2.13-2.87 2.68-.08-3.45 0-8.36.61-9.57s3.49-2.24 5.16-2.6a.75.75 0 0 0 -.16-1.48.47.47 0 0 0 -.16 0l-.76.18a39.65 39.65 0 0 1 16.09-7.39c3.26-.75 3.72-.22 3.73-.22.12.43-.97 2.27-3.76 4.66z"/><g fill="#231f20"><path d="m161.84 65.65c-.37.25-1.3.87-5.66-3.18.28 2.31.36 5.37-1 6.2a1.43 1.43 0 0 1 -.77.22 1.62 1.62 0 0 1 -.51-.09c-1.86-.6-3.77-4.95-4.13-5.81a.75.75 0 0 1 .4-1 .74.74 0 0 1 1 .4c1.19 2.81 2.72 5 3.26 5 .31-.19.47-1.08.47-2.33a24.83 24.83 0 0 0 -.49-4.55.77.77 0 0 1 .38-.81.78.78 0 0 1 .89.13 30.21 30.21 0 0 0 5.24 4.39 20.88 20.88 0 0 0 -2.09-4.82.75.75 0 1 1 1.3-.74c3.28 5.94 2.1 6.73 1.71 6.99z"/><path d="m196.64 47.1-.71.3-.43.18-.37.17-.3.14c0 .11-.07.21-.1.31-.2.63-.4 1.18-.58 1.67l1.29-.61.32-.15.24-.11.47-.2.43-.18c0-.15 0-.31 0-.47 0-.41 0-.81.07-1.2zm-4.78 2.22c-.14.54-.31 1.12-.5 1.69 0 .1-.07.2-.1.3.2-.09.4-.2.59-.3l.4-.21c0-.14 0-.29 0-.44 0-.43 0-.86.07-1.27zm0 0-.7.36-.38.2-.48.24-.27.14-.09.29c-.23.71-.45 1.31-.66 1.81l1.48-.79.21-.11.28-.14c.2-.09.4-.2.59-.3l.4-.21c0-.14 0-.29 0-.44 0-.43 0-.86.07-1.27zm0 0-.7.36-.38.2-.48.24-.27.14-.09.29c-.23.71-.45 1.31-.66 1.81l1.48-.79.21-.11.28-.14c.2-.09.4-.2.59-.3l.4-.21c0-.14 0-.29 0-.44 0-.43 0-.86.07-1.27zm4.78-2.22-.71.3-.43.18-.37.17-.3.14c0 .11-.07.21-.1.31-.2.63-.4 1.18-.58 1.67l1.29-.61.32-.15.24-.11.47-.2.43-.18c0-.15 0-.31 0-.47 0-.41 0-.81.07-1.2zm-5.49 2.59-.38.2-.48.24-.27.14-.09.29c-.23.71-.45 1.31-.66 1.81l1.48-.79.21-.11.28-.14c0-.1.07-.2.1-.3.19-.57.36-1.15.5-1.69zm5.49-2.59-.71.3-.43.18v.47 1.21l.32-.15.18-.11.47-.2.43-.18c0-.15 0-.31 0-.47 0-.41 0-.81.07-1.2zm-5.49 2.59-.38.2-.48.24-.27.14-.09.29c-.23.71-.45 1.31-.66 1.81l1.48-.79.21-.11.28-.14c0-.1.07-.2.1-.3.19-.57.36-1.15.5-1.69zm14 5.68a5.72 5.72 0 0 0 -.42-1.44c-.9-2.19-3-4.41-4.39-5.9l-.15-.16-.34-.37a6.78 6.78 0 0 1 -.49-.57.79.79 0 0 0 -.42-.32c-.09.41-.19.86-.3 1.31l-.09.38c0 .07.12.14.18.21l.51.54.51.55c1.65 1.77 4.23 4.73 3.92 6.64-.43 2.48-21.69 13.59-28.37 16.26a7.78 7.78 0 0 1 -1.69.49c-.2 0-.4.06-.6.07a4.68 4.68 0 0 1 -1-.05 3.94 3.94 0 0 1 -2.77-1.68.75.75 0 0 0 -1.33.69 6.76 6.76 0 0 1 .64 2.56c-1-.62-3.27-3.84-3.21-4.74a.16.16 0 0 1 .1-.05c.18 0 .5.35.67.63a.75.75 0 0 0 1.34-.12l.07-.18c.13-.35.45-1.15.85-2.14 0-.06 0-.13.08-.2q.22-.57.48-1.17l.18-.42c.27-.63.55-1.27.82-1.84s2.35-2 5.68-4.12c.68-.43 1.41-.89 2.19-1.36 2.35-1.42 5.12-3 8.19-4.72l1-.52c.15-.08.3-.17.45-.24 0-.14 0-.3-.06-.48 0-.37 0-.77 0-1.18l-1.06.58-.42.23c-2.65 1.46-16.22 9-17.23 11.17l-.67 1.15-.5 1.16c-.06.14-.12.28-.17.42-.35.83-.66 1.61-.9 2.21a1.89 1.89 0 0 0 -.86-.35 1.64 1.64 0 0 0 -1.4.53c-1 1 .26 3.16 1.15 4.44.34.49.63.85.72 1s.13.16.2.23c1 1.15 1.78 1.71 2.44 1.71a1.06 1.06 0 0 0 .6-.18 2 2 0 0 0 .68-2 5.78 5.78 0 0 0 2.3.61 7.11 7.11 0 0 0 .8 0c.24 0 .48 0 .72-.08a9.85 9.85 0 0 0 2-.58c1.51-.61 8.68-4 15.55-7.68 1.08-.59 2.16-1.18 3.2-1.77l1.54-.89c4.87-2.85 8.76-5.56 9-7.08a3.75 3.75 0 0 0 .09-1.19zm-14.15-3.9.28-.14c0-.1.07-.2.1-.3.19-.57.36-1.15.5-1.69l-.7.36-.38.2-.48.24-.27.14-.09.29c-.23.71-.45 1.31-.66 1.81l1.48-.79zm.19-1.78-.38.2-.48.24-.27.14-.09.29c-.23.71-.45 1.31-.66 1.81l1.48-.79.21-.11.28-.14c0-.1.07-.2.1-.3.19-.57.36-1.15.5-1.69zm5.49-2.59-.71.3-.43.18v.47 1.21l.32-.15.14-.11.47-.2.43-.18c0-.15 0-.31 0-.47 0-.41 0-.81.07-1.2zm-5.49 2.59-.38.2-.48.24-.27.14-.09.29c-.23.71-.45 1.31-.66 1.81l1.48-.79.21-.11.28-.14c0-.1.07-.2.1-.3.19-.57.36-1.15.5-1.69zm5.49-2.59-.71.3-.43.18-.37.17-.3.14c0 .11-.07.21-.1.31-.2.63-.4 1.18-.58 1.67l1.29-.61.32-.15.2-.11.47-.2.43-.18c0-.15 0-.31 0-.47 0-.41 0-.81.07-1.2zm-4.78 2.22-.7.36-.38.2-.48.24-.27.14-.09.29c-.23.71-.45 1.31-.66 1.81l1.48-.79.21-.11.28-.14c.2-.09.4-.2.59-.3l.4-.21c0-.14 0-.29 0-.44 0-.43 0-.86.07-1.27z"/><path d="m126.84 111a.76.76 0 0 1 -.75.75 2 2 0 0 0 -.42.12c-3.39 1.09-21.88 9.31-22.17 16.16-.16 3.75 4.5 6.44 9 9 .67.38 1.33.76 2 1.15a0 0 0 0 1 0 0c2.48 1.48 5.08 3.18 6.15 5.34a4.59 4.59 0 0 1 .52 2.09c0 1.64 0 3.2-.06 4.6v.05a16.1 16.1 0 0 1 -.77 4.89v.07a4.21 4.21 0 0 1 -1.87 2.31 4 4 0 0 1 -2 .49c-3.33 0-10.62-1-12.09-2.75a1.39 1.39 0 0 1 -.32-1.15 1.41 1.41 0 0 1 .65-.9l.18-.1a6.23 6.23 0 0 1 2.81-.32 30.15 30.15 0 0 1 4.6.74.74.74 0 0 1 .56.9.75.75 0 0 1 -.9.56c-2.73-.65-5.6-.9-6.34-.58.92.87 6.53 2.1 10.84 2.1a2.4 2.4 0 0 0 2.46-1.77v-.07a14.9 14.9 0 0 0 .7-4.53c.06-1.37.06-2.89.06-4.51 0-2-2.11-3.81-5.35-5.8l-.61-.37c-.22-.13-.45-.27-.68-.39l-1.28-.74c-4.89-2.83-9.94-5.74-9.75-10.4.38-8.81 23-17.72 24.09-17.72a.76.76 0 0 1 .74.78z"/><path d="m107.79 153.62a.77.77 0 0 1 -1 .45 16.58 16.58 0 0 1 -2-.86c-1.28-.65-2.3-1.45-2.19-2.35.08-.66.63-1 1.36-1.26a9.21 9.21 0 0 1 1.66-.32.76.76 0 0 1 .83.67.78.78 0 0 1 -.23.62.73.73 0 0 1 -.43.21 6.08 6.08 0 0 0 -1.56.31 11.54 11.54 0 0 0 3.06 1.57.67.67 0 0 1 .31.23.73.73 0 0 1 .19.73z"/><path d="m200.78 44.89c0 .06-.21 1.4-.58 3l-.09.4c-.12.48-.23.93-.35 1.33-.72 2.45-1.54 3.56-2.59 3.56a1.31 1.31 0 0 1 -1-.42 3.37 3.37 0 0 1 -.72-2.17c0-.37 0-.8 0-1.31 0-.36 0-.77 0-1.21v-.47c.1-1.61.29-3 .29-3s0 0 0 0a.09.09 0 0 1 0-.05 0 0 0 0 1 0 0s0 0 0 0a0 0 0 0 1 0 0 .57.57 0 0 1 .11-.16.76.76 0 0 1 1.29.38 1 1 0 0 1 0 .17.11.11 0 0 1 0 .05.17.17 0 0 1 0 .07s0 0 0 0c-.05.37-.14 1.16-.22 2.06 0 .39 0 .79-.07 1.2v.47a7.09 7.09 0 0 0 .28 3c.18-.18.71-.87 1.33-3.3l.09-.38c.11-.45.21-.9.3-1.31.23-1.1.35-1.93.35-1.94a.75.75 0 0 1 1.48.22z"/><path d="m197.27 44.54a.73.73 0 0 0 -.73-.64.71.71 0 0 0 -.56.26.57.57 0 0 0 -.11.16 0 0 0 0 0 0 0s0 0 0 0a0 0 0 0 0 0 0 .09.09 0 0 0 0 .05s0 0 0 0c-.3 1.17-.63 2.29-1 3.32 0 .11-.07.21-.1.31-.2.63-.4 1.18-.58 1.67a10.38 10.38 0 0 1 -1.65 3.33 6.38 6.38 0 0 1 -.26-2.39c0-.14 0-.29 0-.44 0-.43 0-.86.07-1.27.09-1.34.25-2.55.31-3a.17.17 0 0 0 0-.07.7.7 0 0 0 -.65-.79.8.8 0 0 0 -.85.69c-.07.59-.29 2.28-.37 4v.44 1.25s0 .68.07.95a3.07 3.07 0 0 0 .67 1.85 1.3 1.3 0 0 0 .93.4c.78 0 1.7-.56 3.07-4.21.18-.47.36-1 .55-1.59 0-.1.06-.21.1-.32.17-.5.33-1 .49-1.56.2-.7.41-1.43.61-2.21s0 0 0 0a.17.17 0 0 0 0-.07.11.11 0 0 0 0-.05.13.13 0 0 0 0-.06.22.22 0 0 0 -.01-.01z"/><path d="m185.08 275-17.22-122a.55.55 0 0 0 0-.18l-5.21-36.91c5.22.66 29.18 2.67 39.44-15 6.83-11.77 9.41-32.1 6-46.62 0-.22-.1-.44-.15-.66l-.18-.67c-1.28-4.81-3.18-8.5-5.64-11a6.05 6.05 0 0 0 -4.63-1.76 1.94 1.94 0 0 0 -1.52.75 5.59 5.59 0 0 1 -.61.74c-.84-.45-2.44-1.15-3.61-.8a1.64 1.64 0 0 0 -1 .9 2 2 0 0 0 -.16.86 3.77 3.77 0 0 0 -3 0c-1.19.76-1.85 6.9-1.72 9.89v.49a10 10 0 0 0 .16 1.12 2.81 2.81 0 0 0 .85 1.72 1.38 1.38 0 0 0 1.08.28c1.06-.17 2-1.36 2.9-3.62.14-.37.29-.77.42-1.2 0-.1.07-.2.1-.3.19-.57.36-1.15.5-1.69.43-1.61.71-3 .75-3.2a.18.18 0 0 0 0-.07.17.17 0 0 0 0-.07s0 0 0 0a1.1 1.1 0 0 0 0-.18.75.75 0 0 0 -1.46-.25.43.43 0 0 0 0 .21c-.08.4-.49 2.45-1.14 4.53l-.09.29c-.23.71-.45 1.31-.66 1.81-.71 1.69-1.29 2.26-1.5 2.32 0 0-.24-.2-.38-1.3 0-.14 0-.3-.06-.48 0-.37 0-.77 0-1.18 0-3.11.66-7.09 1.1-7.85a5.64 5.64 0 0 1 2.84.71.75.75 0 0 0 .85-.15.76.76 0 0 0 .15-.85 2 2 0 0 1 -.19-1.15s0 0 .1-.07c.64-.19 2.08.42 2.9.92a.75.75 0 0 0 .86-.06 6.88 6.88 0 0 0 1.25-1.38c.35-.29 2.46-.21 3.87 1.21 2.24 2.24 4 5.78 5.25 10.27.06.22.11.44.17.66s.13.54.19.81c3.3 14.18.78 33.92-5.85 45.35-11 18.89-38.61 14.19-38.89 14.14a.75.75 0 0 0 -.87.84l5.27 37.37.22 1.52 17.14 121.46v.31a.75.75 0 0 0 .68.65l.66.05c8.15.66 15.25 2.23 16.21 3.54-3.23 1-23.9 1.27-37.17 1.24l-.7-4.32-.25-1.57-16.64-102.51a.75.75 0 0 0 -.71-.63.72.72 0 0 0 -.76.57l-25.17 102.28-.42 1.69-.94 3.83c-16.55 1-34.29 1.23-36.58 0 .85-1.34 8.76-3.68 18-5.35l.91-.16a.77.77 0 0 0 .61-.62v-.18l18.11-114.59.23-1.49.48-3 .77-4.89v-.05l6.31-39.32a.74.74 0 0 0 -.62-.86.8.8 0 0 0 -.6.16.71.71 0 0 0 -.26.46l-.18 1.16-5 31.71-1 6.6-.73 4.6-.44 2.78-.19 1.2-18.22 114.9c-6.23 1.1-19.4 3.78-19.75 6.91a1.14 1.14 0 0 0 .33.91c1.06 1.12 6.85 1.47 13.77 1.47 9 0 19.94-.6 24.7-.89a.76.76 0 0 0 .68-.57l25.78-104.76 17.08 105.37a.75.75 0 0 0 .74.63c.09 0 9.77 0 19.33-.16 20-.4 20.06-1.25 20.09-2.24.08-3.52-11.93-4.92-17.76-5.38z"/></g><path d="m170 73.95a2 2 0 0 1 -.68 2 1.06 1.06 0 0 1 -.6.18c-.66 0-1.46-.56-2.44-1.71l-2.79 1.86a.69.69 0 0 1 -.41.13.77.77 0 0 1 -.63-.34.76.76 0 0 1 .21-1l2.7-1.8c-.89-1.28-2.14-3.45-1.15-4.44a1.64 1.64 0 0 1 1.4-.53 1.89 1.89 0 0 1 .86.35c.24-.6.55-1.38.9-2.21l-.51-.65c-2.58-3.21-5-6.25-5.51-8.25a2.51 2.51 0 0 0 -.71-1.21c-4.15 1.77-13.21 4-15.74 4.61a38.16 38.16 0 0 1 .25 7.2c-.37 2.63-4.13 4-4.78 4.25h-.05-.12-.06c-.92.07-2.58.45-3.14 1.15a.81.81 0 0 0 -.18.65.57.57 0 0 0 .27.41c.89.6 3.4.24 4.47 0a.78.78 0 0 1 .64.13.75.75 0 0 1 .29.58l.33 16.21h.07c2.94 2.31 7.25 4.13 10.57 3.24l-1.62-7.47c-4.17-2.38-5.44-7.91-5.49-8.15a.75.75 0 0 1 1.46-.32c0 .05 1.24 5.35 5 7.3 2 1 4.3.95 7-.16 7.71-3.24 11.91-7.09 12.51-11.45a5.78 5.78 0 0 1 -2.32-.56zm-14.87-5.28a1.43 1.43 0 0 1 -.77.22 1.62 1.62 0 0 1 -.51-.09c-1.86-.6-3.77-4.95-4.13-5.81a.75.75 0 0 1 .4-1 .74.74 0 0 1 1 .4c1.19 2.81 2.72 5 3.26 5 .31-.19.47-1.08.47-2.33a24.83 24.83 0 0 0 -.49-4.55.77.77 0 0 1 .38-.81.78.78 0 0 1 .89.13 30.21 30.21 0 0 0 5.24 4.39 20.88 20.88 0 0 0 -2.09-4.82.75.75 0 1 1 1.3-.74c3.34 5.94 2.16 6.73 1.77 7s-1.3.87-5.66-3.18c.27 2.3.35 5.36-1.05 6.19zm3.79 6.09h-.18a.75.75 0 0 1 -.18-1.48c.94-.23 2.31-.87 2.46-1.45s-1.78-3.68-3.54-6a.75.75 0 1 1 1.2-.9c1.57 2.1 4.16 5.84 3.79 7.3-.41 1.67-3.02 2.4-3.54 2.53z" fill="#ffe3e4"/><path d="m154.51 96.07a5.78 5.78 0 0 1 -.59.18 8.23 8.23 0 0 1 -2.32.32c-3.47 0-7.13-1.84-9.59-3.77a.75.75 0 0 1 -.13-1.05.74.74 0 0 1 1-.17h.07c2.94 2.31 7.25 4.13 10.57 3.24l.52-.17a.75.75 0 1 1 .52 1.41z" fill="#231f20"/><path d="m167.86 153a.75.75 0 0 1 -.5.71l-.86.3a111.47 111.47 0 0 1 -36.5 6.2c-3.45 0-6.9-.17-10.33-.5-.24 0-.47 0-.71-.06a.75.75 0 0 1 .16-1.5l.78.07a109.15 109.15 0 0 0 46.42-5.72l.58-.2a.75.75 0 0 1 1 .46.65.65 0 0 1 0 .07.55.55 0 0 1 -.04.17z" fill="#231f20"/><path d="m119.67 145.7c0 1.62 0 3.14-.06 4.51l-.73 4.6a2.4 2.4 0 0 1 -2.46 1.77c-4.31 0-9.92-1.23-10.84-2.1.74-.32 3.61-.07 6.34.58a.75.75 0 0 0 .9-.56.74.74 0 0 0 -.56-.9 30.15 30.15 0 0 0 -4.6-.74.67.67 0 0 0 -.31-.23 11.54 11.54 0 0 1 -3.06-1.57 6.08 6.08 0 0 1 1.56-.31.73.73 0 0 0 .43-.21c1.6.67 3.06 1.23 4.28 1.7a23.6 23.6 0 0 1 3.6 1.54.77.77 0 0 0 .6.3.74.74 0 0 0 .42-.13.75.75 0 0 0 .2-1c-.37-.55-1.39-1-4.28-2.07-1.88-.72-4.33-1.66-7-2.85a22.15 22.15 0 0 0 10.18-8.12c3.28 1.98 5.39 3.75 5.39 5.79z" fill="#ffe3e4"/><path d="m114.72 139.29c-.13.21-.26.41-.4.61a22.15 22.15 0 0 1 -10.18 8.1c-.59.23-1.2.43-1.81.6a.64.64 0 0 1 -.2 0 .67.67 0 0 1 -.24 0h-.09a.72.72 0 0 1 -.39-.46.76.76 0 0 1 .52-.93l.27-.08a20.5 20.5 0 0 0 10.84-8l.43-.65a.73.73 0 0 1 1-.24 0 0 0 0 1 0 0 .73.73 0 0 1 .25 1.05z" fill="#231f20"/><path d="m206.26 53.33-.54.22c-.34.14-.66.27-1 .38-.9-2.19-3-4.41-4.39-5.9l-.15-.16c.37-1.58.57-2.92.58-3a.75.75 0 0 0 -1.48-.22s-.12.84-.35 1.94c-.09.41-.19.86-.3 1.31l-.09.38c-.62 2.43-1.15 3.12-1.33 3.3a7.09 7.09 0 0 1 -.28-3c0-.15 0-.31 0-.47 0-.41 0-.81.07-1.2.08-.9.17-1.69.22-2.06a.17.17 0 0 0 0-.07.11.11 0 0 0 0-.05.13.13 0 0 0 0-.06.22.22 0 0 0 0-.11.73.73 0 0 0 -.73-.64.71.71 0 0 0 -.56.26.57.57 0 0 0 -.11.16s0 0 0 0a0 0 0 0 0 0 0 .09.09 0 0 0 0 .05s0 0 0 0c-.3 1.17-.63 2.29-1 3.32 0 .11-.07.21-.1.31-.2.63-.4 1.18-.58 1.67a10.38 10.38 0 0 1 -1.65 3.33 6.38 6.38 0 0 1 -.26-2.39c0-.14 0-.29 0-.44 0-.43 0-.86.07-1.27.09-1.34.25-2.55.31-3a.17.17 0 0 0 0-.07s0 0 0 0a1.1 1.1 0 0 0 0-.18.75.75 0 0 0 -1.46-.25.43.43 0 0 0 0 .21c-.08.4-.49 2.45-1.14 4.53l-.09.29c-.23.71-.45 1.31-.66 1.81-.71 1.69-1.29 2.26-1.5 2.32 0 0-.24-.2-.38-1.3 0-.14 0-.3-.06-.48 0-.37 0-.77 0-1.18 0-3.11.66-7.09 1.1-7.85a5.64 5.64 0 0 1 2.84.71.75.75 0 0 0 .85-.15.76.76 0 0 0 .15-.85 2 2 0 0 1 -.19-1.15s0 0 .1-.07c.64-.19 2.08.42 2.9.92a.75.75 0 0 0 .86-.06 6.88 6.88 0 0 0 1.25-1.38c.35-.29 2.46-.21 3.87 1.21 2.2 2.35 4.01 5.89 5.21 10.38z" fill="#ffe3e4"/><path d="m200.77 100.15c-11 18.89-38.61 14.19-38.89 14.14a.75.75 0 0 0 -.87.84l5.27 37.37a109.15 109.15 0 0 1 -46.42 5.72l.48-3a16.1 16.1 0 0 0 .77-4.89v-.05l6.22-39.28a.74.74 0 0 0 -.62-.86.8.8 0 0 0 -.6.16c-1 0-23.71 8.91-24.09 17.72-.19 4.66 4.86 7.57 9.75 10.4l1.28.74a20.5 20.5 0 0 1 -10.84 8c-13.79-6.81-18.92-15.38-15.72-26.19 6.57-22.31 52.45-27.83 55.51-28.17 2.46 1.93 6.12 3.77 9.59 3.77a8.23 8.23 0 0 0 2.32-.32.59.59 0 0 0 .18.13c.58.27 9.37 4.32 18.21 4.32 5.23 0 10.47-1.41 14-5.87 9-11.26 9.77-29.15 9.82-31.27 4.87-2.85 8.76-5.56 9-7.08a3.75 3.75 0 0 0 0-1.11 11.7 11.7 0 0 0 1.14-.44l.32-.13c3.34 14.2.82 33.92-5.81 45.35z" fill="#ca7375"/><path d="m208 54.29a.64.64 0 0 1 -.3.14 7 7 0 0 0 -1.12.37l-.32.13a11.7 11.7 0 0 1 -1.14.44 4.76 4.76 0 0 1 -.57.15h-.15a.76.76 0 0 1 -.74-.6.75.75 0 0 1 .59-.88 3.74 3.74 0 0 0 .45-.12c.32-.11.64-.24 1-.38l.54-.22a7.06 7.06 0 0 1 1.18-.37.61.61 0 0 1 .27 0 .75.75 0 0 1 .33 1.33z" fill="#231f20"/><path d="m119.43 276.82-.94 3.83c-16.55 1-34.29 1.23-36.58 0 .85-1.34 8.76-3.68 18-5.35a27.7 27.7 0 0 0 19.46 1.56z"/><path d="m120.41 276.52c-.32.11-.65.21-1 .3a27.7 27.7 0 0 1 -19.41-1.56.75.75 0 0 1 -.36-1 .76.76 0 0 1 1-.36c.3.14.61.28.92.4a26.25 26.25 0 0 0 18.33.83h.09a.74.74 0 0 1 .95.47.75.75 0 0 1 -.52.92z" fill="#231f20"/><path d="m201.23 280c-3.23 1-23.9 1.27-37.17 1.24l-.7-4.32a55.48 55.48 0 0 0 21.17-.12.75.75 0 0 0 .49-.34c8.15.7 15.25 2.27 16.21 3.54z"/><path d="m183.64 275.48a54.32 54.32 0 0 1 -20.53-.1l-16.62-102.47a.75.75 0 0 0 -.71-.63.72.72 0 0 0 -.76.57l-25.17 102.28a26.25 26.25 0 0 1 -18.33-.83l18.11-114.59c3.43.33 6.88.5 10.33.5a111.47 111.47 0 0 0 36.54-6.21z" fill="#e6bd66"/><path d="m185 276.5a.75.75 0 0 1 -.49.34 55.48 55.48 0 0 1 -21.17.12c-.22 0-.43-.08-.65-.12a.76.76 0 0 1 -.59-.89.75.75 0 0 1 .88-.58h.11a54.32 54.32 0 0 0 20.53.1l.6-.11a.75.75 0 0 1 .88.59.73.73 0 0 1 -.1.55z" fill="#231f20"/><path d="m177.8 58.87a.82.82 0 0 1 -.06.37 21.57 21.57 0 0 1 -8.29 9.83c-.53.35-1.08.67-1.64 1a.63.63 0 0 1 -.29.08c-.71.08-1.22-1-.47-1.38.45-.24.89-.49 1.32-.76l.16-.1a20.33 20.33 0 0 0 7.08-7.65c.3-.56.58-1.14.83-1.74.33-.79 1.32-.34 1.36.35z"/><path d="m113.34 101.32-9.34 4.28c-.88.4-.12 1.7.76 1.3l9.35-4.29c.89-.4.11-1.69-.77-1.29z" fill="#fff"/><path d="m166.47 173.7c-.11-.95-1.61-1-1.5 0l1.82 15.69c.11.95 1.61 1 1.5 0z" fill="#fff"/><path d="m132.16 170.58-18.16 98.79c-.17.94 1.27 1.35 1.45.4l18.16-98.77c.17-1-1.28-1.37-1.45-.42z" fill="#231f20"/><path d="m157.35 175.31c-.1-1-1.6-1-1.5 0q4.46 43.76 12.65 87c.18.95 1.63.55 1.45-.4q-8.15-43-12.6-86.6z" fill="#231f20"/><path d="m193.69 60.34-10 4.35c-.88.38-.12 1.68.76 1.3l10-4.35c.88-.39.12-1.64-.76-1.3z" fill="#fff"/><path d="m143.88 153.28a78.12 78.12 0 0 1 -15.13 1 .75.75 0 0 0 0 1.5 80.2 80.2 0 0 0 15.53-1.1c.95-.12.55-1.56-.4-1.4z" fill="#231f20"/><path d="m138.55 150.64-3 .67c-.94.21-.54 1.66.4 1.45l3-.67c.94-.21.55-1.66-.4-1.45z" fill="#231f20"/><path d="m197.52 75.86a44.61 44.61 0 0 1 -4.79 13.78c-.46.85.83 1.61 1.3.76a45.88 45.88 0 0 0 4.97-14.14c.13-.95-1.31-1.35-1.48-.4z" fill="#231f20"/><path d="m200.36 80.83-1.36 4.33c-.28.92 1.16 1.32 1.45.4l1.33-4.33c.31-.93-1.13-1.32-1.42-.4z" fill="#231f20"/></svg>