<svg viewBox="0 0 300 300" xmlns="http://www.w3.org/2000/svg"><path d="m128.31 79.39c-2.23 3.72-15.22 3-19.93 2.18q-.52-.09-.9-.18a4.07 4.07 0 0 1 -.59-.19c-4-1.48-6.16-7.34-6.26-7.61a.75.75 0 0 1 .44-1 .77.77 0 0 1 1 .44c0 .06 2.24 6 5.81 6.87 4.32 1.1 17.5 1.45 19.12-1.29.93-1.54.28-5.13-.41-8.93a48.45 48.45 0 0 1 -1.09-9.54c0-.41 0-.82.07-1.21 0-.15 0-.3 0-.45a6.1 6.1 0 0 0 -.93-3.48 7.3 7.3 0 0 0 -1-1.32c-2.75-2.78-8-4.37-13.89-4.27-.53 0-1.06 0-1.6.06h-.15a8.33 8.33 0 0 0 -1 .14 7.25 7.25 0 0 0 -1.52.45c-5.61 2.22-6.74 10-7 12.56v.78a.77.77 0 0 1 -.48.6.74.74 0 0 1 -.81-.17l-.1-.09c-1.09-1.05-3-2.39-4-2.19-.19 0-.47.15-.69.71a1.27 1.27 0 0 0 0 1.23c.68 1.13 3.2 1.65 4 1.74a.8.8 0 0 1 .51.29.82.82 0 0 1 .15.57l-2.58 17.91-.07.46a.76.76 0 0 1 -.33.52l-.41.28c-3.7 2.51-31.34 21.62-47 43.09l-.88 1.23c-5.39 7.67-9.18 15.6-9.74 23.16-2.24 30.45 49.42 56 49.95 56.26a.74.74 0 0 1 .39.47.75.75 0 0 1 -.08.6l-20.3 33-.9 1.47-3.11 5.14c18.11 1.38 37.16 1.72 38.44-.11.08-.11.06-.15 0-.21-.69-1.6-8.9-3.76-16.48-4.94h-.07a.74.74 0 0 1 -.47-1.2l.22-.29c9.32-12.13 23.06-31.16 23.29-34.64.52-7.87-29.69-33-41.38-42a.74.74 0 0 1 -.13-1.05.75.75 0 0 1 1.05-.14c.62.48 6.21 4.81 13.12 10.65 1.35 1.14 2.75 2.34 4.18 3.58 11.74 10.22 25 23.17 24.65 29.07-.32 4.73-18.58 28.88-23.06 34.75 4.29.72 15.24 2.83 16.45 5.64a1.69 1.69 0 0 1 -.2 1.66c-1 1.45-6.93 1.92-14.09 1.92-9.71 0-21.72-.86-26.91-1.27a.75.75 0 0 1 -.58-1.14l24.57-39.96c-6.68-3.37-52.23-27.55-50-57.36 2.26-30.56 53.59-65.55 58.4-68.75l2.51-17.26c-1.21-.23-3.48-.85-4.38-2.35a2.81 2.81 0 0 1 -.13-2.56 2.43 2.43 0 0 1 1.78-1.62c1.44-.3 3.17.8 4.29 1.69.42-3.79 2.39-13.31 10.93-13.87l1.68-.06a28.32 28.32 0 0 1 7.9.92 15.64 15.64 0 0 1 7.17 3.85 7.05 7.05 0 0 1 .63.72 8.94 8.94 0 0 1 .86 1.31 7.62 7.62 0 0 1 .86 4.34v.07c-.3 3.14.4 7 1 10.34.76 4.26 1.43 7.94.21 9.98z" fill="#231f20"/><path d="m186.87 93.85a.76.76 0 0 1 -.75.65h-.12l-.63-.08-2.75-.35-1.49-.2-72.91-9.37-1.49-.19-1.68-.22a.75.75 0 1 1 .19-1.49l1.56.2 1.49.19 77.9 10h.12a.77.77 0 0 1 .56.86z" fill="#231f20"/><path d="m108.42 80.7v.87l-.1 1.43-.07 1.51-.17 3.88a.75.75 0 0 1 -.59.7 11.15 11.15 0 0 1 -2.3.23c-5 0-10-3-11.52-4.06-.25-.16-.4-.27-.44-.3a.75.75 0 1 1 .88-1.21l.37.25c1.48 1 7.11 4.44 12.13 3.72l.15-3.4.07-1.51.06-1.59v-.57a.73.73 0 0 1 .78-.71h.15a.77.77 0 0 1 .6.76z" fill="#231f20"/><path d="m197 98.23c-.3 5.12-4.6 15.15-6.65 18.5-1.48 2.41-6.42 3.77-13.19 4.42l-1.51.13c-3.26.26-6.89.37-10.72.37-12.56 0-27.31-1.18-38.52-2.32l-2.48-.25c-7.12-.75-12.45-1.43-14.3-1.67a.75.75 0 0 1 -.65-.84.77.77 0 0 1 .85-.65c4.23.55 9.9 1.22 16.28 1.85l1.09.1c14.08 1.38 31.33 2.57 44.09 2.14l1.55-.06c8.5-.39 14.74-1.57 16.24-4 3.55-5.8 7.61-18.28 6.29-19.36-.75.15-2.82 4-4.66 8.58-.32.87-.61 1.61-.81 2.11a.75.75 0 0 1 -1.4-.53c.18-.5.45-1.23.79-2.09 1.55-4.23 2.8-8.58 2.63-9.83-1.2.79-4.17 5.7-6.39 10.18a.75.75 0 0 1 -1 .34.76.76 0 0 1 -.35-1c2.39-4.94 4.06-9.79 3.8-10.9-.64.32-2 2.78-2.83 4.43-1.87 3.52-4 7.48-6.69 8.16a.31.31 0 0 1 -.13 0h-.09c-.62 0-1.35 0-2.17-.06l-1.52-.11c-19.52-1.74-77.51-16.06-77.88-16.22a.75.75 0 0 1 .57-1.39c.85.26 65.76 16.23 80.44 16.29h.46a3.39 3.39 0 0 0 1.39-.84c1.56-1.4 3.06-4.22 4.32-6.59.55-1 1-2 1.52-2.75a10.6 10.6 0 0 1 .94-1.38c.65-.8 1.29-1.21 2-1.11a1.28 1.28 0 0 1 .72.37 1.31 1.31 0 0 1 .25.32 2.44 2.44 0 0 1 .2 1.13 9.64 9.64 0 0 1 -.3 2c1.43-1.92 2.56-2.73 3.37-2.42a1.22 1.22 0 0 1 .7.68 5.61 5.61 0 0 1 0 2.8 4 4 0 0 1 1.83-1.63 1.38 1.38 0 0 1 1.27.27 2 2 0 0 1 .62 1.26 6.37 6.37 0 0 1 .03 1.57z" fill="#231f20"/><path d="m163.49 249.85a1.09 1.09 0 0 1 -.3.07c-10.88.33-33.28.82-33.51.83a.74.74 0 0 1 -.71-.51c-.17-.5-17-50.35-18.32-53.63-.8-2-15.53-10.86-26.87-17.3-1.44-.82-2.83-1.59-4.12-2.31a.75.75 0 0 1 -.3-1 .58.58 0 0 1 .24-.25.73.73 0 0 1 .78 0c5 2.8 30.31 17 31.67 20.38 1 2.59 11.23 32.68 16 46.68.17.52.34 1 .5 1.48l1.7 5c3.51-.08 22.82-.52 32.78-.82.44-.22.5-.38.5-.38-.15-1.07-6.49-3.38-13.57-5h-.07a.76.76 0 0 1 -.56-.52l-.28-.92c-2-6.56-14.2-46.19-19.31-54.92-4.46-7.6-29.29-23.94-39.89-30.91-2.8-1.85-4.64-3.06-5.26-3.54a.75.75 0 0 1 -.24-.86 3.3 3.3 0 0 1 .17-.39 8.73 8.73 0 0 1 .7-1.35c6-10.1 31-25.83 38.81-30.58l2.18-1.31.13-.08a.74.74 0 0 1 1 .18l.06.08a.76.76 0 0 1 -.26 1l-.59.35c-4.66 2.79-35.78 21.75-40.54 32.08.86.6 2.54 1.71 4.71 3.13 11.5 7.64 35.62 23.47 40.28 31.47 5.42 9.26 18.11 50.8 19.61 55.75 4.55 1 14.08 3.49 14.38 6.19.01.5-.17 1.28-1.5 1.91z" fill="#231f20"/><path d="m100.39 249.57c-1.28 1.83-20.33 1.49-38.44.11l3.16-5.14a.54.54 0 0 0 .22 0l18.67-.12c7.58 1.18 15.79 3.34 16.48 4.94-.03.06-.01.1-.09.21z" fill="#231f20"/><path d="m84.75 243.66a.76.76 0 0 1 -.74.76h-.01l-18.61.16a.54.54 0 0 1 -.22 0 .75.75 0 0 1 -.53-.7.76.76 0 0 1 .75-.76h.61l17.62-.15h.38a.75.75 0 0 1 .75.69z" fill="#231f20"/><path d="m163.48 248s-.06.16-.5.38c-10 .3-29.27.74-32.78.82l-1.7-5 21.41-1.13c7.09 1.59 13.42 3.93 13.57 4.93z" fill="#231f20"/><path d="m150.75 242.29a.75.75 0 0 1 -.71.79h-.13l-21.41 1.13h-.63a.75.75 0 0 1 0-1.5h.13l21-1.11 1-.05a.75.75 0 0 1 .75.74z" fill="#231f20"/><path d="m149 241.63-21 1.11c-4.74-14-14.93-44.09-16-46.68-1.36-3.41-26.62-17.58-31.67-20.38a.73.73 0 0 0 -.78 0c-6.91-5.84-12.5-10.17-13.12-10.65a.75.75 0 0 0 -1.05.14.74.74 0 0 0 .13 1.05c11.69 9 41.9 34.15 41.38 42-.23 3.48-14 22.51-23.29 34.64l-17.6.21 20.3-33a.75.75 0 0 0 .08-.6.74.74 0 0 0 -.38-.47c-.53-.25-52.19-25.8-49.92-56.27.56-7.56 4.35-15.49 9.74-23.16a101.87 101.87 0 0 0 38.65 21.43 3.3 3.3 0 0 0 -.17.39.75.75 0 0 0 .24.86c.62.48 2.46 1.69 5.26 3.54 10.6 7 35.43 23.31 39.89 30.91 5.11 8.74 17.31 48.37 19.31 54.93z" fill="#e6bd66"/><path d="m86 150.7a.75.75 0 0 1 -.93.51l-.65-.2a101.87 101.87 0 0 1 -38.65-21.45l-.57-.5a.75.75 0 0 1 1-1.12q.23.21.45.39a100.21 100.21 0 0 0 38.47 21.33l.37.11a.74.74 0 0 1 .51.93z" fill="#231f20"/><path d="m176.12 105.92v.1l-3.23 13.98-.22 1a.75.75 0 0 1 -.73.58h-.17a.75.75 0 0 1 -.56-.9l.13-.57 3.24-14.1.08-.33a.75.75 0 1 1 1.46.34z" fill="#231f20"/><path d="m202.23 90.79c-.26.75-2.94 3.53-5.24 5.89a2 2 0 0 0 -.62-1.26 1.38 1.38 0 0 0 -1.27-.27 4 4 0 0 0 -1.83 1.63 5.61 5.61 0 0 0 0-2.8 1.22 1.22 0 0 0 -.7-.68c-.81-.31-1.94.5-3.37 2.42a9.64 9.64 0 0 0 .3-2 .75.75 0 0 0 .36-.17c2.33-2 6.37-4.68 7.65-4.13 0 0 .18.08.19.14.07.57-1.34 2.08-2.65 3.07a.76.76 0 0 0 -.15 1 .75.75 0 0 0 1 .18c2.64-1.84 5.5-3.33 6.07-3.24z" fill="#ffe3e4"/><path d="m202.79 92.63c-.41.51-1 1.16-1.77 2s-1.88 2-3.24 3.38a.76.76 0 0 1 -.54.23h-.19a.84.84 0 0 1 -.33-.19.75.75 0 0 1 0-1.06l.29-.3c2.3-2.36 5-5.14 5.24-5.89l-.22-.16c-.57-.09-3.43 1.4-6.07 3.24a.75.75 0 0 1 -1-.18.76.76 0 0 1 .15-1c1.31-1 2.72-2.5 2.65-3.07 0-.06-.16-.13-.19-.14-1.28-.55-5.32 2.14-7.65 4.13a.75.75 0 0 1 -.36.17.75.75 0 0 1 -.62-1.31l.17-.14c1.4-1.18 6.57-5.3 9-4.23a1.67 1.67 0 0 1 1.09 1.34 1.79 1.79 0 0 1 -.08.75c1.59-.81 3-1.24 3.7-.78a1.68 1.68 0 0 1 .92 1.2c.06.46-.1.96-.95 2.01z" fill="#231f20"/><path d="m189.13 115.94c-1.5 2.44-7.74 3.62-16.24 4l3.21-13.94c.82.05 1.55.07 2.17.06h.09s0 0 .07 0h.06c2.7-.68 4.82-4.64 6.69-8.16.88-1.65 2.19-4.11 2.83-4.43.26 1.11-1.41 6-3.8 10.9a.76.76 0 0 0 .35 1 .75.75 0 0 0 1-.34c2.22-4.48 5.19-9.39 6.39-10.18.17 1.25-1.08 5.6-2.63 9.83-.34.86-.61 1.59-.79 2.09a.75.75 0 0 0 1.4.53c.2-.5.49-1.24.81-2.11 1.84-4.63 3.91-8.43 4.66-8.58 1.34 1.05-2.72 13.53-6.27 19.33z" fill="#ffe3e4"/><path d="m185.4 94.41c-.47.78-1 1.71-1.52 2.75-1.26 2.37-2.76 5.19-4.32 6.59l3.06-9.52a.55.55 0 0 0 0-.17z" fill="#ffe3e4"/><path d="m96.31 88.7a.76.76 0 0 0 .39 1c.37.16 58.36 14.48 77.88 16.22l-3.24 14.08c-12.76.43-30-.76-44.09-2.14a.74.74 0 0 0 -1-.18l-.13.08c-6.38-.63-12-1.3-16.28-1.85a.77.77 0 0 0 -.85.65.75.75 0 0 0 .65.84c1.85.24 7.18.92 14.3 1.67-7.83 4.75-32.84 20.48-38.81 30.58a100.21 100.21 0 0 1 -38.43-21.32c15.63-21.47 43.27-40.58 47-43.09 1.5 1 6.47 4.06 11.52 4.06a11.15 11.15 0 0 0 2.3-.23.75.75 0 0 0 .59-.7l.17-3.88 72.91 9.37-3.45 10.73c-14.68-.06-79.59-16-80.44-16.29a.75.75 0 0 0 -.99.4z" fill="#ca7375"/><path d="m182.65 94.06a.55.55 0 0 1 0 .17l-3.06 9.52-.58 1.81a.69.69 0 0 1 -.47.47.31.31 0 0 1 -.13 0h-.09a.85.85 0 0 1 -.23 0 .75.75 0 0 1 -.49-1l.16-.51 3.45-10.73v-.09a.75.75 0 0 1 1-.48.74.74 0 0 1 .44.84z" fill="#231f20"/><path d="m120.33 70.68c-.49 1.56-2.27 2.11-3.13 2.37a.83.83 0 0 1 -.22 0 .75.75 0 0 1 -.22-1.46c1-.3 1.91-.68 2.13-1.38a2.88 2.88 0 0 0 -.1-1.41l-1.73-7.54a.75.75 0 0 1 1.47-.33l1.72 7.54a4.18 4.18 0 0 1 .08 2.21z" fill="#231f20"/><path d="m105.43 50a26.16 26.16 0 0 1 -2 7.79 9 9 0 0 1 -5 4.77c.26-2.5 1.39-10.33 7-12.56z" fill="#231f20"/><path d="m107 49.84c-.08.58-.16 1.16-.25 1.75s-.15 1-.24 1.49a20.78 20.78 0 0 1 -1.65 5.38 10 10 0 0 1 -7 5.79h-.13a.73.73 0 0 1 -.7-.49.57.57 0 0 1 0-.12.75.75 0 0 1 .61-.86 6.73 6.73 0 0 0 .86-.21 9 9 0 0 0 5-4.77 26.16 26.16 0 0 0 2-7.79c0-.13 0-.25 0-.38a.75.75 0 0 1 .84-.64.76.76 0 0 1 .63.57.87.87 0 0 1 .03.28z" fill="#231f20"/><path d="m123.61 53.63c-4.65.45-11.78-.72-16.9-2 .09-.59.17-1.17.25-1.75a.87.87 0 0 0 0-.28 8.33 8.33 0 0 1 1-.14h.12l1.6-.06c5.96-.14 11.18 1.45 13.93 4.23z" fill="#231f20"/><path d="m128.28 51.3c-.29 1-1.36 1.69-2.92 2a7.05 7.05 0 0 0 -.63-.72 15.64 15.64 0 0 0 -7.17-3.85c5.11-.45 9.5-.82 10.6.5.13.2.51.67.12 2.07z" fill="#231f20"/><path d="m129.72 51.7c-.42 1.51-1.71 2.43-3.5 3a13.43 13.43 0 0 1 -1.54.34 21.69 21.69 0 0 1 -3.42.24 68 68 0 0 1 -14.79-2.16l-.41-.1a.75.75 0 0 1 .38-1.46l.27.07c5.12 1.32 12.25 2.49 16.9 2a12.33 12.33 0 0 0 1.75-.28c1.56-.36 2.63-1 2.92-2 .39-1.4 0-1.87-.12-2-1.1-1.32-5.49-1-10.6-.5h-.1c-2.35.21-5 .44-7.74.57l-1.6.06h-.12a.76.76 0 0 1 -.75-.73.75.75 0 0 1 .7-.77l1.68-.06c2.74-.12 5.33-.35 7.67-.56 6.25-.55 10.37-.92 12 1a3.55 3.55 0 0 1 .42 3.34z" fill="#231f20"/><path d="m116.19 58.55-1 2.25a.77.77 0 0 1 -.43.4.75.75 0 0 1 -.26 0 .71.71 0 0 1 -.32-.07l-7-3.25a.75.75 0 1 1 .64-1.36l6.3 2.93.69-1.55a.75.75 0 0 1 1-.39.76.76 0 0 1 .38 1.04z" fill="#231f20"/><path d="m127.08 59a.75.75 0 0 1 -.47.7l-1.09.44-3.24 1.31a.92.92 0 0 1 -.28 0 .75.75 0 0 1 -.6-.3l-1.5-2a.75.75 0 1 1 1.2-.9l1.15 1.54 3.36-1.36.44-.18a.76.76 0 0 1 1 .42.66.66 0 0 1 .03.33z" fill="#231f20"/><path d="m117.5 74.25a.76.76 0 0 1 -.75.75c-3.87 0-6.48-.81-7.75-2.41a3.47 3.47 0 0 1 -.73-2.76.75.75 0 0 1 1.46.33 2 2 0 0 0 .47 1.53c.68.82 2.37 1.81 6.55 1.81a.76.76 0 0 1 .75.75z" fill="#231f20"/><path d="m114 64.38c0 1.44-.5 2.62-1.12 2.62s-1.13-1.18-1.13-2.62.5-2.63 1.13-2.63 1.12 1.18 1.12 2.63z" fill="#231f20"/><path d="m126.61 69.68a48.45 48.45 0 0 1 -1.09-9.54l-3.24 1.31a.92.92 0 0 1 -.28 0 .75.75 0 0 1 -.6-.3l-1.5-2a.75.75 0 1 1 1.2-.9l1.15 1.54 3.36-1.36a6.1 6.1 0 0 0 -.93-3.48 21.69 21.69 0 0 1 -3.42.24 68 68 0 0 1 -14.79-2.16 20.78 20.78 0 0 1 -1.65 5.38 10 10 0 0 1 -7 5.79h-.13a.73.73 0 0 1 -.7-.49s0 0 0 0c-1.09-1.05-3-2.39-4-2.19-.19 0-.47.15-.69.71a1.27 1.27 0 0 0 0 1.23c.68 1.13 3.2 1.65 4 1.74a.8.8 0 0 1 .51.29.82.82 0 0 1 .15.57l-2.48 17.94c1.48 1 7.11 4.44 12.13 3.72l.15-3.4-1.68-.22a.75.75 0 1 1 .19-1.49l1.56.2.06-1.59c-4-1.48-6.16-7.34-6.26-7.61a.75.75 0 0 1 .44-1 .77.77 0 0 1 1 .44c0 .06 2.24 6 5.81 6.87 4.32 1.08 17.5 1.43 19.12-1.31 1-1.54.3-5.13-.39-8.93zm-19.43-11.75a.75.75 0 1 1 .64-1.36l6.3 2.93.69-1.55a.75.75 0 0 1 1-.39.76.76 0 0 1 .39 1l-1 2.25a.77.77 0 0 1 -.43.4.75.75 0 0 1 -.26 0 .71.71 0 0 1 -.32-.07zm6.82 6.45c0 1.44-.5 2.62-1.12 2.62s-1.13-1.18-1.13-2.62.5-2.63 1.13-2.63 1.12 1.18 1.12 2.63zm2.75 10.62c-3.87 0-6.48-.81-7.75-2.41a3.47 3.47 0 0 1 -.73-2.76.75.75 0 0 1 1.46.33 2 2 0 0 0 .47 1.53c.68.82 2.37 1.81 6.55 1.81a.75.75 0 0 1 0 1.5zm3.58-4.32c-.49 1.56-2.27 2.11-3.13 2.37a.83.83 0 0 1 -.22 0 .75.75 0 0 1 -.22-1.46c1-.3 1.91-.68 2.13-1.38a2.88 2.88 0 0 0 -.1-1.41l-1.73-7.54a.75.75 0 0 1 1.47-.33l1.72 7.54a4.18 4.18 0 0 1 .08 2.21zm3-2.93c-.63 0-1.13-1.18-1.13-2.63s.5-2.62 1.13-2.62 1.12 1.18 1.12 2.62-.45 2.63-1.07 2.63z" fill="#ffe3e4"/><path d="m124.5 65.12c0 1.45-.5 2.63-1.12 2.63s-1.13-1.18-1.13-2.63.5-2.62 1.13-2.62 1.12 1.18 1.12 2.62z" fill="#231f20"/><path d="m234.51 67.27a3.14 3.14 0 0 0 -2.41-.53 13.93 13.93 0 0 0 .66-3.61 13.46 13.46 0 0 0 0-1.68c0-.21 0-.41-.06-.62a12.85 12.85 0 0 0 -.35-2 13.81 13.81 0 0 0 -2.87-5.64 13.37 13.37 0 0 0 -3.94-3.16 14.39 14.39 0 0 0 -5.22-1.63h-.55a13.72 13.72 0 0 0 -3.78.23l-.81.2c-5 1.36-8.71 5.39-11.06 8.3-.79 1-1.55 2-2.31 3a46 46 0 0 1 -6.37 7.27l-.24.2a6.53 6.53 0 0 0 -2.2 2.67c-.82 2.47 1.18 4.69 2.45 5.8a22.4 22.4 0 0 0 14.7 5.51c.53 0 1 0 1.58-.06a14.89 14.89 0 0 0 5-1.42c.55-.24 1.09-.52 1.64-.82a38.28 38.28 0 0 0 5.83-4c.51-.42 1-.85 1.46-1.27a39.84 39.84 0 0 0 3.19-3.19c.85.28 3.53 1 5.11.15a2.29 2.29 0 0 0 1.15-1.64 2 2 0 0 0 -.6-2.06zm-.91 1.73a.85.85 0 0 1 -.42.61 5.23 5.23 0 0 1 -3.26-.09c-.31-.08-.59-.17-.83-.25a.68.68 0 0 0 -.42 0 .75.75 0 0 0 -.74.24l-.54.61c-3.7 4.08-10.65 9.54-15.78 9.91a20.92 20.92 0 0 1 -15.18-5.09c-.8-.69-2.58-2.49-2-4.19a5.06 5.06 0 0 1 1.73-2l.24-.21a33.64 33.64 0 0 0 4.19-4.42c.31-.37.61-.75.9-1.13l1.51-1.99c.76-1 1.51-2 2.29-2.94 2.22-2.75 5.71-6.55 10.28-7.8a12 12 0 0 1 3.1-.4 12.43 12.43 0 0 1 11.92 16.64q-.11.31-.24.63c0 .1-.08.21-.13.31a.77.77 0 0 0 .08.76.74.74 0 0 0 .77.21c.74-.23 2-.39 2.39-.07.2.17.18.46.14.66z" fill="#231f20"/><path d="m233.6 69a.85.85 0 0 1 -.42.61 5.23 5.23 0 0 1 -3.26-.09l1.19-1.09c.74-.23 2-.39 2.39-.07.16.15.14.44.1.64z" fill="#ffeff0"/><path d="m219.45 70a32.79 32.79 0 0 1 -9-1.25.52.52 0 0 1 -.12.14.73.73 0 0 1 -.5.19.77.77 0 0 1 -.56-.25 2 2 0 0 0 -.86-.43c-.17-.06-.33-.11-.48-.18a2.68 2.68 0 0 1 -1.1-.81 10.72 10.72 0 0 1 -6.17-3.28l-.06-.07a33.64 33.64 0 0 1 -4.19 4.42l-.24.21a5.06 5.06 0 0 0 -1.73 2c-.57 1.7 1.21 3.5 2 4.19a20.92 20.92 0 0 0 15.17 5.12c5.13-.37 12.08-5.83 15.78-9.91a.78.78 0 0 1 .25-.53l.91-.83a33.37 33.37 0 0 1 -9.1 1.27zm-9.19 3.28a.76.76 0 0 1 -.54.23.74.74 0 0 1 -.52-.22 3 3 0 0 0 -2.17-.83.74.74 0 0 1 -.78-.72.76.76 0 0 1 .75-.74 4.46 4.46 0 0 1 3.28 1.26.75.75 0 0 1 -.02 1.04z" fill="#ca7375"/><path d="m228.33 54.2a12.92 12.92 0 0 0 -9.68-4.34 12 12 0 0 0 -3.1.4c-4.57 1.25-8.06 5-10.28 7.8-.78 1-1.53 2-2.29 2.94l-1.49 2a.72.72 0 0 1 .25.18 9.25 9.25 0 0 0 4.78 2.72 2.5 2.5 0 0 1 1.17-1.19 11.73 11.73 0 0 0 4.13-4.24.75.75 0 1 1 1.3.73 13.08 13.08 0 0 1 -4.64 4.79c-.21.12-.53.32-.56.44s.18.32.55.47c.13.06.26.1.4.15a4.59 4.59 0 0 1 1 .42.7.7 0 0 1 .7-.17 31.82 31.82 0 0 0 20-.75 12.89 12.89 0 0 0 -2.24-12.35zm-19.75 7.47c-.59 0-1.08-.82-1.08-1.84s.5-1.83 1.08-1.83 1.09.82 1.09 1.83-.49 1.84-1.09 1.84zm5.51-7.27-3.48 1.22a.77.77 0 0 1 -.25 0 .75.75 0 0 1 -.71-.5.76.76 0 0 1 .46-1l3.49-1.12a.75.75 0 0 1 .49 1.41zm4.49 8.43c-.59 0-1.08-.82-1.08-1.83s.49-1.83 1.08-1.83 1.09.82 1.09 1.83-.49 1.83-1.09 1.83zm4.11-5a.73.73 0 0 1 -1 .09l-3-2.53a.76.76 0 0 1 -.08-1.06.75.75 0 0 1 1-.09l3 2.53a.76.76 0 0 1 .08 1.1z" fill="#ffe3e4"/><g fill="#231f20"><path d="m213.12 61.15a13.08 13.08 0 0 1 -4.64 4.79c-.21.12-.53.32-.56.44s.18.32.55.47c.13.06.26.1.4.15a4.59 4.59 0 0 1 1 .42 2.28 2.28 0 0 1 .52.43.74.74 0 0 1 .06.92.52.52 0 0 1 -.12.14.73.73 0 0 1 -.5.19.77.77 0 0 1 -.56-.25 2 2 0 0 0 -.86-.43c-.17-.06-.33-.11-.48-.18a2.68 2.68 0 0 1 -1.1-.81 1.62 1.62 0 0 1 -.35-1.4.63.63 0 0 1 .06-.18 2.5 2.5 0 0 1 1.17-1.19 11.73 11.73 0 0 0 4.13-4.24.75.75 0 1 1 1.3.73z"/><path d="m207.9 66.82a.75.75 0 0 1 -.74.66h-.1-.25a10.72 10.72 0 0 1 -6.17-3.28l-.06-.07a.75.75 0 0 1 .9-1.13.72.72 0 0 1 .25.18 9.25 9.25 0 0 0 4.78 2.72 6.37 6.37 0 0 0 .74.13.74.74 0 0 1 .65.79z"/><path d="m231.69 67.57a.74.74 0 0 1 -.31.24q-.54.21-1.08.39c-.57.2-1.15.39-1.74.56a33.37 33.37 0 0 1 -9.1 1.26 32.79 32.79 0 0 1 -9-1.25l-.3-.08a.76.76 0 0 1 -.51-.93.65.65 0 0 1 .23-.34.7.7 0 0 1 .7-.17 31.82 31.82 0 0 0 20-.75l.25-.09a.76.76 0 0 1 1 .43.71.71 0 0 1 -.14.73z"/><path d="m231.69 67.57a.75.75 0 0 1 -.24.59l-.32.3-1.19 1.09-1.27 1.15a.77.77 0 0 1 -.51.19.75.75 0 0 1 -.55-.24.76.76 0 0 1 -.2-.53.78.78 0 0 1 .25-.53l.91-.83 1.79-1.63.09-.08a.75.75 0 0 1 1.06 0 .75.75 0 0 1 .18.52z"/><path d="m209.67 59.83c0 1-.49 1.84-1.09 1.84s-1.08-.82-1.08-1.84.5-1.83 1.08-1.83 1.09.82 1.09 1.83z"/><path d="m219.67 61c0 1-.49 1.83-1.09 1.83s-1.08-.83-1.08-1.83.49-1.83 1.08-1.83 1.09.83 1.09 1.83z"/><path d="m214.09 54.4-3.48 1.22a.77.77 0 0 1 -.25 0 .75.75 0 0 1 -.71-.5.76.76 0 0 1 .46-1l3.49-1.12a.75.75 0 0 1 .49 1.41z"/><path d="m222.69 57.87a.73.73 0 0 1 -1 .09l-3-2.53a.76.76 0 0 1 -.08-1.06.75.75 0 0 1 1-.09l3 2.53a.76.76 0 0 1 .08 1.06z"/><path d="m235 61.31a5.66 5.66 0 0 1 -3.51-1.2.75.75 0 1 1 .94-1.17 4.16 4.16 0 0 0 4.23.52.75.75 0 1 1 .62 1.36 5.49 5.49 0 0 1 -2.28.49z"/><path d="m235.52 63.83a5.77 5.77 0 0 1 -3.3-1 .75.75 0 0 1 .86-1.23 4.24 4.24 0 0 0 3.25.67.75.75 0 0 1 .31 1.47 5.5 5.5 0 0 1 -1.12.09z"/><path d="m224.83 51.08a.75.75 0 0 1 -.26 0 16 16 0 0 1 -4.22-2.55 4.26 4.26 0 0 1 -1.49-4.19.75.75 0 1 1 1.45.4 2.84 2.84 0 0 0 1 2.67 14.72 14.72 0 0 0 3.75 2.27.75.75 0 0 1 -.26 1.45z"/><path d="m219.33 49.75h-.07a7.76 7.76 0 0 1 -5.72-3.52.75.75 0 0 1 1.27-.8 6.23 6.23 0 0 0 4.59 2.83.75.75 0 0 1 -.07 1.5z"/><path d="m218.33 79.28a1 1 0 0 1 0 .17c-.59 3.94-1.36 7.9-2.32 11.77 0 .15-.07.31-.11.46a.75.75 0 0 1 -.73.57h-.18a.74.74 0 0 1 -.54-.91c0-.16.08-.31.11-.47.87-3.54 1.59-7.15 2.14-10.75 0-.29.1-.58.14-.87a.75.75 0 0 1 .86-.63.76.76 0 0 1 .63.66z"/><path d="m266.12 163.62c7.71 5.15 7 6.49 6.8 7a1.13 1.13 0 0 1 -.73.58 6.21 6.21 0 0 1 -3.24-.72c2 1.86 2.13 2.78 1.67 3.47a1.15 1.15 0 0 1 -1.14.53c-1.06 0-3.11-.61-7.27-3-.91-.51-1.91-1.11-3-1.81l-.83-.52a.74.74 0 0 1 -.24-1 0 0 0 0 0 0 0 .74.74 0 0 1 1-.23l1.09.67c3.64 2.24 7.64 4.29 9 4.44-.71-1.25-4.7-4.4-8.38-6.86a.75.75 0 0 1 .81-1.26c3.68 2.24 8.09 4.53 9.69 4.84-1-1.29-5-4.25-8.73-6.56a.75.75 0 0 1 .5-1.38 45.54 45.54 0 0 0 8.12.5 50.16 50.16 0 0 0 -8.41-2.78.81.81 0 0 1 -.43-.3c-.1-.16-10.81-15.6-14.78-22.3-2.26-3.81-5.25-12.25-7.47-19q-.27-.78-.51-1.53c-1.38-4.29-2.38-7.65-2.57-8.27-5.49-10.12-10.39-13.91-11.57-14.72l-.27-.18a.76.76 0 0 1 -.37-.59c0-.19 0-.39 0-.58-.37-5.54-.58-11.16-.64-16.72 0-.36 0-.72 0-1.08a.75.75 0 0 1 .75-.75.72.72 0 0 1 .73.56 1.1 1.1 0 0 1 0 .18c0 6 .27 12 .67 17.91 1.36.91 6.41 4.81 12.1 15.32l.06.15c.06.22 6.52 22 10.43 28.58 3.67 6.2 13.21 20 14.56 22 10.16 2.63 9.9 3.93 9.78 4.56s-.39 1.5-7.18.85z"/></g><path d="m224.8 92c-6.93 2.34-8.46 1.43-8.77 1.09s0-1.17 0-1.18a.7.7 0 0 0 0-.66c1-3.87 1.73-7.83 2.32-11.77a1 1 0 0 0 0-.17 38.28 38.28 0 0 0 5.83-4c.04 5.5.25 11.12.62 16.69z" fill="#ffe3e4"/><path d="m225.83 93.2-.35.12a25.68 25.68 0 0 1 -7.67 1.7 3.73 3.73 0 0 1 -2.91-1 2.25 2.25 0 0 1 -.53-1.69 67.06 67.06 0 0 0 -13.37 2.31h-.16a.75.75 0 1 1 -.41-1.44q1.17-.33 2.34-.6a66.82 66.82 0 0 1 11.76-1.78h.75a.76.76 0 0 1 .66.34.2.2 0 0 1 0 .08.7.7 0 0 1 0 .66s-.35.78 0 1.18 1.84 1.25 8.77-1.09c.18 0 .36-.12.54-.18a.75.75 0 0 1 1 .46.75.75 0 0 1 -.42.93z" fill="#231f20"/><path d="m217.14 171.89c6.38.44 6.53-.59 6.6-1.12a.91.91 0 0 0 -.19-.7c-.92-1.22-9-2.47-13.79-3.13-.36-.22-1.43-.9-2.88-1.93-.64-.46-1.36-1-2.12-1.57-4.48-3.49-10.39-9.06-11.17-14.71-.85-6.18-.67-16.69-.43-23.31.12-3.54.26-6 .27-6a.77.77 0 0 0 -.71-.8.78.78 0 0 0 -.62.27.81.81 0 0 0 -.16.43c0 .26-.14 2.41-.26 5.53q0 .79-.06 1.68c-.22 6.67-.34 16.42.49 22.44 1.37 9.91 16.39 19 17 19.37a.67.67 0 0 0 .28.1 111.13 111.13 0 0 1 11.61 2.03 55.35 55.35 0 0 1 -7-.38.74.74 0 0 0 -.8.51.76.76 0 0 0 .34.89 77 77 0 0 1 9.38 6.06 71.06 71.06 0 0 1 -9.9-3.25.75.75 0 0 0 -.65 1.35c3.43 2 7.24 4.59 8.36 5.81-1.75-.22-6.49-2-10.51-3.81a.75.75 0 0 0 -1 .34.73.73 0 0 0 .29 1 36.63 36.63 0 0 1 7 4.93c-5-1.13-31.17-15.3-35.92-30.14a85.71 85.71 0 0 1 -3.69-26.78c0-.57 0-1.11 0-1.62.08-2.21.22-3.73.27-4.28 0-.14 0-.22 0-.23a.75.75 0 1 0 -1.48-.18s0 .2-.06.54c-.07.77-.2 2.36-.26 4.55a.16.16 0 0 0 0 .1 88.13 88.13 0 0 0 3.69 28.3c4 12.58 22.07 24.3 31.88 29 .77.38 1.49.7 2.15 1a25.76 25.76 0 0 0 2.47.94 5.09 5.09 0 0 0 1.43.28 1.1 1.1 0 0 0 .73-.22 1.13 1.13 0 0 0 .46-1c0-.66-.78-1.51-1.83-2.41 5.25 1.85 5.7 1 5.92.51s.65-1.32-3.51-4.3c5.46 1.74 5.81.91 6 .42s.76-1.5-7.62-6.51z" fill="#231f20"/><path d="m209.17 178a.73.73 0 0 0 .29 1 36.63 36.63 0 0 1 7 4.93c-5-1.13-31.17-15.3-35.92-30.14a85.71 85.71 0 0 1 -3.64-26.79 17.47 17.47 0 0 0 14.7-.55c-.22 6.67-.34 16.42.49 22.44 1.37 9.91 16.39 19 17 19.37a.67.67 0 0 0 .28.1 111.13 111.13 0 0 1 11.63 2.11 55.35 55.35 0 0 1 -7-.38.74.74 0 0 0 -.8.51.76.76 0 0 0 .34.89 77 77 0 0 1 9.38 6.06 71.06 71.06 0 0 1 -9.9-3.25.75.75 0 0 0 -.65 1.35c3.43 2 7.24 4.59 8.36 5.81-1.75-.22-6.49-2-10.51-3.81a.75.75 0 0 0 -1.05.35z" fill="#ffe3e4"/><path d="m192.15 126.21c-.18.1-.36.2-.55.29a17.47 17.47 0 0 1 -14.7.55 11.4 11.4 0 0 1 -1.07-.49.73.73 0 0 1 -.4-.63.16.16 0 0 1 0-.1.55.55 0 0 1 .07-.28.75.75 0 0 1 1-.32l.42.2a16 16 0 0 0 14.47-.52.58.58 0 0 1 .25-.09.75.75 0 0 1 .49 1.39z" fill="#231f20"/><path d="m206.49 166.21a.67.67 0 0 1 -.24 0 .76.76 0 0 1 -.71-.51c-.26-.76-.52-1.53-.79-2.3-.43-1.27-.87-2.55-1.32-3.85-3.72-10.83-7.87-22.87-10.28-34.17q-.68-3.09-1.14-6.09a.76.76 0 0 1 .07-.47.7.7 0 0 1 .54-.38.75.75 0 0 1 .86.62c1.8 11.49 6 24.26 10 35.94.18.52.36 1 .53 1.56.3.84.58 1.68.87 2.51.69 2 1.37 4 2 5.91a1.83 1.83 0 0 0 .08.25.75.75 0 0 1 -.47.98z" fill="#231f20"/><path d="m284.24 235.62c-1.11 3.45-10 11-21.5 14.84a4.43 4.43 0 0 1 -.9.09c-2.16 0-4.75-1.41-7.62-3.81l-.3-.26a83.46 83.46 0 0 1 -10.81-11.93c-.31-.41-.63-.81-.94-1.23-3.91-5.15-7.89-11-11.64-16.8l-.87-1.36c-9.83-15.37-17.85-30.22-18.55-31.53a.72.72 0 0 1 -.09-.34.75.75 0 0 1 1.41-.38c.24.44.48.9.74 1.37 8.75 16.11 28.59 49.66 41.4 61 .46.4.9.77 1.34 1.11 2.53 2 4.73 3 6.45 2.65 12.28-4.18 20.57-12.32 20.52-14.06-1.24-.5-8 1.36-14.08 3.52l-1.28.47a.72.72 0 0 1 -.85-.25c-.13-.2-5.72-8.22-12.3-19.68l-.22-.38c-3.67-6.41-7.63-13.86-11.12-21.61a0 0 0 0 0 0 0l-.18-.43c-4.81-10.73-8.68-22-9.6-31.79 0-.3-.06-.6-.08-.9-.06-.79-.1-1.56-.12-2.33a.75.75 0 0 1 .73-.77.77.77 0 0 1 .77.73c0 .87.07 1.75.15 2.65s.16 1.66.27 2.5c1.16 8.83 4.57 18.73 8.78 28.28.23.54.47 1.08.71 1.61 3.31 7.32 7 14.38 10.53 20.53.27.48.54 1 .82 1.42 5.62 9.78 10.5 17 11.78 18.88 7-2.54 15.29-5.07 16.57-3.29a1.69 1.69 0 0 1 .08 1.48z" fill="#231f20"/><path d="m249.67 188.33c-.54 1.1-2.26 3.77-5.26 8.19l-.25.37a.75.75 0 0 1 -.62.33.72.72 0 0 1 -.42-.13.69.69 0 0 1 -.12-.09 0 0 0 0 0 0 0 .69.69 0 0 1 -.18-.43.72.72 0 0 1 .12-.49l.78-1.14c2.6-3.86 4.16-6.29 4.63-7.25 1.5-3-6.71-13.64-13.41-21l-1.57-1.69-.15-.17s0 0 0 0a.74.74 0 0 1 -.08-.9.65.65 0 0 1 .1-.13.75.75 0 0 1 1.06 0 1.8 1.8 0 0 1 .21.24l.16.17c4.33 4.56 17.45 19.21 15 24.12z" fill="#231f20"/><path d="m255.76 218.47-.32.42a.75.75 0 0 1 -1 .15.71.71 0 0 1 -.22-.38.72.72 0 0 1 .13-.6l.7-.94c14.83-19.81 16.14-26 15.59-27.84-1-3.37-5-10.31-11.35-19.56l-.07-.1-1-1.39c-5.34-7.74-10.88-15.06-12.67-17.12a19.64 19.64 0 0 1 -2-3.18l-.37-.68-.35-.65c-5-9.6-13.79-30.47-13.88-30.69a.75.75 0 0 1 1.38-.58l1.4 3.3.69 1.6c3 6.93 8.46 19.47 11.95 26.06l.13.26.13.24a22.7 22.7 0 0 0 2.07 3.34c1.92 2.19 8 10.29 13.68 18.53a.35.35 0 0 0 0 .08c.61.89 1.25 1.83 1.89 2.79 1.75 2.62 3.56 5.42 5.15 8.08a47.32 47.32 0 0 1 4.61 9.25c.37 1.37 1.65 5.75-16.27 29.61z" fill="#231f20"/><path d="m248.2 248.77a2 2 0 0 1 -.72 1.56 1.45 1.45 0 0 1 -1 .37c-1.48 0-5-1.38-15-8.5-6.66-4.73-13.06-9.81-13.13-9.86a.76.76 0 0 1 -.14-1c.06-.07 5.38-7.51 11.5-16.17.1-.13.19-.27.29-.41a.75.75 0 0 1 1.22.86c-.22.3-.43.61-.64.91-2.86 4-5.52 7.79-7.53 10.61l-.87 1.23c-1.07 1.49-1.87 2.63-2.33 3.27 11.57 9.14 24.94 18.35 26.77 17.55a.51.51 0 0 0 .15-.41c0-1.9-4.17-6.32-7.32-9.16l-.87-.77a.76.76 0 0 1 -.08-1.06s1.45-1.69 3.72-4.46l.34-.41a.75.75 0 1 1 1.16 1l-.56.68c-1.4 1.7-2.46 3-3 3.64 1.92 1.76 8.08 7.47 8.04 10.53z" fill="#231f20"/><path d="m240.76 117.3c-.21.19-.41.37-.63.54a11.13 11.13 0 0 1 -6.93 2.3c-.35 0-.66 0-.92 0-.54 0-.88-.11-.93-.12a.75.75 0 0 1 .24-1.48s0 0 .06 0a10 10 0 0 0 8-2.2l.12-.11a.75.75 0 0 1 1 1.1z" fill="#231f20"/><path d="m269.21 173c-1.33-.15-5.33-2.2-9-4.44-5.64-8.24-11.76-16.34-13.68-18.53a22.7 22.7 0 0 1 -2.07-3.34.55.55 0 0 0 -.09-.3.67.67 0 0 0 -.17-.2c-3.49-6.59-9-19.13-11.95-26.06h.92a11.13 11.13 0 0 0 6.93-2.3c2.22 6.79 5.21 15.23 7.47 19 4 6.7 14.68 22.14 14.78 22.3a.81.81 0 0 0 .43.3 50.16 50.16 0 0 1 8.41 2.78 45.54 45.54 0 0 1 -8.12-.5.75.75 0 0 0 -.5 1.38c3.7 2.31 7.75 5.27 8.73 6.56-1.6-.31-6-2.6-9.69-4.84a.75.75 0 0 0 -.81 1.26c3.71 2.51 7.7 5.66 8.41 6.93z" fill="#ffe3e4"/><path d="m242.69 146.48a67.75 67.75 0 0 1 -39.24 8.52c-4-11.68-8.16-24.45-10-35.94a.75.75 0 0 0 -.86-.62.7.7 0 0 0 -.54.38.81.81 0 0 0 -.16.43c0 .26-.14 2.41-.26 5.53a.58.58 0 0 0 -.25.09 16 16 0 0 1 -14.47.52c.08-2.21.22-3.73.27-4.28 6.77-.65 11.71-2 13.19-4.42 2-3.35 6.35-13.38 6.65-18.5h.19a.76.76 0 0 0 .54-.23c1.36-1.39 2.42-2.49 3.24-3.38a67.06 67.06 0 0 1 13.35-2.28 2.25 2.25 0 0 0 .56 1.7 3.73 3.73 0 0 0 2.91 1 25.68 25.68 0 0 0 7.67-1.7c1.18.81 6.08 4.6 11.57 14.72.19.62 1.19 4 2.57 8.27a10 10 0 0 1 -8 2.2s0 0-.06 0l-1.4-3.3a.75.75 0 0 0 -1.38.58c.12.23 8.89 21.11 13.91 30.71z" fill="#edd092"/><path d="m244.49 146.67a.72.72 0 0 1 -.36.73l-.72.41a70.32 70.32 0 0 1 -34.35 9c-2.36 0-4.12-.13-5.08-.22-.53 0-.82-.09-.84-.1a.75.75 0 1 1 .22-1.48h.09a67.75 67.75 0 0 0 39.24-8.55l.68-.38a.75.75 0 0 1 .86.07.67.67 0 0 1 .17.2.55.55 0 0 1 .09.32z" fill="#231f20"/><path d="m242.15 233.3c-2.27 2.77-3.72 4.46-3.72 4.46a82 82 0 0 1 -15.43-10.65c2-2.82 4.67-6.57 7.53-10.61 3.73 5.82 7.71 11.65 11.62 16.8z" fill="#231f20"/><path d="m246.7 248.75a.51.51 0 0 1 -.15.41c-1.83.8-15.2-8.41-26.77-17.55.46-.64 1.26-1.78 2.33-3.27a83.68 83.68 0 0 0 16.58 11.26.71.71 0 0 0 .34.08.68.68 0 0 0 .35-.09c3.15 2.84 7.35 7.26 7.32 9.16z" fill="#ca7375"/><path d="m239.7 239.28a.64.64 0 0 1 -.32.31.68.68 0 0 1 -.35.09.71.71 0 0 1 -.34-.08 83.68 83.68 0 0 1 -16.58-11.26c-.12-.09-.23-.19-.34-.29a.75.75 0 1 1 1-1.13l.22.19a82 82 0 0 0 15.45 10.65c.32.18.63.35 1 .51a.75.75 0 0 1 .26 1.01z" fill="#231f20"/><path d="m266.64 238.68a40.64 40.64 0 0 1 -12.1 6.56c-12.81-11.34-32.65-44.89-41.4-61a25.76 25.76 0 0 0 2.47.94 5.09 5.09 0 0 0 1.43.28 1.1 1.1 0 0 0 .73-.22 1.13 1.13 0 0 0 .46-1c0-.66-.78-1.51-1.83-2.41 5.25 1.85 5.7 1 5.92.51s.65-1.32-3.51-4.3c5.46 1.74 5.81.91 6 .42s.66-1.56-7.72-6.57c6.38.44 6.53-.59 6.6-1.12a.91.91 0 0 0 -.19-.7c-.92-1.22-9-2.47-13.79-3.13-.36-.22-1.43-.9-2.88-1.93-.65-1.93-1.33-3.91-2-5.91-.29-.83-.57-1.67-.87-2.51 1 .09 2.72.22 5.08.22a70.32 70.32 0 0 0 34.35-9 19.64 19.64 0 0 0 2 3.18c1.79 2.06 7.33 9.38 12.67 17.12a.74.74 0 0 0 .24 1l.83.52c6.33 9.25 10.36 16.19 11.35 19.56.55 1.89-.76 8-15.59 27.84-3.49-6.15-7.22-13.21-10.53-20.53 3-4.42 4.72-7.09 5.26-8.19 2.45-4.91-10.68-19.56-15-24.2-.08-.9-.13-1.78-.15-2.65a.77.77 0 0 0 -.77-.73.75.75 0 0 0 -.73.77c0 .77.06 1.54.12 2.33a.74.74 0 0 0 .08.9c.92 9.79 4.79 21.06 9.6 31.79a.69.69 0 0 0 .18.43 0 0 0 0 1 0 0c3.49 7.75 7.45 15.2 11.12 21.61a.71.71 0 0 0 .22.38c6.63 11.52 12.22 19.54 12.35 19.74z" fill="#231f20"/><path d="m282.87 235c0 1.74-8.24 9.88-20.52 14.06-1.72.35-3.92-.65-6.45-2.65a42.35 42.35 0 0 0 12.63-7.24.72.72 0 0 0 .26-.65c6.13-2.2 12.84-4.06 14.08-3.52z" fill="#ca7375"/><path d="m268.79 238.48a.72.72 0 0 1 -.26.65 42.35 42.35 0 0 1 -12.63 7.24l-1.15.4a.62.62 0 0 1 -.23 0 .6.6 0 0 1 -.3-.07.51.51 0 0 1 -.3-.26.56.56 0 0 1 -.09-.17.74.74 0 0 1 .48-.94l.27-.09a40.64 40.64 0 0 0 12.1-6.56c.31-.23.61-.47.91-.72a.74.74 0 0 1 1 .1.71.71 0 0 1 .2.42z" fill="#231f20"/><path d="m210.26 73.3a.76.76 0 0 1 -.54.23.74.74 0 0 1 -.52-.22 3 3 0 0 0 -2.17-.83.74.74 0 0 1 -.78-.72.76.76 0 0 1 .75-.76 4.46 4.46 0 0 1 3.28 1.26.75.75 0 0 1 -.02 1.04z" fill="#231f20"/><path d="m228.84 95.79a17.53 17.53 0 0 1 -19.54-3.35c-.7-.67-1.76.39-1.06 1.06a19.1 19.1 0 0 0 21.36 3.59c.88-.4.11-1.69-.76-1.3z" fill="#231f20"/><path d="m232.77 101.43a39 39 0 0 1 -32.77-6.16c-.78-.57-1.53.74-.76 1.3a40.4 40.4 0 0 0 33.93 6.31.75.75 0 0 0 -.4-1.45z" fill="#231f20"/><path d="m235.8 106.51a57.2 57.2 0 0 1 -40.23-2.27c-.87-.39-1.64.91-.76 1.3a58.79 58.79 0 0 0 41.38 2.46c.92-.33.53-1.78-.39-1.49z" fill="#231f20"/><path d="m239.13 113.88a16.4 16.4 0 0 1 -8.63 1.62.68.68 0 0 0 -.18 0 .6.6 0 0 0 -.8-.3 69.8 69.8 0 0 1 -34.88 3.85.67.67 0 0 0 -.45-1l-5.76-1.23c-.94-.2-1.34 1.25-.4 1.45l4.59 1a.66.66 0 0 0 .41 1.07 71.24 71.24 0 0 0 36.89-3.68.73.73 0 0 0 .57.34 17.9 17.9 0 0 0 9.39-1.82c.88-.43.12-1.73-.75-1.3z" fill="#231f20"/><path d="m233.79 126.25a80 80 0 0 1 -37.6 3.86c-.94-.13-1.35 1.32-.4 1.45a81.57 81.57 0 0 0 38.4-3.86c.9-.32.51-1.77-.4-1.45z" fill="#231f20"/><path d="m240.24 138.61a93 93 0 0 1 -40.52 5c-1-.09-1 1.41 0 1.5a94 94 0 0 0 40.92-5c.9-.38.51-1.83-.4-1.5z" fill="#231f20"/><path d="m192 121.51a19.24 19.24 0 0 1 -14.25-1c-.87-.41-1.63.88-.76 1.3a20.81 20.81 0 0 0 15.4 1.16c.97-.29.61-1.74-.39-1.46z" fill="#231f20"/><path d="m257.18 220.86-14.4-26.67c-.46-.85-1.75-.09-1.3.76l14.4 26.67c.46.84 1.76.09 1.3-.76z" fill="#fff"/><path d="m241.15 230.37-10.6-16.44c-.52-.81-1.82-.06-1.3.76l10.6 16.44c.53.8 1.83.05 1.3-.76z" fill="#fff"/><path d="m41.84 141.86a16.42 16.42 0 0 0 -.24 16.27c.46.85 1.75.09 1.3-.76a14.86 14.86 0 0 1 .24-14.75.75.75 0 0 0 -1.3-.76z" fill="#fff"/><path d="m146.2 104a62.05 62.05 0 0 1 -12.52-3.19c-.91-.33-1.3 1.11-.4 1.45a62.05 62.05 0 0 0 12.52 3.19c.95.13 1.36-1.31.4-1.45z" fill="#fff"/><path d="m139.15 232.34c-5.4-14.44-7.73-30.54-17.15-43.16-8.75-11.74-22.1-18.74-34.82-25.33-.86-.44-1.62.85-.76 1.3 12.83 6.65 26.39 13.71 35 25.76 8.81 12.34 11.08 27.9 16.29 41.84.29.89 1.78.5 1.44-.41z" fill="#231f20"/><path d="m90.15 199.48c-4.92-5.67-11.64-10-17.24-15q-9.73-8.69-18.72-18.15c-.67-.7-1.73.36-1.06 1.06a395.07 395.07 0 0 0 31.77 29.18c6.13 5.16 9.33 11 6.74 19-2.18 6.76-7.1 12.23-9.88 18.73-.38.88.92 1.64 1.3.76 4.76-11.06 17.46-23.64 7.09-35.58z" fill="#231f20"/><path d="m103.09 126.3a54.29 54.29 0 0 0 -12.59 9.45.75.75 0 0 0 1.06 1.06 53 53 0 0 1 12.28-9.22c.86-.46.1-1.75-.75-1.29z" fill="#231f20"/><path d="m96.37 126.85a15.84 15.84 0 0 0 -5 4.52c-.57.78.73 1.53 1.3.76a14.11 14.11 0 0 1 4.48-4 .75.75 0 0 0 -.78-1.28z" fill="#231f20"/><path d="m167.76 93.65-9.51-.65c-1-.07-1 1.43 0 1.5l9.51.67c.96.05.96-1.45 0-1.52z" fill="#231f20"/><path d="m187.68 135-.33 9.5c0 1 1.47 1 1.5 0l.33-9.5c.04-1-1.47-1-1.5 0z" fill="#231f20"/><path d="m251 149.48a26.3 26.3 0 0 1 -4.37-6.61c-.41-.87-1.7-.11-1.3.76a27.6 27.6 0 0 0 4.6 6.91c.68.71 1.74-.35 1.07-1.06z" fill="#231f20"/><path d="m265.45 184.59c-.43-.87-1.72-.11-1.3.76a11.67 11.67 0 0 1 -.59 11.5c-.51.82.79 1.58 1.3.76a13.22 13.22 0 0 0 .59-13.02z" fill="#fff"/><path d="m218.54 158.26a10.61 10.61 0 0 1 -7.68-.37c-.87-.39-1.64.9-.76 1.3a12.2 12.2 0 0 0 8.84.52c.92-.3.53-1.71-.4-1.45z" fill="#fff"/><path d="m200.16 68.5-1.34 1.16c-.73.63.33 1.69 1.06 1.06l1.34-1.16c.78-.63-.33-1.69-1.06-1.06z" fill="#231f20"/><path d="m201.19 72.45-1 1.5c-.54.81.76 1.56 1.3.76l1-1.5c.51-.8-.77-1.56-1.3-.76z" fill="#231f20"/><path d="m205.52 75.12-1.17 1.88c-.52.82.78 1.57 1.3.76l1.17-1.83c.51-.87-.82-1.62-1.3-.81z" fill="#231f20"/><path d="m212.8 75.3-1.33 1.5c-.64.72.42 1.78 1.06 1.06l1.33-1.5c.64-.72-.41-1.78-1.06-1.06z" fill="#231f20"/><path d="m220.64 71.3-1 1.17c-.63.73.43 1.8 1.06 1.06l1-1.17c.62-.73-.43-1.79-1.06-1.06z" fill="#231f20"/><path d="m204.41 67.65-.34.66c-.44.86.85 1.62 1.3.76l.34-.66c.44-.86-.86-1.62-1.3-.76z" fill="#231f20"/><path d="m215.52 71-.83 1.17c-.56.79.74 1.54 1.3.76l.83-1.17c.56-.84-.74-1.58-1.3-.76z" fill="#231f20"/></svg>