<svg viewBox="0 0 300 300" xmlns="http://www.w3.org/2000/svg"><g fill="#231f20"><path d="m79.17 45.94c-4.74 2.88-5.8 9.64-6 12.7l-.28-.2a18.07 18.07 0 0 0 .69-5c0-.37 0-.75.05-1.12.09-1.7.35-3.85 1.55-5.33a3.8 3.8 0 0 1 2.49-1.36 2.38 2.38 0 0 1 1.5.31z"/><path d="m80.43 46a.79.79 0 0 1 -.28.21.77.77 0 0 1 -.77-.12 1 1 0 0 0 -.2-.15 2.38 2.38 0 0 0 -1.54-.35 3.8 3.8 0 0 0 -2.5 1.41c-1.2 1.48-1.46 3.63-1.55 5.33 0 .37 0 .75-.05 1.12a18.07 18.07 0 0 1 -.69 5s0 .08 0 .12a.75.75 0 0 1 -.71.5 1.18 1.18 0 0 1 -.25 0 .75.75 0 0 1 -.45-1c0-.13.09-.27.13-.41a17.62 17.62 0 0 0 .43-4.32c0-.38 0-.76.05-1.14.11-1.93.42-4.38 1.88-6.2a5.32 5.32 0 0 1 3.52-1.9 3.87 3.87 0 0 1 2.46.56 2.76 2.76 0 0 1 .39.28.71.71 0 0 1 .22.31.76.76 0 0 1 -.09.75z"/><path d="m107.62 48.46a3.86 3.86 0 0 1 -1.6 2.78 6.75 6.75 0 0 1 -3.8.91h-.81-.08a.75.75 0 0 1 -.46-1.32.8.8 0 0 1 .5-.18 6.38 6.38 0 0 0 3.81-.64 2.34 2.34 0 0 0 1-1.65 1.27 1.27 0 0 0 -.33-1 3 3 0 0 0 -1.37-.54l-11.48-2.67a23.91 23.91 0 0 0 -6.64-.88 8.16 8.16 0 0 0 -4.46 1.57 5.76 5.76 0 0 0 -1.07 1.08.74.74 0 0 1 -.71.29.71.71 0 0 1 -.33-.15.67.67 0 0 1 -.25-.35.71.71 0 0 1 .1-.7c.09-.12.19-.24.29-.35a9.07 9.07 0 0 1 6.35-2.88 24.27 24.27 0 0 1 7.08.91l11.38 2.62a4.23 4.23 0 0 1 2.06.92 2.68 2.68 0 0 1 .82 2.23z"/><path d="m99 54.46a22.28 22.28 0 0 1 -6 1.34 2.1 2.1 0 0 1 -1.35-.34.75.75 0 0 1 -.09-1.06.76.76 0 0 1 1.06-.08c.48.19 3.17-.39 5.84-1.28a.75.75 0 0 1 .54 1.42z"/><path d="m88.85 51-5.18 1.94a.74.74 0 0 1 -1-.44.74.74 0 0 1 .44-1l5.17-2a.75.75 0 0 1 .57 1.5z"/><path d="m98.14 57.78c-.32 1.49-1.51 6.41-3.15 7.33a1.46 1.46 0 0 1 -.69.19 1.26 1.26 0 0 1 -.43-.08c-.73-.25-1.38-1.28-2-2.61-.13-.29-.25-.6-.36-.92-.27-.72-.51-1.5-.72-2.25-.46 1.68-1.15 3.46-2.1 4.08a1.61 1.61 0 0 1 -1.31.22c-2.3-.63-3.46-6.65-3.76-8.48a.74.74 0 0 1 .61-.86.76.76 0 0 1 .87.61c.54 3.31 1.75 7 2.68 7.28 1-.61 1.87-4.07 2.21-6.35a.75.75 0 0 1 1.48 0c.8 3.81 2.08 7.41 2.78 7.88.62-.39 1.71-3.28 2.38-6.32a.75.75 0 0 1 1.46.32z"/><path d="m91.92 70.16a9 9 0 0 1 -2.68.4.75.75 0 1 1 0-1.5 8.7 8.7 0 0 0 1.9-.22 30.43 30.43 0 0 0 -.79-6.43.76.76 0 0 1 .58-.89.71.71 0 0 1 .63.17.66.66 0 0 1 .26.42c0 .17.07.34.1.5 1.38 7 .49 7.39 0 7.55z"/><path d="m62.07 146.43c.26-.41.54-.89.8-1.4a10.13 10.13 0 0 0 .63-1.44c.45-1.25.55-2.47-.29-3.13a1.58 1.58 0 0 0 -1.8-.1c.69-23-4-34.24-4.17-34.72a.76.76 0 0 0 -.48-.43.74.74 0 0 0 -.63.1c-2.52 1.69-24.53 16.79-23.53 23.43.72 4.82 12.5 11.24 19.73 14.76l1.35.65c2 .94 3.46 1.59 4 1.82a.75.75 0 0 0 .94-.29s.32-.52.79-1.17a16.49 16.49 0 0 1 1.72-2.08c.81-.81 1.15-.79 1.15-.8.39.32-.48 2.62-2.05 4.86a.74.74 0 0 0 -.09.7.75.75 0 0 0 .54.47c4.16.93 8.83 2.39 10 3.3-.76.1-3.06.08-9.56-1.56l-.25-.07h-.09a.73.73 0 0 0 -.84.56.75.75 0 0 0 .54.91l.23.07a48 48 0 0 0 8.93 1.64h.43a2.82 2.82 0 0 0 1.83-.4 1.21 1.21 0 0 0 .5-.87c.13-1.55-3.34-3.17-10.33-4.81zm-2.21-4.85a22 22 0 0 0 -2.16 2.76c-6.86-3-22.91-11.07-23.62-15.82-.63-4.21 12.58-14.9 22.1-21.43 1.07 3.12 4.44 14.63 3.68 34.49z"/><path d="m141.16 279.19c-.65 1.34-5.92 1.78-12.54 1.78-8.51 0-19.26-.72-25.39-1.2a.75.75 0 0 1 -.69-.66c-3.08-27.11-11.54-95.47-16.06-108.4-3.34 16.61-26.72 103.59-27.78 107.53a.74.74 0 0 1 -.64.55c-7.53.85-32.27 3.38-34.25.42a1.26 1.26 0 0 1 0-1.36c1.86-3.4 10.25-4.92 16.4-5.77h.4c.43-5.47 4.08-49 14.28-94.09a213.82 213.82 0 0 0 3.75-21.22l.09-.69a.75.75 0 0 1 .84-.65h.05.09a.76.76 0 0 1 .51.8c0 .26-.06.53-.1.8-.85 6.83-2.11 14-3.76 21.27a727.37 727.37 0 0 0 -14.27 93.7v.53.11c0 .5-.22.66-.86.78l-.79.12c-11 1.51-14.35 3.47-15.24 4.89 1.9 1.35 17.6.52 32.24-1.1.2-.76.63-2.37 1.25-4.65.13-.5.27-1 .43-1.6 6.15-23 25.9-97.16 26.3-102.85a.75.75 0 0 1 1.31-.45c4.67 5.23 14 82.79 16.67 105.23.06.55.12 1.06.18 1.54.2 1.72.34 3 .43 3.74 16.66 1.27 34.48 1.68 35.88.17-.17-1.13-7.33-3.31-15.49-4.68l-.51-.09a.74.74 0 0 1 -.62-.65l-.06-.54-14.38-120.83-.09-.74a.75.75 0 0 1 .66-.83.74.74 0 0 1 .83.65l.08.69 14.32 120.89c3.52.6 15.11 2.76 16.5 5.46a1.51 1.51 0 0 1 .03 1.4z"/><path d="m60.54 153.05a.76.76 0 0 1 -.75.75h-.15a0 0 0 0 0 0 0 .74.74 0 0 1 -.54-.71.75.75 0 0 1 .75-.75h.15.13a.76.76 0 0 1 .41.71z"/><path d="m71.42 154.48c-.11.39-.24.84-1.92.84-.38 0-.83 0-1.38-.07a0 0 0 0 1 0 0 75.07 75.07 0 0 1 -8.4-1.45h-.13-.13-.1a0 0 0 0 1 0 0 .77.77 0 0 1 -.48-.81.75.75 0 0 1 .85-.63h.13.08.06a73.77 73.77 0 0 0 9 1.49 66.13 66.13 0 0 0 -8.24-3l-.23-.07h-.13l-.21-.08a.75.75 0 0 1 .58-1.38h.09l.25.07a58.23 58.23 0 0 1 8.52 3.09c2.06 1.04 1.91 1.58 1.79 2z"/><path d="m82.24 76.37a.75.75 0 0 1 -.74.6h-.15l-.35-.07-1-.23c-3.57-.76-4.1-5-3.89-7.12a.75.75 0 1 1 1.49.15s-.4 4.56 2.45 5.43a1.2 1.2 0 0 0 .27.08l1.38.28a.75.75 0 0 1 .54.88z"/><path d="m101.41 52.13a7.62 7.62 0 0 0 -.54-1.32 8.61 8.61 0 0 0 -1.75-2.3c-3.3-3.11-9.47-4.59-16.11-3.85a9.2 9.2 0 0 0 -1.07.18 8.39 8.39 0 0 0 -1.37.41 7.62 7.62 0 0 0 -1 .46c-.14.07-.26.15-.39.23-4.74 2.88-5.8 9.64-6 12.7l-.28-.2a9.41 9.41 0 0 0 -1.32-.79 3.92 3.92 0 0 0 -2.58-.46 2.38 2.38 0 0 0 -1.67 1.68 2.79 2.79 0 0 0 .25 2.54c.92 1.39 3.06 1.91 4.23 2.09l-1.63 15.14c-3.29.41-18.75 2.74-28.91 11.54-10.58 9.16-32.6 28.23-26.12 44.44 3.52 8.8 18.85 15.38 32.25 19.33l.6.17c3.82 1.1 7.46 2 10.61 2.6l.69.14.79.15a40.8 40.8 0 0 0 7.08.94c1.27 0 1.52-.24 1.65-.35a1.18 1.18 0 0 0 .37-1.16c0-.22-.15-.62-1.07-1.19a0 0 0 0 1 0 0c-1.08-.69-3.32-1.63-8-2.88h-.13-.07-.06-.08-.1a.75.75 0 1 0 -.37 1.45 0 0 0 0 0 0 0h.1.13.06a34.06 34.06 0 0 1 7.63 2.67 48.34 48.34 0 0 1 -7.59-1.05h-.09-.05c-3.07-.61-6.66-1.44-10.44-2.5l-1.51-.43c-13-3.79-27.74-10.11-31-18.38-6.08-15.22 15.39-33.82 25.71-42.76 9.94-8.6 25.67-10.88 28.31-11.2h.38a.76.76 0 0 0 .67-.67l.05-.5 1.73-16a.69.69 0 0 0 -.17-.56.74.74 0 0 0 -.52-.27c-.78 0-3.16-.45-3.86-1.51a1.28 1.28 0 0 1 -.08-1.22c.21-.61.5-.68.61-.71.94-.23 2.87 1.07 3.93 2.07a.75.75 0 0 0 1.26-.56c0-.13-.11-13 8.62-14 6.21-.68 11.92.63 14.91 3.45a6.35 6.35 0 0 1 2.13 5.15c-.11 2-.13 4.41-.15 6.92 0 5.7-.11 12.16-1.28 14.36-.29.53-2 2.13-12.73.3h-.31a.75.75 0 0 0 -.87.61.78.78 0 0 0 .08.5v.06a.67.67 0 0 0 .44.26c.61.11 1.2.2 1.76.28 11.26 1.72 12.46-.55 12.87-1.32 1.34-2.52 1.39-8.89 1.45-15 0-2.5 0-4.86.15-6.86a8 8 0 0 0 -.23-2.82z"/><path d="m106.13 48.34a2.34 2.34 0 0 1 -1 1.65 6.38 6.38 0 0 1 -3.81.64.8.8 0 0 0 -.5.18 8.61 8.61 0 0 0 -1.75-2.3c-3.3-3.11-9.47-4.59-16.11-3.85a9.2 9.2 0 0 0 -1.07.18 8.16 8.16 0 0 1 4.46-1.57 23.91 23.91 0 0 1 6.64.88l11.39 2.63a3 3 0 0 1 1.37.54 1.27 1.27 0 0 1 .38 1.02z"/><path d="m116.93 146.54a10.14 10.14 0 0 1 -6.62 4.9c-.23.06-.47.1-.71.14l-.77.09h-.74c-4.22 0-7.73-2.78-10.67-7.13-.3-.44-.59-.91-.88-1.39-7.43-12.26-10.91-34.64-12.54-45.15-.35-2.22-.64-4.14-.77-4.47a19.84 19.84 0 0 0 -3.63-2.1c-3.59-1.82-5.76-3-5.33-4.48.3-1.06 1.36-1.42 2.46-1.48-1-.91-1.7-2-1.12-3.08s2.05-1.09 3.41-.81a14.4 14.4 0 0 1 2.43.79 1 1 0 0 1 .17.1.8.8 0 0 1 .15.17.75.75 0 0 1 .06.7.76.76 0 0 1 -.7.45 0 0 0 0 1 0 0 .08.08 0 0 1 -.07 0 .41.41 0 0 1 -.19 0c-1.93-.82-3.74-1-4-.65s1.13 1.74 2.89 2.75a.75.75 0 0 1 -.55 1.38c-1.45-.36-3.24-.39-3.52.07.34.66 3.06 2 4.54 2.8 2.37 1.14 3.77 1.86 4.29 2.65.22.33.34 1 .88 4.49 0 .16 0 .32.08.49q.08.48.15 1c2.25 14.44 8.71 53.65 23.74 51.34a8.64 8.64 0 0 0 6.25-4.34c7.9-12.83-1.08-48.85-3.06-54.94-1.86-5.72-14.77-8-22.51-8.54l-1.45-.09-.09-.76v.75a.67.67 0 0 1 -.32-.1.7.7 0 0 1 -.4-.58v-.08a.74.74 0 0 1 .73-.74.53.53 0 0 1 .22 0h.26c3.43.17 22.32 1.51 25 9.65.15.41 12.07 41.36 2.93 56.2z"/><path d="m110.12 133a.76.76 0 0 1 -.69.81h-.06a.75.75 0 0 1 -.75-.69c-.71-8.41-8-28.9-12.44-37.82-.07-.14-.14-.29-.22-.43-.22-.44-.46-.89-.71-1.35-1.48-2.76-3.49-6-7.08-11.41l-.17-.25-.2-.3c-.23-.36-.47-.73-.72-1.09-.68-1-1.36-2-2-2.92v-.06c-3-4.25-4.33-5.67-4.9-6.14 0 .53.37 1.81 2.08 4.58 1.21 2.07 2.74 4.07 2.74 4.07a.74.74 0 0 1 0 .91.76.76 0 0 1 -.9.22c-1.63-.73-3.5-1.17-3.85-.89-.15.21.27 1.12 1.42 2.22a.8.8 0 0 1 .15.17.68.68 0 0 1 .14.41.75.75 0 0 1 -.75.75 0 0 0 0 1 0 0 .08.08 0 0 1 -.07 0 .41.41 0 0 1 -.19 0 .79.79 0 0 1 -.23-.16 7.86 7.86 0 0 1 -1.61-2 4.41 4.41 0 0 1 -.23-.56 1.81 1.81 0 0 1 .12-1.51l.08-.13c.62-.89 2-.8 3.37-.45-.41-.61-.88-1.3-1.33-2l-.17-.27c-.32-.53-.61-1-.86-1.49-1.59-2.88-1.85-4.56-.88-5.37a1 1 0 0 1 .81-.22c.52.07 1.48.2 6.13 6.79l.18.26 1 1.45 1 1.53.67 1.05.19.29c.28.43.56.84.82 1.25 3.38 5.13 5.28 8.21 6.72 10.93l.15.29c.2.38.39.74.57 1.11 4.55 9.06 11.94 29.83 12.67 38.42z"/><path d="m88.61 72.73a.76.76 0 0 1 -.85.64 4.06 4.06 0 0 0 -2.42.41.81.81 0 0 1 -.34.08.75.75 0 0 1 -.34-1.42 5.66 5.66 0 0 1 3.34-.56.75.75 0 0 1 .61.85z"/></g><path d="m115.65 145.76a8.64 8.64 0 0 1 -6.25 4.34c-15 2.31-21.49-36.9-23.74-51.34a21.11 21.11 0 0 0 10.34-3.91c.08.14.15.29.22.43 4.4 8.92 11.73 29.41 12.44 37.82a.75.75 0 0 0 .75.69h.06a.76.76 0 0 0 .69-.81c-.73-8.57-8.14-29.34-12.6-38.36-.18-.37-.37-.73-.57-1.11a.61.61 0 0 0 -.13-.27c-1.44-2.72-3.34-5.8-6.72-10.93 7.74.52 20.65 2.82 22.51 8.54 1.92 6.06 10.9 42.08 3 54.91z" fill="#ca7375"/><path d="m95.25 93.5a19.53 19.53 0 0 1 -9.85 3.78c-.54-3.49-.66-4.16-.88-4.49-.52-.79-1.92-1.51-4.24-2.69-1.48-.76-4.2-2.14-4.54-2.8.28-.46 2.07-.43 3.52-.07a.75.75 0 0 0 .55-1.38c-1.76-1-3.09-2.38-2.89-2.75s2-.17 4 .65a.41.41 0 0 0 .19 0 .08.08 0 0 0 .07 0 0 0 0 0 0 0 0 .75.75 0 0 0 .75-.75.68.68 0 0 0 -.14-.41.8.8 0 0 0 -.15-.17c-1.15-1.1-1.57-2-1.42-2.22.35-.28 2.22.16 3.85.89a.76.76 0 0 0 .9-.22.74.74 0 0 0 .03-.87s-1.5-2-2.83-4.18c-1.71-2.77-2-4-2.08-4.58.57.47 1.92 1.89 4.9 6.14v.06c.64.93 1.32 1.91 2 2.92.25.36.49.73.72 1.09a.7.7 0 0 0 .4.58c3.65 5.48 5.66 8.71 7.14 11.47z" fill="#ffe3e4"/><path d="m96.7 94.29-.74.56a21.11 21.11 0 0 1 -10.33 3.91h-.53-.1a.75.75 0 0 1 0-1.5h.4a19.53 19.53 0 0 0 9.85-3.78 6.4 6.4 0 0 0 .52-.39.76.76 0 0 1 1 .1.61.61 0 0 1 .13.27.74.74 0 0 1 -.2.83z" fill="#231f20"/><path d="m59.85 149.68a.76.76 0 0 0 .34 1l.21.08h.07l.23.07a66.13 66.13 0 0 1 8.24 3 73.77 73.77 0 0 1 -9-1.49h-.07-.06-.08-.1a.75.75 0 1 0 -.37 1.45 0 0 0 0 0 0 0h.1.13.06a34.06 34.06 0 0 1 7.63 2.67 48.34 48.34 0 0 1 -7.59-1.05h-.09-.05c-3.07-.61-6.66-1.44-10.44-2.5a57.55 57.55 0 0 0 4.58-8.73c2 .94 3.46 1.59 4 1.82a.75.75 0 0 0 .94-.29s.32-.52.79-1.17a16.49 16.49 0 0 1 1.72-2.08c.81-.81 1.15-.79 1.15-.8.39.32-.48 2.62-2.05 4.86a.74.74 0 0 0 -.09.7.75.75 0 0 0 .54.47c4.16.93 8.83 2.39 10 3.3-.76.1-3.06.08-9.56-1.56l-.25-.07h-.09a.76.76 0 0 0 -.84.32z" fill="#ffe3e4"/><path d="m53.84 143.76-.16.39a57.55 57.55 0 0 1 -4.58 8.73c-.1.17-.21.34-.32.51a.76.76 0 0 1 -.09.18l-.2.26a.71.71 0 0 1 -.49.29h-.11a.75.75 0 0 1 -.43-.13l-.06-.05a.75.75 0 0 1 -.14-1c.11-.17.23-.34.33-.52a56.71 56.71 0 0 0 4.74-8.95l.13-.31a.75.75 0 1 1 1.38.57z" fill="#231f20"/><path d="m98.09 49.6c-3-2.82-8.7-4.13-14.91-3.45-8.73 1-8.62 13.88-8.62 14a.75.75 0 0 1 -1.26.56c-1.06-1-3-2.3-3.93-2.07-.11 0-.4.1-.61.71a1.28 1.28 0 0 0 .08 1.22c.7 1.06 3.08 1.46 3.86 1.51a.74.74 0 0 1 .52.27.69.69 0 0 1 .17.56l-1.73 16a14.43 14.43 0 0 0 7.08.61.49.49 0 0 1 .17 0l.08-.13c.62-.89 2-.8 3.37-.45-.41-.61-.88-1.3-1.33-2l-1.03-.27c-3.57-.76-4.1-5-3.89-7.12a.75.75 0 1 1 1.49.15s-.4 4.56 2.45 5.43c-1.59-2.88-1.85-4.56-.88-5.37a1 1 0 0 1 .81-.22c.52.07 1.48.2 6.13 6.79 10.69 1.83 12.44.23 12.73-.3 1.17-2.2 1.23-8.66 1.28-14.36 0-2.51 0-4.89.15-6.92a6.35 6.35 0 0 0 -2.18-5.15zm-15.38 2.85a.74.74 0 0 1 .44-1l5.17-2a.75.75 0 0 1 .53 1.55l-5.18 1.94a.74.74 0 0 1 -1-.44zm5 20.92a4.06 4.06 0 0 0 -2.42.41.81.81 0 0 1 -.34.08.75.75 0 0 1 -.34-1.42 5.66 5.66 0 0 1 3.39-.56.75.75 0 0 1 -.21 1.49zm10.43-15.59c-.32 1.49-1.51 6.41-3.15 7.33a1.46 1.46 0 0 1 -.69.19 1.26 1.26 0 0 1 -.43-.08c-.73-.25-1.38-1.28-2-2.61 1.38 7 .49 7.35 0 7.55a9 9 0 0 1 -2.68.4.75.75 0 1 1 0-1.5 8.7 8.7 0 0 0 1.9-.22 30.43 30.43 0 0 0 -.79-6.43.76.76 0 0 1 .58-.89.71.71 0 0 1 .63.17c-.27-.72-.51-1.5-.72-2.25-.46 1.68-1.15 3.46-2.1 4.08a1.61 1.61 0 0 1 -1.31.22c-2.3-.63-3.46-6.65-3.76-8.48a.74.74 0 0 1 .61-.86.76.76 0 0 1 .87.61c.54 3.31 1.75 7 2.68 7.28 1-.61 1.87-4.07 2.21-6.35a.75.75 0 0 1 1.48 0c.8 3.81 2.08 7.41 2.78 7.88.62-.39 1.71-3.28 2.38-6.32a.75.75 0 0 1 1.46.32zm.86-3.32a22.28 22.28 0 0 1 -6 1.34 2.1 2.1 0 0 1 -1.35-.34.75.75 0 0 1 -.09-1.06.76.76 0 0 1 1.06-.08c.48.19 3.17-.39 5.84-1.28a.75.75 0 0 1 .54 1.42z" fill="#ffe3e4"/><path d="m79.59 80.15a.75.75 0 0 1 -.59.85h-.16a16.87 16.87 0 0 1 -2.46.18 17.43 17.43 0 0 1 -5.72-1.06s0 0 0 0a.74.74 0 0 1 -.42-.92.76.76 0 0 1 .94-.48l.58.19a14.43 14.43 0 0 0 7.08.61.49.49 0 0 1 .17 0 .76.76 0 0 1 .58.63z" fill="#231f20"/><path d="m96.54 143.18a115.39 115.39 0 0 1 -33 .41c.45-1.25.55-2.47-.29-3.13a1.58 1.58 0 0 0 -1.8-.1c.69-23-4-34.24-4.17-34.72a.76.76 0 0 0 -.48-.43.74.74 0 0 0 -.63.1c-2.56 1.69-24.57 16.79-23.57 23.43.72 4.82 12.5 11.24 19.73 14.76a56.71 56.71 0 0 1 -4.74 8.95c-13-3.79-27.74-10.11-31-18.38-6.08-15.22 15.39-33.82 25.71-42.76 9.94-8.6 25.67-10.88 28.31-11.2a17.43 17.43 0 0 0 5.72 1.06 16.87 16.87 0 0 0 2.46-.17 4.41 4.41 0 0 0 .23.56c-1.36-.28-2.83-.28-3.41.81s.15 2.17 1.12 3.08c-1.1.06-2.16.42-2.46 1.48-.43 1.46 1.74 2.66 5.33 4.48a19.84 19.84 0 0 1 3.63 2.1c.13.33.42 2.25.77 4.47 1.63 10.53 5.11 32.91 12.54 45.2z" fill="#ca7375"/><path d="m98.32 143.66a.74.74 0 0 1 -.61.86l-.29.05a116.41 116.41 0 0 1 -18.81 1.52 118.69 118.69 0 0 1 -15.74-1.09h-.06a.75.75 0 0 1 -.64-.85.74.74 0 0 1 .84-.64l.49.06a115.39 115.39 0 0 0 33-.41l.92-.14a.74.74 0 0 1 .9.64z" fill="#231f20"/><path d="m58.64 272.71c-.62 2.28-1 3.89-1.25 4.65-14.64 1.62-30.34 2.45-32.24 1.1.89-1.42 4.29-3.38 15.24-4.89l.79-.12a58.25 58.25 0 0 0 17.45-.74z" fill="#231f20"/><path d="m59.33 272.58-.69.13a58.25 58.25 0 0 1 -17.45.74h-.23a.75.75 0 0 1 -.66-.83.73.73 0 0 1 .82-.66c.33 0 .65.07 1 .09a57.34 57.34 0 0 0 16.88-.94s0 0 0 0a.73.73 0 0 1 .84.58.74.74 0 0 1 -.51.89z" fill="#231f20"/><path d="m123.15 272.53a58.52 58.52 0 0 1 -19.8.51c-2.63-22.44-12-100-16.67-105.23a.75.75 0 0 0 -1.31.45c-.4 5.69-20.15 79.86-26.3 102.85a57.34 57.34 0 0 1 -16.94.92 727.37 727.37 0 0 1 14.24-93.75c1.63-7.28 2.87-14.44 3.72-21.28a40.8 40.8 0 0 0 7.08.94c1.27 0 1.52-.24 1.65-.35a1.18 1.18 0 0 0 .37-1.16c0-.22-.15-.62-1.07-1.19.55.05 1 .07 1.38.07 1.68 0 1.81-.45 1.92-.84s.27-1-1.79-2h.43a2.82 2.82 0 0 0 1.83-.4 1.21 1.21 0 0 0 .5-.87c.14-1.54-3.33-3.16-10.32-4.8.26-.41.54-.89.8-1.4a118.69 118.69 0 0 0 15.74 1.06 116.41 116.41 0 0 0 18.81-1.52c2.94 4.35 6.45 7.13 10.67 7.13h.74z" fill="#e6bd66"/><path d="m139.84 278.49c-1.4 1.51-19.22 1.1-35.88-.17-.09-.74-.23-2-.43-3.74a60 60 0 0 0 20.68-.73h.13c8.17 1.33 15.33 3.51 15.5 4.64z" fill="#231f20"/><path d="m124.35 273.81h-.13a60 60 0 0 1 -20.68.73l-.71-.1a.75.75 0 0 1 .17-1.44h.31a58.52 58.52 0 0 0 19.8-.51l.75-.15a.75.75 0 0 1 .89.58.78.78 0 0 1 -.4.89z" fill="#231f20"/><path d="m233.63 61.73a.75.75 0 0 0 -.77-.15c-23.39 8.89-46.86 18.42-69.86 28.33a.75.75 0 0 0 .26 1.44c4.79.24 9.69.66 14.42 1.06 4.35.38 8.83.76 13.25 1a109.89 109.89 0 0 1 -60.65 48.1.75.75 0 0 0 -.5.52.77.77 0 0 0 .17.7c4.6 5 7.83 11.17 10.95 17.14.92 1.76 1.84 3.52 2.79 5.25a.77.77 0 0 0 .66.39.83.83 0 0 0 .22 0c28.65-8.73 53.08-34.15 60.52-62.53a87.78 87.78 0 0 0 13.24 30.42.75.75 0 0 0 1.37-.33c2.33-20.05 7-43.14 14.19-70.58a.75.75 0 0 0 -.26-.76zm-15.22 69.13a86.3 86.3 0 0 1 -12.57-31.53.73.73 0 0 0 -.72-.61.78.78 0 0 0 -.75.59c-6.18 29-30.68 55.47-59.69 64.56-.85-1.55-1.67-3.12-2.49-4.68-3-5.72-6.08-11.63-10.4-16.6a111.39 111.39 0 0 0 61-49.48.75.75 0 0 0 -.62-1.12c-4.78-.24-9.68-.66-14.42-1.07-3.71-.32-7.51-.65-11.3-.89 21.61-9.25 43.65-18.17 65.55-26.53-6.76 25.98-11.23 48.06-13.59 67.36z" fill="#231f20"/><path d="m232 63.5c-6.79 26-11.26 48.06-13.62 67.36a86.3 86.3 0 0 1 -12.57-31.53.73.73 0 0 0 -.72-.61.78.78 0 0 0 -.75.59c-6.18 29-30.68 55.47-59.69 64.56-.85-1.55-1.67-3.12-2.49-4.68-3-5.72-6.08-11.63-10.4-16.6a111.39 111.39 0 0 0 61-49.48.75.75 0 0 0 -.62-1.12c-4.78-.24-9.68-.66-14.42-1.07-3.71-.32-7.51-.65-11.3-.89 21.64-9.25 43.68-18.17 65.58-26.53z" fill="#e6bd66"/><path d="m272.84 165.62a258.64 258.64 0 0 1 -58.84-27.28.75.75 0 0 0 -.87.06.76.76 0 0 0 -.22.86c1.62 4.08 3.61 8.43 5.53 12.63 1.78 3.87 3.6 7.86 5.14 11.64-15.17 1.61-32-2.84-44.1-11.71a.77.77 0 0 0 -.59-.13.76.76 0 0 0 -.49.35 50 50 0 0 1 -22.59 19.73.73.73 0 0 0 -.44.62.74.74 0 0 0 .32.69c19.1 13 42.85 16.81 62.54 10.13a35.75 35.75 0 0 0 -2.55 6 27.9 27.9 0 0 1 -3.55 7.54.75.75 0 0 0 0 .92.76.76 0 0 0 .57.26.66.66 0 0 0 .34-.08c9.83-5 20.07-10.32 30-15.44s20.09-10.41 29.96-15.41a.75.75 0 0 0 -.12-1.38zm-30.53 15.49c-9.1 4.71-18.48 9.56-27.57 14.21a37.71 37.71 0 0 0 2.31-5.58 27.9 27.9 0 0 1 3.55-7.54.77.77 0 0 0 0-.9.72.72 0 0 0 -.6-.3.86.86 0 0 0 -.27.05c-19.25 7.37-42.93 4.11-62.12-8.48a51.33 51.33 0 0 0 21.6-19.08 67.27 67.27 0 0 0 45.49 11.41.75.75 0 0 0 .55-.36.73.73 0 0 0 0-.66c-1.62-4.09-3.61-8.43-5.53-12.63-1.58-3.45-3.21-7-4.64-10.43a259.63 259.63 0 0 0 55.54 25.66c-9.29 4.79-18.95 9.78-28.31 14.63z" fill="#231f20"/><path d="m270.66 166.49c-9.33 4.78-19 9.77-28.35 14.62-9.1 4.71-18.48 9.56-27.57 14.21a37.71 37.71 0 0 0 2.31-5.58 27.9 27.9 0 0 1 3.55-7.54.77.77 0 0 0 0-.9.72.72 0 0 0 -.6-.3.86.86 0 0 0 -.27.05c-19.25 7.37-42.93 4.11-62.12-8.48a51.33 51.33 0 0 0 21.6-19.08 67.27 67.27 0 0 0 45.49 11.41.75.75 0 0 0 .55-.36.73.73 0 0 0 0-.66c-1.62-4.09-3.61-8.43-5.53-12.63-1.58-3.45-3.21-7-4.64-10.43a259.63 259.63 0 0 0 55.58 25.67z" fill="#ca7375"/><path d="m263.26 240.16c-13.84-8.57-28.26-16.66-42.26-24.49-5.52-3.1-11.24-6.3-16.83-9.48a.75.75 0 0 0 -.91.13.75.75 0 0 0 -.1.91 66.2 66.2 0 0 0 6.46 8.42 81.41 81.41 0 0 1 5.38 6.75c-23.81-5-48-19-65.06-37.73a.75.75 0 0 0 -.61-.24.72.72 0 0 0 -.56.33c-2.15 3.17-4.71 8-7.19 12.71s-5 9.48-7.11 12.58a.74.74 0 0 0 .07.93c18.21 19.65 46 31.21 78.55 32.67-4.33 3.74-7.86 8.5-11.28 13.12l-.85 1.14a.74.74 0 0 0 0 .86.75.75 0 0 0 .62.34.57.57 0 0 0 .18 0c18-4.35 41.23-10.27 61.4-17.57a.76.76 0 0 0 .14-1.35zm-59.88 17c3.64-4.91 7.43-9.93 12.15-13.56a.76.76 0 0 0 .26-.83.75.75 0 0 0 -.69-.52c-32.71-1.05-60.76-12.35-79.08-31.83 2.08-3.17 4.51-7.77 6.86-12.22 2.26-4.28 4.59-8.69 6.59-11.79 17.63 19 42.59 33.15 67 37.83a.72.72 0 0 0 .75-.31.76.76 0 0 0 0-.82 66.92 66.92 0 0 0 -6.46-8.42c-1.56-1.83-3.16-3.7-4.56-5.61 4.7 2.67 9.45 5.33 14.07 7.92 13.52 7.57 27.48 15.39 40.89 23.64-19.02 6.75-40.57 12.31-57.78 16.5z" fill="#231f20"/><path d="m215.53 243.58a.76.76 0 0 0 .26-.83.75.75 0 0 0 -.69-.52c-32.71-1.05-60.76-12.35-79.08-31.83 2.08-3.17 4.51-7.77 6.86-12.22 2.26-4.28 4.59-8.69 6.59-11.79 17.63 19 42.59 33.15 67 37.83a.72.72 0 0 0 .75-.31.76.76 0 0 0 0-.82 66.92 66.92 0 0 0 -6.46-8.42c-1.56-1.83-3.16-3.7-4.56-5.61 4.7 2.67 9.45 5.33 14.07 7.92 13.52 7.57 27.48 15.39 40.89 23.64-19 6.77-40.56 12.33-57.77 16.52 3.61-4.91 7.42-9.93 12.14-13.56z" fill="#231f20"/><path d="m72.9 162.31a1010.24 1010.24 0 0 0 -23.63 101.48c-.17.94 1.28 1.35 1.45.4a1010.23 1010.23 0 0 1 23.62-101.48.75.75 0 0 0 -1.44-.4z" fill="#231f20"/><path d="m115.79 257.3q-10.67-44.82-16.91-90.51c-.13-1-1.58-.55-1.45.4q6.23 45.65 16.91 90.51c.23.94 1.66.54 1.45-.4z" fill="#231f20"/><path d="m45.19 106.35a29.47 29.47 0 0 0 -9.27 8.27c-.57.78.73 1.53 1.3.76a27.72 27.72 0 0 1 8.73-7.73.75.75 0 0 0 -.76-1.3z" fill="#231f20"/><path d="m40.45 104.88-4 4a.75.75 0 0 0 1.06 1.06l4-4a.75.75 0 0 0 -1.06-1.06z" fill="#231f20"/><path d="m105.57 88c-.67-.7-1.73.37-1.06 1.06a13.59 13.59 0 0 1 3.82 10.94c-.09 1 1.41 1 1.5 0a15.07 15.07 0 0 0 -4.26-12z" fill="#231f20"/><path d="m180.69 114.2a118.18 118.18 0 0 1 -24.69 23.65c-.78.56 0 1.86.76 1.3a119.47 119.47 0 0 0 24.95-23.89c.62-.75-.43-1.82-1.02-1.06z" fill="#231f20"/><path d="m179.92 123.12a40.31 40.31 0 0 1 -8.92 10.88c-.73.63.33 1.69 1.06 1.06a41.48 41.48 0 0 0 9.12-11.15.75.75 0 0 0 -1.26-.79z" fill="#231f20"/><path d="m224.37 76.81-5 14c-.32.91 1.12 1.3 1.45.4l5-14c.32-.91-1.13-1.31-1.45-.4z" fill="#231f20"/><path d="m195.57 177.73a42.25 42.25 0 0 1 -18.13-3.85c-.87-.4-1.63.89-.76 1.3a44.06 44.06 0 0 0 18.89 4.06.75.75 0 0 0 0-1.51z" fill="#231f20"/><path d="m247.78 163.25a61.21 61.21 0 0 1 -14.37-7.34c-.8-.55-1.55.75-.76 1.3a62.8 62.8 0 0 0 14.73 7.49c.91.3 1.3-1.13.4-1.45z" fill="#fff"/><path d="m248.46 235.84a84.09 84.09 0 0 0 -16-9c-.88-.37-1.64.92-.76 1.3a84.1 84.1 0 0 1 16 9c.79.56 1.54-.74.76-1.3z" fill="#fff"/><path d="m241.95 236.85-5.5-2.5c-.87-.4-1.64.9-.76 1.3l5.5 2.5c.87.39 1.64-.9.76-1.3z" fill="#fff"/><path d="m175.28 223.2a51.31 51.31 0 0 1 -22.34-9.33c-.78-.57-1.53.73-.76 1.3a52.18 52.18 0 0 0 22.7 9.48c.95.14 1.35-1.3.4-1.45z" fill="#fff"/><path d="m201.19 79.35-7 3c-.88.38-.12 1.67.76 1.3l7-3c.88-.38.12-1.65-.76-1.3z" fill="#fff"/><path d="m66.91 112.77c-.23-.94-1.67-.54-1.45.4a47.24 47.24 0 0 1 .72 19.1c-.16.94 1.29 1.35 1.45.4a49.23 49.23 0 0 0 -.72-19.9z" fill="#fff"/><path d="m72.32 116c-.05-1-1.55-1-1.5 0l.5 9c.05 1 1.55 1 1.5 0z" fill="#fff"/><path d="m102.46 236.48c-.12-.95-1.62-1-1.5 0l2.39 19.52c.12.95 1.62 1 1.5 0z" fill="#fff"/><path d="m102.79 123.8-2-6.5c-.28-.92-1.73-.53-1.45.4l2 6.5c.29.92 1.74.53 1.45-.4z" fill="#fff"/><path d="m57.35 183.8-3.5 17.5c-.19.94 1.26 1.35 1.45.4l3.5-17.5c.2-.94-1.26-1.35-1.45-.4z" fill="#fff"/></svg>