<svg viewBox="0 0 300 300" xmlns="http://www.w3.org/2000/svg"><path d="m130.38 110.66a.87.87 0 0 1 -.18.31.74.74 0 0 1 -.75.21l-.23-.05c-1.53-.27-3.09 1.14-3.53 2.66-.55 1.89.09 4 .7 5.65.13.35.27.71.41 1.06a17.71 17.71 0 0 1 1.41 5s0 .09 0 .13a.76.76 0 0 1 -.7.8.75.75 0 0 1 -.75-.7c0-.13 0-.27 0-.4a16.84 16.84 0 0 0 -1.36-4.33c-.14-.36-.28-.72-.41-1.09-.7-1.85-1.41-4.27-.75-6.58.62-2.15 2.84-4.1 5.17-3.74a3.58 3.58 0 0 1 .45.09.7.7 0 0 1 .35.23.73.73 0 0 1 .17.75z" fill="#231f20"/><path d="m157.08 104.77a8.18 8.18 0 0 1 -4.07 2.77.73.73 0 0 1 -1-.41.68.68 0 0 1 0-.56.71.71 0 0 1 .41-.42 7 7 0 0 0 3.42-2.22 2.37 2.37 0 0 0 .23-2 1.24 1.24 0 0 0 -.74-.81 3.14 3.14 0 0 0 -1.56.07l-12 2.35a25.25 25.25 0 0 0 -6.75 2 8.67 8.67 0 0 0 -3.69 3.42 5.77 5.77 0 0 0 -.56 1.4.75.75 0 0 1 -.55.55h-.18-.18a.81.81 0 0 1 -.35-.2.74.74 0 0 1 -.19-.71c0-.14.07-.28.11-.42a9.58 9.58 0 0 1 4.91-5.38 26.17 26.17 0 0 1 7.14-2.13l12-2.35a4.46 4.46 0 0 1 2.33 0 2.7 2.7 0 0 1 1.68 1.74 3.88 3.88 0 0 1 -.41 3.31z" fill="#231f20"/><path d="m147.92 120.92a.76.76 0 0 0 -1-.17.74.74 0 0 0 -.17 1 30.41 30.41 0 0 1 3.41 5.69 9.45 9.45 0 0 1 -1.77 1 .75.75 0 0 0 -.38 1 .73.73 0 0 0 .68.44.85.85 0 0 0 .31-.06 10.17 10.17 0 0 0 2.39-1.49c.34-.33 1.06-1.06-3.47-7.41z" fill="#231f20"/><path d="m161.66 128.67c-.68-3.2-2.64-7.78-4.56-12.26-1-2.34-2-4.55-2.67-6.46a7.7 7.7 0 0 0 -1.42-2.4 7 7 0 0 0 -1-1 8.39 8.39 0 0 0 -2.51-1.4c-4.44-1.59-11-.38-17.15 3.15a9.62 9.62 0 0 0 -1 .67 7.78 7.78 0 0 0 -1.1.94 6.75 6.75 0 0 0 -.72.81 1.54 1.54 0 0 0 -.27.36c-3.41 4.71-1.61 11.53-.57 14.46l-.44-.09a9.3 9.3 0 0 0 -1.53-.17 4 4 0 0 0 -2.72.72 2.42 2.42 0 0 0 -.89 2.24 2.84 2.84 0 0 0 .73 1.8 2.29 2.29 0 0 0 .49.42c1.54 1 4 .43 5.09.1a33.26 33.26 0 0 0 4 4.77 23.16 23.16 0 0 0 2.27 2 11.8 11.8 0 0 0 7 2.79h.14c4.93-.09 18.18-4.15 19-8.81a.71.71 0 0 0 0-.2 8.42 8.42 0 0 0 -.17-2.44zm-1.27 2.33c-.27 3.23-12.08 7.55-17.52 7.65h-.11a9.75 9.75 0 0 1 -5.51-2.09c-.3-.21-.58-.43-.87-.67a31.93 31.93 0 0 1 -5.84-6.49.73.73 0 0 0 -.92-.38c-.79.28-3.28.92-4.39.2a1.27 1.27 0 0 1 -.56-1.09c-.05-.6.15-.82.3-.94.83-.64 3.24-.23 4.68.26a.75.75 0 0 0 .8-.2.77.77 0 0 0 .13-.82c-.06-.12-5.47-12.16 2.52-16.75 5.77-3.32 11.86-4.48 15.89-3a6.36 6.36 0 0 1 4 3.86c.74 1.94 1.69 4.17 2.7 6.52 2.31 5.29 4.92 11.35 4.7 13.94z" fill="#231f20"/><path d="m155.72 117c-1-2.35-2-4.58-2.7-6.52a6.36 6.36 0 0 0 -4-3.86c-4-1.45-10.12-.29-15.89 3-8 4.59-2.58 16.63-2.52 16.75a.77.77 0 0 1 -.13.82.75.75 0 0 1 -.8.2c-1.44-.49-3.85-.9-4.68-.26-.15.12-.35.34-.3.94a1.27 1.27 0 0 0 .56 1.09c1.11.72 3.6.08 4.39-.2a.73.73 0 0 1 .92.38 31.93 31.93 0 0 0 5.84 6.49c.29.24.57.46.87.67a9.75 9.75 0 0 0 5.51 2.09h.11c5.44-.1 17.25-4.42 17.52-7.65.19-2.53-2.42-8.59-4.7-13.94zm-20 .28h-.15a.75.75 0 0 1 -.14-1.49 12.12 12.12 0 0 0 5.36-2.55.75.75 0 0 1 1 1.16 13.75 13.75 0 0 1 -6.1 2.87zm3.82.34c.83 0 1.5 1.18 1.5 2.62s-.67 2.63-1.5 2.63-1.5-1.18-1.5-2.63.64-2.63 1.47-2.63zm6.75 13.29a.74.74 0 0 1 -.65.38.77.77 0 0 1 -.36-.09 9.32 9.32 0 0 0 -6.12-1 .75.75 0 0 1 -.26-1.48 10.82 10.82 0 0 1 7.1 1.2.74.74 0 0 1 .26.98zm5.08-2.51a10.17 10.17 0 0 1 -2.39 1.49.85.85 0 0 1 -.31.06.73.73 0 0 1 -.68-.44.75.75 0 0 1 .38-1 9.45 9.45 0 0 0 1.77-1 30.41 30.41 0 0 0 -3.41-5.69.74.74 0 0 1 .17-1 .76.76 0 0 1 1 .17c4.55 6.28 3.83 7.01 3.44 7.4zm-.58-7.4c-.83 0-1.5-1.18-1.5-2.63s.67-2.63 1.5-2.63 1.5 1.18 1.5 2.63-.7 2.63-1.53 2.63zm1.72-7.4a.75.75 0 0 1 -.92.53 5.41 5.41 0 0 0 -4.4.81.76.76 0 0 1 -.43.14.75.75 0 0 1 -.43-1.36 6.88 6.88 0 0 1 5.64-1 .76.76 0 0 1 .51.87z" fill="#ffe3e4"/><g fill="#231f20"><path d="m128.65 125.59-.44-.09a17.71 17.71 0 0 0 -1.41-5c-.14-.35-.28-.71-.41-1.06-.61-1.64-1.25-3.76-.7-5.65.44-1.52 2-2.93 3.53-2.66-3.41 4.71-1.61 11.53-.57 14.46z"/><path d="m155.83 103.95a7 7 0 0 1 -3.42 2.22.71.71 0 0 0 -.41.42 8.39 8.39 0 0 0 -2.51-1.4c-4.44-1.59-11-.38-17.15 3.15a9.62 9.62 0 0 0 -1 .67 8.67 8.67 0 0 1 3.69-3.42 25.25 25.25 0 0 1 6.75-2l12-2.35a3.14 3.14 0 0 1 1.56-.07 1.24 1.24 0 0 1 .74.81 2.37 2.37 0 0 1 -.25 1.97z"/><path d="m141.72 114.41a13.75 13.75 0 0 1 -6 2.86h-.15a.75.75 0 0 1 -.14-1.49 12.12 12.12 0 0 0 5.36-2.55.75.75 0 0 1 1 1.16z"/><path d="m152.48 113.59a.75.75 0 0 1 -.92.53 5.41 5.41 0 0 0 -4.4.81.76.76 0 0 1 -.43.14.75.75 0 0 1 -.43-1.36 6.88 6.88 0 0 1 5.64-1 .76.76 0 0 1 .54.88z"/><ellipse cx="150.76" cy="118.36" rx="1.5" ry="2.63"/><path d="m141 120.23c0 1.45-.67 2.63-1.5 2.63s-1.5-1.18-1.5-2.63.67-2.62 1.5-2.62 1.5 1.18 1.5 2.62z"/><path d="m146 129.88a10.81 10.81 0 0 0 -6.7-1.25.69.69 0 0 0 -.36-.25.76.76 0 0 0 -.92.52l-.24 1.5a.77.77 0 0 0 .52.92.76.76 0 0 0 .92-.52l.11-.67a9.32 9.32 0 0 1 5.95 1.05.77.77 0 0 0 .36.09.75.75 0 0 0 .36-1.4z"/><path d="m217.59 292.29c-1.3-2.17-12.21-4.29-16.52-5 .48-5.49 3.71-41.9 3.94-45.58.15-2.49-8.4-13.86-25.3-35.36-5-6.35-9.31-11.84-9.78-12.77l-.07-.16c-1.28-3.47-1.42-31.19-.14-35 .2-.6.87-2.1 1.79-4.19 4.94-11.23 16.49-37.39 14.49-52.23-3.09-22.8-24.51-51.69-26.72-54.62l-.18-.24a.75.75 0 0 0 -1.1-.14.73.73 0 0 0 -.27.42v.31a.72.72 0 0 0 .15.32s.27.35.69.93c1 1.35 3 4.08 5.43 7.76l.71 1.06c7.17 10.92 17.7 29.09 19.77 44.39 2 14.41-9.92 41.25-14.39 51.35-1 2.2-1.61 3.65-1.83 4.31-1.14 3.4-1.34 29.58 0 35.45a4.23 4.23 0 0 0 .28.87 5.28 5.28 0 0 0 .31.52c1.07 1.62 4.35 5.8 9.63 12.52 8.75 11.13 25 31.84 25 34.33-.24 3.76-3.61 41.86-4 45.89v.34a.76.76 0 0 0 .62.81h.23c6.8 1.18 14.35 3 15.74 4.21-3.94 1.55-34.93 1.49-38.15-.12a45 45 0 0 1 .58-5.1c.07-.48.15-1 .22-1.48.29-1.88.61-4 .94-6 2.87-18.19 5.06-33.49 2.92-36.46-3.25-4.49-30.18-32.16-31.32-33.33a.75.75 0 0 0 -1 0c-5.56 4.8-33.27 29-32.76 34.14.21 2.06 2.14 9.6 4.38 18.32 1.84 7.18 4.32 16.82 5.62 22.87.11.5.21 1 .3 1.43a18.19 18.19 0 0 1 .57 4.12c-2.84 1.88-33.29 2.9-36.53 1.28 1.19-1.37 10.31-3.46 18.76-4.74l.75-.11a.75.75 0 0 0 .55-.38.73.73 0 0 0 0-.66c-5.1-11.37-17.52-42.27-13.78-48.56 3.86-6.5 19.23-27 25-34.75 1.49-2 2.11-2.82 2.2-3v-.07a6 6 0 0 0 .21-1.49c.47-6.31 0-29.59-1.62-40.72a.77.77 0 0 0 -.3-.5c-27.24-19.63-33.83-63.88-33.52-82.48 0-.58 0-1.14 0-1.67 0-.71.07-1.38.12-2 1.19-13.33 3.29-16.7 4.45-17.53a1.07 1.07 0 0 1 .83-.23c.62 1.06-.37 7.69-1.71 13.37a.75.75 0 0 0 1.46.35c1.25-5 3-10.72 4-12.38a2.09 2.09 0 0 1 .22-.33.51.51 0 0 1 .12.13 2.27 2.27 0 0 1 .3 1c.32 2.39-.82 7.55-1.85 11-.07.25-.14.47-.2.67a.75.75 0 0 0 1.44.43c.05-.16.11-.39.2-.66 1.3-4.27 3.06-8.77 4.17-10.4a2 2 0 0 1 .5-.56 1 1 0 0 1 .09.39 19.78 19.78 0 0 1 -.73 4.75c-.07.24-.12.47-.18.71-.18.72-.35 1.39-.5 2a46.49 46.49 0 0 0 -1.27 5.74c0 .38-.1.75-.16 1.12a22.67 22.67 0 0 0 -.3 3 14.21 14.21 0 0 0 0 1.6c.16 4.46 1.65 12.49 7.48 31.39 8.35 27.11 23.7 30.11 27.23 30.43a6.68 6.68 0 0 0 .71 0 .76.76 0 0 0 .75-.75.28.28 0 0 0 0-.09c-.3-.21-.58-.43-.87-.67a14.11 14.11 0 0 1 -2.84-.51 24.59 24.59 0 0 1 -9.08-4.87q-.27-.21-.54-.45c-4.85-4.18-10.13-11.34-13.91-23.61-8.36-27.11-7.68-31.64-7.14-35.28.06-.39.12-.77.16-1.16a49.91 49.91 0 0 1 1.24-5.55c.16-.61.31-1.19.44-1.74s.25-1 .36-1.48c.57-2.46.84-4.28.5-5.38a1.53 1.53 0 0 0 -.93-1.06h-.09a1.26 1.26 0 0 0 -1 .1 2.25 2.25 0 0 0 -.66.54 7.46 7.46 0 0 0 -1 1.41c-.19.31-.37.65-.55 1 0-.4 0-.79 0-1.16a7.62 7.62 0 0 0 -.19-1.75 3 3 0 0 0 -.4-1 2 2 0 0 0 -.7-.65 1.87 1.87 0 0 0 -.67-.2.92.92 0 0 0 -.84.31 7.72 7.72 0 0 0 -1.45 2.48c.06-2.24-.34-3.48-1.19-3.69a2.32 2.32 0 0 0 -1.14 0 2.88 2.88 0 0 0 -1 .45 4.11 4.11 0 0 0 -.51.45c-2.15 2.21-3.67 8.32-4.51 18.18-1.34 15.81 4.17 65.81 33.81 87.34 1.91 13.3 1.91 38.89 1.52 41-.23.32-1.07 1.44-2.1 2.82-5.8 7.74-21.21 28.31-25.12 34.89-4.54 7.66 10.55 42.76 13.31 49-9.45 1.43-20.16 3.66-19.91 6.42.08.87 1.08 1.22 1.94 1.42 6.19 1.48 36 .3 37.45-2.09.78-1.25-1-8.85-6.31-29.63-2.13-8.31-4.14-16.15-4.33-18.09-.33-3.32 19-21.43 31.71-32.4 3.76 3.87 27.74 28.58 30.68 32.66 2 2.71-1.26 23.14-3.18 35.35-1.5 9.53-2 12.67-1.66 13.47.68 1.83 13.93 2.08 21.29 2.08h4.8c14.47-.26 14.86-1.43 15.07-2.06a1.25 1.25 0 0 0 -.13-1.08z"/><path d="m169.55 194.38c-.22.11-.43.23-.65.33a65.22 65.22 0 0 1 -29.57 7 63.1 63.1 0 0 1 -13.92-1.53l-.27-.06a.75.75 0 1 1 .33-1.46h.15a63.79 63.79 0 0 0 42.69-5.4c.18-.08.36-.18.54-.27a.75.75 0 0 1 1 .32.75.75 0 0 1 -.3 1.07z"/><path d="m206.76 194.11a.75.75 0 0 1 -.75-.75v-.25a.75.75 0 0 1 1.5 0v.25a.75.75 0 0 1 -.75.75z"/><path d="m128.38 291.17c-2.84 1.88-33.29 2.9-36.53 1.28 1.19-1.37 10.31-3.46 18.76-4.74a.66.66 0 0 0 .19.09 26.66 26.66 0 0 0 7.37 1 26.93 26.93 0 0 0 9.6-1.76 18.19 18.19 0 0 1 .61 4.13z"/><path d="m127.81 287a26.93 26.93 0 0 1 -9.6 1.76 26.66 26.66 0 0 1 -7.37-1 .66.66 0 0 1 -.19-.09.73.73 0 0 1 -.31-.83.74.74 0 0 1 .92-.52l.72.19a25.68 25.68 0 0 0 15.31-.89.8.8 0 0 1 .26 0 .75.75 0 0 1 .3 1.43z"/></g><path d="m203.51 241.56c-.24 3.76-3.61 41.86-4 45.89a62.1 62.1 0 0 1 -20.78-1.3c.29-1.88.61-4 .94-6 2.87-18.19 5.06-33.49 2.92-36.46-3.25-4.49-30.18-32.16-31.32-33.33a.75.75 0 0 0 -1 0c-5.56 4.8-33.27 29-32.76 34.14.21 2.06 2.14 9.6 4.38 18.32 1.84 7.18 4.32 16.82 5.62 22.87a.8.8 0 0 0 -.26 0 25.68 25.68 0 0 1 -15.31.89c-5.1-11.37-17.52-42.27-13.78-48.56 3.86-6.5 19.23-27 25-34.75 1.49-2 2.11-2.82 2.2-3v-.07a63.1 63.1 0 0 0 13.92 1.53 65.22 65.22 0 0 0 29.57-7c1.07 1.62 4.35 5.8 9.63 12.52 8.8 11.11 25.09 31.82 25.03 34.31z" fill="#edd092"/><path d="m216.11 292.85c-3.94 1.55-34.93 1.49-38.15-.12a45 45 0 0 1 .58-5.1 63.49 63.49 0 0 0 21.31 1.3.7.7 0 0 0 .51-.29c6.81 1.18 14.36 3.04 15.75 4.21z" fill="#231f20"/><path d="m200.51 288.11a.74.74 0 0 1 -.14.53.7.7 0 0 1 -.51.29 63.49 63.49 0 0 1 -21.31-1.3h-.2a.74.74 0 0 1 -.56-.9.75.75 0 0 1 .9-.56h.08a62.1 62.1 0 0 0 20.78 1.3h.15a.75.75 0 0 1 .81.64z" fill="#231f20"/><path d="m143.26 22.17v.32l-3.31 40-.16 1.93a.85.85 0 0 1 0 .17.73.73 0 0 1 -.7.51l-34.28-2.45h-.72a.75.75 0 0 1 -.67-.54.57.57 0 0 1 0-.26.66.66 0 0 1 .21-.45.76.76 0 0 1 .59-.24l1 .07 33.28 2.38 3.38-40.77-45.41-3.92-1.67 33.21v.85a.75.75 0 0 1 -1.49 0 .57.57 0 0 1 0-.13l1.69-34.74a.72.72 0 0 1 .18-.48.34.34 0 0 1 .08-.09h.06a.84.84 0 0 1 .44-.1l2 .17 44.41 3.8h.3a.76.76 0 0 1 .79.76z" fill="#231f20"/><path d="m160.51 7.88-1.23 39.51v.74a.79.79 0 0 1 -.27.56l-.38.31-9.95 8.22-1.1.91-7.74 6.39-.1.07a.81.81 0 0 1 -.37.09.72.72 0 0 1 -.57-.27.75.75 0 0 1 .1-1.06l1-.87 17.85-14.74v-.31l1.25-37.94-15.73 13-.24.2a.75.75 0 1 1 -1-1.16l.24-.2 15.53-12.83 1.48-1.22.21-.13a.8.8 0 0 1 .59 0 .75.75 0 0 1 .43.73z" fill="#231f20"/><path d="m160 7.92a.76.76 0 0 1 -.81.69l-1.4-.11-42.57-3.37-17.36 12.4-1.66 1.19a.74.74 0 0 1 -.44.14.77.77 0 0 1 -.61-.31.79.79 0 0 1 -.14-.44.72.72 0 0 1 .18-.48.35.35 0 0 1 .12-.12h.06l19.2-13.76a.81.81 0 0 1 .5-.14l44.25 3.5h.17a.75.75 0 0 1 .51.81z" fill="#231f20"/><path d="m161.85 131.29a.85.85 0 0 1 -.09.14.74.74 0 0 1 -.62.34.76.76 0 0 1 -.41-.13.75.75 0 0 1 -.21-1s.47-.72 1.14-1.94c2.38-4.27 7.45-15 5.94-26.12-2-14.42-19.8-44-20-44.29a.34.34 0 0 1 -.06-.12.75.75 0 0 1 .31-.91.77.77 0 0 1 .79 0 .82.82 0 0 1 .24.25c.19.31 1.42 2.34 3.19 5.46.26.45.53.92.8 1.42 5.48 9.74 14.77 27.48 16.2 38 1.93 14.16-6.15 27.27-7.22 28.9z" fill="#231f20"/><path d="m101.47 75.27-.41.17a13.68 13.68 0 0 1 -11-.44c-.22-.11-.44-.22-.65-.34a.75.75 0 0 1 .7-1.33 12.12 12.12 0 0 0 10.68.54.78.78 0 0 1 1 .39.76.76 0 0 1 -.32 1.01z" fill="#231f20"/><path d="m164 56.76a.7.7 0 0 0 -.56.28 14.91 14.91 0 0 1 -11.17 5.84.54.54 0 0 0 -.22.05c-1.77-3.12-3-5.15-3.19-5.46a.82.82 0 0 0 -.24-.25l9.99-8.22c1 1.35 2.98 4.08 5.39 7.76z" fill="#ffeff0"/><path d="m168.3 157.87c-1.14 3.4-1.34 29.58 0 35.45a63.79 63.79 0 0 1 -42.69 5.4c.47-6.31 0-29.59-1.62-40.72a.77.77 0 0 0 -.3-.5c-27.32-19.65-33.91-63.9-33.6-82.5a13.68 13.68 0 0 0 11 .44c.16 4.46 1.65 12.49 7.48 31.39 8.35 27.17 23.7 30.17 27.23 30.49a11.8 11.8 0 0 0 7 2.79h.14c4.93-.09 18.18-4.15 19-8.81 1.07-1.63 9.16-14.74 7.24-29-1.43-10.51-10.72-28.25-16.2-38a16.49 16.49 0 0 0 11.79-6.4.33.33 0 0 0 .07-.13c7.17 10.92 17.7 29.09 19.77 44.39 2 14.41-9.92 41.25-14.39 51.35-1.06 2.25-1.7 3.7-1.92 4.36z" fill="#ca7375"/><path d="m164.75 57.82a.33.33 0 0 1 -.07.13 16.49 16.49 0 0 1 -11.79 6.4h-.51a.75.75 0 0 1 -.25-1.45.54.54 0 0 1 .22-.05 14.91 14.91 0 0 0 11.13-5.85.7.7 0 0 1 .56-.28.69.69 0 0 1 .49.14.74.74 0 0 1 .22.96z" fill="#231f20"/><path d="m129.74 10.74a9.91 9.91 0 0 0 -3.68-.87 10.13 10.13 0 0 0 -3.77.4c-1.68.57-2 1.49-2 2s.16 1.44 1.76 2.22a9.91 9.91 0 0 0 3.68.87q.39 0 .78 0a8.89 8.89 0 0 0 3.41-.59 2.26 2.26 0 0 0 1.58-1.77c.03-.53-.16-1.48-1.76-2.26zm.26 2.13c0 .36-1.52 1.16-4.19 1a8.85 8.85 0 0 1 -3.13-.73c-.7-.34-.92-.67-.91-.78s.26-.41 1-.66a8.11 8.11 0 0 1 2.5-.35h.69a8.84 8.84 0 0 1 3.13.73c.68.33.91.66.91.77z" fill="#231f20"/><path d="m115.22 5.13-17.36 12.4 44.41 3.8 15.53-12.83zm14.68 9.66a8.89 8.89 0 0 1 -3.41.59q-.39 0-.78 0a9.91 9.91 0 0 1 -3.68-.87c-1.6-.78-1.79-1.73-1.76-2.22s.34-1.42 2-2a10.13 10.13 0 0 1 3.77-.4 9.91 9.91 0 0 1 3.68.87c1.6.78 1.79 1.73 1.76 2.22a2.26 2.26 0 0 1 -1.58 1.81z" fill="#edd092"/><g fill="#231f20"><path d="m153.78 25.16a3.49 3.49 0 0 1 -.78 2.1 1.89 1.89 0 0 1 -1.48.72c-1.16-.06-2-1.42-2-3a3.49 3.49 0 0 1 .79-2.1 1.86 1.86 0 0 1 1.39-.71h.08a1.86 1.86 0 0 1 1.4.85 3.51 3.51 0 0 1 .6 2.14z"/><path d="m130 12.86c0 .36-1.52 1.16-4.19 1a8.85 8.85 0 0 1 -3.13-.73c-.7-.34-.92-.67-.91-.78s.26-.41 1-.66a8.11 8.11 0 0 1 2.5-.35h.69a8.84 8.84 0 0 1 3.13.73c.68.35.91.68.91.79z"/><path d="m105.51 26.36a4.25 4.25 0 1 0 4.25 4.25 4.26 4.26 0 0 0 -4.25-4.25zm0 7a2.75 2.75 0 1 1 2.75-2.75 2.75 2.75 0 0 1 -2.75 2.75z"/><circle cx="105.51" cy="30.61" r="2.75"/><path d="m129 28.36a4.25 4.25 0 1 0 4.25 4.25 4.26 4.26 0 0 0 -4.25-4.25zm0 7a2.75 2.75 0 1 1 2.75-2.75 2.75 2.75 0 0 1 -2.75 2.75z"/><circle cx="129.01" cy="32.61" r="2.75"/><path d="m154.43 22.13a3.2 3.2 0 0 0 -5.23-.26 5 5 0 0 0 -1.15 3c-.12 2.44 1.41 4.5 3.4 4.6h.15a3.33 3.33 0 0 0 2.53-1.24 5.17 5.17 0 0 0 .3-6.11zm-1.43 5.13a1.89 1.89 0 0 1 -1.48.72c-1.16-.06-2-1.42-2-3a3.49 3.49 0 0 1 .79-2.1 1.86 1.86 0 0 1 1.39-.71h.08a1.86 1.86 0 0 1 1.4.85 3.72 3.72 0 0 1 -.21 4.27z"/><path d="m154 32.93a3.2 3.2 0 0 0 -5.24-.25 5.21 5.21 0 0 0 -.3 6.11 3.33 3.33 0 0 0 2.54 1.49h.15a3.33 3.33 0 0 0 2.58-1.28 5.21 5.21 0 0 0 .3-6.11zm-1.44 5.13a1.7 1.7 0 0 1 -2.87-.14 3.66 3.66 0 0 1 .21-4.26 1.86 1.86 0 0 1 1.4-.72h.07a1.86 1.86 0 0 1 1.4.86 3.66 3.66 0 0 1 -.21 4.26z"/><path d="m153.38 36a3.44 3.44 0 0 1 -.79 2.1 1.7 1.7 0 0 1 -2.87-.14 3.66 3.66 0 0 1 .21-4.26 1.86 1.86 0 0 1 1.4-.72h.07a1.86 1.86 0 0 1 1.4.86 3.46 3.46 0 0 1 .58 2.16z"/><path d="m151.07 42.24a3.31 3.31 0 0 0 -2.68 1.24 5.17 5.17 0 0 0 -.3 6.11 3.32 3.32 0 0 0 2.55 1.49h.15a3.34 3.34 0 0 0 2.53-1.23 5 5 0 0 0 1.15-3c.12-2.45-1.41-4.51-3.4-4.61zm1.11 6.63a1.71 1.71 0 0 1 -2.87-.14 3.72 3.72 0 0 1 .21-4.27 1.88 1.88 0 0 1 1.4-.72h.08c1.16.06 2 1.42 2 3a3.49 3.49 0 0 1 -.82 2.13z"/></g><path d="m143.23 22.49-3.31 40 17.85-14.74a.7.7 0 0 1 0-.29l1.23-37.97zm10.09 27.36a3.34 3.34 0 0 1 -2.53 1.23h-.15a3.32 3.32 0 0 1 -2.55-1.49 5.17 5.17 0 0 1 .3-6.11 3.31 3.31 0 0 1 2.68-1.24c2 .1 3.52 2.16 3.4 4.6a5 5 0 0 1 -1.15 3.01zm.41-10.85a3.33 3.33 0 0 1 -2.54 1.24h-.19a3.33 3.33 0 0 1 -2.55-1.49 5.21 5.21 0 0 1 .3-6.11 3.2 3.2 0 0 1 5.24.25 5.21 5.21 0 0 1 -.3 6.11zm.4-10.8a3.33 3.33 0 0 1 -2.53 1.24h-.15c-2-.1-3.52-2.16-3.4-4.6a5 5 0 0 1 1.15-3 3.2 3.2 0 0 1 5.23.26 5.17 5.17 0 0 1 -.3 6.11z" fill="#edd092"/><path d="m153 46.77a3.49 3.49 0 0 1 -.79 2.1 1.71 1.71 0 0 1 -2.87-.14 3.72 3.72 0 0 1 .21-4.27 1.88 1.88 0 0 1 1.4-.72h.05c1.16.06 2 1.42 2 3.03z" fill="#231f20"/><path d="m130.21 51.56a4.25 4.25 0 0 0 -2.91-1.44h-.3a4.25 4.25 0 0 0 -.28 8.49h.3a4.25 4.25 0 0 0 3.19-7zm-1.39 4.87a2.75 2.75 0 1 1 .26-3.88 2.73 2.73 0 0 1 -.26 3.88z" fill="#231f20"/><path d="m128.82 56.43a2.75 2.75 0 1 1 .26-3.88 2.73 2.73 0 0 1 -.26 3.88z" fill="#231f20"/><path d="m102.76 48.36a4.26 4.26 0 0 0 -4.25 4.25 3.54 3.54 0 0 0 .07.73 4 4 0 0 0 .62 1.57 3.41 3.41 0 0 0 .64.77 4 4 0 0 0 1.54.94 3.8 3.8 0 0 0 .51.15 4.14 4.14 0 0 0 .87.09 3.86 3.86 0 0 0 .84-.09 2.86 2.86 0 0 0 .59-.17 3.89 3.89 0 0 0 1.34-.8 4.17 4.17 0 0 0 1.47-3.19 4.26 4.26 0 0 0 -4.24-4.25zm.12 7h-.12a2.73 2.73 0 0 1 -1.57-.49 2.7 2.7 0 0 1 -1.1-1.64 2.15 2.15 0 0 1 -.08-.62 2.75 2.75 0 1 1 5.5 0 2.71 2.71 0 0 1 -1 2.11 2.8 2.8 0 0 1 -1.63.64z" fill="#231f20"/><path d="m103.47 61.35a.66.66 0 0 0 -.21.45.57.57 0 0 0 0 .26c-.18.72-.35 1.39-.5 2a46.49 46.49 0 0 0 -1.27 5.74c0 .38-.1.75-.16 1.12a22.67 22.67 0 0 0 -.3 3 .74.74 0 0 0 -.2 0 12.12 12.12 0 0 1 -10.68-.54c0-.71.07-1.38.12-2 1.13-13.38 3.23-16.75 4.39-17.58a1.07 1.07 0 0 1 .83-.23c.62 1.06-.37 7.69-1.71 13.37a.75.75 0 0 0 1.46.35c1.25-5 3-10.72 4-12.38a3.41 3.41 0 0 0 .64.77c.32 2.39-.82 7.55-1.85 11-.07.25-.14.47-.2.67a.75.75 0 0 0 1.44.43c.05-.16.11-.39.2-.66 1.3-4.27 3.06-8.77 4.17-10.4a2.86 2.86 0 0 0 .59-.17 19.78 19.78 0 0 1 -.76 4.8z" fill="#ffeff0"/><path d="m96.47 18.92-1.67 33.21a2.32 2.32 0 0 1 1.14 0c.85.21 1.25 1.45 1.19 3.69a7.72 7.72 0 0 1 1.45-2.48 3.54 3.54 0 0 1 -.07-.73 4.25 4.25 0 0 1 8.5 0 4.17 4.17 0 0 1 -1.47 3.19c.34 1.1.07 2.92-.5 5.38l33.28 2.38 3.38-40.77zm9 15.94a4.25 4.25 0 1 1 4.25-4.25 4.26 4.26 0 0 1 -4.21 4.25zm24.3 22.7a4.24 4.24 0 0 1 -2.79 1h-.3a4.25 4.25 0 0 1 .28-8.49h.3a4.25 4.25 0 0 1 2.51 7.44zm-.8-20.7a4.25 4.25 0 1 1 4.25-4.25 4.26 4.26 0 0 1 -4.22 4.25z" fill="#edd092"/><path d="m105.51 52.61a2.71 2.71 0 0 1 -1 2.11 1.26 1.26 0 0 0 -1 .1 2.25 2.25 0 0 0 -.66.54h-.12a2.73 2.73 0 0 1 -1.57-.49 3 3 0 0 0 -.4-1 2 2 0 0 0 -.7-.65 2.15 2.15 0 0 1 -.08-.62 2.75 2.75 0 1 1 5.5 0z" fill="#231f20"/><path d="m130.82 165.62-.72 20c0 1 1.47 1 1.5 0l.72-20c.03-.96-1.47-.96-1.5 0z" fill="#231f20"/><path d="m129.9 214.32c.65-.71-.41-1.77-1.06-1.06l-15 16.25c-3.33 3.61-8 7.3-8.44 12.53-.52 5.78 2.74 11.88 4.6 17.2l7.08 20.32c.32.91 1.77.52 1.45-.4l-5.9-16.93c-1.87-5.37-4.47-10.95-5.49-16.56-1.34-7.44 5.22-12.33 9.76-17.26z" fill="#231f20"/><path d="m192.77 260.31q.07-5.16.34-10.32c.11-2.07 1.14-5.78.42-7.65s-3.74-3.82-5.16-5.26q-3.47-3.54-6.85-7.17-6.76-7.26-13.15-14.84c-.62-.74-1.68.33-1.06 1.06q5.94 7 12.18 13.81 2.89 3.12 5.84 6.18c1.94 2 5.36 4.43 6.31 7s-.05 7-.17 9.8-.19 5.9-.22 8.84c-.05 6.39.14 12.78.52 19.16.06 1 1.56 1 1.5 0-.41-6.85-.59-13.73-.5-20.61z" fill="#231f20"/><path d="m137.12 172.07-1.33 9.33c-.13.94 1.31 1.35 1.45.4l1.33-9.33c.13-.94-1.31-1.35-1.45-.4z" fill="#231f20"/><path d="m175.41 98a73.28 73.28 0 0 0 -9.06-22.72.75.75 0 0 0 -1.3.76 72.09 72.09 0 0 1 8.95 22.4c.17.94 1.61.56 1.41-.44z" fill="#231f20"/><g fill="#fff"><path d="m107.16 109.89a46.53 46.53 0 0 1 -4.56-17c-.07-1-1.57-1-1.5 0a48.7 48.7 0 0 0 4.77 17.71c.41.92 1.71.16 1.29-.71z"/><path d="m99.23 106.07-2.67-7.33c-.33-.9-1.78-.51-1.45.4l2.67 7.33c.33.9 1.78.53 1.45-.4z"/><path d="m137 32.93-1.42 16.66c-.08 1 1.42 1 1.5 0l1.42-16.66c.05-.93-1.45-.93-1.5 0z"/><path d="m133.79 37.41-.67 4.67c-.13.94 1.31 1.35 1.45.4l.67-4.67c.13-.95-1.32-1.36-1.45-.4z"/><path d="m140.51 14.86-6.67-.67c-1-.1-1 1.4 0 1.5l6.67.67c.96.09.95-1.36 0-1.5z"/><path d="m182.47 213.91a25.71 25.71 0 0 0 -10.2-10.36c-.84-.47-1.6.82-.76 1.3a24.25 24.25 0 0 1 9.66 9.82c.46.84 1.75.09 1.3-.76z"/><path d="m119.21 269.41-2.67-12c-.21-.94-1.66-.54-1.45.4l2.67 12c.24.94 1.66.54 1.45-.4z"/><path d="m177.12 124.07-4.67 13.33c-.32.91 1.13 1.31 1.45.4l4.67-13.33c.32-.91-1.13-1.3-1.45-.4z"/></g></svg>