<svg viewBox="0 0 300 300" xmlns="http://www.w3.org/2000/svg"><g fill="#231f20"><path d="m92.48 105.38a43.92 43.92 0 0 1 -6.55 6l-.13.09a.75.75 0 0 1 -.84-1.24h.05c.73-.59 1.38-1.13 2-1.62.26-.21.49-.42.72-.62.38-.32.72-.63 1-.91.68-.63 1.23-1.17 1.66-1.62q.29-.29.48-.51l.06-.07c.19-.22.35-.41.47-.58a2.71 2.71 0 0 0 .17-.23 40.07 40.07 0 0 0 -7.07 5 .75.75 0 0 1 -.82.1.74.74 0 0 1 -.42-.71 19.93 19.93 0 0 0 -.15-4.34 24.69 24.69 0 0 0 -1.53 5.35.75.75 0 0 1 -.69.61l-3.65.2-1.5.07c-8.64.37-24.83.69-27.51-2-3.66-3.66 6.49-14.84 8.56-17a.75.75 0 1 1 1.1 1c-4.74 5-10.54 13-8.6 15s15.65 2 26.45 1.55l1.5-.07 3-.16c.81-4.08 1.78-6.21 2.86-6.36a1.06 1.06 0 0 1 .89.28c.7.64.85 2.59.84 4.32 1-.85 2.35-1.85 3.6-2.69.53-.36 1.06-.68 1.55-.95a4.59 4.59 0 0 1 2.38-.79 1.12 1.12 0 0 1 .81.51c.24.27.56.8-.69 2.39z"/><path d="m95.34 105.59c0 .31 0 .92-3.07 4.2-1.09 1.17-2.58 2.67-4.59 4.63l-.09.09-.08.07-.14.08h-.15-.22a.08.08 0 0 1 -.07 0 .81.81 0 0 1 -.39-.22.74.74 0 0 1 -.08-.94.53.53 0 0 1 .1-.12s0 0 0 0h.06c3.07-3 5.12-5.16 6.22-6.47-1.2.67-3.29 2-6.93 4.51l-.13.09-.08.06a.72.72 0 0 1 -1 0 .79.79 0 0 1 0-1.09.43.43 0 0 1 .1-.09l.09-.06h.05a78.44 78.44 0 0 1 7.43-4.8c2-1.05 2.29-.74 2.6-.43a.87.87 0 0 1 .37.49z"/><path d="m95.79 110.11c-.41 2.28-7.75 8.06-10.56 8.76l-1.38.43c-1.47.48-2.91.92-4.3 1.33-.5.16-1 .3-1.48.44-12.08 3.51-21 4.82-27.56 4.82-1.14 0-2.21 0-3.21-.11l-1.47-.14c-5-.58-8.22-2.08-10.24-3.78-3.5-2.94-4.86-7.45-4-13.4 4.57-32.94 28.65-33.22 33.31-33l1.35-14.88c-1.27 0-3.51-.11-4.73-1.44a3.4 3.4 0 0 1 -.67-3.2 3.56 3.56 0 0 1 1.71-2.57 3.45 3.45 0 0 1 2.56-.19 6.53 6.53 0 0 1 .92.3.68.68 0 0 1 .39.37.61.61 0 0 1 .08.32.43.43 0 0 0 0 .16.56.56 0 0 1 0 .12.76.76 0 0 1 -1 .42h-.07l-.44-.12a2.38 2.38 0 0 0 -1.78 0 2.21 2.21 0 0 0 -.95 1.57 2 2 0 0 0 .32 1.87c1 1.07 3.47 1 4.36.9a.73.73 0 0 1 .61.2.77.77 0 0 1 .23.61l-1.39 15.41-.1 1.07a.77.77 0 0 1 -.19.43l-.11.09a.78.78 0 0 1 -.57.15c-1.13-.14-27.57-3.2-32.41 31.61-.75 5.41.44 9.46 3.52 12 4.48 3.76 15.2 6.43 40.84-1l1.43-.43q2.2-.64 4.56-1.41c.76-.24 1.27-.41 1.48-.46 2.2-.54 7.38-4.68 9-6.74a55.43 55.43 0 0 0 -6.33 3.91l-.14.08h-.15-.16-.07a.08.08 0 0 1 -.07 0 .73.73 0 0 1 -.62-.73.66.66 0 0 1 .15-.43.53.53 0 0 1 .1-.12s0 0 0 0h.06a50.2 50.2 0 0 1 5.59-3.54c1.41-.72 2.56-1.09 3.09-.75a1 1 0 0 1 .49 1.07z"/><path d="m94.62 66.24a.74.74 0 0 1 -.56.63h-.18-.1a.76.76 0 0 1 -.65-.71.57.57 0 0 1 0-.13c.54-3.92 1.57-14.76-.24-17.85-2-3.4-13.16-4.71-19-3a.91.91 0 0 0 -.21.08 3.2 3.2 0 0 0 -.7.28l-.3.15a.77.77 0 0 1 -.59.06.65.65 0 0 1 -.31-.18.61.61 0 0 1 -.12-.16.74.74 0 0 1 .28-1 5.09 5.09 0 0 1 .46-.24 6.36 6.36 0 0 1 1.07-.41c5.37-1.59 15.77-.94 19.66 2.46a4.64 4.64 0 0 1 1 1.21l.06.11c2.41 4.3.52 18.11.43 18.7z"/><path d="m87.81 58c-.05-1.09-.11-2.44-.06-2.78a.75.75 0 0 0 -1.32-.7c-.25.36-.24.87-.12 3.55.08 1.68.23 5.1-.05 5.91a5.43 5.43 0 0 1 -2.36-.1.74.74 0 0 0 -.91.54.75.75 0 0 0 .55.91 8.49 8.49 0 0 0 1.93.24 3.54 3.54 0 0 0 1.58-.3c.95-.42.95-2.09.76-7.27z"/><path d="m81.68 64.68a1.53 1.53 0 0 0 -1.43-.68c-.93.09-1.82.92-2.45 2.28a3.48 3.48 0 0 0 -.13 3.38 1.53 1.53 0 0 0 1.27.66h.16c.93-.09 1.82-.92 2.45-2.28s.67-2.59.13-3.36zm-1.5 2.76c-.48 1-1 1.38-1.27 1.38-.13-.17-.23-.79.27-1.89s1-1.38 1.27-1.38a.78.78 0 0 1 .11.47 3.51 3.51 0 0 1 -.38 1.42z"/><path d="m72.13 45.82a22 22 0 0 1 -2.32 6.82 5.35 5.35 0 0 1 -1.2 1.62 4.18 4.18 0 0 1 -2.1-.33c.44-4 2.64-8 4.28-8.59a.89.89 0 0 1 1 .25h.05a.76.76 0 0 0 .29.23z"/><path d="m73.72 45.28a.76.76 0 0 1 0 .15 23.33 23.33 0 0 1 -2.58 7.92 6.56 6.56 0 0 1 -1.6 2.09 2 2 0 0 1 -1.28.36 7.61 7.61 0 0 1 -2.46-.54h-.07a.64.64 0 0 1 -.33-.34.69.69 0 0 1 0-.58.74.74 0 0 1 1-.44h.09.11a4.18 4.18 0 0 0 2.1.33 5.35 5.35 0 0 0 1.2-1.62 22 22 0 0 0 2.32-6.82s0 0 0-.05a5.24 5.24 0 0 0 .09-.55.76.76 0 0 1 .7-.65h.15a.77.77 0 0 1 .56.74z"/><path d="m73 45.56a.31.31 0 0 1 -.09.11.75.75 0 0 1 -.8.15.76.76 0 0 1 -.26-.18h-.05a.89.89 0 0 0 -1-.25c-1.64.59-3.84 4.57-4.28 8.59a1.33 1.33 0 0 0 0 .28.43.43 0 0 0 0 .16.77.77 0 0 0 0 .15.74.74 0 0 1 -.73.7h-.06a.76.76 0 0 1 -.65-.47.72.72 0 0 1 -.05-.33c0-.39.07-.79.13-1.2.58-3.92 2.74-8.41 5.2-9.29l.22-.07a2.28 2.28 0 0 1 1.72.19l.21.12a2.55 2.55 0 0 1 .48.4.73.73 0 0 1 .01.94z"/><path d="m98.32 42.14a5.62 5.62 0 0 1 -4.06 5.4l-.06-.11a4.64 4.64 0 0 0 -1-1.21c-3.89-3.4-14.29-4-19.66-2.46a6.36 6.36 0 0 0 -1.07.41l-.24-.17a2.28 2.28 0 0 0 -1.72-.19.81.81 0 0 1 .16-.32c3.57-4.2 9.75-4.22 13.11-3.86 1.56.17 3.12.45 4.64.71a34.39 34.39 0 0 0 8.61.8 1 1 0 0 1 .77.26.75.75 0 0 1 .52.74z"/><path d="m72.23 44-.42.46a.75.75 0 0 1 -1.3-.65 2.28 2.28 0 0 1 1.72.19z"/><path d="m94.26 47.54a4.75 4.75 0 0 1 -1 .17.75.75 0 0 1 0-1.49 4.64 4.64 0 0 1 1 1.21z"/><path d="m83.15 50.56-5.81 2.7a.74.74 0 0 1 -.32.07.75.75 0 0 1 -.32-1.43l5.82-2.7a.75.75 0 1 1 .63 1.36z"/><path d="m92.25 53.17a.76.76 0 0 1 -.51.2.78.78 0 0 1 -.55-.23l-2.51-2.66a.75.75 0 1 1 1.09-1l2.51 2.66a.75.75 0 0 1 -.03 1.03z"/><path d="m82.88 56.23c0 1.24-.44 2.25-1 2.25s-1-1-1-2.25.45-2.25 1-2.25 1 1.02 1 2.25z"/><ellipse cx="90.55" cy="56.56" rx="1" ry="2.25"/><path d="m83.33 75.07a.75.75 0 0 1 -.72.78h-.71c-.56 0-1.14 0-1.73 0a18.9 18.9 0 0 1 -4.17-.32 11.64 11.64 0 0 1 -1.72-.5h-.13c-2.54-1-5.07-3.44-5.1-6.6a.76.76 0 0 1 .75-.76.75.75 0 0 1 .75.75c0 2.49 2.23 4.47 4.27 5.26a8.36 8.36 0 0 0 .93.3 5.45 5.45 0 0 0 .58.14 23.1 23.1 0 0 0 6 .3h.23a.75.75 0 0 1 .77.65z"/><path d="m104.17 85.7c-1.07-7-11.3-8.92-11.73-9a.74.74 0 0 0 -.39 0c.13-.46.26-1 .41-1.46 1.41-5.1 1.94-7.39 1.6-8.4a.94.94 0 0 0 -.65-.65.87.87 0 0 0 -.28 0 1.19 1.19 0 0 0 -.51.12 6.36 6.36 0 0 0 -1.77 2.69 4.19 4.19 0 0 0 -.42-2.56 1 1 0 0 0 -.83-.33c-.33 0-1.2.12-3.06 4.76-.07-2.62-.73-2.7-1.15-2.75s-1.27-.17-3.07 6.3c-.14.47-.27 1-.42 1.51-.39 1.48-.83 3.25-1.32 5.34-.27.87-4.65 15.46-4.8 27.61q0 .75 0 1.5a25.51 25.51 0 0 0 1.62 9.38 11.47 11.47 0 0 0 .67 1.36 10.79 10.79 0 0 0 .68 1 8 8 0 0 0 6.7 3.21h.24a12.69 12.69 0 0 0 7.09-2.33 14.68 14.68 0 0 0 1.77-1.44 17.81 17.81 0 0 0 1.39-1.47c8.32-9.87 8.77-30.86 8.23-34.39zm-9.38 33.46a12 12 0 0 1 -9.13 4.65 6.47 6.47 0 0 1 -5.72-2.62c-.14-.18-.27-.37-.39-.56a9.62 9.62 0 0 1 -.72-1.35 23.44 23.44 0 0 1 -1.55-9q0-.75 0-1.5c.17-9.44 2.95-20.62 4.18-25.12.17-.64.31-1.15.41-1.49.1-.32.15-.5.16-.53 1-4.14 2.19-8.62 3-10.84a45.4 45.4 0 0 1 -.35 5.33.75.75 0 0 0 .58.82.76.76 0 0 0 .88-.5 56.63 56.63 0 0 1 3.25-8.21 48.37 48.37 0 0 1 -1 7.33.75.75 0 0 0 1.45.37 60.13 60.13 0 0 1 2.61-7c-.33 1.7-1 4.28-1.49 5.91-.19.7-.38 1.37-.54 2a18.53 18.53 0 0 0 -.54 2.38c0 .38-.12 1.38-.21 2.79 0 .49-.07 1-.1 1.62-.41 6.58-1.05 18.22-1.17 20.52v.37a.74.74 0 0 0 .7.79.76.76 0 0 0 .79-.71s0-.54.08-1.4c.08-1.49.22-4 .38-6.92 0-1 .11-2 .17-3 .35-6.16.74-12.75.87-13.82a12.7 12.7 0 0 1 .32-1.47.71.71 0 0 0 .42.24c.1 0 9.62 1.86 10.52 7.75.49 2.92.1 23.68-7.86 33.17z"/></g><path d="m94.79 119.16a12 12 0 0 1 -9.13 4.65 6.47 6.47 0 0 1 -5.72-2.62c-.14-.18-.27-.37-.39-.56 1.39-.41 2.83-.85 4.3-1.33l1.38-.43c2.81-.7 10.15-6.48 10.56-8.76a1 1 0 0 0 -.43-1.07c-.53-.34-1.68 0-3.09.75 3.07-3.28 3.07-3.89 3.07-4.2a.87.87 0 0 0 -.26-.64c-.31-.31-.62-.62-2.6.43 1.25-1.59.93-2.12.71-2.47a1.12 1.12 0 0 0 -.81-.51 4.59 4.59 0 0 0 -2.38.79c.08-1.49.22-4 .38-6.92a.72.72 0 0 0 .56-.4l3-6.25a.74.74 0 0 0 -.35-1 .75.75 0 0 0 -1 .35l-2 4.25c.35-6.16.74-12.75.87-13.82a12.7 12.7 0 0 1 .32-1.47.71.71 0 0 0 .42.24c.1 0 9.62 1.86 10.52 7.75.42 2.99.03 23.75-7.93 33.24z" fill="#ca7375"/><path d="m89.62 83.63c-.41 6.58-1.05 18.22-1.17 20.52-1.25.84-2.55 1.84-3.6 2.69 0-1.73-.14-3.68-.84-4.32a1.06 1.06 0 0 0 -.89-.28c-1.08.15-2.05 2.28-2.86 6.36l-3 .16c.17-9.44 2.95-20.62 4.18-25.12a8.78 8.78 0 0 0 8.16 0z" fill="#ca7375"/><path d="m93.84 110.67c-1.59 2.06-6.77 6.2-9 6.74-.21 0-.72.22-1.48.46q-2.36.77-4.56 1.41a23.44 23.44 0 0 1 -1.55-9l3.65-.2a.75.75 0 0 0 .69-.61 24.69 24.69 0 0 1 1.53-5.35 19.93 19.93 0 0 1 .15 4.34.74.74 0 0 0 .42.71.75.75 0 0 0 .82-.1 40.07 40.07 0 0 1 7.07-5c-.6.9-2.42 2.85-6.65 6.22l-.09.06a.43.43 0 0 0 -.1.09.79.79 0 0 0 0 1.09.72.72 0 0 0 1 0l.08-.06.13-.09c3.64-2.54 5.73-3.84 6.93-4.51-1.1 1.31-3.15 3.48-6.22 6.47h-.06s0 0 0 0a.53.53 0 0 0 -.1.12.66.66 0 0 0 -.15.43.73.73 0 0 0 .62.73.08.08 0 0 0 .07 0h.06.16.15a.5.5 0 0 0 .14-.08 55.43 55.43 0 0 1 6.29-3.87z" fill="#ffe3e4"/><path d="m92.5 69c-.33 1.7-1 4.28-1.49 5.91-.19.7-.38 1.37-.54 2a18.53 18.53 0 0 0 -.54 2.38c0 .38-.12 1.38-.21 2.79a.67.67 0 0 0 -.45.1 7.2 7.2 0 0 1 -7.4 0c.1-.32.15-.5.16-.53 1-4.14 2.19-8.62 3-10.84a45.4 45.4 0 0 1 -.35 5.33.75.75 0 0 0 .58.82.76.76 0 0 0 .88-.5 56.63 56.63 0 0 1 3.25-8.21 48.37 48.37 0 0 1 -1 7.33.75.75 0 0 0 1.45.37 60.13 60.13 0 0 1 2.66-6.95z" fill="#ffe3e4"/><path d="m92.9 48.19c-2-3.4-13.16-4.71-19-3a.91.91 0 0 0 -.21.08.76.76 0 0 1 0 .15 23.33 23.33 0 0 1 -2.58 7.92 6.56 6.56 0 0 1 -1.6 2.09 2 2 0 0 1 -1.28.36 7.61 7.61 0 0 1 -2.46-.54h-.07-.06a.76.76 0 0 1 -.65-.47 2.38 2.38 0 0 0 -1.78 0 2.21 2.21 0 0 0 -.95 1.57 2 2 0 0 0 .32 1.87c1 1.07 3.47 1 4.36.9a.73.73 0 0 1 .61.2.77.77 0 0 1 .23.61l-1.38 15.38a8.55 8.55 0 0 0 7.78-.31c-2.54-1-5.07-3.44-5.1-6.6a.76.76 0 0 1 .75-.76.75.75 0 0 1 .75.75c0 2.49 2.23 4.47 4.27 5.26a8.36 8.36 0 0 0 .93.3.72.72 0 0 1 .58.14 23.1 23.1 0 0 0 6 .3c1.8-6.47 2.52-6.38 3.07-6.3s1.08.13 1.15 2.75c1.86-4.64 2.73-4.72 3.06-4.76a1 1 0 0 1 .83.33 4.19 4.19 0 0 1 .38 2.59 6.36 6.36 0 0 1 1.77-2.66 1.19 1.19 0 0 1 .51-.12.57.57 0 0 1 0-.13c.55-3.97 1.58-14.81-.23-17.9zm-16.56 4.71a.76.76 0 0 1 .36-1l5.82-2.7a.75.75 0 1 1 .63 1.36l-5.81 2.7a.74.74 0 0 1 -.32.07.76.76 0 0 1 -.68-.43zm5.21 15.16c-.63 1.36-1.52 2.19-2.45 2.28h-.16a1.53 1.53 0 0 1 -1.27-.66 3.48 3.48 0 0 1 .13-3.38c.63-1.36 1.52-2.19 2.45-2.28a1.53 1.53 0 0 1 1.43.65c.54.78.49 2.01-.13 3.39zm.33-9.58c-.55 0-1-1-1-2.25s.45-2.25 1-2.25 1 1 1 2.25-.44 2.25-1 2.25zm5.17 6.83a3.54 3.54 0 0 1 -1.58.3 8.49 8.49 0 0 1 -1.93-.24.75.75 0 0 1 -.55-.91.74.74 0 0 1 .91-.54 5.43 5.43 0 0 0 2.36.1c.28-.81.13-4.23.05-5.91-.12-2.68-.13-3.19.12-3.55a.75.75 0 0 1 1.32.7c0 .34 0 1.69.06 2.78.19 5.14.19 6.81-.76 7.27zm3.5-6.5c-.55 0-1-1-1-2.25s.45-2.25 1-2.25 1 1 1 2.25-.45 2.25-1 2.25zm1.7-5.64a.76.76 0 0 1 -.51.2.78.78 0 0 1 -.55-.23l-2.51-2.66a.75.75 0 1 1 1.09-1l2.51 2.66a.75.75 0 0 1 -.03 1.03z" fill="#ffe3e4"/><path d="m80.56 66a3.51 3.51 0 0 1 -.38 1.42c-.48 1-1 1.38-1.27 1.38-.13-.17-.23-.79.27-1.89s1-1.38 1.27-1.38a.78.78 0 0 1 .11.47z" fill="#fff"/><path d="m57.93 92.32a.75.75 0 1 0 -1.1-1c-2.07 2.2-12.22 13.38-8.56 17 2.68 2.68 18.87 2.36 27.51 2a25.51 25.51 0 0 0 1.62 9.38c-25.64 7.43-36.36 4.76-40.84 1-3.08-2.59-4.27-6.64-3.52-12 4.84-34.85 31.28-31.79 32.41-31.7a.78.78 0 0 0 .55-.1l.09-.09a9.59 9.59 0 0 0 3.82.77 9.84 9.84 0 0 0 6.1-2 18.9 18.9 0 0 0 4.14.39h1.73c-.39 1.48-.83 3.25-1.32 5.34-.27.87-4.65 15.46-4.8 27.61-10.8.46-24.52.38-26.45-1.55s3.88-10 8.62-15.05z" fill="#ca7375"/><path d="m76.4 75.23a3.46 3.46 0 0 1 -.37.3 9.84 9.84 0 0 1 -6.1 2 9.59 9.59 0 0 1 -3.82-.77 6.16 6.16 0 0 1 -.78-.37.75.75 0 0 1 -.3-1 .74.74 0 0 1 1-.29l.35.18a8.55 8.55 0 0 0 7.8-.28 7.72 7.72 0 0 0 1.24-.88.75.75 0 0 1 .36-.17.72.72 0 0 1 .58.14.52.52 0 0 1 .11.1.74.74 0 0 1 -.07 1.04z" fill="#231f20"/><path d="m73.8 153.37-7.93 96.51-.13 1.55-.39 4.76-.13 1.49-.67 8.19a.76.76 0 0 1 -.67.69c-2.25.23-16 1.58-26.17 1.58-5.32 0-9.66-.37-10.88-1.47a1.45 1.45 0 0 1 -.53-1.11c0-4.12 13.63-6.4 18.91-7.15h.09v-.08l.48-126.54v-6a.47.47 0 0 1 0-.17.73.73 0 0 1 .72-.58.75.75 0 0 1 .75.72v5.33 1.52l-.45 125.86v.59a.75.75 0 0 1 -.65.74h-.06c-8.81 1.2-18.29 3.7-18.29 5.76 1 1.81 19 1.2 35.3-.43l.41-5 .13-1.61.1-1.26.09-1.07 8.47-103a.75.75 0 1 1 1.5.12z" fill="#231f20"/><path d="m94.55 121.59a.34.34 0 0 1 0 .1l-1.6 9-21 118.44c4.58.41 18.87 2.07 18.87 6.68a2 2 0 0 1 -.72 1.49c-1.34 1.18-4.92 1.56-9 1.56a138.51 138.51 0 0 1 -15.85-1.18l-1-.13a.7.7 0 0 1 -.46-.25.73.73 0 0 1 -.18-.59.8.8 0 0 1 .27-.48.72.72 0 0 1 .57-.16l1 .12c8.38 1.07 21.49 1.95 23.74 0 .21-.18.21-.31.21-.36 0-2.53-10-4.51-17.52-5.18l-.79-.07a.75.75 0 0 1 -.53-.29.74.74 0 0 1 -.15-.59l21-118.18.28-1.56 1.09-6.96.28-1.6a.76.76 0 0 1 .87-.61.75.75 0 0 1 .62.8z" fill="#231f20"/><path d="m63.51 260.17-.41 5c-16.28 1.63-34.25 2.24-35.3.43 0-2.06 9.48-4.58 18.29-5.75a28.11 28.11 0 0 0 17.42.36z" fill="#231f20"/><path d="m64 260-.52.16a28.11 28.11 0 0 1 -17.42-.36l-.59-.21a.75.75 0 0 1 -.44-1 .77.77 0 0 1 .15-.23.26.26 0 0 1 .09-.09.76.76 0 0 1 .73-.12c.25.1.51.19.77.27a26.61 26.61 0 0 0 16.76.11h.08a.75.75 0 0 1 .39 1.47z" fill="#231f20"/><path d="m89.3 255.81s0 .18-.21.36c-2.25 2-15.36 1.09-23.74 0l.39-4.76a5.76 5.76 0 0 0 2 .36 9.93 9.93 0 0 0 3.88-1 .62.62 0 0 0 .19-.12c7.5.65 17.49 2.63 17.49 5.16z" fill="#231f20"/><path d="m71.78 250.63a.62.62 0 0 1 -.19.12 9.93 9.93 0 0 1 -3.88 1 5.76 5.76 0 0 1 -2-.36l-.49-.18a.75.75 0 0 1 .6-1.38c1.57.67 2.7.47 4.45-.23l.69-.28a.75.75 0 0 1 1 .4.73.73 0 0 1 -.18.91z" fill="#231f20"/><path d="m92.78 123-1.22 6.88c-18 3-31.68 3.38-44.28 1.23v-5.33c1 .07 2.07.11 3.21.11 6.57 0 15.48-1.31 27.56-4.82a10.79 10.79 0 0 0 .68 1 8 8 0 0 0 6.7 3.21h.24a12.69 12.69 0 0 0 7.11-2.28z" fill="#ca7375"/><path d="m91.28 131.47-21 118.18c-1.75.7-2.88.9-4.45.23l7.93-96.51a.75.75 0 1 0 -1.5-.12l-8.47 103a.8.8 0 0 0 -.27.48.73.73 0 0 0 .18.59l-.1 1.26h-.08a26.61 26.61 0 0 1 -16.76-.11l.47-125.81a100.36 100.36 0 0 0 16.77 1.34 168.28 168.28 0 0 0 27.28-2.53z" fill="#e6bd66"/><path d="m92.94 130.43a.76.76 0 0 1 0 .26.74.74 0 0 1 -.61.61l-1.05.17a168.28 168.28 0 0 1 -27.28 2.53 100.36 100.36 0 0 1 -16.73-1.34l-.87-.14a.74.74 0 0 1 -.62-.74.57.57 0 0 1 0-.13.75.75 0 0 1 .87-.61l.62.1c12.6 2.15 26.31 1.76 44.28-1.23l.52-.09a.74.74 0 0 1 .87.61z" fill="#231f20"/><path d="m90.06 83.38c-.14.09-.29.17-.44.25a8.78 8.78 0 0 1 -8.16 0l-.5-.29a.75.75 0 0 1 -.24-1 .76.76 0 0 1 1-.24.59.59 0 0 0 .11.06 7.2 7.2 0 0 0 7.4 0 .67.67 0 0 1 .45-.1.72.72 0 0 1 .58.34.75.75 0 0 1 -.2.98z" fill="#231f20"/><path d="m93.94 89.62-3 6.25a.72.72 0 0 1 -.56.4.25.25 0 0 1 -.12 0 .77.77 0 0 1 -.32-.07.75.75 0 0 1 -.35-1l1-2 2-4.25a.75.75 0 0 1 1-.35.74.74 0 0 1 .35 1.02z" fill="#231f20"/><path d="m227.89 78.3a3.19 3.19 0 0 0 -2.27-1 13.35 13.35 0 0 0 .93-2.08 10.48 10.48 0 0 0 .43-1.45c.07-.24.12-.48.17-.73a13.52 13.52 0 0 0 .2-1.68 13.5 13.5 0 0 0 -4.85-11.55l-.35-.29a13.82 13.82 0 0 0 -3.46-2 13.87 13.87 0 0 0 -6.25-1 16.5 16.5 0 0 0 -6 1.69c-.53.25-1 .53-1.54.82a.37.37 0 0 0 -.12.07c-.56.32-1.1.66-1.61 1-1.2.81-2.27 1.67-3.19 2.43s-1.89 1.64-2.83 2.48a46.56 46.56 0 0 1 -7.65 5.92l-.27.15a6.36 6.36 0 0 0 -2.66 2.24c-1.28 2.26.26 4.83 1.29 6.16a22.43 22.43 0 0 0 14.94 8.46 10.6 10.6 0 0 0 1.28.08h.58a14.74 14.74 0 0 0 1.6-.17 28.61 28.61 0 0 0 7.82-2.59c.47-.22.94-.45 1.4-.69a43.82 43.82 0 0 0 6.15-3.88c.78.44 3.26 1.71 5 1.13a2.31 2.31 0 0 0 1.37-1.41 2 2 0 0 0 -.11-2.11zm-1.24 1.56a.8.8 0 0 1 -.52.51c-1 .33-3-.5-4-1.11a.69.69 0 0 0 -.41-.11.74.74 0 0 0 -.77.1c-4.26 3.38-12.68 7.84-18 7.2a20.88 20.88 0 0 1 -13.95-7.89c-.65-.83-2.06-2.94-1.18-4.5a5.08 5.08 0 0 1 2.18-1.67l.28-.16a33.65 33.65 0 0 0 5-3.54l1.09-.93 1.85-1.64c.92-.82 1.85-1.65 2.8-2.44 2.71-2.28 6.85-5.34 11.59-5.69h.83a12.48 12.48 0 0 1 10.75 18.81c-.17.29-.36.57-.55.85a.72.72 0 0 0 -.05.76.14.14 0 0 0 0 .06.76.76 0 0 0 .73.36c.77-.09 2.06 0 2.36.39.13.14.05.43-.03.64z" fill="#231f20"/><path d="m226.7 79.22c-.3-.39-1.59-.48-2.36-.39a.76.76 0 0 1 -.73-.36.14.14 0 0 1 0-.06 31.12 31.12 0 0 1 -4.62.33 33.35 33.35 0 0 1 -15-3.56.58.58 0 0 1 -.15.11.72.72 0 0 1 -.38.1.75.75 0 0 1 -.64-.36 2.05 2.05 0 0 0 -.77-.59l-.44-.26a2.74 2.74 0 0 1 -.93-1 10.64 10.64 0 0 1 -5.41-4.39.29.29 0 0 1 0-.08 33.65 33.65 0 0 1 -5 3.54l-.28.16a5.08 5.08 0 0 0 -2.09 1.67c-.88 1.56.53 3.67 1.18 4.5a20.88 20.88 0 0 0 13.92 7.87c5.35.64 13.77-3.82 18-7.2a.74.74 0 0 1 .77-.1.69.69 0 0 1 .41.11c1 .61 3 1.44 4 1.11a.8.8 0 0 0 .52-.51c.03-.21.11-.5 0-.64zm-18.41-.06a5 5 0 0 1 -6.48-.16.75.75 0 1 1 1-1.1 3.56 3.56 0 0 0 4.5.11.76.76 0 0 1 1.06.1.75.75 0 0 1 -.08 1.05z" fill="#ca7375"/><path d="m224.32 64.3a12.92 12.92 0 0 0 -11-6.34c-.28 0-.56 0-.83 0-4.74.35-8.88 3.41-11.59 5.69-1 .79-1.88 1.62-2.8 2.44l-1.85 1.64a.66.66 0 0 1 .22.22 9.31 9.31 0 0 0 4.17 3.58 2.43 2.43 0 0 1 1.38-.94 11.66 11.66 0 0 0 4.86-3.38.75.75 0 0 1 1.14 1 13.08 13.08 0 0 1 -5.43 3.79c-.23.08-.59.22-.64.33s.12.35.45.57l.37.22a4.31 4.31 0 0 1 .87.59.76.76 0 0 1 .73 0 31.85 31.85 0 0 0 19.82 3.09 13 13 0 0 0 .13-12.5zm-18.12.94c-.88 1.15-2.09 1.71-2.69 1.25s-.37-1.77.51-2.92 2.08-1.71 2.69-1.25.37 1.77-.51 2.92zm14.37 6.14a.75.75 0 0 1 -.71.52 1 1 0 0 1 -.24 0l-5-1.67a4.09 4.09 0 0 0 1.8 1.52.75.75 0 0 1 -.3 1.44.8.8 0 0 1 -.3-.06 5.59 5.59 0 0 1 -2.89-2.89.73.73 0 0 1 0-.56 1.06 1.06 0 0 1 0-.19.74.74 0 0 1 .44-.79.76.76 0 0 1 .8-.23l.19.06 4.71-.63a.73.73 0 0 1 .84.64.75.75 0 0 1 -.64.85l-1.67.22 2.57.86a.76.76 0 0 1 .4.91z" fill="#ffe3e4"/><path d="m208.06 68.21a13.08 13.08 0 0 1 -5.47 3.79c-.23.08-.59.22-.64.33s.12.35.45.57l.37.22a4.31 4.31 0 0 1 .87.59 2.08 2.08 0 0 1 .44.53.76.76 0 0 1 -.12.92.58.58 0 0 1 -.15.11.72.72 0 0 1 -.38.1.75.75 0 0 1 -.64-.36 2.05 2.05 0 0 0 -.77-.59l-.44-.26a2.74 2.74 0 0 1 -.93-1 1.6 1.6 0 0 1 -.06-1.43l.09-.17a2.43 2.43 0 0 1 1.38-.94 11.66 11.66 0 0 0 4.86-3.38.75.75 0 0 1 1.14 1z" fill="#231f20"/><path d="m201.85 72.78a.74.74 0 0 1 -.71.51h-.24l-.25-.09a10.64 10.64 0 0 1 -5.41-4.39.29.29 0 0 1 0-.08.75.75 0 0 1 .28-1 .72.72 0 0 1 .81 0 .66.66 0 0 1 .22.22 9.31 9.31 0 0 0 4.17 3.58c.23.1.46.19.7.27a.76.76 0 0 1 .43.98z" fill="#231f20"/><path d="m225.31 77.37a.75.75 0 0 1 -.61.87c-.37.07-.74.13-1.11.17a31.12 31.12 0 0 1 -4.62.33 33.35 33.35 0 0 1 -15-3.56l-.28-.14a.76.76 0 0 1 -.32-1 .74.74 0 0 1 .28-.3.76.76 0 0 1 .73 0 31.85 31.85 0 0 0 19.82 3.09h.25a.76.76 0 0 1 .86.54z" fill="#231f20"/><path d="m220.57 71.38a.75.75 0 0 1 -.71.52 1 1 0 0 1 -.24 0l-5-1.67-.48-.16-.51-.17a.71.71 0 0 1 -.48-.53.67.67 0 0 1 0-.42.62.62 0 0 1 .15-.25.76.76 0 0 1 .8-.23l.19.06 3.24 1.08 2.57.86a.76.76 0 0 1 .47.91z" fill="#231f20"/><path d="m219.84 68.5a.75.75 0 0 1 -.64.85l-1.67.22-3 .41h-.36l-.43.06h-.1a.77.77 0 0 1 -.69-.46 1.06 1.06 0 0 1 0-.19.74.74 0 0 1 .44-.79.67.67 0 0 1 .2-.06l.79-.11 4.71-.63a.73.73 0 0 1 .75.7z" fill="#231f20"/><path d="m216.8 72.69a.75.75 0 0 1 -.69.46.8.8 0 0 1 -.3-.06 5.59 5.59 0 0 1 -2.89-2.89.73.73 0 0 1 0-.56.61.61 0 0 1 .23-.31.62.62 0 0 1 .17-.11.74.74 0 0 1 1 .38 2.76 2.76 0 0 0 .2.38 1.43 1.43 0 0 0 .12.21 4.09 4.09 0 0 0 1.8 1.52.75.75 0 0 1 .36.98z" fill="#231f20"/><path d="m206.2 65.24c-.88 1.15-2.09 1.71-2.69 1.25s-.37-1.77.51-2.92 2.08-1.71 2.69-1.25.37 1.77-.51 2.92z" fill="#231f20"/><path d="m208.29 79.16a5 5 0 0 1 -6.48-.16.75.75 0 1 1 1-1.1 3.56 3.56 0 0 0 4.5.11.76.76 0 0 1 1.06.1.75.75 0 0 1 -.08 1.05z" fill="#231f20"/><path d="m221.75 60.59a.74.74 0 0 1 -.37-.1 7 7 0 0 1 -2.89-8.61.75.75 0 0 1 1.38.6 5.45 5.45 0 0 0 2.25 6.7.75.75 0 0 1 -.37 1.4z" fill="#231f20"/><path d="m224 62.31a.75.75 0 0 1 -.54-.23 5.37 5.37 0 0 1 .4-7.56.75.75 0 0 1 1 1.15 3.88 3.88 0 0 0 -.36 5.33.75.75 0 0 1 -.54 1.27z" fill="#231f20"/><path d="m233.19 73.51a.74.74 0 0 1 -.38-.11 6.34 6.34 0 0 0 -5.85-.27.75.75 0 0 1 -.65-1.35 7.77 7.77 0 0 1 7.26.33.75.75 0 0 1 -.39 1.39z" fill="#231f20"/><path d="m230.12 77.39a.75.75 0 0 1 -.56-.26 6.37 6.37 0 0 0 -3.36-2 .75.75 0 0 1 .33-1.46 7.89 7.89 0 0 1 4.16 2.47.75.75 0 0 1 -.56 1.24z" fill="#231f20"/><path d="m206.34 59.71a.76.76 0 0 1 -.22 0 4.09 4.09 0 0 1 -2.75-4.38.75.75 0 0 1 1.48.22 2.58 2.58 0 0 0 1.71 2.72.75.75 0 0 1 -.22 1.47z" fill="#231f20"/><path d="m204.35 60.45h-.2a12.54 12.54 0 0 1 -5-2.73.75.75 0 1 1 1-1.12 11 11 0 0 0 4.42 2.4.75.75 0 0 1 -.2 1.47z" fill="#231f20"/><path d="m215.72 93.57c-6 4.77-10.16 1.63-11.25.62l1.78-6.35a28.61 28.61 0 0 0 7.82-2.59 28.18 28.18 0 0 0 .93 2.75c.67 2.07 1.64 4.83.72 5.57z" fill="#ffe3e4"/><path d="m217.46 93.51a2.39 2.39 0 0 1 -.8 1.23l-.24.18a11.3 11.3 0 0 1 -6.94 2.71 9.2 9.2 0 0 1 -6.13-2.45c-.18-.17-.27-.27-.28-.28a.76.76 0 0 1 -.15-.7l.14-.5 1.6-5.69.23-.81a.74.74 0 0 1 .92-.52.74.74 0 0 1 .52.92l-.07.24-1.78 6.35c1.09 1 5.29 4.15 11.25-.62.92-.74 0-3.5-.77-5.52a28.18 28.18 0 0 1 -.88-2.8 6.3 6.3 0 0 1 -.13-.78.76.76 0 0 1 .69-.81.75.75 0 0 1 .81.68v.22a17.63 17.63 0 0 0 .9 3c.76 2.07 1.56 4.36 1.11 5.95z" fill="#231f20"/><path d="m205.18 45a4.27 4.27 0 0 0 -3.12-2.86.6.6 0 0 0 -.23 0 1.06 1.06 0 0 0 -.24-.06 4.3 4.3 0 1 0 -1 8.55 6.1 6.1 0 0 0 .73 0 4.17 4.17 0 0 0 3.27-1.47 4.29 4.29 0 0 0 .59-4.16zm-1.74 3.25a2.8 2.8 0 0 1 -2.61.88 2.58 2.58 0 0 1 -1.82-4.3 2.93 2.93 0 0 1 2.27-1.27h.34.15a3.07 3.07 0 0 1 1.67 4.64z" fill="#231f20"/><path d="m203.44 48.23a2.8 2.8 0 0 1 -2.61.88 2.58 2.58 0 0 1 -1.82-4.3 2.93 2.93 0 0 1 2.27-1.27h.34.15a3.07 3.07 0 0 1 1.67 4.64z" fill="#fff"/><path d="m199.88 30.32a8.33 8.33 0 0 0 -9-4.41c-3.36.48-7 2.84-7.71 7a8.48 8.48 0 0 0 4.45 8.51 9.19 9.19 0 0 0 10.16-1.14 8.75 8.75 0 0 0 2.1-9.96zm-3.08 8.86a7.69 7.69 0 0 1 -8.46.94 7.11 7.11 0 0 1 -3.75-6 5.47 5.47 0 0 1 .07-.9c.55-3.43 3.63-5.37 6.44-5.77a8.28 8.28 0 0 1 1.23-.09 6.53 6.53 0 0 1 6.19 3.64 7.19 7.19 0 0 1 -1.72 8.18z" fill="#231f20"/><path d="m196.8 39.18a7.69 7.69 0 0 1 -8.46.94 7.11 7.11 0 0 1 -3.75-6 5.47 5.47 0 0 1 .07-.9c.55-3.43 3.63-5.37 6.44-5.77a8.28 8.28 0 0 1 1.23-.09 6.53 6.53 0 0 1 6.19 3.64 7.19 7.19 0 0 1 -1.72 8.18z" fill="#fff"/><path d="m187 18.65a8.58 8.58 0 0 0 -5.36-6.81 12.36 12.36 0 0 0 -4.93-1 19.81 19.81 0 0 0 -11.83 4.52 12.87 12.87 0 0 0 -5.16 7.94 8.48 8.48 0 0 0 3.69 8.7 8.59 8.59 0 0 0 4.36 1.07 16.31 16.31 0 0 0 3.83-.51 28.23 28.23 0 0 0 10-4.63c2.15-1.6 5.75-4.93 5.4-9.28zm-6.28 8.07a26.66 26.66 0 0 1 -9.43 4.38c-3 .73-5.35.6-7.09-.4a7 7 0 0 1 -3-7.13 11.42 11.42 0 0 1 4.59-7c5.18-4 10.89-5.23 15.26-3.35a7.09 7.09 0 0 1 4.46 5.57c.3 3.75-3.28 6.79-4.83 7.93z" fill="#231f20"/><path d="m180.68 26.72a26.66 26.66 0 0 1 -9.43 4.38c-3 .73-5.35.6-7.09-.4a7 7 0 0 1 -3-7.13 11.42 11.42 0 0 1 4.59-7c5.18-4 10.89-5.23 15.26-3.35a7.09 7.09 0 0 1 4.46 5.57c.34 3.75-3.24 6.79-4.79 7.93z" fill="#fff"/><path d="m203.59 93.66h-.54c-5.36.44-48.47 4.92-52.27 34.69-1.23 9.66.62 17.57 5.52 23.52a29.23 29.23 0 0 0 12.57 8.6c0 .77.78 1.86 1.87 3-1.35-.41-2.6-.51-3.35.09a1.38 1.38 0 0 0 -.41 1.59c.83 2.35 7.83 6.41 13.55 6.41a6.4 6.4 0 0 0 2-.31 6 6 0 0 0 1.76-1 7.25 7.25 0 0 0 1.65-1.85 12.16 12.16 0 0 0 1.62-4.31 12.35 12.35 0 0 0 .19-1.49 13.09 13.09 0 0 0 -.85-6.47 0 0 0 0 0 0 0 .59.59 0 0 0 .08-.35l-1-41.33a.72.72 0 0 0 -.31-.59.74.74 0 0 0 -.66-.11 33.74 33.74 0 0 0 -9.84 5.3.53.53 0 0 0 -.15-.15 20.21 20.21 0 0 1 -8.35-11.73.85.85 0 0 0 -.13-.27c14.17-9.66 34-11.52 36.84-11.74h.33a.77.77 0 0 0 .71-.8.74.74 0 0 0 -.83-.7zm-19.12 21.88.93 38.69a49.63 49.63 0 0 0 -3.83-3.32c-5.37-4.38-12.73-10.38-12.3-18.72.54-10.19 11.82-15.34 15.2-16.65zm-10.47 4.46a17.27 17.27 0 0 0 -6.21 12.07c-.48 9.1 7.22 15.38 12.84 20 2.33 1.9 4.34 3.54 4.89 4.73a11.65 11.65 0 0 1 .73 5.6 10.72 10.72 0 0 1 -.2 1.48 10.56 10.56 0 0 1 -1.4 3.75 4.72 4.72 0 0 1 -4.11 2.44c-5.51 0-11.77-4.14-12.13-5.38.88-.44 4.36 1.06 7.06 2.76a.75.75 0 0 0 1-.21.74.74 0 0 0 -.18-1 31.14 31.14 0 0 1 -5.66-5.11 34 34 0 0 0 7.17 1.46h.05a.75.75 0 0 0 0-1.5c-.13 0-12.9-1-20.45-10.12-4.62-5.61-6.37-13.14-5.19-22.37s6.35-15.92 13-20.78a21.71 21.71 0 0 0 8.79 12.18z" fill="#231f20"/><path d="m186.24 162.4a10.72 10.72 0 0 1 -.2 1.48 10.56 10.56 0 0 1 -1.4 3.75 4.72 4.72 0 0 1 -4.11 2.44c-5.51 0-11.77-4.14-12.13-5.38.88-.44 4.36 1.06 7.06 2.76a.75.75 0 0 0 1-.21.74.74 0 0 0 -.18-1 31.14 31.14 0 0 1 -5.66-5.11 34 34 0 0 0 7.17 1.46h.05a.75.75 0 0 0 0-1.5c-.13 0-12.9-1-20.45-10.12-4.62-5.61-6.37-13.14-5.19-22.37s6.35-15.92 13-20.78a21.71 21.71 0 0 0 8.8 12.18 17.27 17.27 0 0 0 -6.21 12.07c-.48 9.1 7.22 15.38 12.84 20 2.33 1.9 4.34 3.54 4.89 4.73a11.65 11.65 0 0 1 .72 5.6z" fill="#ffe3e4"/><path d="m251.49 164a17 17 0 0 1 -1 1.63v.06a.73.73 0 0 1 -.56.26.72.72 0 0 1 -.29-.06.61.61 0 0 1 -.14-.07.75.75 0 0 1 -.19-1c.1-.15.2-.29.29-.44a11 11 0 0 0 1.28-2.56c-.09 0-.2.06-.34.12a.73.73 0 0 1 -.88-.26.51.51 0 0 1 -.09-.16.74.74 0 0 1 .41-1 2.42 2.42 0 0 1 1.59-.2 1.05 1.05 0 0 1 .57.38c.42.55.23 1.66-.65 3.3z" fill="#231f20"/><path d="m172 264-1.59 3.43c-14.54.38-30.44.36-34.27-.35 1.56-1 5.73-2.6 16.66-4.1a.75.75 0 0 0 1.38.22l.09-.16a30.81 30.81 0 0 0 17.73.96z" fill="#ca7375"/><path d="m271.25 266.67c-.21.84-.57 2.24-17.65 2.07-8.17-.09-16.36-.5-16.45-.51a.75.75 0 0 1 -.69-.57c-.18-.77-17.8-74.11-25.11-85.7-6.71 14.93-39.47 85.77-39.81 86.51a.75.75 0 0 1 -.66.43c-.09 0-8.91.24-17.72.25h-1c-17.34 0-17.75-.85-18.05-1.48a.92.92 0 0 1 .13-1c1.73-2.07 7.8-3.78 18.57-5.23 11.17-11.12 27.3-79.91 29.65-90.18.18-.77.28-1.21.29-1.27a.75.75 0 0 1 1.47.3c-.72 3.19-17.24 76.49-29.53 91.27a11.16 11.16 0 0 1 -1 1.11.74.74 0 0 1 -.42.19l-.53.07c-10.93 1.5-15.1 3.06-16.66 4.1 3.83.71 19.73.73 34.27.35l1.65-3.38c.24-.51.49-1.07.77-1.68 8.17-17.66 33.35-72.17 37.78-82.12a.76.76 0 0 1 1.24-.2c6.08 6.66 20.55 64.35 24.92 82.2.15.62.29 1.18.42 1.7.32 1.31.56 2.3.7 2.89 14.55.72 30.16.71 32-.53-.44-1-6.1-2.57-12.59-3.53l-1.1-.15a.74.74 0 0 1 -.63-.58v-.12l-19.87-90.41-.1-.47a.75.75 0 0 1 .57-.89h.14a.73.73 0 0 1 .41.12.77.77 0 0 1 .33.47l.26 1.17 19.62 89.32c3 .42 12.62 1.94 14.19 4.26a1.51 1.51 0 0 1 .19 1.22z" fill="#231f20"/><path d="m263.19 111.86a33.28 33.28 0 0 0 -4.13-4 .7.7 0 0 0 -.71-.55c-13.59-10.62-35.44-13.31-40.89-13.8l-1.22-.11a.8.8 0 0 0 -.8.7.76.76 0 0 0 .7.8h.27c2.85.24 26.72 2.56 40.9 13.5a23 23 0 0 1 -13.66 13.11.78.78 0 0 0 -.37.29 71.5 71.5 0 0 0 -9.82-5 .74.74 0 0 0 -.69.07.76.76 0 0 0 -.34.6l-1.32 43.81c-8.3 2.72-22.46 5.08-43.4 1.37h-.19c-.82-.15-1.11-.2-1.29-.21a10.72 10.72 0 0 1 -.2 1.48h.13c.14 0 .51.08 1.1.19h.26c20.44 3.61 34.55 1.51 43.12-1.13a4.76 4.76 0 0 0 -.54 2.2 7 7 0 0 0 3.89 5.62 8.7 8.7 0 0 0 1.56.63 9.55 9.55 0 0 0 1.63.38 12.53 12.53 0 0 0 1.92.14c3 0 7.13-1 12.47-4.17 1.41-.85 2.95-2 2.35-3.11-.34-.66-1.27-.84-2.44-.74a12.62 12.62 0 0 0 -2 .34 28.6 28.6 0 0 0 -4.31 1.51.75.75 0 0 0 .61 1.37 25.06 25.06 0 0 1 3.74-1.33c.31-.08.58-.15.85-.2a7.88 7.88 0 0 1 1.89-.21 9.3 9.3 0 0 1 -1.51 1.08c-5.46 3.27-10.5 4.56-14.21 3.68a2.77 2.77 0 0 1 -.41-.12 7.26 7.26 0 0 1 -1.47-.58 5.46 5.46 0 0 1 -3.09-4.39c-.14-2 4.49-7.5 9-12.81 5.89-7 12-14.21 12.36-18.74.33-4-3.74-7.81-8.24-10.82a24.68 24.68 0 0 0 13.84-13.33 31 31 0 0 1 3.52 3.44 23.25 23.25 0 0 1 5.72 17.59c-1.94 24.22-26.28 33.93-26.52 34a.75.75 0 0 0 -.43 1 .73.73 0 0 0 .7.48.65.65 0 0 0 .27 0 46.52 46.52 0 0 0 7.79-4.26c.62-.41 1.26-.85 1.91-1.33 7.43-5.39 16.59-15 17.77-29.71a24.64 24.64 0 0 0 -6.07-18.73zm-11.74 21.56c-.34 4-6.55 11.41-12 17.9-2.84 3.37-5.15 6.14-6.76 8.38l1.24-41.1c5.84 2.55 17.99 9.07 17.52 14.82z" fill="#231f20"/><path d="m257.32 108.42a23 23 0 0 1 -13.66 13.11.78.78 0 0 0 -.37.29 71.5 71.5 0 0 0 -9.82-5 .74.74 0 0 0 -.69.07.76.76 0 0 0 -.34.6l-1.32 43.81c-8.3 2.72-22.46 5.08-43.4 1.37a13.09 13.09 0 0 0 -.85-6.47 0 0 0 0 0 0 0 .59.59 0 0 0 .08-.35l-1-41.33a.72.72 0 0 0 -.31-.59.74.74 0 0 0 -.66-.11 33.74 33.74 0 0 0 -9.84 5.3.53.53 0 0 0 -.15-.15 20.21 20.21 0 0 1 -8.35-11.73.85.85 0 0 0 -.13-.27c14.17-9.66 34-11.52 36.84-11.74a9.2 9.2 0 0 0 6.13 2.45 11.3 11.3 0 0 0 6.94-2.71c2.85.19 26.72 2.51 40.9 13.45z" fill="#edd092"/><path d="m267.78 130.43c-1.94 24.22-26.28 33.93-26.52 34a.75.75 0 0 0 -.43 1 .73.73 0 0 0 .7.48.65.65 0 0 0 .27 0 46.52 46.52 0 0 0 7.79-4.26.73.73 0 0 0 .88.26c.14-.06.25-.09.34-.12a11 11 0 0 1 -1.28 2.56 28.6 28.6 0 0 0 -4.31 1.51.75.75 0 0 0 .61 1.37 25.06 25.06 0 0 1 3.74-1.33.72.72 0 0 0 .29.06.73.73 0 0 0 .56-.26 7.88 7.88 0 0 1 1.89-.21 9.3 9.3 0 0 1 -1.51 1.08c-5.46 3.27-10.5 4.56-14.21 3.68a.73.73 0 0 0 -.41-.12 7.26 7.26 0 0 1 -1.47-.58 5.46 5.46 0 0 1 -3.09-4.39c-.14-2 4.49-7.5 9-12.81 5.89-7 12-14.21 12.36-18.74.33-4-3.74-7.81-8.24-10.82a24.68 24.68 0 0 0 13.84-13.33 31 31 0 0 1 3.52 3.44 23.25 23.25 0 0 1 5.68 17.53z" fill="#ffe3e4"/><path d="m172.79 263.76-.79.24a30.81 30.81 0 0 1 -17.73-1l-.09.16a.75.75 0 0 1 -1.38-.22.71.71 0 0 1 .08-.53l.41-.71a.75.75 0 0 1 .92-.33l.56.2a29.19 29.19 0 0 0 17.66.73.79.79 0 0 1 .34 0 .74.74 0 0 1 .58.54.75.75 0 0 1 -.56.92z" fill="#231f20"/><path d="m255.43 261.86c-6.89 2.06-13 2.17-18.76.32-4.37-17.85-18.84-75.54-24.92-82.2a.76.76 0 0 0 -1.24.2c-4.43 10-29.61 64.46-37.78 82.12a.79.79 0 0 0 -.34 0 29.19 29.19 0 0 1 -17.66-.73c12.29-14.78 28.81-88.08 29.53-91.27a7.25 7.25 0 0 0 1.65-1.85 12.16 12.16 0 0 0 1.62-4.31c20.44 3.61 34.55 1.51 43.12-1.13a4.76 4.76 0 0 0 -.54 2.2 7 7 0 0 0 3.89 5.62 8.7 8.7 0 0 0 1.56.63z" fill="#231f20"/><path d="m269.78 266.24c-1.83 1.24-17.44 1.25-32 .53-.14-.59-.38-1.58-.7-2.89a28.49 28.49 0 0 0 8 1.12 38.41 38.41 0 0 0 11.7-2 .74.74 0 0 0 .39-.3c6.51.97 12.17 2.55 12.61 3.54z" fill="#ca7375"/><path d="m257.19 262.71a.74.74 0 0 1 -.39.3 38.41 38.41 0 0 1 -11.7 2 28.49 28.49 0 0 1 -8-1.12c-.38-.11-.75-.22-1.13-.35a.75.75 0 1 1 .47-1.42l.24.07c5.71 1.85 11.87 1.74 18.76-.32l.91-.28a.75.75 0 0 1 .95.48.74.74 0 0 1 -.11.64z" fill="#231f20"/><path d="m282.88 101.89a.75.75 0 0 0 0 1.5.75.75 0 0 0 0-1.5z" fill="#231f20"/><path d="m64.29 144.77-7.78 99c-.08 1 1.42 1 1.5 0l7.78-99c.08-.96-1.42-.96-1.5 0z" fill="#231f20"/><path d="m81.1 153.08-4.59 34c-.13.94 1.32 1.35 1.45.4l4.58-34c.13-.95-1.31-1.35-1.44-.4z" fill="#231f20"/><path d="m70.85 80.57a8.68 8.68 0 0 1 -6.43-1.39c-.81-.54-1.56.76-.76 1.3a10.21 10.21 0 0 0 7.59 1.52c.95-.15.54-1.59-.4-1.43z" fill="#231f20"/><path d="m67.23 83.17-3.5-1a.75.75 0 0 0 -.4 1.45l3.5 1a.75.75 0 0 0 .4-1.45z" fill="#231f20"/><path d="m48.9 94.93a31.14 31.14 0 0 0 -5.58 12.68c-.18.94 1.26 1.35 1.45.4a30.12 30.12 0 0 1 5.43-12.32c.57-.78-.73-1.53-1.3-.76z" fill="#fff"/><path d="m50.2 155.31-.49 18.5a.75.75 0 0 0 1.5 0l.49-18.5a.75.75 0 0 0 -1.5 0z" fill="#fff"/><path d="m74.83 201.61-2 13c-.15.94 1.3 1.35 1.45.4l2-13c.14-.94-1.28-1.35-1.45-.4z" fill="#fff"/><path d="m63.54 112.65-4.5-.5c-1-.11-1 1.39 0 1.5l4.5.5c.96.1.95-1.4 0-1.5z" fill="#fff"/><path d="m98.73 84.42c-.45-.86-1.74-.1-1.3.76a13 13 0 0 1 1.38 7.93c-.14.94 1.31 1.35 1.45.4a14.71 14.71 0 0 0 -1.53-9.09z" fill="#fff"/><path d="m200.59 175.52-29.14 77.63c-.34.9 1.11 1.3 1.45.4l29.1-77.63c.37-.92-1.08-1.3-1.41-.4z" fill="#fff"/><path d="m249 248.53q-11.73-33.86-21.4-68.37a.75.75 0 0 0 -1.45.4q9.66 34.5 21.4 68.37c.33.9 1.78.51 1.45-.4z" fill="#fff"/><path d="m166.2 142.43a17.89 17.89 0 0 1 -.43-13.42c.32-.91-1.13-1.3-1.45-.4a19.42 19.42 0 0 0 .58 14.58c.39.88 1.68.12 1.3-.76z" fill="#fff"/><path d="m224.91 95.18a24.61 24.61 0 0 1 -26.35-.05c-.82-.52-1.57.78-.76 1.3a26.1 26.1 0 0 0 27.86.05c.82-.48.07-1.81-.75-1.3z" fill="#231f20"/><path d="m241 99.13c-16.41 6.26-36.59 10.76-51.38-1.71-.73-.62-1.8.44-1.06 1.06 15.23 12.84 35.85 8.58 52.84 2.09.94-.33.6-1.79-.4-1.44z" fill="#231f20"/><path d="m251.46 103.55a76.66 76.66 0 0 1 -37 9.76c-12.63 0-26.12-2.91-34.29-13.31-.6-.76-1.65.31-1.06 1.06 8.12 10.33 21.44 13.55 34 13.74a78.21 78.21 0 0 0 39.07-10c.88-.43.12-1.72-.72-1.25z" fill="#231f20"/><path d="m232.71 119.22a87.39 87.39 0 0 1 -46.71-2.5c-.92-.31-1.31 1.14-.4 1.45a88.91 88.91 0 0 0 47.53 2.49c.92-.2.53-1.66-.42-1.44z" fill="#231f20"/><path d="m232.69 126.93a107.92 107.92 0 0 1 -46.48.72c-.94-.19-1.35 1.25-.4 1.45a109.8 109.8 0 0 0 47.28-.72c.91-.23.54-1.67-.4-1.45z" fill="#231f20"/><path d="m232 138.08a80.92 80.92 0 0 1 -45.56.62.75.75 0 0 0 -.4 1.45 82.46 82.46 0 0 0 46.36-.62c.93-.29.54-1.73-.4-1.45z" fill="#231f20"/><path d="m231.5 150a117.1 117.1 0 0 1 -45.15 1.82c-.94-.15-1.35 1.3-.4 1.45a119.12 119.12 0 0 0 46-1.82c.89-.2.49-1.65-.45-1.45z" fill="#231f20"/><path d="m254.48 105.58a128.26 128.26 0 0 1 -15.34 13.55c-.76.57 0 1.87.76 1.3a130.64 130.64 0 0 0 15.64-13.78c.67-.71-.38-1.77-1.06-1.07z" fill="#231f20"/><path d="m181.59 115.26a23.52 23.52 0 0 1 -7.77-12.83c-.21-.94-1.66-.54-1.45.4a24.85 24.85 0 0 0 8.15 13.49c.74.63 1.81-.43 1.07-1.06z" fill="#231f20"/></svg>