<svg viewBox="0 0 300 300" xmlns="http://www.w3.org/2000/svg">
    <path
        d="m230 244.09s-39-38-49-49-64.34-28.33-72.67-46 21.67-60 27.33-68c-22.43-10.24-49-5-61.6-1.39l-.3-.52a37.11 37.11 0 0 0 -11.6-12 135 135 0 0 1 38.84-10.42c33.08-3.25 58 11.67 58 11.67s8.66 6.33 15 6c0 0 38.42 26.53 23.33 55-8.53 16.08-26.11 12.41-39.4 6.92l-5.93 14.08c51 22 83.66 74.66 83.66 74.66s17.34-5.66 19-3.33-24.66 22.33-24.66 22.33z"
        fill="none" stroke="#000" stroke-linecap="round" stroke-linejoin="round"
        stroke-width="1.5" />
    <path
        d="m156.17 117.31a.57.57 0 0 0 -.13-.08 17.41 17.41 0 0 1 -3-1.67 2.83 2.83 0 0 0 -.46-1.2 4 4 0 0 0 -2.55-1.72 2.31 2.31 0 0 0 -1.94.47 3.59 3.59 0 0 0 -1 1.88c-1.21-.85-3.22-1.78-5.07-.46a2.19 2.19 0 0 0 -1 1.66 3.1 3.1 0 0 0 .14 1.06 4.51 4.51 0 0 0 .45 1 3.37 3.37 0 0 0 -.9.12l-.2.06a3.38 3.38 0 0 0 -.52.22 2.88 2.88 0 0 0 -.5.3 1.83 1.83 0 0 0 -.84 1.61 1 1 0 0 0 0 .24 1.61 1.61 0 0 0 0 .21 1.19 1.19 0 0 0 .08.22 1.76 1.76 0 0 0 .13.28s0 0 0 0a1.75 1.75 0 0 0 .18.29 6.13 6.13 0 0 0 .53.66 2.85 2.85 0 0 0 -.42.09 2 2 0 0 0 -1.21 1c-1.53 2.89 3.14 5.37 7.26 7.56l.71.38 2.14 1.13a.16.16 0 0 0 .09 0h.1.13a.45.45 0 0 0 .2 0 0 0 0 0 0 0 0h.09a.74.74 0 0 0 .23-.2.68.68 0 0 0 .1-.21c.07-.2.13-.41.21-.61a46.07 46.07 0 0 1 6.58-12.7l.36-.49a.75.75 0 0 0 .03-1.1zm-1.88 1.29-.52.75c-.3.44-.59.88-.87 1.33a.86.86 0 0 0 -.1.16c-.23.35-.45.71-.65 1.07s-.31.51-.45.77c-.46.81-.9 1.63-1.3 2.47-.15.29-.29.59-.43.89s-.29.61-.42.93-.23.52-.34.78-.29.71-.43 1.07-.21.54-.31.81-.26.72-.38 1.08l-.05.11-.31-.17-1-.51-.72-.38c-2.79-1.49-7.47-4-6.64-5.54a.51.51 0 0 1 .33-.26 5.25 5.25 0 0 1 3.17.87s0 0 0 0h.06.06a.75.75 0 0 0 .62-1.34h-.06c-2-1.15-3.44-2.46-3.47-3.11 0 0 0-.16.22-.32a2.48 2.48 0 0 1 3 .19l.1.06s0 0 0 0h.07a.72.72 0 0 0 1-.14.74.74 0 0 0 -.05-1l-.06-.06c-1.23-1.18-1.94-2.27-1.89-2.93a.7.7 0 0 1 .35-.55c1.78-1.27 4.21 1.18 4.23 1.2a.75.75 0 0 0 1.29-.52 3.43 3.43 0 0 1 .69-2.17.84.84 0 0 1 .72-.14 2.51 2.51 0 0 1 1.78 1.46 1 1 0 0 0 0 .38.23.23 0 0 0 0 .08 1 1 0 0 0 .19.33 3.41 3.41 0 0 0 .27.27 2.65 2.65 0 0 0 .39.3l.3.21c.27.16.6.36 1 .58l.89.46a2.42 2.42 0 0 0 -.14.2z" />
    <path
        d="m154.58 118.19a2.42 2.42 0 0 0 -.14.2l-.15.21-.52.75c-.3.44-.59.88-.87 1.33a.86.86 0 0 0 -.1.16c-.23.35-.45.71-.65 1.07s-.31.51-.45.77c-.46.81-.9 1.63-1.3 2.47-.15.29-.29.59-.43.89s-.29.61-.42.93-.23.52-.34.78-.29.71-.43 1.07-.21.54-.31.81-.26.72-.38 1.08l-.05.11-.31-.16-1-.51-.72-.38c-2.79-1.49-7.47-4-6.64-5.54a.51.51 0 0 1 .33-.26 5.25 5.25 0 0 1 3.17.87s0 0 0 0h.06.05l.14.08a.77.77 0 0 0 1.17-.62.74.74 0 0 0 -.43-.68h-.06-.06l-.15-.09h-.06c-2-1.15-3.44-2.46-3.47-3.11 0 0 0-.16.22-.32a2.48 2.48 0 0 1 3 .19l.13.09h.07a4.39 4.39 0 0 0 .45.41.74.74 0 0 0 1.25-.54.7.7 0 0 0 -.11-.39l-.07-.12-.07-.06a3.62 3.62 0 0 0 -.51-.45l-.07-.06c-1.23-1.18-1.94-2.27-1.89-2.93a.7.7 0 0 1 .35-.55c1.78-1.27 4.21 1.18 4.23 1.2a.75.75 0 0 0 1.29-.52 3.43 3.43 0 0 1 .69-2.17.84.84 0 0 1 .72-.14 2.51 2.51 0 0 1 1.78 1.46 1 1 0 0 0 0 .38.23.23 0 0 0 0 .08 1 1 0 0 0 .19.33 3.41 3.41 0 0 0 .27.27 2.65 2.65 0 0 0 .39.3l.3.21c.27.16.6.36 1 .58z"
        fill="#ffe3e4" />
    <path
        d="m174.94 97a.75.75 0 0 0 -1.34.09l-9.78 23.22-.27.64a.74.74 0 0 0 0 .6.73.73 0 0 0 .44.4 40.56 40.56 0 0 0 11.67 2.35c2.33 0 4.3-.49 5.49-1.75 5.25-5.55-5.02-23.47-6.21-25.55zm5.13 24.53c-1.81 1.93-7.2 1.66-14.82-.75l9.14-21.71c3.33 6.08 9.19 18.77 5.68 22.51z" />
    <path
        d="m208.14 60.43a23.08 23.08 0 0 0 -6.59-6.62c-.54-.36-1.12-.72-1.74-1.07a23.62 23.62 0 0 1 -2.37.46c.76.36 1.47.73 2.14 1.13 6.27 3.69 8.69 8.89 8.65 9.93-.14.34-1.64.75-3.27.75a.75.75 0 0 0 -.75.83c0 .37.84 9.11-6.17 11.54-7.24 2.53-21.89-6.17-22-6.26a.7.7 0 0 0 -.39-.11.77.77 0 0 0 -.64.35l-1.44 2.33h-.07c-5 0-11.36-4-13.41-5.41a77.32 77.32 0 0 1 7.56-7.57l1.15-1c4.29-3.56 9.66-7.08 15.17-8.35.41-.1.82-.19 1.23-.25.18 0 .36-.06.54-.09a16.18 16.18 0 0 1 4.45 0s0 0 0 0c1.45-.11 2.9-.29 4.34-.53a29 29 0 0 0 -3.09-.79c-.4-.08-.8-.14-1.2-.19a0 0 0 0 1 0 0c-14.15-1.75-28.8 14.82-31.44 18l-.4.49a.6.6 0 0 0 -.07.1.76.76 0 0 0 .18 1h.08a0 0 0 0 1 0 0c.81.58 8.86 6.24 15.14 6.11h.27a.77.77 0 0 0 .57-.31l.37-.6.9-1.46c2.55 1.46 12 6.56 19.13 6.56a10.86 10.86 0 0 0 3.54-.53c6.79-2.36 7.24-9.84 7.2-12.32 1.36-.08 3.58-.44 4-1.86.21-1.01-.71-2.91-1.57-4.26z" />
    <path
        d="m203.81 50.4c-.27.87-1.2 1.53-2.86 2-.38.11-.76.22-1.14.31a23.62 23.62 0 0 1 -2.37.46 25.25 25.25 0 0 1 -12.07-1.17h-.08c.13-.28.26-.56.37-.84 1.51 0 3 0 4.51-.18 1.45-.11 2.9-.29 4.34-.53s2.94-.53 4.39-.9h.19a7.36 7.36 0 0 1 2.84-.36 3 3 0 0 1 1.8 1c.11.11.09.18.08.21z"
        fill="#231f20" />
    <path
        d="m183.94 51.39a17.66 17.66 0 0 1 -7.48 7.93.79.79 0 0 0 -.31.32 2.08 2.08 0 0 0 -.61 0 2.86 2.86 0 0 0 -2 1.31.78.78 0 0 0 -.79-.25 4.43 4.43 0 0 1 -4-1c4.31-3.52 9.68-7.04 15.19-8.31z"
        fill="#231f20" />
    <path
        d="m178.22 63.09a.75.75 0 0 1 -1 .32.76.76 0 0 1 -.33-1 .76.76 0 0 0 -.12-.76 1.14 1.14 0 0 0 -1-.51 1.84 1.84 0 0 0 -1.32 2 3.79 3.79 0 0 0 1.55 2.5.74.74 0 0 1 .13 1 .75.75 0 0 1 -.59.29.74.74 0 0 1 -.46-.16 5.18 5.18 0 0 1 -2.18-3.62 3.23 3.23 0 0 1 .08-1 3.65 3.65 0 0 1 .53-1.23 2.86 2.86 0 0 1 2-1.31 2.08 2.08 0 0 1 .61 0 2.62 2.62 0 0 1 1.48.74 2.17 2.17 0 0 1 .35.39 2.21 2.21 0 0 1 .27 2.35z" />
    <path
        d="m159.6 68.82a.75.75 0 0 1 -1 .26 0 0 0 0 0 0 0h-.08c-1.57-.9-25.93-14.61-57.46-11.51-16.17 1.58-30.75 7-37.35 9.8l-1.26.54-.45.09c-10 4.39-13.6 7.5-13.7 8.25a1.31 1.31 0 0 0 .7.75c1.07.49 3 0 4.49-.53s0 0 .06 0a.77.77 0 0 1 1 .42.74.74 0 0 1 -.21.84.28.28 0 0 1 -.11.08l-.1.06a11.6 11.6 0 0 1 -3.65.87 1.83 1.83 0 0 1 -.33 0 4.27 4.27 0 0 1 -1.79-.35 2.78 2.78 0 0 1 -1.51-1.69c-1-3 11.16-8.57 14.91-10.2 5.97-2.6 21.62-8.77 39.13-10.5a105.48 105.48 0 0 1 57.89 11.46c.36.19.55.31.57.32a.75.75 0 0 1 .25 1.04z" />
    <path
        d="m174.94 97a.75.75 0 0 0 -1.34.09l-9.78 23.22a73.11 73.11 0 0 1 -7.78-3.13 17.41 17.41 0 0 1 -3-1.67 2.83 2.83 0 0 0 -.46-1.2 4 4 0 0 0 -2.55-1.72 2.31 2.31 0 0 0 -1.94.47 3.59 3.59 0 0 0 -1 1.88c-1.21-.85-3.22-1.78-5.07-.46a2.19 2.19 0 0 0 -1 1.66 3.1 3.1 0 0 0 .14 1.06 4.51 4.51 0 0 0 .45 1 10.4 10.4 0 0 0 1.82 2.17s0 0 0 0h.07a4.39 4.39 0 0 0 .45.41.74.74 0 0 0 1-.13.76.76 0 0 0 .09-.79l-.07-.12-.07-.06a6.69 6.69 0 0 1 -.51-.45h-.06a0 0 0 0 0 0 0c-1.23-1.18-1.94-2.27-1.89-2.93a.7.7 0 0 1 .35-.55c1.78-1.27 4.21 1.18 4.23 1.2a.75.75 0 0 0 1.29-.52 3.43 3.43 0 0 1 .69-2.17.84.84 0 0 1 .72-.14 2.51 2.51 0 0 1 1.78 1.46 1 1 0 0 0 0 .38.23.23 0 0 0 0 .08 1 1 0 0 0 .19.33 3.41 3.41 0 0 0 .27.27l.39.3.3.21c.27.16.6.36 1 .58l.89.46.81.4.56.26a74.08 74.08 0 0 0 8 3.15 40.56 40.56 0 0 0 11.67 2.35c2.33 0 4.3-.49 5.49-1.75 5.33-5.6-4.94-23.52-6.13-25.6zm5.13 24.53c-1.81 1.93-7.2 1.66-14.82-.75l9.14-21.71c3.33 6.08 9.19 18.77 5.68 22.51z" />
    <path
        d="m243.4 234.38c-6.32 5.24-12.92 10.26-13 10.31a.75.75 0 0 1 -1-.06l-6.27-6.13-.62-.6c-11.68-11.44-34.81-34.23-42.15-42.3-3.91-4.31-15.33-9.87-27.42-15.75-3.94-1.92-8-3.9-12-5.92l-1.35-.68a175.56 175.56 0 0 1 -20-11.6l-1.22-.86c-5.1-3.72-9-7.52-10.8-11.37-7.3-15.49 13.46-48.95 26.87-68-21.71-9.5-47-4.73-60.22-1h-.09c-3.47 1-5.9 1.85-6.84 2.2a4.75 4.75 0 0 1 -2.74 3.82 2.48 2.48 0 0 1 -2.2 0 3.67 3.67 0 0 1 -1.55-1.92c-2.06 1-6.7 3.16-8.64 1.87a1.59 1.59 0 0 1 -.72-1.39 3.64 3.64 0 0 1 1.26-2.18c-1.56.25-3.06.22-3.68-.61a1.39 1.39 0 0 1 -.25-1.11 5 5 0 0 1 1.77-2.41 24.94 24.94 0 0 1 3-2.2s0 0 .06 0a.75.75 0 0 1 1 .34.72.72 0 0 1 -.23.92.28.28 0 0 1 -.11.08l-.1.06c-2.71 1.78-3.94 3.16-3.94 3.56.32.33 2.94 0 5.79-1a.75.75 0 0 1 .93.39.77.77 0 0 1 -.3 1c-2.16 1.16-3.8 2.77-3.7 3.16a.28.28 0 0 0 .1.09c1.1.73 5.36-1 7.89-2.37a.75.75 0 0 1 .67 0 .73.73 0 0 1 .42.53 3.1 3.1 0 0 0 1.07 1.83 1 1 0 0 0 .9 0 3.38 3.38 0 0 0 1.88-3 .75.75 0 0 1 .48-.7c.1 0 2.47-1 6.53-2.14l.94-.27.56-.15c13.75-3.83 39.5-8.49 61.55 1.58a.73.73 0 0 1 .41.48.74.74 0 0 1 -.11.63c-12.2 17.24-20.64 32.08-25 43.86-.25.64-.48 1.28-.7 1.9-3.24 9.34-3.8 16.62-1.51 21.47 4.87 10.34 26 20.63 44.67 29.72 12.75 6.21 23.76 11.57 27.88 16.1 7.26 8 30.12 30.51 41.86 42l1.07 1.05 5.5 5.49c11.55-8.8 23.39-18.84 23.91-21-1.18-.81-9.19.8-17.89 3.62l-.18.06a.75.75 0 0 1 -.87-.31s-.12-.2-.31-.49c-3.5-5.42-35.45-53.34-83-73.86a.75.75 0 0 1 -.39-1l.26-.62 5.38-12.77.29-.69a.75.75 0 1 1 1.38.58l-.28.68-5.36 12.7c47.61 20.86 79.51 68.74 83 74.16 5.64-1.82 17.56-5.3 19.29-2.88.58.85 1.45 2.07-11.83 13.1z" />
    <path
        d="m145.35 120.43a.74.74 0 0 1 -1.25.54 3.35 3.35 0 0 0 -.45-.41h-.07l-.13-.09a2.48 2.48 0 0 0 -3-.19c-.23.16-.23.27-.22.32 0 .65 1.49 2 3.47 3.11h.06l.15.09a.75.75 0 0 1 -.42 1.37.74.74 0 0 1 -.49-.17l.4-.6-.43.59h-.05-.06s0 0 0 0a14.49 14.49 0 0 1 -3.19-2.4 6.13 6.13 0 0 1 -.53-.66 1.75 1.75 0 0 1 -.18-.29s0 0 0 0a1.76 1.76 0 0 1 -.13-.28 1.19 1.19 0 0 1 -.08-.22 1.61 1.61 0 0 1 0-.21 1 1 0 0 1 0-.24 1.83 1.83 0 0 1 .84-1.61 2.88 2.88 0 0 1 .5-.3 3.38 3.38 0 0 1 .52-.22l.2-.06a3.37 3.37 0 0 1 .9-.12 4.66 4.66 0 0 1 2.77 1l.07.06a3.62 3.62 0 0 1 .51.45l.07.06.07.12a.7.7 0 0 1 .15.36z" />
    <path
        d="m175 74.23-.58-.42a.75.75 0 1 0 -.86 1.24l.19.14c2.94 2.12 36.94 27.39 22.9 53.89-6.49 12.22-19.42 14.44-38.45 6.58-3.44-1.42-6.59-3-8.8-4.11l-.57-.29-.78-.4s0 0 0 0l-.31-.16-1-.51-.72-.38c-2.79-1.49-7.47-4-6.64-5.54a.51.51 0 0 1 .33-.26 5.25 5.25 0 0 1 3.17.87s0 0 0 0h.06.05l.14.08a.77.77 0 0 0 1.17-.62.74.74 0 0 0 -.43-.68h-.06-.06l-.15-.09h-.06a7.43 7.43 0 0 0 -3.93-1.1 2.85 2.85 0 0 0 -.42.09 2 2 0 0 0 -1.21 1c-1.53 2.89 3.14 5.37 7.26 7.56l.71.38 2.14 1.13c2.11 1.08 5.26 2.66 8.77 4.14l.69.29.7.28q11.07 4.48 19.46 4.47c9.19 0 16-4 20.19-12 14.24-26.81-18.14-52.05-22.9-55.58z" />
    <path
        d="m72.88 79.25c-4.06 1.17-6.43 2.1-6.53 2.14a.75.75 0 0 0 -.48.7 3.38 3.38 0 0 1 -1.88 3 1 1 0 0 1 -.9 0 3.1 3.1 0 0 1 -1.09-1.81.73.73 0 0 0 -.42-.53.75.75 0 0 0 -.67 0c-2.53 1.39-6.79 3.1-7.89 2.37a.28.28 0 0 1 -.1-.09c-.1-.44 1.54-2 3.73-3.31a.77.77 0 0 0 .3-1 .75.75 0 0 0 -.93-.39c-2.85 1-5.47 1.33-5.79 1 0-.4 1.23-1.78 3.94-3.56l.1-.06a.28.28 0 0 0 .11-.08.72.72 0 0 0 .23-.92.75.75 0 0 0 -1-.34s0 0-.06 0c-1.55.63-3.44 1.12-4.55.63a1.31 1.31 0 0 1 -.7-.73c.1-.75 3.7-3.86 13.7-8.25a36.18 36.18 0 0 1 10.88 11.23z"
        fill="#ffe3e4" />
    <path
        d="m74.4 80.35a.35.35 0 0 1 -.14.06h-.09a.39.39 0 0 1 -.15 0 .75.75 0 0 1 -.65-.37l-.3-.52-.19-.31a36.18 36.18 0 0 0 -10.88-11.21l-.33-.23a.75.75 0 1 1 .82-1.26c.39.25.77.51 1.15.78a37.79 37.79 0 0 1 10.72 11.51l.29.49a.75.75 0 0 1 -.25 1.06z" />
    <path
        d="m156.32 118.36-.36.49a46.07 46.07 0 0 0 -6.58 12.7c-.08.2-.14.41-.21.61a.68.68 0 0 1 -.1.21.74.74 0 0 1 -.23.2.31.31 0 0 1 -.13.06 0 0 0 0 1 0 0 .45.45 0 0 1 -.2 0h-.13-.1a.74.74 0 0 1 -.48-.94c.09-.28.18-.56.28-.84a.56.56 0 0 1 0-.12c.12-.36.25-.73.38-1.08s.2-.54.31-.81.28-.72.43-1.07.22-.52.34-.78.27-.62.42-.93.28-.6.43-.89c.4-.84.84-1.66 1.3-2.47.14-.26.29-.52.45-.77s.42-.72.65-1.07a.86.86 0 0 1 .1-.16c.28-.45.57-.89.87-1.33l.52-.75.15-.21c0-.07.09-.13.15-.2.17-.25.35-.49.53-.73a.75.75 0 0 1 1.2.9z" />
    <path
        d="m141.15 173.69-.16.23-52.15 73.76c7.89 2.42 16.69 5.71 16.19 8.23-.15.74-.35 1.71-11.7 1.71-2.67 0-6 0-10-.17-10.21-.31-20.48-.94-20.59-.94a.75.75 0 0 1 -.61-.4.71.71 0 0 1 0-.73l5.07-8.52.48-.81 50.71-85.27.24-.4a.74.74 0 0 1 1.28.76l-.3.5-50.21 84.46-.86 1.45-4.48 7.54c17.69 1 36.84 1.51 39.43.39-.83-1.33-8.75-4.46-16-6.65h-.08a.76.76 0 0 1 -.5-.47.78.78 0 0 1 .1-.68l.24-.34 52.39-74.08.29-.41a.75.75 0 1 1 1.22.86z" />
    <path
        d="m173.15 62.15h-.13a5.52 5.52 0 0 1 -1.34.16 5.85 5.85 0 0 1 -4.06-1.63 3 3 0 0 1 -.35-.36.75.75 0 0 1 1.13-1 4.3 4.3 0 0 0 .37.37 4.43 4.43 0 0 0 4 1 .78.78 0 0 1 .79.25.85.85 0 0 1 .13.27.76.76 0 0 1 -.54.94z" />
    <path
        d="m185.8 50.85-.08.2-.06.14c-.11.28-.24.56-.37.84-.2.43-.43.86-.67 1.28a19.19 19.19 0 0 1 -7 7.07l-.46.26a.73.73 0 0 1 -.35.09.74.74 0 0 1 -.66-.39.75.75 0 0 1 0-.7.79.79 0 0 1 .31-.32 17.66 17.66 0 0 0 7.48-7.93c.16-.36.32-.72.46-1.08a.73.73 0 0 1 .59-.46.67.67 0 0 1 .37 0 .75.75 0 0 1 .44 1z" />
    <path
        d="m205.25 50.84c-.42 1.34-1.63 2.32-3.7 3l-.17.06c-.59.18-1.19.33-1.8.46a26.57 26.57 0 0 1 -5.83.64 26.84 26.84 0 0 1 -8.88-1.5.63.63 0 0 1 -.25-.16.74.74 0 0 1 -.2-.8.74.74 0 0 1 .87-.48h.08a25.25 25.25 0 0 0 12.07 1.15 23.62 23.62 0 0 0 2.37-.46c.38-.09.76-.2 1.14-.31 1.66-.5 2.59-1.16 2.86-2 0 0 0-.1-.06-.24a3 3 0 0 0 -1.8-1 7.36 7.36 0 0 0 -2.84.36h-.19c-1.45.37-2.91.67-4.39.9s-2.89.42-4.34.53c-1.5.13-3 .19-4.51.18h-.22a.75.75 0 0 1 -.26 0 .75.75 0 0 1 -.47-.7.73.73 0 0 1 .29-.59.73.73 0 0 1 .45-.16h.43c1.45 0 2.9-.06 4.34-.19a0 0 0 0 0 0 0 50.9 50.9 0 0 0 8.31-1.37h.19a8.59 8.59 0 0 1 3.43-.38 4.37 4.37 0 0 1 2.83 1.58 1.76 1.76 0 0 1 .25 1.48z" />
    <path
        d="m200.29 72.4a6.3 6.3 0 0 1 -8.7-3 .75.75 0 0 1 1.37-.62 4.8 4.8 0 0 0 6.63 2.28.75.75 0 1 1 .7 1.33z" />
    <path
        d="m200.79 63.09c0 1.38-.52 2.5-1.17 2.5s-1.16-1.12-1.16-2.5.52-2.5 1.16-2.5 1.17 1.12 1.17 2.5z" />
    <path
        d="m199.58 54.33a26.57 26.57 0 0 1 -5.83.64 26.84 26.84 0 0 1 -8.88-1.5.63.63 0 0 1 -.25-.16 19.19 19.19 0 0 1 -7 7.07 2.17 2.17 0 0 1 .35.39 2.21 2.21 0 0 1 .24 2.32.75.75 0 0 1 -1 .32.76.76 0 0 1 -.33-1 .76.76 0 0 0 -.12-.76 1.14 1.14 0 0 0 -1-.51 1.84 1.84 0 0 0 -1.32 2 3.79 3.79 0 0 0 1.56 2.5.74.74 0 0 1 .13 1 .75.75 0 0 1 -.59.29.74.74 0 0 1 -.46-.16 5.18 5.18 0 0 1 -2.18-3.62 3.23 3.23 0 0 1 .08-1 5.52 5.52 0 0 1 -1.34.16 5.85 5.85 0 0 1 -4.06-1.63 77.32 77.32 0 0 0 -7.56 7.57c2 1.38 8.44 5.41 13.41 5.41h.07l1.5-2.3a.77.77 0 0 1 .64-.35.7.7 0 0 1 .39.11c.14.09 14.79 8.79 22 6.26 7-2.43 6.21-11.17 6.17-11.54a.75.75 0 0 1 .8-.84c1.63 0 3.13-.41 3.27-.75 0-1.03-2.42-6.25-8.69-9.92zm.71 18.07a6.3 6.3 0 0 1 -8.7-3 .75.75 0 0 1 1.37-.62 4.8 4.8 0 0 0 6.63 2.28.75.75 0 1 1 .7 1.33zm-.67-6.81c-.64 0-1.16-1.12-1.16-2.5s.52-2.5 1.16-2.5 1.17 1.12 1.17 2.5-.52 2.5-1.17 2.5zm2.67-6.49a6.79 6.79 0 0 1 -2.17.74c-.16 0-.64 0-7.28-2.72a.75.75 0 0 1 -.41-1 .76.76 0 0 1 1-.41c3 1.22 6.32 2.53 6.79 2.62a11.24 11.24 0 0 0 1.42-.59.75.75 0 0 1 1 .33.76.76 0 0 1 -.35 1.03z"
        fill="#ffe3e4" />
    <path
        d="m202.29 59.1a6.79 6.79 0 0 1 -2.17.74c-.16 0-.64 0-7.28-2.72a.75.75 0 0 1 -.41-1 .76.76 0 0 1 1-.41c3 1.22 6.32 2.53 6.79 2.62a11.24 11.24 0 0 0 1.42-.59.75.75 0 0 1 1 .33.76.76 0 0 1 -.35 1.03z" />
    <path
        d="m196.63 129.08c-6.49 12.22-19.42 14.44-38.45 6.58-3.44-1.42-6.59-3-8.8-4.11a46.07 46.07 0 0 1 6.58-12.7 74.08 74.08 0 0 0 8 3.15 40.56 40.56 0 0 0 11.67 2.35c2.33 0 4.3-.49 5.49-1.75 5.23-5.57-5-23.52-6.23-25.55a.75.75 0 0 0 -1.34.09l-9.78 23.22a73.11 73.11 0 0 1 -7.78-3.13 17.41 17.41 0 0 1 -3-1.67 2.83 2.83 0 0 0 -.46-1.2 4 4 0 0 0 -2.55-1.72 2.31 2.31 0 0 0 -1.94.47 3.59 3.59 0 0 0 -1 1.88c-1.21-.85-3.22-1.78-5.07-.46a2.19 2.19 0 0 0 -1 1.66 3.1 3.1 0 0 0 .14 1.06 4.51 4.51 0 0 0 .45 1 3.37 3.37 0 0 0 -.9.12l-.2.06a3.38 3.38 0 0 0 -.52.22 2.88 2.88 0 0 0 -.5.3 1.83 1.83 0 0 0 -.84 1.61 1 1 0 0 0 0 .24 1.61 1.61 0 0 0 0 .21 1.19 1.19 0 0 0 .08.22 1.17 1.17 0 0 0 .13.28s0 0 0 0a1.75 1.75 0 0 0 .18.29 6.13 6.13 0 0 0 .53.66 2.85 2.85 0 0 0 -.42.09 2 2 0 0 0 -1.21 1c-1.53 2.89 3.14 5.37 7.26 7.56l.71.38 2.14 1.13c2.11 1.08 5.26 2.66 8.77 4.14l-5.38 12.77c-33.56-9.88-39.93-23.16-40.35-24.13 4.41-11.78 12.85-26.62 25-43.86a.74.74 0 0 0 .11-.63.73.73 0 0 0 -.41-.48c-22-10.07-47.8-5.41-61.55-1.58a37.79 37.79 0 0 0 -10.51-11.54c6.6-2.78 21.18-8.22 37.35-9.8 31.53-3.1 55.89 10.61 57.46 11.51h.08a0 0 0 0 1 0 0c.81.58 8.86 6.24 15.14 6.11 2.96 2.18 36.96 27.45 22.92 53.95z"
        fill="#ca7375" />
    <path
        d="m152.68 150.64a.75.75 0 0 1 -.72.54h-.21-.07c-29.81-8.66-38.82-19.87-41.18-23.82a9.89 9.89 0 0 1 -.73-1.43.77.77 0 0 1 .44-1 .76.76 0 0 1 1 .44c.42 1 6.79 14.25 40.35 24.13l.64.19a.74.74 0 0 1 .48.95z" />
    <path
        d="m253.93 222.12c-.52 2.14-12.36 12.18-23.91 21l-5.57-5.45 11.55-11.93c8.74-2.82 16.75-4.43 17.93-3.62z"
        fill="#231f20" />
    <path
        d="m234.67 225-11.29 11.6c-11.74-11.5-34.6-34-41.86-42-4.12-4.53-15.13-9.89-27.88-16.1-18.64-9.1-39.8-19.39-44.64-29.73-2.29-4.85-1.73-12.13 1.51-21.47 2.36 4 11.37 15.16 41.18 23.82 47.53 20.53 79.48 68.45 82.98 73.88z"
        fill="#e6bd66" />
    <path
        d="m236.16 225.61-.12.13-11.58 11.91-.62.63a.76.76 0 0 1 -.54.23h-.12a.7.7 0 0 1 -.4-.2.79.79 0 0 1 -.22-.4.73.73 0 0 1 .2-.65l.63-.64 11.28-11.62.41-.42a.75.75 0 1 1 1.08 1z" />
    <path
        d="m103.49 255.48c-2.59 1.12-21.74.65-39.43-.39l4.48-7.54 19 1.28c7.2 2.17 15.12 5.32 15.95 6.65z"
        fill="#231f20" />
    <path d="m139.64 173.24-52.39 74.08-17.85-1.22 50.23-84.46a175.56 175.56 0 0 0 20.01 11.6z"
        fill="#e6bd66" />
    <path
        d="m88.37 248.14a.75.75 0 0 1 -.75.7h-.13l-19-1.28h-.63a.75.75 0 0 1 -.69-.65.71.71 0 0 1 0-.15.76.76 0 0 1 .49-.66.65.65 0 0 1 .31 0l1.39.09 17.85 1.22h.42a.74.74 0 0 1 .74.73z" />
    <g fill="#231f20">
        <path
            d="m220.46 221.73a246.33 246.33 0 0 0 -81.59-71c-.85-.46-1.61.84-.76 1.3a244.66 244.66 0 0 1 81.05 70.46c.57.76 1.84.02 1.3-.76z" />
        <path
            d="m123.14 172.15-41.25 70.71a.75.75 0 0 0 1.3.76l41.26-70.71a.75.75 0 0 0 -1.31-.76z" />
        <path
            d="m191.49 126.31a12.81 12.81 0 0 1 -11.54 6.93.75.75 0 0 0 0 1.5 14.3 14.3 0 0 0 12.83-7.67c.45-.86-.84-1.62-1.29-.76z" />
        <path
            d="m184.76 126.56-2 1.67c-.74.62.32 1.67 1.06 1.06l2-1.67c.74-.62-.32-1.67-1.06-1.06z" />
        <path
            d="m54.67 73-.3-.68a.76.76 0 0 0 -1-.27.77.77 0 0 0 -.27 1l.3.68a.76.76 0 0 0 1 .27.77.77 0 0 0 .27-1z" />
        <path d="m56.84 77.87-.65-.68c-.67-.7-1.73.36-1.06 1.06l.65.68c.67.7 1.73-.36 1.06-1.06z" />
        <path d="m59 82-.34-.66c-.44-.86-1.73-.1-1.3.76l.34.66c.41.89 1.71.13 1.3-.76z" />
        <path d="m143.43 125.23-.33.33a.75.75 0 0 0 1.06 1.06l.33-.33a.75.75 0 0 0 -1.06-1.06z" />
        <path d="m144.87 121.43v.33a.75.75 0 0 0 1.5 0v-.33a.75.75 0 0 0 -1.5 0z" />
        <path d="m147.6 118-.68 1c-.55.8.75 1.55 1.3.76l.68-1c.54-.76-.76-1.53-1.3-.76z" />
        <path
            d="m163.29 73.29a8.31 8.31 0 0 1 -7.06-4.22.75.75 0 0 0 -1.3.76 9.84 9.84 0 0 0 8.36 5 .75.75 0 0 0 0-1.54z" />
    </g>
    <path
        d="m113.82 70.39a54 54 0 0 0 -22.07.29c-.94.21-.54 1.65.4 1.45a51.93 51.93 0 0 1 21.27-.29c.94.16 1.35-1.27.4-1.45z"
        fill="#fff" />
    <path d="m199.16 184.89-8-7.67c-.7-.67-1.76.39-1.06 1.06l8 7.67c.69.67 1.76-.39 1.06-1.06z"
        fill="#fff" />
    <path d="m108 185.05-5 8.34a.75.75 0 0 0 1.3.76l5-8.34a.75.75 0 0 0 -1.3-.76z" fill="#fff" />
</svg>