<svg viewBox="0 0 300 300" xmlns="http://www.w3.org/2000/svg"><path d="m150.54 65.46c-.06-.06-.11-.1-.18-.18-3-2.65-13.42-6.36-19.94-5.22a9.27 9.27 0 0 0 -1.49.37 6.59 6.59 0 0 0 -1.89 1 57 57 0 0 0 -4.48 3.86c-2.05 1.9-3.88 3.59-5.26 3.85a1.57 1.57 0 0 1 -.81 0c-.13-.12-.34-.32-.61-.54a5.37 5.37 0 0 0 -3.16-1.28 3.65 3.65 0 0 0 -2.76 1.34 2.5 2.5 0 0 0 -.67 2.38c.48 1.8 3.13 3 4.39 3.54a26.3 26.3 0 0 0 -.41 6.45 14.88 14.88 0 0 0 .19 1.51c.42 2.28 1.45 4.29 3.65 4.94 3.09.91 12.91 3.11 19.29 3.11q.57 0 1.11 0a13.2 13.2 0 0 0 1.91-.2 4.46 4.46 0 0 0 2.17-.88c1.21-1.07 1.49-3.24 1.89-6.26.63-4.82 1.5-11.41 6.82-16.36l.25-.23a.78.78 0 0 0 .25-.54.77.77 0 0 0 -.26-.66zm-8.59 17.49c-.33 2.49-.61 4.64-1.39 5.33-2.22 2-16.29-.32-23.07-2.32-3.75-1.1-2.9-8.87-2.26-11.78a.75.75 0 0 0 -.49-.87c-1.19-.39-3.73-1.58-4-2.74a1 1 0 0 1 .34-1 2.18 2.18 0 0 1 1.65-.84 4.6 4.6 0 0 1 2.79 1.47.66.66 0 0 0 .16.13h.07.11c2.29.92 4.69-1.3 7.71-4.09a53.56 53.56 0 0 1 4.36-3.76c4.32-3.24 17.19.7 21 3.44-5.44 5.36-6.33 12.08-6.98 17.03z" fill="#231f20"/><path d="m127.92 62.58a53.56 53.56 0 0 0 -4.36 3.76c-3 2.79-5.42 5-7.71 4.09h-.11-.07l-.16-.13a4.6 4.6 0 0 0 -2.79-1.47 2.18 2.18 0 0 0 -1.65.84 1 1 0 0 0 -.34 1c.31 1.16 2.85 2.35 4 2.74a.75.75 0 0 1 .49.87c-.64 2.91-1.49 10.68 2.26 11.78 6.78 2 20.85 4.29 23.07 2.32.78-.69 1.06-2.84 1.39-5.33.65-5 1.54-11.67 6.93-16.93-3.76-2.84-16.63-6.78-20.95-3.54zm-1.37 1.74a.76.76 0 0 1 1-.19l5.55 3.87.17-.33a10.76 10.76 0 0 1 .64-1.17.75.75 0 1 1 1.25.84 8.8 8.8 0 0 0 -.55 1 11 11 0 0 1 -.64 1.18.76.76 0 0 1 -.49.31h-.13a.71.71 0 0 1 -.43-.14l-.81-.56a5.06 5.06 0 0 1 -.44 1.61c-.65 1.48-1.76 2.43-2.46 2.11s-.74-1.76-.08-3.24a5 5 0 0 1 1.21-1.72l-3.6-2.52a.75.75 0 0 1 -.19-1.05zm2.16 18.41h-.07a9.2 9.2 0 0 1 -8.14-9 .75.75 0 0 1 .75-.74.75.75 0 0 1 .74.76 7.75 7.75 0 0 0 6.78 7.51.75.75 0 0 1 -.07 1.5zm7.5-12.18c-2.9 9-3.83 9.32-4.18 9.43a3 3 0 0 1 -.93.13 10.45 10.45 0 0 1 -2.6-.43.74.74 0 0 1 -.52-.92.76.76 0 0 1 .93-.52 7.58 7.58 0 0 0 2.55.34c.59-.7 2.16-4.89 3.32-8.49a.75.75 0 1 1 1.43.46zm8.73-.12c-.85.21-1.78.48-2.69.76a4.15 4.15 0 0 1 -.39 2.62c-.65 1.48-1.76 2.43-2.46 2.12s-.74-1.76-.08-3.24a5.36 5.36 0 0 1 .41-.75l-1.27.34h-.18a.81.81 0 0 1 -.41-.11.77.77 0 0 1 -.33-.49l-.62-3.09a.75.75 0 0 1 .59-.88.74.74 0 0 1 .88.59l.46 2.3c.8-.21 1.64-.47 2.45-.71 1.1-.33 2.23-.68 3.28-.94a.75.75 0 0 1 .36 1.46z" fill="#ffe3e4"/><path d="m128.91 60.42a6.59 6.59 0 0 0 -1.89 1 57 57 0 0 0 -4.48 3.86c-2.05 1.9-3.88 3.59-5.26 3.85 2.65-4.38 7.05-10.37 9.26-10.37a2.76 2.76 0 0 1 2.08.66 1.47 1.47 0 0 1 .29 1z" fill="#231f20"/><path d="m130.36 60.91a.76.76 0 0 1 -.89.57.75.75 0 0 1 -.57-.9 1.07 1.07 0 0 0 0-.16 1.47 1.47 0 0 0 -.29-1 2.76 2.76 0 0 0 -2.08-.66c-2.21 0-6.61 6-9.26 10.37-.21.34-.41.67-.59 1a.75.75 0 0 1 -.65.37h-.19a.75.75 0 0 1 -.18-.08.66.66 0 0 1 -.16-.13.75.75 0 0 1 -.12-.9c.11-.2.27-.47.47-.8 1.85-3.07 7.12-11.3 10.68-11.3a5.21 5.21 0 0 1 2 .35 2.87 2.87 0 0 1 1.17.83h.05a2.82 2.82 0 0 1 .6 1.6 3.28 3.28 0 0 1 .01.84z" fill="#231f20"/><path d="m155.93 65c-.35.45-3 .56-5.57.27-3-2.65-13.42-6.36-19.94-5.22a2.82 2.82 0 0 0 -.6-1.6h-.05c2.46-.09 15.91-.34 23.26 4.22a14.54 14.54 0 0 1 2.48 1.83 2.32 2.32 0 0 1 .42.5z" fill="#231f20"/><path d="m157.33 65.53c-.39 1.12-2.24 1.43-4.17 1.43a28.36 28.36 0 0 1 -2.9-.18h-.34a.75.75 0 0 1 .18-1.49h.24c2.61.29 5.22.18 5.57-.27a2.32 2.32 0 0 0 -.44-.56 14.54 14.54 0 0 0 -2.47-1.84c-7.35-4.56-20.8-4.31-23.26-4.22h-.39a.75.75 0 0 1 -.79-.71.57.57 0 0 1 0-.13.73.73 0 0 1 .7-.66c.65 0 16.05-.83 24.52 4.43 2.9 1.8 3.96 3.05 3.55 4.2z" fill="#231f20"/><path d="m136.21 70.55c-2.9 9-3.83 9.32-4.18 9.43a3 3 0 0 1 -.93.13 10.45 10.45 0 0 1 -2.6-.43.74.74 0 0 1 -.52-.92.76.76 0 0 1 .93-.52 7.58 7.58 0 0 0 2.55.34c.59-.7 2.16-4.89 3.32-8.49a.75.75 0 1 1 1.43.46z" fill="#231f20"/><path d="m141.86 73.81c-.65 1.48-1.76 2.43-2.46 2.12s-.74-1.76-.08-3.24a5.36 5.36 0 0 1 .41-.75c.64-1 1.48-1.62 2.05-1.37a.91.91 0 0 1 .47.62 4.15 4.15 0 0 1 -.39 2.62z" fill="#231f20"/><path d="m132.11 69.12a5.06 5.06 0 0 1 -.44 1.61c-.65 1.48-1.76 2.43-2.46 2.11s-.74-1.76-.08-3.24a5 5 0 0 1 1.21-1.72c.45-.39.9-.56 1.25-.4s.62.83.52 1.64z" fill="#231f20"/><path d="m135.16 67.32a8.8 8.8 0 0 0 -.55 1 11 11 0 0 1 -.64 1.18.76.76 0 0 1 -.49.31h-.13a.71.71 0 0 1 -.43-.14l-.81-.56-1.77-1.24-3.6-2.52a.75.75 0 1 1 .86-1.23l5.5 3.88.17-.33a10.76 10.76 0 0 1 .64-1.17.75.75 0 1 1 1.25.84z" fill="#231f20"/><path d="m144.94 70.43c-.85.21-1.78.48-2.69.76l-.52.15c-.66.21-1.34.41-2 .6l-1.27.34h-.18a.81.81 0 0 1 -.41-.11.77.77 0 0 1 -.33-.49l-.62-3.09a.75.75 0 0 1 .59-.88.74.74 0 0 1 .88.59l.46 2.3c.8-.21 1.64-.47 2.45-.71 1.1-.33 2.23-.68 3.28-.94a.75.75 0 0 1 .36 1.46z" fill="#231f20"/><path d="m129.46 82a.76.76 0 0 1 -.75.68h-.07a9.2 9.2 0 0 1 -8.14-9 .75.75 0 0 1 .75-.74.75.75 0 0 1 .74.76 7.75 7.75 0 0 0 6.78 7.51.76.76 0 0 1 .69.79z" fill="#231f20"/><path d="m93.55 157.7-1.22-.9a332.57 332.57 0 0 0 -37.48-23.53c8.15-13.74 37.15-33.78 37.45-34a.75.75 0 0 0 -.08-1.27c-.71-.37-17.62-9-25-5.81-5.31 2.3-22.22 9.81-30.12 13.28l-1.37.61-2.73 1.22a.76.76 0 0 0 -.42.88c.94 3.63 1.24 8 .15 8.37a.28.28 0 0 1 -.29 0c-1-.61-1.83-4.14-2.09-6.46a.75.75 0 0 0 -1.28-.44c-4.15 4.16-9.28 8.47-10.78 8.76.31-1.33 3.54-5.55 6.62-9a.75.75 0 0 0 -1.06-1.06c-4.38 4-10 7.94-11.56 7.58 0-1.13 3.73-5.43 8.25-9.56a.75.75 0 0 0 -1-1.13c-4.08 3.43-9.24 6.59-10.56 6 .69-1.68 8.27-7.94 18.33-14.64l1.32-.87c9.79-6.41 21.67-13.07 31.77-16.39 21.13-7 52.33 3 52.64 3.09a.65.65 0 0 0 .39 0 .72.72 0 0 0 .57-.43.75.75 0 0 0 -.49-.94l-.26-.08c-3.08-1-32.75-9.76-53.31-3-20.38 6.7-51.38 28.64-52.46 33.14a1.2 1.2 0 0 0 .28 1.15c1.13 1.12 3.42.4 5.79-.9-1.69 2-2.95 3.91-2.72 5a1.34 1.34 0 0 0 .93 1c1.57.52 4.51-1.16 7.25-3.13-1.44 2-2.45 3.84-2.18 4.78a1.18 1.18 0 0 0 .83.83c2.08.6 8.06-4.83 11.41-8.1.35 2 1.12 5.17 2.59 6.07a1.75 1.75 0 0 0 1.6.15c2.64-1 1.55-6.93.93-9.53 4-1.76 27.25-12.07 33.69-14.87 5.68-2.47 18.65 3.34 22.55 5.21-6 4.21-34.72 24.94-38.69 37.72-2.5 8-2.87 14.22 4.86 24.2.41.53.84 1.07 1.3 1.63 4.17 5 10.3 11 19.09 18.59l1.43 1.23c5.49 4.69 12 10 19.58 16 4.6 3.64-6.47 23.81-11.19 32.43-1.31 2.38-2.25 4.1-2.62 5-1.82 4.24 7 31 10.21 35.12a1.75 1.75 0 0 0 1.25.82h.14c.7-.1 2.83-.4 1.28-24 2.27-3.24 24.61-35.29 26.53-50.14 1.58-12.38-13.53-27.32-30.05-39.68zm28.54 39.43c-1.79 13.88-22.8 44.49-26 49.1l-.41.59a.75.75 0 0 0 -.14.48 1.77 1.77 0 0 1 0 .23c.63 9.56.77 19.95 0 22.19-2.68-3.34-11.58-29.88-10-33.61.1-.21.23-.49.4-.83.26-.51.6-1.16 1-1.9s.73-1.35 1.15-2.11c8.52-15.53 15.72-30.44 10.81-34.33-8-6.37-14.79-11.89-20.43-16.74l-.62-.54c-28.52-24.66-28.13-31.71-24.7-42.73a14.94 14.94 0 0 1 1-2.34c6.75 3.64 71 38.91 67.94 62.54z" fill="#231f20"/><path d="m95.53 269.73c-2.68-3.34-11.58-29.88-10-33.61.1-.21.23-.49.4-.83a17.67 17.67 0 0 0 9.31 12.17.77.77 0 0 0 .29.07c.64 9.57.78 19.96 0 22.2z" fill="#231f20"/><path d="m122.09 197.13c-1.79 13.88-22.8 44.49-26 49.1a.57.57 0 0 0 -.16-.11 16.39 16.39 0 0 1 -8.7-12.25.8.8 0 0 0 -.27-.48c.34-.64.73-1.35 1.15-2.11 8.52-15.53 15.72-30.44 10.81-34.33-8-6.37-14.79-11.89-20.43-16.74a.71.71 0 0 0 -.62-.54c-28.54-24.67-28.15-31.72-24.72-42.74a14.94 14.94 0 0 1 1-2.34c6.75 3.64 71 38.91 67.94 62.54z" fill="#e6bd66"/><path d="m78.48 180.21a.71.71 0 0 0 -.62-.54h-.06a.73.73 0 0 0 -.79.71s0 .21 0 .54c-.19 3.07-1.31 18.45-4.82 24.93-3.74 6.92-40.11 25.29-42.47 26.49l-.12.06a.73.73 0 0 0 -.42.67v.93c0 9.45-.73 19.83-1.78 21.38-2.2-2.75-7.22-29.34-6.91-34.6 0-.9 1.72-2.24 4.13-3.75.51-.33 1-.65 1.62-1 2.85-1.67 6.35-3.47 9.49-5.09 9.43-4.85 19.18-9.87 20.25-14.13 1.66-6.65 1.91-29.1 1.94-34.48 0-.62 0-1 0-1.13a.75.75 0 0 0 -.75-.75.73.73 0 0 0 -.56.25.72.72 0 0 0 -.19.5c0 .27-.1 28-1.91 35.25-.9 3.59-11.2 8.9-19.48 13.15-9.84 5.07-15.89 8.32-16 11.07-.27 4.68 4.58 33.5 7.62 36a1.21 1.21 0 0 0 .78.31 1.42 1.42 0 0 0 .25 0c2.48-.62 3-13 3-23.43 4.43-2.23 38.93-19.77 42.83-27 3.37-6.22 4.59-19.66 4.93-24.41.06-1 .09-1.56.1-1.69a.86.86 0 0 0 -.06-.24z" fill="#231f20"/><path d="m77 180.9c-.19 3.07-1.31 18.45-4.82 24.93-3.74 6.92-40.11 25.29-42.47 26.49a19.78 19.78 0 0 1 -3.47-15.93.81.81 0 0 0 0-.38c2.85-1.67 6.35-3.47 9.49-5.09 9.43-4.85 19.18-9.87 20.25-14.13 1.66-6.65 1.91-29.1 1.94-34.48 4.13 5.03 10.26 11.02 19.08 18.59z" fill="#e6bd66"/><path d="m29.14 234c0 9.45-.73 19.83-1.78 21.38-2.2-2.75-7.22-29.34-6.91-34.6 0-.9 1.72-2.24 4.13-3.75a21.26 21.26 0 0 0 4.3 16.77.63.63 0 0 0 .26.2z" fill="#231f20"/><path d="m29.94 233.88a.74.74 0 0 1 -.47.16.76.76 0 0 1 -.33-.08.63.63 0 0 1 -.26-.2 21.26 21.26 0 0 1 -4.3-16.76 9.31 9.31 0 0 1 .17-.92.76.76 0 0 1 .89-.57.78.78 0 0 1 .56.51.81.81 0 0 1 0 .38 19.78 19.78 0 0 0 3.47 15.93c.12.17.25.33.38.5a.76.76 0 0 1 -.11 1.05z" fill="#231f20"/><path d="m96.26 247.12a.76.76 0 0 1 -.68.42.77.77 0 0 1 -.29-.07 17.67 17.67 0 0 1 -9.31-12.17q-.13-.62-.21-1.23a.75.75 0 0 1 1.22-.67.8.8 0 0 1 .27.48 16.39 16.39 0 0 0 8.7 12.25.57.57 0 0 1 .16.11.74.74 0 0 1 .14.88z" fill="#231f20"/><path d="m201.69 158.52a1.24 1.24 0 0 1 -.78.61 1 1 0 0 1 -.25 0c-1.87 0-4.67-4.67-6.93-9.14-1.86 3.08-4.16 6.07-5.81 5.36a1.35 1.35 0 0 1 -.71-.77c-.65-1.68 1.2-6.28 2.13-8.4l-5.5-3.06-49.25-27.38c-2.61 2.29-5.31 4.57-8.17 7-12.06 10.18-25.7 21.69-32.87 34.95-.11.2-.22.39-.32.59a.75.75 0 0 1 -1.32-.7l.42-.79c7.31-13.43 21-25 33.12-35.19 3-2.53 5.83-4.92 8.54-7.31a.76.76 0 0 1 .86-.1l49 27.22 1.31.73 5.54 3.08a.74.74 0 0 1 .32 1c-1.56 3.42-2.65 6.95-2.41 7.79.72-.19 2.82-2.88 4.55-5.92a.76.76 0 0 1 .67-.38.75.75 0 0 1 .65.42c2.32 4.75 5 8.93 6 9.5.23-.79.11-3.9-1.81-11.37v-.15a.74.74 0 0 1 0-.33v-.09a.3.3 0 0 1 0-.12.61.61 0 0 1 .07-.1l.08-.09.1-.08a.8.8 0 0 1 .23-.1.65.65 0 0 1 .31 0 .63.63 0 0 1 .23.08l.1.07s0 0 .08.07v.06.05a.8.8 0 0 1 .1.23v.14c.23.9.44 1.75.63 2.56 1.45 5.54 1.77 8.92 1.09 10.06z" fill="#231f20"/><path d="m209.86 139-.69-.17-.77-.18c-3.72-.87-8.06-1.6-9.29-1.81h-.15l-1.57-1.23-58-45.34-.72-.56a.74.74 0 0 0 -1 .13.72.72 0 0 0 -.14.63.73.73 0 0 0 .27.42l52.69 41.2 1.19.93 6.32 4.98a0 0 0 0 1 0 0l.2.16a.73.73 0 0 0 .35.15c.06 0 5.85.95 10.29 2a23.44 23.44 0 0 1 4.1 1.27 20.4 20.4 0 0 1 -4.52.21c-2.95-.07-6-.37-6-.38a.76.76 0 0 0 -.67 1.22 62.21 62.21 0 0 1 4.72 6.83 6.52 6.52 0 0 1 .91 2.24 2.35 2.35 0 0 1 -.48-.16l-.12-.06a21.25 21.25 0 0 1 -4.19-3.36c-1.14-1.1-2.09-2.1-2.49-2.53l-.1-.09v-.05-.06s-.05-.06-.08-.07l-.1-.07a.63.63 0 0 0 -.23-.08.74.74 0 0 0 -.5.07s0 0 0 0l-.1.08-.08.09a.61.61 0 0 0 -.07.1.3.3 0 0 0 0 .12v.09a.74.74 0 0 0 0 .33.75.75 0 0 0 .07.18 1.1 1.1 0 0 0 .13.17l.16.17c.31.34 1 1 1.77 1.82l.68.68.09.09a33.11 33.11 0 0 0 3.15 2.74c.36.26.69.48 1 .66a4.61 4.61 0 0 0 .51.29 4.12 4.12 0 0 0 .9.31 1.66 1.66 0 0 0 .39 0 1.34 1.34 0 0 0 .84-.26c1.07-.76.39-2.48-.41-4 0-.08-.08-.17-.13-.25-.3-.55-.65-1.13-1-1.71-.94-1.47-2-2.95-2.78-4 .95.07 2.2.15 3.51.2h.89.39c4.67.08 5.74-.54 5.87-1.5s-.62-1.47-5.01-2.64z" fill="#231f20"/><path d="m32.56 108.18c.94 3.63 1.24 8 .15 8.37a.28.28 0 0 1 -.29 0c-1-.61-1.83-4.14-2.09-6.46a.75.75 0 0 0 -1.28-.44c-4.15 4.16-9.28 8.47-10.78 8.76.31-1.33 3.54-5.55 6.62-9a.75.75 0 0 0 -1.06-1.06c-4.38 4-10 7.94-11.56 7.58 0-1.13 3.73-5.43 8.25-9.56a.75.75 0 0 0 -1-1.13c-4.08 3.43-9.24 6.59-10.56 6 .69-1.68 8.27-7.94 18.33-14.64a37.14 37.14 0 0 1 5.09 4.68 24.58 24.58 0 0 1 3.34 4.77l-2.72 1.25a.76.76 0 0 0 -.44.88z" fill="#ffe3e4"/><path d="m37.07 107.12a.72.72 0 0 1 -.32.08.76.76 0 0 1 -.68-.43c-.11-.23-.22-.46-.34-.69a24.58 24.58 0 0 0 -3.34-4.77 37.14 37.14 0 0 0 -5.09-4.68l-.45-.35a.76.76 0 0 1 -.13-1.05.75.75 0 0 1 1.05-.14l.85.67a37.83 37.83 0 0 1 4.89 4.56 25.23 25.23 0 0 1 3.59 5.15c.12.21.23.43.33.65a.74.74 0 0 1 -.36 1z" fill="#231f20"/><path d="m190.43 132.1a33 33 0 0 0 -6.61 9.32l-49-27.22a.76.76 0 0 0 -.86.1c-2.71 2.39-5.54 4.78-8.54 7.31-12.11 10.21-25.81 21.76-33.12 35.19a332.57 332.57 0 0 0 -37.48-23.53c8.18-13.74 37.18-33.78 37.48-34a.75.75 0 0 0 -.08-1.27c-.71-.37-17.62-9-25-5.81-5.31 2.3-22.22 9.81-30.12 13.28a25.23 25.23 0 0 0 -3.59-5.15 37.83 37.83 0 0 0 -4.89-4.56c9.79-6.41 21.67-13.07 31.77-16.39 21.13-7 52.33 3 52.64 3.09a.65.65 0 0 0 .39 0c.42 2.28 1.45 4.29 3.65 4.94 3.09.91 12.91 3.11 19.29 3.11q.57 0 1.11 0a.73.73 0 0 0 .27.42z" fill="#ca7375"/><path d="m192.08 132.58c-.15.14-.31.29-.46.45a31.55 31.55 0 0 0 -6.49 9.12q-.16.32-.3.63a.73.73 0 0 1 -.68.44.7.7 0 0 1 -.31-.07.75.75 0 0 1 -.37-1c.11-.25.22-.49.35-.74a33 33 0 0 1 6.61-9.32c.21-.22.42-.42.63-.62a.75.75 0 0 1 1 1.1z" fill="#231f20"/><path d="m265.32 72.52c-2.32 2.79-6.39 3.88-10.4 3.88a22.63 22.63 0 0 1 -5.37-.65 15.91 15.91 0 0 1 -2.32-.77 7.45 7.45 0 0 1 -1.57-.87 2.81 2.81 0 0 1 -1.18-1.49c-2.54-5.3-1.69-8.73.62-12a5.77 5.77 0 0 1 -3.21-2 3.35 3.35 0 0 1 -.43-2.83 2.86 2.86 0 0 1 1.72-2.15c1.88-.7 4.28.89 4.54 1.07a.75.75 0 0 1 .2 1 .77.77 0 0 1 -1 .2c-.51-.35-2.19-1.27-3.16-.9-.14 0-.57.21-.8 1.11a1.88 1.88 0 0 0 .22 1.61c.74 1.09 2.68 1.56 3.36 1.64a.75.75 0 0 1 .57.46.74.74 0 0 1 -.11.74l-.28.35c-2.4 3.18-3.26 6.09-.83 11.1l.06.17c.09.44 1.25 1.4 4 2.08 4.77 1.19 11.27.85 14.26-2.73 3.41-4.08.39-9.6-1.48-12.26a18.05 18.05 0 0 0 -1.21-1.57.72.72 0 0 1 -.14-.24.5.5 0 0 1 0-.13.7.7 0 0 1 0-.25.47.47 0 0 1 .06-.15.38.38 0 0 1 .09-.13.31.31 0 0 1 .09-.11l.17-.11 2.13-1c-.72-2.31-3.7-10.7-9.79-14.12a11.9 11.9 0 0 0 -9.56-.86c-13.8 4.14-9.29 32.09-9 34a.55.55 0 0 0 0 .09.8.8 0 0 1 0 .31.76.76 0 0 1 -.59.55.73.73 0 0 1 -.75-.31.7.7 0 0 1 -.13-.29.13.13 0 0 1 0-.06c-.23-1.28-2.36-13.87.25-23.88.14-.52.29-1 .46-1.53.09-.32.2-.63.32-.94.17-.47.36-.94.56-1.39 1.67-3.77 4.32-6.77 8.42-8a15.16 15.16 0 0 1 4.16-.67 11.87 11.87 0 0 1 2.6.22h.26a11.88 11.88 0 0 1 1.65.46 12.84 12.84 0 0 1 2 .93c7.62 4.28 10.56 15.18 10.68 15.64a.76.76 0 0 1 -.4.87l-1.84.87c1.85 2.36 6.71 9.52 2.1 15.04z" fill="#231f20"/><path d="m247.44 77.37v.08a.75.75 0 0 1 -.68.74h-.06a.76.76 0 0 1 -.75-.66l-.29-3.39v-.14a.75.75 0 0 1 1.49-.13l.09 1.07z" fill="#231f20"/><path d="m256.84 55a1.61 1.61 0 0 1 -.49.07 1.78 1.78 0 0 1 -.9-.25c-1.92-1.08-3.22-5.85-3.46-6.79a.76.76 0 0 1 .54-.92.75.75 0 0 1 .91.55c.53 2.09 1.74 5.29 2.74 5.86.14.07.19.05.22 0 .82-.25.73-3.47.09-6.19a.75.75 0 0 1 1.47-.34c.39 1.76 1.46 7.27-1.12 8.01z" fill="#231f20"/><path d="m264.17 71.56c-3 3.58-9.49 3.92-14.26 2.73-2.73-.68-3.89-1.64-4-2.08l-.06-.17c-2.43-5-1.57-7.92.83-11.1a54.05 54.05 0 0 0 8.72.87c3.63 0 6-.68 7-2a2.82 2.82 0 0 0 .28-.46c1.88 2.65 4.9 8.13 1.49 12.21z" fill="#ca7375"/><path d="m262.69 59.3a2.82 2.82 0 0 1 -.28.46c-1 1.37-3.36 2-7 2a54.05 54.05 0 0 1 -8.72-.87l-.43-.07a.75.75 0 0 1 .25-1.48c11.43 2 14.08.29 14.69-.53a1.3 1.3 0 0 0 .15-1.3.19.19 0 0 1 0-.07.5.5 0 0 1 0-.13.7.7 0 0 1 0-.25.47.47 0 0 1 .06-.15.38.38 0 0 1 .09-.13.31.31 0 0 1 .09-.11l.17-.11a.74.74 0 0 1 1 .35 2.87 2.87 0 0 1 -.07 2.39z" fill="#231f20"/><path d="m235.57 48.64a.76.76 0 0 1 -.27-.05l-3.3-1.29a.75.75 0 0 1 .54-1.4l3.31 1.29a.75.75 0 0 1 -.27 1.45z" fill="#231f20"/><path d="m234.05 51a14.51 14.51 0 0 1 -6.73-1.74.75.75 0 0 1 .77-1.29 12.41 12.41 0 0 0 7 1.45.75.75 0 1 1 .26 1.48 7.84 7.84 0 0 1 -1.3.1z" fill="#231f20"/><path d="m248.82 39.66a.75.75 0 0 1 -.4-1.38 16 16 0 0 1 9.93-2.4.75.75 0 0 1 .68.82.76.76 0 0 1 -.82.68 14.51 14.51 0 0 0 -9 2.18.75.75 0 0 1 -.39.1z" fill="#231f20"/><path d="m260.57 39.85a.75.75 0 0 1 -.26 0 13.93 13.93 0 0 0 -8.29-.44.76.76 0 0 1 -.91-.54.75.75 0 0 1 .54-.91 15.45 15.45 0 0 1 9.19.49.75.75 0 0 1 -.26 1.45z" fill="#231f20"/><path d="m254.06 41.42a11.9 11.9 0 0 0 -9.56-.86c-13.8 4.14-9.29 32.09-9 34 2.56 3.23 6.82 5.46 10.41 3l-.29-3.39a2.81 2.81 0 0 1 -1.18-1.49c-2.54-5.3-1.69-8.73.62-12a5.77 5.77 0 0 1 -3.21-2 3.35 3.35 0 0 1 -.43-2.83 2.86 2.86 0 0 1 1.72-2.15c1.88-.7 4.28.89 4.54 1.07a.75.75 0 0 1 .2 1 .77.77 0 0 1 -1 .2c-.51-.35-2.19-1.27-3.16-.9-.14 0-.57.21-.8 1.11a1.88 1.88 0 0 0 .22 1.61c.74 1.09 2.68 1.56 3.36 1.64 11.43 2 14.08.29 14.69-.53a1.3 1.3 0 0 0 .15-1.3.19.19 0 0 1 0-.07.24.24 0 0 1 0-.13.53.53 0 0 1 0-.25.47.47 0 0 1 .06-.15s0 0 0 0a.38.38 0 0 1 .09-.13.31.31 0 0 1 .09-.11.62.62 0 0 1 .17-.11l2.13-1c-.75-2.42-3.73-10.81-9.82-14.23zm2.78 13.58a1.61 1.61 0 0 1 -.49.07 1.78 1.78 0 0 1 -.9-.25c-1.92-1.08-3.22-5.85-3.46-6.79a.76.76 0 0 1 .54-.92.75.75 0 0 1 .91.55c.53 2.09 1.74 5.29 2.74 5.86.14.07.19.05.22 0 .82-.25.73-3.47.09-6.19a.75.75 0 0 1 1.47-.34c.39 1.76 1.46 7.27-1.12 8.01z" fill="#ffe3e4"/><path d="m262.91 173.25-.31.4a.77.77 0 0 1 -.58.26.72.72 0 0 1 -.48-.17.7.7 0 0 1 -.16-.19.72.72 0 0 1 .07-.85s.68-.82 1.67-2.31c3.66-5.49 12-20.55 11.37-42.84a83.64 83.64 0 0 0 -2.22-17.55c-.16-.66-.33-1.3-.5-1.92-6.55-23.57-22.61-28.61-25-29.24-3.53 2.38-8.11 1.4-11.61-2.4-.32-.34-.63-.71-.93-1.1a.35.35 0 0 1 -.05-.08.6.6 0 0 1 -.1-.31.13.13 0 0 1 0-.06.79.79 0 0 1 .3-.61.76.76 0 0 1 1 .14 1.84 1.84 0 0 0 .13.16c2.56 3.23 6.82 5.46 10.41 3a1.13 1.13 0 0 0 .2-.13.74.74 0 0 1 .59-.13l.7.18c3.5 1 19.25 6.76 25.76 30.16.06.2.12.4.17.6a83.12 83.12 0 0 1 2.66 19.23c.72 26.51-11 43.04-13.09 45.76z" fill="#231f20"/><path d="m206.72 155.13v.14.14a.75.75 0 0 1 -.69.46.75.75 0 0 1 -.51-.2l-.1-.11-.2-.27a36.9 36.9 0 0 1 -3.72-6.2l-.06-.13a.75.75 0 0 1 1.2-.86.57.57 0 0 1 .12.18 38.55 38.55 0 0 0 1.95 3.6c.28.45.57.9.87 1.33.31.47.64.92 1 1.36a.69.69 0 0 1 .14.56z" fill="#231f20"/><path d="m235.44 76.27-.29.14c-2.66 1.34-23 12-32.06 29.83-.33.64-.64 1.28-.94 1.94a39.21 39.21 0 0 0 -2.88 9.31 55.92 55.92 0 0 0 -.16 19.38c0 .13 0 .25.07.38a.77.77 0 0 1 -.6.88h-.14a.76.76 0 0 1 -.44-.13 0 0 0 0 0 0 0 .79.79 0 0 1 -.26-.44c-.12-.63-.22-1.27-.31-1.92a58.5 58.5 0 0 1 .4-18.38c4.26-24.56 31.84-39.68 36.38-42l.6-.3a.8.8 0 0 1 .74 0 .7.7 0 0 1 .26.3.75.75 0 0 1 -.37 1.01z" fill="#231f20"/><path d="m271.72 262.14c-1.56-3.13-11.93-5.24-14.91-5.79l6.1-83.1.21-2.88 2.26-30.75c0-.57 0-1.16 0-1.73v-.42c0-.17 0-.34 0-.51a47.61 47.61 0 0 0 -4.38-18.96c-.12-.28-.25-.55-.38-.83l-.27-.56a44.08 44.08 0 0 0 -4.58-7.64.77.77 0 0 0 -1.06-.12.76.76 0 0 0 -.12 1.06 42.61 42.61 0 0 1 4.46 7.47l.21.43c.06.13.12.25.17.38a46.39 46.39 0 0 1 4.44 18.76v.58s0 .65 0 1 0 .71 0 1.07l-2.43 33.14-.07.85-6.07 82.64-.05.73a.74.74 0 0 0 .44.73l.18.06c5 .86 13.45 3 14.5 5.1a.83.83 0 0 1 .06.19l-29.57.93-.43-4.79-.14-1.59-9-99.58a.77.77 0 0 0 -.68-.68.76.76 0 0 0 -.79.55l-27.24 98-.06.2-.12.44a.76.76 0 0 0 .22.77.82.82 0 0 0 .36.18.67.67 0 0 0 .42-.05c5-2.11 10.81-4.14 12.32-4-.69 1.41-6.45 5.18-9.62 7.25-1.57 1-3 2-4.24 2.84-4.38 3.08-12.4 2.4-14.75 1.15a34.28 34.28 0 0 1 .5-5.25c.07-.5.15-1 .23-1.61 2.11-14.45 8.66-50.19 18.79-102.38v-.14-.14c.14-.64.27-1.29.38-1.92 0-.29.11-.57.16-.85a.78.78 0 0 0 -.35-.78l-.12-.06h-.13a.76.76 0 0 0 -.84.51 1.11 1.11 0 0 0 -.84-.4c-.88 0-.95 1.2-.21 1.45a.8.8 0 0 0 .79.25c-.11.57-.22 1.12-.34 1.7l-.06.32c-21.07 109.04-19.77 109.92-18.97 110.45 1.16.76 4 1.39 7.24 1.39s6.85-.64 9.41-2.45c1.17-.82 2.65-1.78 4.21-2.8 7.3-4.78 10.7-7.23 10.33-9a1.15 1.15 0 0 0 -.61-.8c-1.69-.88-8.42 1.64-12.4 3.28l25.92-93.25 9.24 102.58a.77.77 0 0 0 .77.68l30.85-1a.76.76 0 0 0 .65-.41 2.06 2.06 0 0 0 .01-1.89z" fill="#231f20"/><path d="m204 143.09c.95.07 2.2.15 3.51.2l-.73 3.77c-.95-1.47-2.02-2.95-2.78-3.97z" fill="#ffe3e4"/><path d="m265.42 137.89a.72.72 0 0 0 .13-.67.6.6 0 0 0 -.14-.26 47.61 47.61 0 0 0 -4.41-18.96 21.19 21.19 0 0 0 11.24-8 83.64 83.64 0 0 1 2.22 17.55c.62 22.29-7.71 37.35-11.37 42.84l2.26-30.75c.05-.59.07-1.18.07-1.75z" fill="#ffe3e4"/><path d="m214.49 115.59s-1.64 8.23-4.11 20.82c-.09.49-.19 1-.29 1.48s-.15.76-.23 1.15c0 .23-.08.46-.13.7a.76.76 0 0 1 -.74.61h-.18a.75.75 0 0 1 -.56-.87l.15-.77c1.69-8.63 3-15.49 3.84-19.5.11-.55.21-1.06.3-1.5.3-1.56.47-2.4.47-2.4a.76.76 0 1 1 1.48.3z" fill="#231f20"/><path d="m212.95 141.61a20.4 20.4 0 0 1 -4.52.21c-2.95-.07-6-.37-6-.38a.76.76 0 0 0 -.67 1.22 62.21 62.21 0 0 1 4.72 6.83 6.52 6.52 0 0 1 .91 2.24 2.35 2.35 0 0 1 -.48-.16l-.12-.06a21.25 21.25 0 0 1 -4.19-3.36c-1.14-1.1-2.09-2.1-2.49-2.53l-.1-.09v-.05-.06s-.05-.06-.08-.07a.21.21 0 0 0 -.1-.07.63.63 0 0 0 -.23-.08.74.74 0 0 0 -.5.07s0 0 0 0l-.1.08-.08.09a.61.61 0 0 0 -.07.1.3.3 0 0 0 0 .12v.09a.74.74 0 0 0 0 .33v.15c1.92 7.47 2 10.58 1.81 11.37-1-.57-3.7-4.75-6-9.5a.75.75 0 0 0 -.65-.42.76.76 0 0 0 -.67.38c-1.73 3-3.83 5.73-4.55 5.92-.24-.84.85-4.37 2.41-7.79a.74.74 0 0 0 -.32-1l-5.54-3.08a31.55 31.55 0 0 1 6.49-9.12l6.17 5.01a0 0 0 0 1 0 0l.2.16a.73.73 0 0 0 .35.15c.06 0 5.85.95 10.29 2a23.44 23.44 0 0 1 4.11 1.3z" fill="#ffe3e4"/><path d="m209.15 142.71-.12.62-1.1 5.69v.25a.76.76 0 0 1 -.74.61h-.19a.75.75 0 0 1 -.51-.37.72.72 0 0 1 -.08-.5l.37-1.93.73-3.77.17-.86a.76.76 0 0 1 .75-.61h.13a.76.76 0 0 1 .59.87z" fill="#231f20"/><path d="m265.42 137.89a.64.64 0 0 1 -.38.26l-1.13.32a96.83 96.83 0 0 1 -53.82-.58l-.59-.18a.75.75 0 1 1 .44-1.43l.44.13a95.38 95.38 0 0 0 53.53.5l.71-.2a.76.76 0 0 1 .79.25.6.6 0 0 1 .14.26.72.72 0 0 1 -.13.67z" fill="#231f20"/><path d="m223.22 161.85a.76.76 0 0 0 -.67-.11 6 6 0 0 1 -2.08.22 10.88 10.88 0 0 1 -1.1-.12 26 26 0 0 1 -6.43-2.11c-.52-.23-1-.45-1.4-.66-1-.51-1.68-.88-1.7-.89a.73.73 0 0 0 -.63-.05.74.74 0 0 0 -.45.45c-1.9 5.26-3.73 15.43-.52 20.31a5.62 5.62 0 0 0 4.56 2.67h.53a7.32 7.32 0 0 0 5.12-2.06c4.71-4.43 5.08-14.18 5.08-17.07a.76.76 0 0 0 -.31-.58zm-5.8 16.57a5.73 5.73 0 0 1 -4.52 1.64 4.14 4.14 0 0 1 -3.41-2c-2.61-4-1.39-12.7.4-18.15 2.14 1.13 8.08 4 12.13 3.47-.13 5.47-1.39 12.03-4.6 15.04z" fill="#231f20"/><path d="m222 163.39c-.13 5.46-1.39 12-4.6 15a5.73 5.73 0 0 1 -4.52 1.64 4.14 4.14 0 0 1 -3.41-2c-2.61-4-1.39-12.7.4-18.15 2.13 1.17 8.13 4.07 12.13 3.51z" fill="#231f20"/><path d="m220.56 161.87-.09.09a.74.74 0 0 1 -1 0 .57.57 0 0 1 -.13-.14.75.75 0 0 1 0-.92c2.52-3.08 2.35-8.7-.29-12a19.31 19.31 0 0 0 -7.43 3.05 5.22 5.22 0 0 1 2.24 3.07 5.47 5.47 0 0 1 -1 4.71l-.25.3a.75.75 0 0 1 -1.15-1v-.06a4 4 0 0 0 .86-3.61 3.62 3.62 0 0 0 -2.45-2.56.78.78 0 0 1 -.54-.57.74.74 0 0 1 .26-.74 20.8 20.8 0 0 1 9.59-4.18.78.78 0 0 1 .66.25c3.45 3.82 3.73 10.62.72 14.31z" fill="#231f20"/><path d="m252.51 163.87a.74.74 0 0 0 -.69-.11 25.1 25.1 0 0 1 -15.1.28.75.75 0 0 0 -.94.88c.17.79.34 1.61.51 2.45a46.13 46.13 0 0 0 1.91 7.34c1.43 3.64 3.21 5.55 5.44 5.86h.56a5.58 5.58 0 0 0 4-1.87 12.35 12.35 0 0 0 2.38-4.17 34.48 34.48 0 0 0 2.25-10.06.74.74 0 0 0 -.32-.6zm-3.35 10.13a11.13 11.13 0 0 1 -2.07 3.67 3.91 3.91 0 0 1 -3.24 1.38c-1.65-.22-3-1.83-4.25-4.92a44.22 44.22 0 0 1 -1.84-7.09c-.09-.43-.17-.85-.26-1.27a26.57 26.57 0 0 0 13.74-.29 34.94 34.94 0 0 1 -2.08 8.52z" fill="#231f20"/><path d="m212.24 119.19c-.8 4-2.15 10.87-3.84 19.5-3.72-.87-8.06-1.6-9.29-1.81a55.92 55.92 0 0 1 .16-19.38 39.21 39.21 0 0 1 2.88-9.31 19.47 19.47 0 0 0 10.09 11z" fill="#ffe3e4"/><path d="m213.77 119a.76.76 0 0 1 -.69.47.66.66 0 0 1 -.28-.05l-.56-.25a19.47 19.47 0 0 1 -10.09-11c-.19-.5-.36-1-.5-1.54a.74.74 0 0 1 .52-.92.75.75 0 0 1 .92.51 18.12 18.12 0 0 0 9.45 11.44c.27.13.54.25.82.36a.74.74 0 0 1 .41.98z" fill="#231f20"/><path d="m271.77 108.05a19.67 19.67 0 0 1 -11.39 8.51 44.08 44.08 0 0 0 -4.58-7.64.77.77 0 0 0 -1.06-.12.76.76 0 0 0 -.12 1.06 42.61 42.61 0 0 1 4.46 7.47 1.16 1.16 0 0 0 0 .32.75.75 0 0 0 .37.49 46.39 46.39 0 0 1 4.44 18.76 95.38 95.38 0 0 1 -53.53-.5c2.47-12.59 4.11-20.82 4.11-20.82a.76.76 0 1 0 -1.48-.3s-.17.84-.47 2.4a18.12 18.12 0 0 1 -9.45-11.44c9.07-17.82 29.4-28.49 32.06-29.83 3.5 3.8 8.08 4.78 11.61 2.4 2.42.63 18.48 5.67 25.03 29.24z" fill="#edd092"/><path d="m273.37 108.23a.77.77 0 0 1 -.1.25c-.31.51-.64 1-1 1.49a21.19 21.19 0 0 1 -11.27 8.03c-.34.1-.69.19-1 .27h-.17a.73.73 0 0 1 -.35-.09.75.75 0 0 1 -.37-.49 1.16 1.16 0 0 1 0-.32.76.76 0 0 1 .58-.58 6.4 6.4 0 0 0 .72-.19 19.67 19.67 0 0 0 11.39-8.51 4 4 0 0 0 .22-.34.76.76 0 0 1 1-.25.66.66 0 0 1 .18.15s0 0 0 0a.71.71 0 0 1 .17.58z" fill="#231f20"/><path d="m215.75 253.44c-.69 1.41-6.45 5.18-9.62 7.25-1.57 1-3 2-4.24 2.84-4.38 3.08-12.4 2.4-14.75 1.15a34.28 34.28 0 0 1 .5-5.25 11.3 11.3 0 0 0 6 1.71 15 15 0 0 0 9.35-3.67.67.67 0 0 0 .42-.05c4.97-2.11 10.83-4.14 12.34-3.98z" fill="#ca7375"/><path d="m203.84 256.75c-.27.25-.55.49-.83.72a15 15 0 0 1 -9.35 3.67 11.3 11.3 0 0 1 -6-1.71q-.24-.13-.48-.3a.75.75 0 0 1 .71-1.31l.13.07c4.36 3 9.8 2.2 14.62-2l.21-.19a.75.75 0 0 1 1.06.05.77.77 0 0 1 -.07 1z" fill="#231f20"/><path d="m238 142a96.93 96.93 0 0 1 -27.91-4.11c-.07.38-.15.76-.23 1.15 4.39 1.13 5.17 1.86 5 2.79s-1.2 1.58-5.87 1.5l-1.1 5.69c.8 1.49 1.48 3.21.41 4a1.34 1.34 0 0 1 -.84.26 1.66 1.66 0 0 1 -.39 0c-.11.63-.24 1.28-.38 1.92v.14.14c-10.13 52.19-16.68 87.93-18.79 102.38l.13.07c4.36 3 9.8 2.2 14.62-2l27.24-98a.76.76 0 0 1 .79-.55.77.77 0 0 1 .68.68l9 99.58c5.16 1.41 9.65 1 15-1.35l6.07-82.64a.72.72 0 0 1 .07-.85l2.43-33.14c0-.36 0-.72 0-1.07a96.8 96.8 0 0 1 -25.93 3.41zm-19.55 37.52a7.32 7.32 0 0 1 -5.12 2.06h-.53a5.62 5.62 0 0 1 -4.56-2.67c-3.21-4.88-1.38-15 .52-20.31a.74.74 0 0 1 .45-.45.73.73 0 0 1 .63.05s.68.38 1.7.89v-.06a4 4 0 0 0 .86-3.61 3.62 3.62 0 0 0 -2.45-2.56.78.78 0 0 1 -.54-.57.74.74 0 0 1 .26-.74 20.8 20.8 0 0 1 9.59-4.18.78.78 0 0 1 .66.25c3.32 3.78 3.6 10.58.59 14.27l-.09.09a6 6 0 0 0 2.08-.22.75.75 0 0 1 1 .71c.03 2.87-.34 12.62-5.05 17.05zm32.11-5a12.35 12.35 0 0 1 -2.38 4.17 5.58 5.58 0 0 1 -4 1.87h-.56c-2.23-.31-4-2.22-5.44-5.86a46.13 46.13 0 0 1 -1.91-7.34c-.17-.84-.34-1.66-.51-2.45a.75.75 0 0 1 .94-.88 25.1 25.1 0 0 0 15.1-.28.75.75 0 0 1 1 .74 34.48 34.48 0 0 1 -2.24 10.07z" fill="#231f20"/><path d="m224 162.13-4.48-1.36c2.4-3.11 2.2-8.6-.4-11.87a19.31 19.31 0 0 0 -7.43 3.05 5.22 5.22 0 0 1 2.24 3.07 5.48 5.48 0 0 1 -.46 3.9l-4-1.22a.89.89 0 0 0 -1 .54c-1.28 4.53-2.59 9.94.43 14.11a6.69 6.69 0 0 0 9.32 1.8c.78-.56 0-1.86-.76-1.3-3.48 2.51-7.5-.18-8.52-3.9-.89-3.21-.09-6.48.79-9.62l13.89 4.23c.88.3 1.28-1.15.38-1.43z" fill="#fff"/><path d="m251.24 165.51a34.94 34.94 0 0 1 -2.08 8.52 11.13 11.13 0 0 1 -2.07 3.67 3.91 3.91 0 0 1 -3.24 1.38c-1.65-.22-3-1.83-4.25-4.92a44.22 44.22 0 0 1 -1.84-7.09c-.09-.43-.17-.85-.26-1.27a26.57 26.57 0 0 0 13.74-.29z" fill="#231f20"/><path d="m270.44 263-29.57.93-.43-4.79a23 23 0 0 0 5.59.73 23.75 23.75 0 0 0 9.67-2.22l.18.06c5 .86 13.45 3 14.5 5.1a.83.83 0 0 1 .06.19z" fill="#ca7375"/><g fill="#231f20"><path d="m255.87 257.58-.17.07a23.75 23.75 0 0 1 -9.67 2.22 23 23 0 0 1 -5.59-.73l-.87-.24a.74.74 0 0 1 -.51-.93.73.73 0 0 1 .92-.51l.32.08c5.16 1.41 9.65 1 15-1.35a.75.75 0 0 1 .95.4.76.76 0 0 1 -.38.99z"/><path d="m251.22 68.1a4.07 4.07 0 0 1 -.59-2.76c.14-.94-1.3-1.35-1.45-.4a5.69 5.69 0 0 0 .74 3.91c.51.83 1.8.08 1.3-.75z"/><path d="m256.3 69.28-.67-2.67a.75.75 0 0 0 -1.45.4l.67 2.67a.75.75 0 0 0 1.45-.4z"/><path d="m259.49 65.81v.67a.75.75 0 0 0 1.5 0v-.67a.75.75 0 0 0 -1.5 0z"/><path d="m254.26 72.29-.34-1.67c-.19-.95-1.64-.55-1.45.4l.34 1.67c.19.94 1.64.54 1.45-.4z"/><path d="m261.4 70.6c-.17-.95-1.62-.55-1.45.4l.3 1.67c.17.95 1.62.55 1.45-.4z"/><path d="m118.36 120.83a151.23 151.23 0 0 0 -21.14 19.17c-.65.71.41 1.78 1.06 1.06a149.23 149.23 0 0 1 20.83-18.9c.77-.61.02-1.91-.75-1.33z"/><path d="m107.71 122.45-7.5 6c-.75.6.31 1.66 1.06 1.06l7.5-6c.75-.6-.31-1.66-1.06-1.06z"/><path d="m106.62 192c-4.67-14.07-19.73-20.71-27.14-33a.75.75 0 0 0 -1.3.76c7.32 12.09 22.38 18.78 27 32.6 4.67 14-6.36 27.48-7.91 41.1-.11 1 1.39.95 1.5 0 1.57-13.84 12.61-27.12 7.85-41.46z"/><path d="m66.28 177.59c0-1-1.54-1-1.5 0 .34 9.13.53 19.73-6.67 26.51-6 5.67-14.7 7.32-21.26 12.23-.76.57 0 1.88.76 1.3 7.19-5.39 17-7 23-14s5.99-17.22 5.67-26.04z"/><path d="m163.77 123.45a32.9 32.9 0 0 0 -10.83-7.19c-.89-.37-1.28 1.08-.4 1.45a31 31 0 0 1 10.17 6.81.75.75 0 0 0 1.06-1.07z"/><path d="m256.24 82.4a33.6 33.6 0 0 1 -29-1.6c-.85-.46-1.61.83-.76 1.3a35 35 0 0 0 30.16 1.75c.88-.37.5-1.85-.4-1.45z"/><path d="m262.6 88.32a49.19 49.19 0 0 1 -43.88-.72c-.86-.44-1.61.85-.76 1.3a50.79 50.79 0 0 0 45.39.72c.88-.43.12-1.72-.75-1.3z"/><path d="m266.38 96.87a61.19 61.19 0 0 1 -56.86-1.18c-.84-.47-1.6.83-.76 1.3a62.76 62.76 0 0 0 58.37 1.18c.87-.44.11-1.73-.75-1.3z"/><path d="m254.74 108.23h-.25a1.25 1.25 0 0 1 -1 .43 62.05 62.05 0 0 1 -38 2.32c0-.79-1.26-1.07-1.45-.2l-1 4.75c-.2.94 1.25 1.34 1.45.4l.73-3.47a63.43 63.43 0 0 0 38.7-2.35.76.76 0 0 0 .43-.41.71.71 0 0 0 .16 0h.25a.75.75 0 0 0 -.02-1.47z"/><path d="m260.83 120.13a87.16 87.16 0 0 1 -47.38 3c-.94-.2-1.34 1.24-.4 1.45a88.68 88.68 0 0 0 48.17-3c.92-.32.53-1.77-.39-1.45z"/><path d="m201.89 115.87a23.07 23.07 0 0 0 -2 10.11.75.75 0 0 0 1.5 0 21.35 21.35 0 0 1 1.83-9.35c.35-.87-.94-1.63-1.33-.76z"/><path d="m203.19 119-.52 4.5c-.11 1 1.39.95 1.5 0l.52-4.5c.11-1-1.39-1-1.5 0z"/><path d="m89.83 105-5.5 4c-.77.56 0 1.87.76 1.3l5.5-4c.77-.53.02-1.84-.76-1.3z"/><path d="m101.19 81.51a75.3 75.3 0 0 0 -12.25-3c-.94-.15-1.35 1.3-.4 1.45a75.29 75.29 0 0 1 12.25 3c.92.31 1.31-1.14.4-1.45z"/></g><path d="m55.36 92.84-5 2.5c-.86.43-.1 1.73.76 1.3l5-2.5c.88-.44.1-1.74-.76-1.3z" fill="#fff"/><path d="m115.52 186c-.62-.74-1.68.33-1.06 1.06a9.25 9.25 0 0 1 1.37 9.83c-.4.87.9 1.64 1.3.76a10.82 10.82 0 0 0 -1.61-11.65z" fill="#fff"/><path d="m56.14 149.35a7.29 7.29 0 0 1 -.43-6.18c.33-.91-1.12-1.3-1.45-.4a8.76 8.76 0 0 0 .58 7.33c.46.9 1.76.1 1.3-.75z" fill="#fff"/><path d="m254.83 163a.76.76 0 0 0 -.17-.39c.15-.45-.08-1-.67-1l-15 1.5a.82.82 0 0 0 -.54 1.32c-.42 5.17 2.81 12.12 8.67 12.52 6.76.47 8.31-9.14 7.71-13.95zm-8.36 12.37c-4.64-1-6.84-6.54-6.54-10.81l13.42-1.34c.45 4.16-.71 13.48-6.88 12.12z" fill="#fff"/><path d="m248.62 186.49c0-1-1.54-1-1.5 0q1.35 29.61-.18 59.24c0 1 1.45 1 1.5 0q1.56-29.61.18-59.24z" fill="#fff"/><path d="m210.78 182.34-14.92 64.71c-.22.94 1.23 1.34 1.45.4l14.92-64.71c.21-.94-1.23-1.34-1.45-.4z" fill="#fff"/><path d="m272.47 117.28c-.28-.92-1.73-.53-1.45.4a24.91 24.91 0 0 1 .68 12.09c-.18.94 1.27 1.35 1.45.4a26.57 26.57 0 0 0 -.68-12.89z" fill="#fff"/></svg>