<svg viewBox="0 0 300 300" xmlns="http://www.w3.org/2000/svg"><g fill="#231f20"><path d="m194.63 55.16c-.13.37-.27.73-.42 1.09a17.22 17.22 0 0 0 -1.27 4.28v.4a.75.75 0 0 1 -.75.7h-.05a.75.75 0 0 1 -.7-.8s0-.09 0-.13a17.71 17.71 0 0 1 1.41-5c.14-.35.28-.71.41-1.06.61-1.64 1.24-3.75.7-5.64-.44-1.53-2-2.92-3.52-2.67l-.24.05a.76.76 0 0 1 -.76-.22.69.69 0 0 1 -.17-.3.73.73 0 0 1 .17-.7.7.7 0 0 1 .35-.23 3.58 3.58 0 0 1 .45-.09c2.33-.36 4.55 1.59 5.16 3.74.6 2.31-.07 4.73-.77 6.58z"/><path d="m190.21 44.84a3.58 3.58 0 0 0 -.45.09.7.7 0 0 0 -.35.23 7.62 7.62 0 0 0 -1.09-.93 9.82 9.82 0 0 0 -1-.68c-6.14-3.53-12.72-4.74-17.15-3.15a8.39 8.39 0 0 0 -2.51 1.4 6.06 6.06 0 0 0 -1 1 8.29 8.29 0 0 1 -4.13-2.8 3.91 3.91 0 0 1 -.39-3.27 2.73 2.73 0 0 1 1.67-1.73 4.4 4.4 0 0 1 2.34 0l12 2.35a26.23 26.23 0 0 1 7.15 2.13 9.58 9.58 0 0 1 4.91 5.36z"/><path d="m167.62 41.79a.72.72 0 0 1 0 .56.74.74 0 0 1 -1 .41 6.06 6.06 0 0 1 1-.97z"/><path d="m190.13 46a.69.69 0 0 1 -.35.2h-.19a.57.57 0 0 1 -.18 0 .72.72 0 0 1 -.54-.54 5.68 5.68 0 0 0 -.55-1.39 7.62 7.62 0 0 1 1.09.93.7.7 0 0 1 .35-.23 3.58 3.58 0 0 1 .45-.09c0 .14.08.28.11.42a.76.76 0 0 1 -.19.7z"/><path d="m174.52 49.95a1.55 1.55 0 0 1 -.3 0c-1.42 0-4.13-2.15-6.24-4a.75.75 0 0 1 -.06-1.06.76.76 0 0 1 1.06-.06c2.21 2 4.59 3.66 5.18 3.67a.72.72 0 0 1 .9.52.79.79 0 0 1 -.54.93z"/><path d="m184.35 50.91a.72.72 0 0 1 -.54.23.75.75 0 0 1 -.52-.21l-4.17-4a.75.75 0 0 1 0-1.06.75.75 0 0 1 1.06 0l4.17 4a.75.75 0 0 1 0 1.04z"/><path d="m182.27 53.14c-1 1.52-4.37 6.35-6.81 6.35h-.26a1.63 1.63 0 0 1 -1.14-.76c-.66-1-.57-3-.31-4.79-.55.67-1.16 1.35-1.77 2a0 0 0 0 0 0 0c-.12.12-.24.24-.36.34-1.18 1.15-2.36 2-3.2 1.9a1.43 1.43 0 0 1 -1-.58c-1.17-1.56-.29-6.63 0-8.14a.75.75 0 1 1 1.47.28c-.63 3.21-.75 6.53-.26 7 .36 0 1.23-.72 2.32-1.86a43.38 43.38 0 0 0 3.6-4.36.74.74 0 0 1 .93-.23.76.76 0 0 1 .4.87c-.6 2.25-1.17 5.86-.56 6.8.06.09.09.09.11.1 1 .14 3.71-2.81 5.6-5.68a.75.75 0 1 1 1.25.83z"/><path d="m172.92 57a30.1 30.1 0 0 0 -3.41 5.68 9.53 9.53 0 0 0 1.77 1 .75.75 0 0 1 .38 1 .74.74 0 0 1 -.68.44.81.81 0 0 1 -.31-.06 10 10 0 0 1 -2.39-1.49c-.39-.39-1.11-1.11 3.33-7.35l.09-.12a.63.63 0 0 1 .27-.22 0 0 0 0 1 0 0 .74.74 0 0 1 .77.06.76.76 0 0 1 .18 1.06z"/><path d="m182.68 64.83a.75.75 0 0 1 -1 .43c-5.43-2.11-9.11 2.39-9.15 2.44a.74.74 0 0 1 -1.05.11.74.74 0 0 1 -.12-1c0-.06 4.42-5.4 10.86-2.9a.75.75 0 0 1 .46.92z"/><path d="m195.57 61.16a4.15 4.15 0 0 0 -2.63-.63 9.18 9.18 0 0 0 -1.53.17l-.44.09c1-2.93 2.84-9.75-.56-14.46a2.94 2.94 0 0 0 -.28-.36 6.75 6.75 0 0 0 -.72-.81 7.62 7.62 0 0 0 -1.09-.93 9.82 9.82 0 0 0 -1-.68c-6.14-3.53-12.72-4.74-17.15-3.15a8.39 8.39 0 0 0 -2.51 1.4 6.06 6.06 0 0 0 -1 1 7.68 7.68 0 0 0 -1.43 2.39c-.72 1.91-1.67 4.12-2.67 6.47-2.48 5.78-5 11.75-4.79 14.68s5.36 5.24 16.5 7.79a1.76 1.76 0 0 0 -.11.18l-3.68 8.49-.15.35a.74.74 0 0 0 .15.81 2.6 2.6 0 0 0 .32.3 11.47 11.47 0 0 0 7.41 2.37 18.27 18.27 0 0 0 5.2-.8l.32-.09a.72.72 0 0 0 .5-.49l.18-.58 5.88-18.8c1.2.33 3.51.77 5-.18a2.77 2.77 0 0 0 1.25-2.24 2.42 2.42 0 0 0 -.97-2.29zm-1.17 3.22c-1.11.72-3.6.08-4.39-.2a.73.73 0 0 0 -.58 0 .78.78 0 0 0 -.39.45l-6.16 19.71c-6.36 1.81-9.91-.33-11-1.18l3.62-8.33a.73.73 0 0 0 0-.48l1.36.29h.17c3.71.8 6-2.93 6.62-5a.75.75 0 1 0 -1.43-.46s-1.55 4.7-4.88 4h-.16c-15.42-3.29-17.89-5.83-18-7-.21-2.55 2.38-8.61 4.68-14 1-2.36 2-4.59 2.7-6.53a6.36 6.36 0 0 1 4-3.86c4-1.45 10.12-.29 15.89 3 8 4.59 2.58 16.63 2.52 16.75a.77.77 0 0 0 .13.82.74.74 0 0 0 .8.2c1.44-.49 3.85-.9 4.67-.26.16.12.36.34.31.94a1.27 1.27 0 0 1 -.48 1.14z"/></g><path d="m194.65 62.35c-.82-.64-3.23-.23-4.67.26a.74.74 0 0 1 -.8-.2.77.77 0 0 1 -.13-.82c.06-.12 5.47-12.16-2.52-16.75-5.77-3.32-11.86-4.48-15.89-3a6.36 6.36 0 0 0 -4 3.86c-.74 1.94-1.69 4.17-2.7 6.53-2.3 5.35-4.89 11.41-4.68 14 .11 1.22 2.58 3.76 18 7h.16c3.33.71 4.87-4 4.88-4a.75.75 0 1 1 1.43.46c-.66 2.07-2.91 5.8-6.62 5h-.17l-1.36-.29a.73.73 0 0 1 0 .48l-3.62 8.33c1.09.85 4.64 3 11 1.18l6.04-19.73a.78.78 0 0 1 .39-.45.73.73 0 0 1 .58 0c.79.28 3.28.92 4.39.2a1.27 1.27 0 0 0 .56-1.09c.08-.63-.11-.85-.27-.97zm-26.73-17.46a.76.76 0 0 1 1.06-.06c2.21 2 4.59 3.66 5.18 3.67a.72.72 0 0 1 .9.52.79.79 0 0 1 -.54.93 1.55 1.55 0 0 1 -.3 0c-1.42 0-4.13-2.15-6.24-4a.75.75 0 0 1 -.06-1.06zm2.75 20.19a10 10 0 0 1 -2.39-1.49c-.39-.39-1.11-1.11 3.33-7.35-1.18 1.15-2.36 2-3.2 1.9a1.43 1.43 0 0 1 -1-.58c-1.17-1.56-.29-6.63 0-8.14a.75.75 0 1 1 1.47.28c-.63 3.21-.75 6.53-.26 7 .36 0 1.23-.72 2.32-1.86a43.38 43.38 0 0 0 3.6-4.36.74.74 0 0 1 .93-.23.76.76 0 0 1 .4.87c-.6 2.25-1.17 5.86-.56 6.8.06.09.09.09.11.1 1 .14 3.71-2.81 5.6-5.68a.75.75 0 1 1 1.25.83c-1 1.52-4.37 6.35-6.81 6.35h-.26a1.63 1.63 0 0 1 -1.14-.76c-.66-1-.57-3-.31-4.79-.55.67-1.16 1.35-1.77 2a.74.74 0 0 1 .77.06.76.76 0 0 1 .17 1 30.1 30.1 0 0 0 -3.41 5.68 9.53 9.53 0 0 0 1.77 1 .75.75 0 0 1 .38 1 .74.74 0 0 1 -.68.44.81.81 0 0 1 -.31-.07zm12-.25a.75.75 0 0 1 -1 .43c-5.43-2.11-9.11 2.39-9.15 2.44a.74.74 0 0 1 -1.05.11.74.74 0 0 1 -.12-1c0-.06 4.42-5.4 10.86-2.9a.75.75 0 0 1 .47.92zm1.67-13.92a.72.72 0 0 1 -.54.23.75.75 0 0 1 -.52-.21l-4.17-4a.75.75 0 0 1 0-1.06.75.75 0 0 1 1.06 0l4.17 4a.75.75 0 0 1 .01 1.04z" fill="#ffe3e4"/><path d="m193.23 54.64c-.13.35-.27.71-.41 1.06a17.71 17.71 0 0 0 -1.41 5l-.44.09c1-2.93 2.84-9.75-.56-14.46 1.51-.25 3.08 1.14 3.52 2.67.54 1.89-.09 4-.7 5.64z" fill="#231f20"/><path d="m220.1 132.22a19.07 19.07 0 0 1 -10.5 11.78 29.41 29.41 0 0 1 -11.93 2.21 55.52 55.52 0 0 1 -10.09-1c-.48-.08-1-.17-1.47-.28a108.78 108.78 0 0 1 -20.53-6.64l-.31-.13a.17.17 0 0 1 -.1-.07.73.73 0 0 1 -.3-.92.74.74 0 0 1 1-.39l.32.13c.3.13.6.26.9.37 17.95 7.51 32.8 9.41 41.91 5.35a17.64 17.64 0 0 0 9.7-10.91c7.4-21.56-31.78-44-35.31-46l-.25-.14a.75.75 0 0 1 -.3-1 .74.74 0 0 1 1-.3l.54.3c5.25 2.95 43.45 25.12 35.72 47.64z" fill="#231f20"/><path d="m158.62 122.48a.73.73 0 0 0 -.39-.5l-.29-.15c-2.52-1.29-5.71-2.83-8.75-4.11-.48-.2-1-.4-1.43-.58a39.37 39.37 0 0 0 -4.76-1.61 14 14 0 0 0 -1.47-.29c-1.23-.18-2.14-.07-2.55.42a1.54 1.54 0 0 0 -.31 1.5c.49 1.54 3.7 2.77 5.85 3.44-3.37 2.44-8.82 6.63-9 8.48a1.16 1.16 0 0 0 .32.93c.73.73 2.49.25 5.25-1.42-1 1.28-1.55 2.43-1.37 3.17a1.26 1.26 0 0 0 1 .94c1.39.37 3.56-1.13 5.59-3-.85 1.76-1.37 3.39-1 4.24a1.36 1.36 0 0 0 1.18.76h.09c2.84 0 9.55-8.54 11.76-11.47l.13-.17a.7.7 0 0 0 .15-.58zm-12 10.74c-.13-1 1.84-4.81 4.35-8.49a.75.75 0 0 0 -.16-1 .79.79 0 0 0 -.46-.15.74.74 0 0 0 -.57.27c-3.12 3.71-7.19 7.44-8.61 7.44.25-1 3.11-4.32 6.52-7.4a.75.75 0 0 0 -1-1.15c-3.64 2.87-8.06 5.81-9.58 6.14.89-1.42 5.37-5.06 9.48-7.94a.74.74 0 0 0 .31-.74.78.78 0 0 0 -.55-.6c-3.51-.91-6.28-2.3-6.31-2.93 1.18-.72 9.39 2.62 16.64 6.26-3.82 5.07-8.56 10.18-10.02 10.29z" fill="#231f20"/><path d="m156.75 122.91c-3.89 5.06-8.63 10.2-10.09 10.31-.13-1 1.84-4.81 4.35-8.49a.75.75 0 0 0 -.16-1 .79.79 0 0 0 -.46-.15.74.74 0 0 0 -.57.27c-3.12 3.71-7.19 7.44-8.61 7.44.25-1 3.11-4.32 6.52-7.4a.75.75 0 0 0 -1-1.15c-3.64 2.87-8.06 5.81-9.58 6.14.89-1.42 5.37-5.06 9.48-7.94a.74.74 0 0 0 .31-.74.78.78 0 0 0 -.55-.6c-3.51-.91-6.28-2.3-6.31-2.93 1.21-.74 9.42 2.6 16.67 6.24z" fill="#ffe3e4"/><path d="m202.28 128.82a.75.75 0 0 1 -.55.24.78.78 0 0 1 -.51-.2c-.13-.12-.27-.24-.4-.34a30.82 30.82 0 0 0 -11.22-6.36l-.2-.07h-.12-.08a35.41 35.41 0 0 0 -5.07-1.18c-.5-.09-1-.16-1.49-.22-11.71-1.48-22.63 2.08-24.26 2.64l-.21.08a.75.75 0 1 1 -.52-1.4l.31-.11c2.36-.84 16.91-5.55 31-1.45l.86.26.11.05.47.16a32.23 32.23 0 0 1 11 6.2c.28.23.55.47.81.71a.75.75 0 0 1 .07.99z" fill="#231f20"/><path d="m184.14 120.36v.48l-.44 7v.53a.76.76 0 0 1 -.35.59l-.34.21a145.51 145.51 0 0 1 -15.88 8.13l-1.9.81a81.65 81.65 0 0 1 -18.09 5.46c-.52.09-1 .16-1.54.22a38 38 0 0 1 -4.7.31 22.47 22.47 0 0 1 -8.52-1.48c-4.7-1.93-7.78-5.72-9.16-11.29a28 28 0 0 1 3.35-22.19c11.16-18.07 40.15-25.48 43.93-26.38l.37-.09a.76.76 0 0 1 .9.57.74.74 0 0 1 -.57.89l-.38.09c-3.64.9-32.29 8.41-43 25.71a26.58 26.58 0 0 0 -3.16 21c1.25 5.07 4 8.52 8.26 10.26 15.47 6.33 45.78-11.26 49.29-13.35l.45-7.25v-.36a.75.75 0 0 1 1.5.1z" fill="#231f20"/><path d="m171.92 247.29v.2l1 .4c5 2 10.31 4.47 10.61 6.44a1.29 1.29 0 0 1 -.5 1.24 4.32 4.32 0 0 1 -2.53.55c-4.77 0-14.81-2.86-26.25-7.63a.75.75 0 0 1 -.46-.76c.12-1.28.26-2.59.42-3.92 0-.27.05-.54.09-.82.71-6.08 1.68-12.57 2.63-18.9.64-4.22 1.25-8.31 1.77-12.18.44-3.22.81-6.28 1.08-9.13a.76.76 0 0 1 .82-.68.74.74 0 0 1 .52.29.7.7 0 0 1 .16.53c-.61 6.35-1.71 13.68-2.87 21.45-.94 6.23-1.9 12.63-2.61 18.62-.06.5-.11 1-.16 1.51-.12 1-.22 1.93-.31 2.87 16.39 6.78 25.33 7.82 26.67 7.13-.36-.65-2.84-2.64-11.23-5.78a.75.75 0 0 1 -.48-.81l.15-1 15.14-98.66.17-1.14.33-2.15v-.24a.75.75 0 0 1 .86-.63.73.73 0 0 1 .62.85l-.05.3z" fill="#231f20"/><path d="m189.21 130.56a.74.74 0 0 1 -.72.54h-.21a44.55 44.55 0 0 1 -5.33-1.91l-.38-.17a.75.75 0 0 1 .64-1.36l.46.2a41.2 41.2 0 0 0 5 1.8.75.75 0 0 1 .54.9z" fill="#231f20"/><path d="m200.82 128.52a3.84 3.84 0 0 1 -1 1.09c-2.59 1.94-7.48 1.08-11.12 0a41.2 41.2 0 0 1 -5-1.8l.44-7a35.41 35.41 0 0 1 5.07 1.18.69.69 0 0 0 .4.14 30.82 30.82 0 0 1 11.21 6.39z" fill="#ffe3e4"/><path d="m203.14 125.14c0 2.56-.81 4.47-2.42 5.67a8.71 8.71 0 0 1 -5.3 1.44 26.54 26.54 0 0 1 -7.14-1.18.75.75 0 0 1 -.51-.93.75.75 0 0 1 .93-.51c3.64 1.06 8.53 1.92 11.12 0a3.84 3.84 0 0 0 1-1.09 4.61 4.61 0 0 0 .61-1.47 8 8 0 0 0 .21-1.91c0-9.45-6.87-16.07-9.5-18.26l-1.73 14-.07.6a.71.71 0 0 1 -.74.71.69.69 0 0 1 -.4-.14.82.82 0 0 1 -.33-.65l.12-1 1.85-15a.72.72 0 0 1 .43-.59.75.75 0 0 1 .74.06c.43.29 11.13 7.84 11.13 20.25z" fill="#231f20"/><path d="m218.68 131.73a17.64 17.64 0 0 1 -9.7 10.91c-9.11 4.06-24 2.16-41.91-5.35a145.51 145.51 0 0 0 15.88-8.13 44.55 44.55 0 0 0 5.33 1.91 26.54 26.54 0 0 0 7.14 1.18 8.71 8.71 0 0 0 5.3-1.44c1.61-1.2 2.42-3.11 2.42-5.67 0-12.41-10.7-20-11.15-20.28a.75.75 0 0 0 -.74-.06.72.72 0 0 0 -.43.59l-1.85 15c-14.12-4.1-28.67.61-31 1.45-2.52-1.29-5.71-2.83-8.75-4.11l2.1-13.92a.75.75 0 0 0 -1.18-.72 22.84 22.84 0 0 0 -8.58 12.16c-1.23-.18-2.14-.07-2.55.42a1.54 1.54 0 0 0 -.31 1.5c.49 1.54 3.7 2.77 5.85 3.44-3.37 2.44-8.82 6.63-9 8.48a1.16 1.16 0 0 0 .32.93c.73.73 2.49.25 5.25-1.42-1 1.28-1.55 2.43-1.37 3.17a1.26 1.26 0 0 0 1 .94c1.39.37 3.56-1.13 5.59-3-.85 1.76-1.37 3.39-1 4.24a1.36 1.36 0 0 0 1.18.76h.09c2.84 0 9.55-8.54 11.76-11.47 1.63-.56 12.55-4.12 24.26-2.64l-.45 7.25c-3.51 2.09-33.82 19.68-49.29 13.35-4.23-1.74-7-5.19-8.26-10.26a26.58 26.58 0 0 1 3.16-21c10.69-17.3 39.34-24.81 43-25.71a11.47 11.47 0 0 0 7.41 2.37 18.27 18.27 0 0 0 5.2-.8c3.5 1.94 42.68 24.37 35.28 45.93z" fill="#ca7375"/><path d="m151.29 103.8-2.1 13.92-.06.37a.74.74 0 0 1 -.74.64h-.11a.76.76 0 0 1 -.63-.86l.11-.72 1.76-11.69a21.55 21.55 0 0 0 -6.52 10.07c0 .19-.11.38-.16.57a.75.75 0 1 1 -1.45-.39c0-.16.09-.32.14-.47a22.84 22.84 0 0 1 8.58-12.16.75.75 0 0 1 1.18.72z" fill="#231f20"/><path d="m168.4 173.73c-1.81 7.2-4.24 16.81-7.25 28.62-.53 2.09-1.08 4.26-1.65 6.49-.26 1-.52 2-.77 3-4.35 17-8.58 33.56-10.76 42a.49.49 0 0 1 0 .13c-.93 3.62-1.47 5.74-1.47 5.74a.74.74 0 0 1 -.6.55c-6.54 1.1-25.67 4.21-32.84 4.21a5.73 5.73 0 0 1 -2.61-.35 1 1 0 0 1 -.41-.64c-.11-.65-.44-2.61 18.73-8.86l16.82-111 .11-.75a.76.76 0 0 1 .86-.63.75.75 0 0 1 .62.86l-.05.3-.28 1.85-.22 1.5-16.36 107.73-.14.94a.74.74 0 0 1 -.51.6h-.11c-7.41 2.41-15.64 5.59-17.64 7.07 3.56.33 19.11-1.78 33.25-4.15.36-1.39.73-2.84 1.12-4.33.12-.51.26-1 .39-1.55 9-35.19 23.73-92.73 24.18-95.59a.77.77 0 0 1 .33-.66.79.79 0 0 1 .86 0c.54.44.54.44-3.6 16.92z" fill="#231f20"/><path d="m146.24 254.65c-.39 1.49-.76 2.94-1.12 4.33-14.14 2.37-29.69 4.48-33.25 4.15 2-1.48 10.23-4.66 17.64-7.07z" fill="#231f20"/><path d="m148 253.75a.74.74 0 0 1 0 .21.49.49 0 0 1 0 .13.76.76 0 0 1 -.63.47l-1.05.09-16.73 1.41h-.12a.75.75 0 0 1 -.06-1.5l.94-.08 16.36-1.38h.53a.76.76 0 0 1 .76.65z" fill="#231f20"/><path d="m182 254.46c-1.34.69-10.28-.35-26.67-7.13.09-.94.19-1.9.31-2.87l14.81 4a.76.76 0 0 0 .32.23c8.42 3.13 10.9 5.12 11.23 5.77z" fill="#231f20"/><path d="m172.95 248.34a.75.75 0 0 1 -.72.55.68.68 0 0 1 -.2 0l-1.55-.42-14.81-4-1-.26a.75.75 0 0 1 -.47-.38.72.72 0 0 1 -.06-.54.69.69 0 0 1 .15-.28.76.76 0 0 1 .77-.25l.74.2 14.64 3.94 1.45.4.5.13a.81.81 0 0 1 .52.47.82.82 0 0 1 .04.44z" fill="#231f20"/><path d="m186.11 144.94-.33 2.15a.71.71 0 0 0 -.53-.25c-6.61-.27-13-.5-19.5-.72-6.26-.22-12.53-.45-18.95-.71l.28-1.85a81.65 81.65 0 0 0 18.09-5.46.17.17 0 0 0 .1.07l.31.13a108.78 108.78 0 0 0 20.53 6.64z" fill="#ca7375"/><path d="m185.61 148.23-15.14 98.66-14.64-3.94c.71-6 1.67-12.39 2.61-18.62 1.16-7.77 2.26-15.1 2.87-21.45a.7.7 0 0 0 -.16-.53c3-11.81 5.44-21.42 7.25-28.62 4.14-16.48 4.14-16.48 3.6-16.87a.79.79 0 0 0 -.86 0 .77.77 0 0 0 -.33.66c-.45 2.86-15.15 60.4-24.18 95.59l-16.36 1.38 16.31-107.57c6.48.26 12.79.48 19.12.7s12.88.45 19.49.73a.74.74 0 0 0 .42-.12z" fill="#e6bd66"/><path d="m186 147.62a.75.75 0 0 1 -.75.72c-6.61-.28-13-.5-19.49-.73s-12.64-.44-19.12-.7h-.38a.74.74 0 0 1 -.72-.78.76.76 0 0 1 .78-.72h.54c6.42.26 12.69.49 18.95.71 6.45.22 12.89.45 19.5.72a.71.71 0 0 1 .53.25.72.72 0 0 1 .16.53z" fill="#231f20"/><path d="m159.16 158.06-20.65 85.46c-.23.94 1.22 1.34 1.45.4l20.65-85.46c.22-.93-1.22-1.33-1.45-.4z" fill="#231f20"/><path d="m173.53 188.8-6 46.5c-.12 1 1.38.95 1.5 0l6-46.5c.12-.95-1.38-.94-1.5 0z" fill="#231f20"/><path d="m127.26 116.58a26.76 26.76 0 0 0 -.87 12.92c.16.95 1.61.55 1.45-.4a25.11 25.11 0 0 1 .86-12.1c.3-.94-1.15-1.34-1.44-.42z" fill="#231f20"/><path d="m208.06 118.35c-.2-.94-1.65-.54-1.45.4a15.89 15.89 0 0 1 -3 13.16c-.58.77.72 1.52 1.3.76a17.36 17.36 0 0 0 3.15-14.32z" fill="#231f20"/><path d="m212.56 122.31c-.11-.95-1.61-1-1.5 0a10 10 0 0 1 -1.15 6.12c-.46.85.83 1.61 1.3.76a11.39 11.39 0 0 0 1.35-6.88z" fill="#231f20"/><path d="m176.36 89.07a7.32 7.32 0 0 1 -7.16-3.14c-.54-.79-1.84 0-1.3.76a8.9 8.9 0 0 0 8.85 3.82c.96-.14.55-1.59-.39-1.44z" fill="#fff"/><path d="m174.31 121.77a19.59 19.59 0 0 0 -6.7.32c-.94.21-.54 1.65.4 1.45a18.41 18.41 0 0 1 6.3-.27c.96.12.95-1.38 0-1.5z" fill="#fff"/><path d="m146.55 161.6-2 11.25c-.17.94 1.28 1.35 1.45.4l2-11.25c.17-.94-1.28-1.35-1.45-.4z" fill="#fff"/><path d="m162.53 217.3-1.53 11.25c-.13 1 1.37.94 1.5 0l1.5-11.25c.16-.95-1.34-.94-1.47 0z" fill="#fff"/></svg>