<svg enable-background="new 0 0 416 416" viewBox="0 0 416 416" xmlns="http://www.w3.org/2000/svg"><path d="m59.8 225.6-.8-8.8c-.8-18.4-1.6-36.8-.8-55.2v-9.6l11.2 2.4 6.4 1.6v29.6c0 7.2 6.4 13.6 13.6 13.6s13.6-6.4 13.6-13.6v-25.6h8 6.4c15.2 0 30.4-1.6 44.8-4.8l4.8-.8 10.4-1.6v9.6c.8 18.4.8 36.8 0 54.4l-.8 8.8h-8z" fill="#fff"/><path d="m177.4 162.4v-10.4l-9.6 2.4-4.8.8c-4 .8-8.8 1.6-13.6 2.4v4c.8 18.4.8 36.8 0 54.4l-.8 8.8h-7.2 27.2 7.2l.8-8.8c1.6-17.6 1.6-36 .8-53.6z" fill="#f7eeba"/><path d="m114.2 406.4c-12.8.8-25.6-.8-38.4-4.8l-8-2.4 3.2-8c2.4-5.6 4-10.4 4.8-16l2.4-7.2 7.2 1.6c11.2 2.4 21.6 4 32.8 4 10.4 0 20-1.6 30.4-4l8-1.6 2.4 8c1.6 5.6 3.2 10.4 4.8 16l3.2 8-8 2.4c-12 3.2-24.8 4.8-38.4 4.8z" fill="#fbcf4c"/><path d="m163.8 391.2c-2.4-5.6-4-10.4-4.8-16l-2.4-8-8 1.6c-8 2.4-16 3.2-24.8 3.2l1.6 5.6c1.6 5.6 3.2 10.4 4.8 16l3.2 8-8 2.4-4.8 1.6c12.8 0 25.6-.8 37.6-4.8l8-2.4z" fill="#edb248"/><path d="m89.4 199.2c-7.2 0-13.6-6.4-13.6-13.6v-29.6l-8-1.6-6.4-1.6v-18.4-.8c2.4-8 10.4-13.6 19.2-11.2 5.6 1.6 10.4 6.4 11.2 12h1.6c-.8-2.4-.8-4.8-.8-7.2 0-13.6 10.4-24 23.2-24.8 13.6 0 24 10.4 24.8 23.2 0 3.2-.8 6.4-1.6 8.8h1.6c.8-10.4 10.4-17.6 20-16.8 10.4.8 17.6 10.4 16.8 20s-8.8 16.8-18.4 16.8l-.8.8h-.8c-12.8 2.4-26.4 4-39.2 4-4.8 0-9.6 0-14.4-.8v25.6c-.8 8.8-6.4 15.2-14.4 15.2z" fill="#fff"/><path d="m159 118.4c-4.8 0-9.6 1.6-12.8 4.8 7.2 7.2 8 19.2.8 26.4-3.2 4-8.8 6.4-13.6 6.4l-.8.8h-.8c-8.8 1.6-17.6 3.2-27.2 3.2 4.8 0 8.8.8 12.8.8 13.6 0 26.4-1.6 39.2-4h.8l.8-.8c10.4 0 18.4-8 18.4-18.4s-7.2-19.2-17.6-19.2z" fill="#f7eeba"/><path d="m119 372.8c-11.2 0-23.2-1.6-33.6-4l-7.2-1.6.8-7.2c3.2-32-6.4-76.8-14.4-108.8-1.6-5.6-2.4-11.2-3.2-16l-2.4-9.6h116l-2.4 9.6c-.8 4.8-2.4 10.4-3.2 16-7.2 32-17.6 76.8-14.4 108.8l.8 6.4-6.4 1.6c-8.8 3.2-20 4.8-30.4 4.8z" fill="#f4a23f"/><path d="m146.2 225.6-2.4 9.6c-.8 4.8-2.4 10.4-3.2 16-7.2 32-17.6 76.8-14.4 108.8l.8 6.4-6.4 2.4c-5.6 1.6-10.4 2.4-16 3.2 4.8.8 10.4.8 15.2.8 10.4 0 20.8-1.6 31.2-4l6.4-1.6-.8-7.2c-3.2-32 6.4-76.8 14.4-109.6 1.6-5.6 2.4-11.2 3.2-16l2.4-9.6z" fill="#e28539"/><path d="m246.2 408c-21.6 0-33.6-12-33.6-32.8v-112.8h33.6l.8 6.4c3.2 21.6 24 36 45.6 32.8 16.8-2.4 29.6-16 32.8-32.8l.8-6.4h33.6v112.8c0 20.8-12 32.8-33.6 32.8z" fill="#fbcf4c"/><circle cx="286.2" cy="262.4" fill="#f4a23f" r="39.2"/><path d="m286.2 222.4c-4.8 0-8.8.8-13.6 2.4 20.8 7.2 31.2 29.6 24 50.4-4 11.2-12.8 20-24 24 4 1.6 8.8 2.4 13.6 2.4 21.6 0 39.2-17.6 39.2-39.2 0-22.4-17.6-40-39.2-40z" fill="#e28539"/><path d="m326.2 262.4-.8-6.4c-3.2-21.6-24-36-45.6-32.8-16.8 2.4-29.6 16-32.8 32.8l-.8 6.4h-33.6v-74.4l36.8-67.2 4.8-59.2h64l4.8 59.2 36.8 67.2v74.4z" fill="#fbcf4c"/><path d="m254.2 61.6 4-53.6h55.2l4.8 53.6z" fill="#f4a23f"/><path d="m333.4 262.4v112.8c0 20.8-12.8 32.8-33.6 32.8h26.4c21.6 0 33.6-12 33.6-32.8v-112.8z" fill="#edb248"/><path d="m323 120.8-4.8-59.2h-26.4l4.8 59.2 36.8 67.2v74.4h26.4v-74.4z" fill="#edb248"/><path d="m313.4 8h-26.4l4.8 53.6h26.4z" fill="#e28539"/><g fill="#4a2328"><path d="m159 110.4c-4.8 0-9.6 1.6-13.6 4-7.2-16-26.4-23.2-42.4-16-8 3.2-13.6 9.6-16.8 17.6-12-5.6-25.6 0-31.2 12-.8 1.6-1.6 4-1.6 5.6v1.6 11.2c-1.6 1.6-3.2 4-3.2 6.4-1.6 21.6-1.6 44 0 65.6 1.6 12 4 24 7.2 35.2 8 34.4 19.2 85.6 12.8 116-1.6 8.8-4.8 16.8-8.8 24.8-2.4 3.2-1.6 7.2 1.6 10.4 1.6 1.6 13.6 10.4 51.2 10.4h7.2c37.6 0 49.6-8.8 51.2-10.4 3.2-2.4 3.2-7.2 1.6-10.4-4-8-6.4-16-8.8-24.8-6.4-30.4 4.8-81.6 12.8-116 3.2-12 5.6-23.2 7.2-35.2 1.6-21.6 1.6-44 0-65.6 0-1.6-.8-2.4-1.6-4 5.6-13.6 0-28.8-13.6-35.2-3.2-2.4-7.2-3.2-11.2-3.2zm-37.6 288h-7.2c-12 .8-24-.8-35.2-4 2.4-5.6 4-11.2 5.6-17.6 11.2 2.4 23.2 4 34.4 4 10.4 0 21.6-1.6 32-4 1.6 5.6 3.2 11.2 5.6 16.8-11.2 4-23.2 4.8-35.2 4.8zm40.8-148.8c-8 33.6-17.6 78.4-14.4 112-20 4.8-40.8 4.8-60.8 0 3.2-33.6-6.4-78.4-14.4-112-1.6-5.6-2.4-11.2-3.2-16h96.8c-1.6 4.8-2.4 10.4-4 16zm7.2-33.6v1.6h-102.4c0-.8 0-.8 0-1.6-.8-17.6-.8-36-.8-53.6h1.6v23.2c0 12 9.6 21.6 21.6 21.6s21.6-9.6 21.6-21.6v-16.8h6.4c16 0 31.2-1.6 46.4-5.6l4.8-.8c1.6 17.6 1.6 36 .8 53.6zm-5.6-68.8c-1.6.8-5.6.8-7.2 1.6-12.8 2.4-25.6 4-38.4 4-4 0-8.8 0-13.6-.8-2.4 0-4.8.8-6.4 2.4s-2.4 4-2.4 5.6v25.6c0 3.2-2.4 5.6-5.6 5.6s-5.6-2.4-5.6-5.6v-29.6c0-4-2.4-7.2-6.4-8l-8-1.6v-11.2c.8-3.2 4-5.6 7.2-5.6s6.4 2.4 7.2 6.4 4 6.4 8 6.4h1.6c2.4 0 4.8-.8 6.4-3.2s2.4-4.8 1.6-7.2c-2.4-8 1.6-17.6 10.4-20 8-2.4 17.6 1.6 20 10.4.8 3.2.8 7.2 0 11.2-1.6 4 .8 8.8 4.8 10.4.8 0 1.6.8 2.4.8h1.6c4 0 8-3.2 8-7.2.8-5.6 4.8-9.6 10.4-9.6s10.4 4.8 10.4 10.4c0 3.2-3.2 7.2-6.4 8.8z"/><path d="m331 119.2-8.8-103.2h.8c4.8 0 8-3.2 8-8s-3.2-8-8-8h-73.6c-4.8 0-8 3.2-8 8s3.2 8 8 8h.8l-8 103.2-36.8 64.8c-.8.8-.8 2.4-.8 4v187.2c0 25.6 16 40.8 41.6 40.8h79.2c26.4 0 41.6-15.2 41.6-40.8v-187.2c0-1.6 0-2.4-.8-4zm-64.8-103.2h40l3.2 37.6h-46.4zm85.6 359.2c0 16.8-8.8 24.8-25.6 24.8h-79.2c-17.6 0-25.6-8-25.6-24.8v-104.8h18.4c4 25.6 28.8 43.2 54.4 39.2 20-3.2 36-19.2 39.2-39.2h18.4zm-96.8-112.8c0-17.6 14.4-31.2 31.2-31.2s31.2 14.4 31.2 31.2-14.4 31.2-31.2 31.2c-17.6 0-31.2-13.6-31.2-31.2zm96.8-8h-18.4c-4-25.6-28.8-43.2-54.4-39.2-20 3.2-36 19.2-39.2 39.2h-18.4v-64l36-64.8c.8-.8.8-2.4.8-3.2l4-52h49.6l4 52c0 .8.8 2.4.8 3.2l36 64.8z"/></g></svg>